<?xml version="1.0" standalone="no"?>
<!DOCTYPE svg PUBLIC "-//W3C//DTD SVG 1.1//EN" "http://www.w3.org/Graphics/SVG/1.1/DTD/svg11.dtd">
<svg width="176mm" height="369mm" viewBox="0 -369 176 369" xmlns="http://www.w3.org/2000/svg" version="1.1">
<title>OpenSCAD Model</title>
<path d="
M 144.874,-284.284 L 145.546,-284.412 L 146.197,-284.624 L 146.816,-284.915 L 147.394,-285.282 L 147.922,-285.718
 L 148.39,-286.217 L 148.792,-286.771 L 149.122,-287.37 L 149.374,-288.007 L 149.544,-288.67 L 149.63,-289.349
 L 149.63,-290.033 L 149.544,-290.712 L 149.374,-291.375 L 149.122,-292.011 L 148.792,-292.611 L 148.39,-293.165
 L 147.922,-293.664 L 147.394,-294.1 L 146.816,-294.467 L 146.2,-294.757 L 146.2,-305.87 L 143.5,-305.87
 L 143.5,-311.07 L 146.2,-311.07 L 146.2,-316.67 L 143.5,-316.67 L 143.5,-321.87 L 146.2,-321.87
 L 146.2,-327.47 L 143.5,-327.47 L 143.5,-332.67 L 146.2,-332.67 L 146.2,-337.57 L 160.099,-337.695
 L 160.195,-337.774 L 162.259,-347.559 L 162.202,-347.671 L 146.2,-354.906 L 146.2,-359.87 L 143.5,-359.87
 L 143.5,-368.441 L 91.3,-368.441 L 91.3,-358.141 L 88.6,-358.141 L 88.6,-352.541 L 91.3,-352.541
 L 91.3,-347.341 L 88.6,-347.341 L 88.6,-341.741 L 91.3,-341.741 L 91.3,-336.541 L 88.6,-336.541
 L 88.6,-330.941 L 91.3,-330.941 L 91.3,-325.741 L 88.6,-325.741 L 88.6,-320.141 L 91.3,-320.141
 L 91.3,-314.941 L 88.6,-314.941 L 88.6,-309.341 L 91.3,-309.341 L 91.3,-304.141 L 88.6,-304.141
 L 88.6,-298.541 L 91.3,-298.541 L 91.3,-288.241 L 138.947,-288.241 L 139.008,-288.007 L 139.26,-287.37
 L 139.589,-286.771 L 139.992,-286.217 L 140.46,-285.718 L 140.987,-285.282 L 141.565,-284.915 L 142.185,-284.624
 L 142.835,-284.412 L 143.508,-284.284 L 144.191,-284.241 z
M 113.45,-357.441 L 113.45,-360.141 L 121.35,-360.141 L 121.35,-357.441 z
M 143.945,-287.747 L 143.704,-287.793 L 143.47,-287.869 L 143.247,-287.974 L 143.039,-288.106 L 142.85,-288.263
 L 142.681,-288.442 L 142.537,-288.641 L 142.418,-288.857 L 142.328,-289.085 L 142.266,-289.324 L 142.235,-289.568
 L 142.235,-289.814 L 142.266,-290.058 L 142.328,-290.296 L 142.418,-290.525 L 142.537,-290.741 L 142.681,-290.94
 L 142.85,-291.119 L 143.039,-291.276 L 143.247,-291.408 L 143.47,-291.512 L 143.704,-291.588 L 143.945,-291.635
 L 144.191,-291.65 L 144.436,-291.635 L 144.678,-291.588 L 144.912,-291.512 L 145.135,-291.408 L 145.342,-291.276
 L 145.532,-291.119 L 145.7,-290.94 L 145.845,-290.741 L 145.964,-290.525 L 146.054,-290.296 L 146.115,-290.058
 L 146.146,-289.814 L 146.146,-289.568 L 146.115,-289.324 L 146.054,-289.085 L 145.964,-288.857 L 145.845,-288.641
 L 145.7,-288.442 L 145.532,-288.263 L 145.342,-288.106 L 145.135,-287.974 L 144.912,-287.869 L 144.678,-287.793
 L 144.436,-287.747 L 144.191,-287.732 z
M 31.8922,-284.284 L 32.5645,-284.412 L 33.2154,-284.624 L 33.8347,-284.915 L 34.4126,-285.282 L 34.9399,-285.718
 L 35.4085,-286.217 L 35.8107,-286.771 L 36.1405,-287.37 L 36.3924,-288.007 L 36.4525,-288.241 L 84.1,-288.241
 L 84.1,-298.541 L 86.8,-298.541 L 86.8,-304.141 L 84.1,-304.141 L 84.1,-309.341 L 86.8,-309.341
 L 86.8,-314.941 L 84.1,-314.941 L 84.1,-320.141 L 86.8,-320.141 L 86.8,-325.741 L 84.1,-325.741
 L 84.1,-330.941 L 86.8,-330.941 L 86.8,-336.541 L 84.1,-336.541 L 84.1,-341.741 L 86.8,-341.741
 L 86.8,-347.341 L 84.1,-347.341 L 84.1,-352.541 L 86.8,-352.541 L 86.8,-358.141 L 84.1,-358.141
 L 84.1,-368.441 L 31.9,-368.441 L 31.9,-359.87 L 29.2,-359.87 L 29.2,-354.906 L 13.1975,-347.671
 L 13.1408,-347.559 L 15.2045,-337.774 L 15.3015,-337.695 L 29.2,-337.57 L 29.2,-332.67 L 31.9,-332.67
 L 31.9,-327.47 L 29.2,-327.47 L 29.2,-321.87 L 31.9,-321.87 L 31.9,-316.67 L 29.2,-316.67
 L 29.2,-311.07 L 31.9,-311.07 L 31.9,-305.87 L 29.2,-305.87 L 29.2,-294.757 L 28.5836,-294.467
 L 28.0058,-294.1 L 27.4784,-293.664 L 27.0099,-293.165 L 26.6076,-292.611 L 26.2779,-292.011 L 26.0259,-291.375
 L 25.8557,-290.712 L 25.7699,-290.033 L 25.7699,-289.349 L 25.8557,-288.67 L 26.0259,-288.007 L 26.2779,-287.37
 L 26.6076,-286.771 L 27.0099,-286.217 L 27.4784,-285.718 L 28.0058,-285.282 L 28.5836,-284.915 L 29.2029,-284.624
 L 29.8538,-284.412 L 30.5261,-284.284 L 31.2092,-284.241 z
M 54.05,-357.441 L 54.05,-360.141 L 61.95,-360.141 L 61.95,-357.441 z
M 30.9636,-287.747 L 30.7219,-287.793 L 30.4879,-287.869 L 30.2653,-287.974 L 30.0576,-288.106 L 29.868,-288.263
 L 29.6996,-288.442 L 29.555,-288.641 L 29.4364,-288.857 L 29.3459,-289.085 L 29.2847,-289.324 L 29.2539,-289.568
 L 29.2539,-289.814 L 29.2847,-290.058 L 29.3459,-290.296 L 29.4364,-290.525 L 29.555,-290.741 L 29.6996,-290.94
 L 29.868,-291.119 L 30.0576,-291.276 L 30.2653,-291.408 L 30.4879,-291.512 L 30.7219,-291.588 L 30.9636,-291.635
 L 31.2092,-291.65 L 31.4547,-291.635 L 31.6964,-291.588 L 31.9304,-291.512 L 32.153,-291.408 L 32.3607,-291.276
 L 32.5503,-291.119 L 32.7187,-290.94 L 32.8634,-290.741 L 32.9819,-290.525 L 33.0725,-290.296 L 33.1337,-290.058
 L 33.1645,-289.814 L 33.1645,-289.568 L 33.1337,-289.324 L 33.0725,-289.085 L 32.9819,-288.857 L 32.8634,-288.641
 L 32.7187,-288.442 L 32.5503,-288.263 L 32.3607,-288.106 L 32.153,-287.974 L 31.9304,-287.869 L 31.6964,-287.793
 L 31.4547,-287.747 L 31.2092,-287.732 z
M 172.9,-277.241 L 172.9,-282.857 L 175.6,-282.857 L 175.6,-291.157 L 172.9,-291.157 L 172.9,-321.524
 L 175.6,-321.524 L 175.6,-329.824 L 172.9,-329.824 L 172.9,-335.441 L 153.5,-335.441 L 153.5,-277.241
 z
M 22.1,-335.441 L 2.69998,-335.441 L 2.69998,-329.824 L 0,-329.824 L 0,-321.524 L 2.69998,-321.524
 L 2.69998,-291.157 L 0,-291.157 L 0,-282.857 L 2.69998,-282.857 L 2.69998,-277.241 L 22.1,-277.241
 z
M 83.65,-222.541 L 83.65,-219.841 L 91.95,-219.841 L 91.95,-222.541 L 149.425,-222.541 L 149.425,-219.841
 L 157.725,-219.841 L 157.725,-222.541 L 172.9,-222.541 L 172.9,-244.441 L 175.6,-244.441 L 175.6,-252.591
 L 172.9,-252.591 L 172.9,-274.741 L 2.69998,-274.741 L 2.69998,-252.591 L 0,-252.591 L 0,-244.441
 L 2.69998,-244.441 L 2.69998,-222.541 L 17.775,-222.541 L 17.775,-219.841 L 26.175,-219.841 L 26.175,-222.541
 z
M 6.89998,-242.741 L 6.89998,-256.741 L 158.9,-256.741 L 158.9,-242.741 z
M 175.6,-150.07 L 172.9,-150.07 L 172.9,-176.87 L 175.6,-176.87 L 175.6,-182.47 L 172.9,-182.47
 L 172.9,-187.67 L 175.6,-187.67 L 175.6,-193.27 L 172.9,-193.27 L 172.9,-198.47 L 175.6,-198.47
 L 175.6,-204.07 L 172.9,-204.07 L 172.9,-218.041 L 2.69998,-218.041 L 2.69998,-204.07 L 0,-204.07
 L 0,-198.47 L 2.69998,-198.47 L 2.69998,-193.27 L 0,-193.27 L 0,-187.67 L 2.69998,-187.67
 L 2.69998,-182.47 L 0,-182.47 L 0,-176.87 L 2.69998,-176.87 L 2.69998,-150.07 L 0,-150.07
 L 0,-141.3 L 175.6,-141.3 z
M 164.706,-210.444 L 164.519,-210.467 L 164.336,-210.514 L 164.161,-210.584 L 163.996,-210.674 L 163.844,-210.785
 L 163.707,-210.914 L 163.586,-211.059 L 163.486,-211.218 L 163.405,-211.389 L 163.347,-211.568 L 163.312,-211.753
 L 163.3,-211.941 L 163.312,-212.129 L 163.347,-212.314 L 163.405,-212.493 L 163.486,-212.663 L 163.586,-212.822
 L 163.707,-212.968 L 163.844,-213.097 L 163.996,-213.207 L 164.161,-213.298 L 164.336,-213.367 L 164.519,-213.414
 L 164.706,-213.438 L 164.894,-213.438 L 165.081,-213.414 L 165.263,-213.367 L 165.439,-213.298 L 165.604,-213.207
 L 165.756,-213.097 L 165.893,-212.968 L 166.013,-212.822 L 166.114,-212.663 L 166.195,-212.493 L 166.253,-212.314
 L 166.288,-212.129 L 166.3,-211.941 L 166.288,-211.753 L 166.253,-211.568 L 166.195,-211.389 L 166.114,-211.218
 L 166.013,-211.059 L 165.893,-210.914 L 165.756,-210.785 L 165.604,-210.674 L 165.439,-210.584 L 165.263,-210.514
 L 165.081,-210.467 L 164.894,-210.444 z
M 125.336,-210.444 L 125.149,-210.467 L 124.966,-210.514 L 124.791,-210.584 L 124.626,-210.674 L 124.474,-210.785
 L 124.337,-210.914 L 124.216,-211.059 L 124.116,-211.218 L 124.035,-211.389 L 123.977,-211.568 L 123.942,-211.753
 L 123.93,-211.941 L 123.942,-212.129 L 123.977,-212.314 L 124.035,-212.493 L 124.116,-212.663 L 124.216,-212.822
 L 124.337,-212.968 L 124.474,-213.097 L 124.626,-213.207 L 124.791,-213.298 L 124.966,-213.367 L 125.149,-213.414
 L 125.336,-213.438 L 125.524,-213.438 L 125.711,-213.414 L 125.893,-213.367 L 126.069,-213.298 L 126.234,-213.207
 L 126.386,-213.097 L 126.523,-212.968 L 126.643,-212.822 L 126.744,-212.663 L 126.825,-212.493 L 126.883,-212.314
 L 126.918,-212.129 L 126.93,-211.941 L 126.918,-211.753 L 126.883,-211.568 L 126.825,-211.389 L 126.744,-211.218
 L 126.643,-211.059 L 126.523,-210.914 L 126.386,-210.785 L 126.234,-210.674 L 126.069,-210.584 L 125.893,-210.514
 L 125.711,-210.467 L 125.524,-210.444 z
M 20.2,-204.583 L 20.2,-212.483 L 22.7,-212.483 L 22.7,-204.583 z
M 85.9,-204.583 L 85.9,-212.483 L 88.4,-212.483 L 88.4,-204.583 z
M 164.706,-171.074 L 164.519,-171.097 L 164.336,-171.144 L 164.161,-171.214 L 163.996,-171.304 L 163.844,-171.415
 L 163.707,-171.544 L 163.586,-171.689 L 163.486,-171.848 L 163.405,-172.019 L 163.347,-172.198 L 163.312,-172.383
 L 163.3,-172.571 L 163.312,-172.759 L 163.347,-172.944 L 163.405,-173.123 L 163.486,-173.293 L 163.586,-173.452
 L 163.707,-173.598 L 163.844,-173.727 L 163.996,-173.837 L 164.161,-173.928 L 164.336,-173.997 L 164.519,-174.044
 L 164.706,-174.068 L 164.894,-174.068 L 165.081,-174.044 L 165.263,-173.997 L 165.439,-173.928 L 165.604,-173.837
 L 165.756,-173.727 L 165.893,-173.598 L 166.013,-173.452 L 166.114,-173.293 L 166.195,-173.123 L 166.253,-172.944
 L 166.288,-172.759 L 166.3,-172.571 L 166.288,-172.383 L 166.253,-172.198 L 166.195,-172.019 L 166.114,-171.848
 L 166.013,-171.689 L 165.893,-171.544 L 165.756,-171.415 L 165.604,-171.304 L 165.439,-171.214 L 165.263,-171.144
 L 165.081,-171.097 L 164.894,-171.074 z
M 125.336,-171.074 L 125.149,-171.097 L 124.966,-171.144 L 124.791,-171.214 L 124.626,-171.304 L 124.474,-171.415
 L 124.337,-171.544 L 124.216,-171.689 L 124.116,-171.848 L 124.035,-172.019 L 123.977,-172.198 L 123.942,-172.383
 L 123.93,-172.571 L 123.942,-172.759 L 123.977,-172.944 L 124.035,-173.123 L 124.116,-173.293 L 124.216,-173.452
 L 124.337,-173.598 L 124.474,-173.727 L 124.626,-173.837 L 124.791,-173.928 L 124.966,-173.997 L 125.149,-174.044
 L 125.336,-174.068 L 125.524,-174.068 L 125.711,-174.044 L 125.893,-173.997 L 126.069,-173.928 L 126.234,-173.837
 L 126.386,-173.727 L 126.523,-173.598 L 126.643,-173.452 L 126.744,-173.293 L 126.825,-173.123 L 126.883,-172.944
 L 126.918,-172.759 L 126.93,-172.571 L 126.918,-172.383 L 126.883,-172.198 L 126.825,-172.019 L 126.744,-171.848
 L 126.643,-171.689 L 126.523,-171.544 L 126.386,-171.415 L 126.234,-171.304 L 126.069,-171.214 L 125.893,-171.144
 L 125.711,-171.097 L 125.524,-171.074 z
M 85.9,-165.917 L 85.9,-173.817 L 88.4,-173.817 L 88.4,-165.917 z
M 20.2,-165.917 L 20.2,-173.817 L 22.7,-173.817 L 22.7,-165.917 z
M 83.85,-149.6 L 83.85,-152.1 L 91.75,-152.1 L 91.75,-149.6 z
M 149.625,-149.6 L 149.625,-152.1 L 157.525,-152.1 L 157.525,-149.6 z
M 18.075,-149.6 L 18.075,-152.1 L 25.975,-152.1 L 25.975,-149.6 z
M 175.6,-69.8 L 172.9,-69.8 L 172.9,-75 L 175.6,-75 L 175.6,-80.6 L 172.9,-80.6
 L 172.9,-85.8 L 175.6,-85.8 L 175.6,-91.4 L 172.9,-91.4 L 172.9,-96.6 L 175.6,-96.6
 L 175.6,-102.2 L 172.9,-102.2 L 172.9,-107.4 L 175.6,-107.4 L 175.6,-113 L 172.9,-113
 L 172.9,-118.2 L 175.6,-118.2 L 175.6,-123.8 L 172.9,-123.8 L 172.9,-129 L 175.6,-129
 L 175.6,-139.5 L 97.7,-139.5 L 97.7,-132.8 L 77.9,-132.8 L 77.9,-139.5 L 0,-139.5
 L 0,-129 L 2.69998,-129 L 2.69998,-123.8 L 0,-123.8 L 0,-118.2 L 2.69998,-118.2
 L 2.69998,-113 L 0,-113 L 0,-107.4 L 2.69998,-107.4 L 2.69998,-102.2 L 0,-102.2
 L 0,-96.6 L 2.69998,-96.6 L 2.69998,-91.4 L 0,-91.4 L 0,-85.8 L 2.69998,-85.8
 L 2.69998,-80.6 L 0,-80.6 L 0,-75 L 2.69998,-75 L 2.69998,-69.8 L 0,-69.8
 L 0,-59.3 L 175.6,-59.3 z
M 82.579,-114.4 L 82.8866,-114.522 L 83.5806,-114.7 L 92.0193,-114.7 L 92.7133,-114.522 L 93.021,-114.4
 z
M 77.3975,-111.4 L 77.6649,-111.651 L 77.7321,-111.7 L 97.8678,-111.7 L 97.935,-111.651 L 98.2025,-111.4
 z
M 74.7172,-108.4 L 74.9076,-108.7 L 100.692,-108.7 L 100.883,-108.4 z
M 73.0856,-105.4 L 73.2268,-105.7 L 102.373,-105.7 L 102.514,-105.4 z
M 72.2175,-102.4 L 72.2747,-102.7 L 103.325,-102.7 L 103.382,-102.4 z
M 71.9,-99.4 L 71.9189,-99.7 L 103.6,-99.7 L 103.6,-99.4 z
M 72.2175,-96.4 L 72.1603,-96.7 L 103.44,-96.7 L 103.382,-96.4 z
M 73.0856,-93.4 L 73.0166,-93.5468 L 72.9668,-93.7 L 102.633,-93.7 L 102.583,-93.5468 L 102.514,-93.4
 z
M 74.7172,-90.4 L 74.5268,-90.7 L 101.073,-90.7 L 100.883,-90.4 z
M 77.3975,-87.4 L 77.078,-87.7 L 98.522,-87.7 L 98.2025,-87.4 z
M 82.579,-84.4 L 81.8213,-84.7 L 93.7787,-84.7 L 93.021,-84.4 z
M 175.6,-2.89998 L 172.9,-2.89998 L 172.9,-54.225 L 97.9,-54.225 L 97.9,-57.6 L 77.8,-57.6
 L 77.8,-54.225 L 2.69998,-54.225 L 2.69998,-2.89998 L 0,-2.89998 L 0,-0 L 175.6,-0
 z
" stroke="blue" fill="none" stroke-width="0.01"/>
</svg>
