<?xml version="1.0" standalone="no"?>
<!DOCTYPE svg PUBLIC "-//W3C//DTD SVG 1.1//EN" "http://www.w3.org/Graphics/SVG/1.1/DTD/svg11.dtd">
<svg width="176mm" height="385mm" viewBox="0 -385 176 385" xmlns="http://www.w3.org/2000/svg" version="1.1">
<title>OpenSCAD Model</title>
<path d="
M 74.9,-374.641 L 72.2,-374.641 L 72.2,-379.841 L 74.9,-379.841 L 74.9,-384.241 L 6.79999,-384.241
 L 6.79999,-379.841 L 9.49998,-379.841 L 9.49998,-374.641 L 6.79999,-374.641 L 6.79999,-370.241 L 74.9,-370.241
 z
M 144.874,-284.284 L 145.546,-284.412 L 146.197,-284.624 L 146.816,-284.915 L 147.394,-285.282 L 147.922,-285.718
 L 148.39,-286.217 L 148.792,-286.771 L 149.122,-287.37 L 149.374,-288.007 L 149.544,-288.67 L 149.63,-289.349
 L 149.63,-290.033 L 149.544,-290.712 L 149.374,-291.375 L 149.122,-292.011 L 148.792,-292.611 L 148.39,-293.165
 L 147.922,-293.664 L 147.394,-294.1 L 146.816,-294.467 L 146.2,-294.757 L 146.2,-305.87 L 143.5,-305.87
 L 143.5,-311.07 L 146.2,-311.07 L 146.2,-316.67 L 143.5,-316.67 L 143.5,-321.87 L 146.2,-321.87
 L 146.2,-327.47 L 143.5,-327.47 L 143.5,-332.67 L 146.2,-332.67 L 146.2,-337.57 L 160.099,-337.695
 L 160.195,-337.774 L 162.259,-347.559 L 162.202,-347.671 L 146.2,-354.906 L 146.2,-359.87 L 143.5,-359.87
 L 143.5,-368.441 L 91.3,-368.441 L 91.3,-358.141 L 88.6,-358.141 L 88.6,-352.541 L 91.3,-352.541
 L 91.3,-347.341 L 88.6,-347.341 L 88.6,-341.741 L 91.3,-341.741 L 91.3,-336.541 L 88.6,-336.541
 L 88.6,-330.941 L 91.3,-330.941 L 91.3,-325.741 L 88.6,-325.741 L 88.6,-320.141 L 91.3,-320.141
 L 91.3,-314.941 L 88.6,-314.941 L 88.6,-309.341 L 91.3,-309.341 L 91.3,-304.141 L 88.6,-304.141
 L 88.6,-298.541 L 91.3,-298.541 L 91.3,-288.241 L 138.947,-288.241 L 139.008,-288.007 L 139.26,-287.37
 L 139.589,-286.771 L 139.992,-286.217 L 140.46,-285.718 L 140.987,-285.282 L 141.565,-284.915 L 142.185,-284.624
 L 142.835,-284.412 L 143.508,-284.284 L 144.191,-284.241 z
M 113.45,-357.441 L 113.45,-360.141 L 121.35,-360.141 L 121.35,-357.441 z
M 143.945,-287.747 L 143.704,-287.793 L 143.47,-287.869 L 143.247,-287.974 L 143.039,-288.106 L 142.85,-288.263
 L 142.681,-288.442 L 142.537,-288.641 L 142.418,-288.857 L 142.328,-289.085 L 142.266,-289.324 L 142.235,-289.568
 L 142.235,-289.814 L 142.266,-290.058 L 142.328,-290.296 L 142.418,-290.525 L 142.537,-290.741 L 142.681,-290.94
 L 142.85,-291.119 L 143.039,-291.276 L 143.247,-291.408 L 143.47,-291.512 L 143.704,-291.588 L 143.945,-291.635
 L 144.191,-291.65 L 144.436,-291.635 L 144.678,-291.588 L 144.912,-291.512 L 145.135,-291.408 L 145.342,-291.276
 L 145.532,-291.119 L 145.7,-290.94 L 145.845,-290.741 L 145.964,-290.525 L 146.054,-290.296 L 146.115,-290.058
 L 146.146,-289.814 L 146.146,-289.568 L 146.115,-289.324 L 146.054,-289.085 L 145.964,-288.857 L 145.845,-288.641
 L 145.7,-288.442 L 145.532,-288.263 L 145.342,-288.106 L 145.135,-287.974 L 144.912,-287.869 L 144.678,-287.793
 L 144.436,-287.747 L 144.191,-287.732 z
M 31.8922,-284.284 L 32.5645,-284.412 L 33.2154,-284.624 L 33.8347,-284.915 L 34.4126,-285.282 L 34.9399,-285.718
 L 35.4085,-286.217 L 35.8107,-286.771 L 36.1405,-287.37 L 36.3924,-288.007 L 36.4525,-288.241 L 84.1,-288.241
 L 84.1,-298.541 L 86.8,-298.541 L 86.8,-304.141 L 84.1,-304.141 L 84.1,-309.341 L 86.8,-309.341
 L 86.8,-314.941 L 84.1,-314.941 L 84.1,-320.141 L 86.8,-320.141 L 86.8,-325.741 L 84.1,-325.741
 L 84.1,-330.941 L 86.8,-330.941 L 86.8,-336.541 L 84.1,-336.541 L 84.1,-341.741 L 86.8,-341.741
 L 86.8,-347.341 L 84.1,-347.341 L 84.1,-352.541 L 86.8,-352.541 L 86.8,-358.141 L 84.1,-358.141
 L 84.1,-368.441 L 31.9,-368.441 L 31.9,-359.87 L 29.2,-359.87 L 29.2,-354.906 L 13.1975,-347.671
 L 13.1408,-347.559 L 15.2045,-337.774 L 15.3015,-337.695 L 29.2,-337.57 L 29.2,-332.67 L 31.9,-332.67
 L 31.9,-327.47 L 29.2,-327.47 L 29.2,-321.87 L 31.9,-321.87 L 31.9,-316.67 L 29.2,-316.67
 L 29.2,-311.07 L 31.9,-311.07 L 31.9,-305.87 L 29.2,-305.87 L 29.2,-294.757 L 28.5836,-294.467
 L 28.0058,-294.1 L 27.4784,-293.664 L 27.0099,-293.165 L 26.6076,-292.611 L 26.2779,-292.011 L 26.0259,-291.375
 L 25.8557,-290.712 L 25.7699,-290.033 L 25.7699,-289.349 L 25.8557,-288.67 L 26.0259,-288.007 L 26.2779,-287.37
 L 26.6076,-286.771 L 27.0099,-286.217 L 27.4784,-285.718 L 28.0058,-285.282 L 28.5836,-284.915 L 29.2029,-284.624
 L 29.8538,-284.412 L 30.5261,-284.284 L 31.2092,-284.241 z
M 54.05,-357.441 L 54.05,-360.141 L 61.95,-360.141 L 61.95,-357.441 z
M 30.9636,-287.747 L 30.7219,-287.793 L 30.4879,-287.869 L 30.2653,-287.974 L 30.0576,-288.106 L 29.868,-288.263
 L 29.6996,-288.442 L 29.555,-288.641 L 29.4364,-288.857 L 29.3459,-289.085 L 29.2847,-289.324 L 29.2539,-289.568
 L 29.2539,-289.814 L 29.2847,-290.058 L 29.3459,-290.296 L 29.4364,-290.525 L 29.555,-290.741 L 29.6996,-290.94
 L 29.868,-291.119 L 30.0576,-291.276 L 30.2653,-291.408 L 30.4879,-291.512 L 30.7219,-291.588 L 30.9636,-291.635
 L 31.2092,-291.65 L 31.4547,-291.635 L 31.6964,-291.588 L 31.9304,-291.512 L 32.153,-291.408 L 32.3607,-291.276
 L 32.5503,-291.119 L 32.7187,-290.94 L 32.8634,-290.741 L 32.9819,-290.525 L 33.0725,-290.296 L 33.1337,-290.058
 L 33.1645,-289.814 L 33.1645,-289.568 L 33.1337,-289.324 L 33.0725,-289.085 L 32.9819,-288.857 L 32.8634,-288.641
 L 32.7187,-288.442 L 32.5503,-288.263 L 32.3607,-288.106 L 32.153,-287.974 L 31.9304,-287.869 L 31.6964,-287.793
 L 31.4547,-287.747 L 31.2092,-287.732 z
M 172.9,-277.241 L 172.9,-282.774 L 175.6,-282.774 L 175.6,-291.074 L 172.9,-291.074 L 172.9,-321.107
 L 175.6,-321.107 L 175.6,-329.407 L 172.9,-329.407 L 172.9,-334.941 L 153.5,-334.941 L 153.5,-312.891
 L 156.2,-312.891 L 156.2,-308.891 L 153.5,-308.891 L 153.5,-303.591 L 156.2,-303.591 L 156.2,-299.591
 L 153.5,-299.591 L 153.5,-277.241 z
M 22.1,-299.591 L 19.4,-299.591 L 19.4,-303.591 L 22.1,-303.591 L 22.1,-308.891 L 19.4,-308.891
 L 19.4,-312.891 L 22.1,-312.891 L 22.1,-334.941 L 2.69998,-334.941 L 2.69998,-329.407 L 0,-329.407
 L 0,-321.107 L 2.69998,-321.107 L 2.69998,-291.074 L 0,-291.074 L 0,-282.774 L 2.69998,-282.774
 L 2.69998,-277.241 L 22.1,-277.241 z
M 83.65,-222.541 L 83.65,-219.841 L 91.95,-219.841 L 91.95,-222.541 L 149.425,-222.541 L 149.425,-219.841
 L 157.725,-219.841 L 157.725,-222.541 L 172.9,-222.541 L 172.9,-244.441 L 175.6,-244.441 L 175.6,-252.591
 L 172.9,-252.591 L 172.9,-274.741 L 2.69998,-274.741 L 2.69998,-252.591 L 0,-252.591 L 0,-244.441
 L 2.69998,-244.441 L 2.69998,-222.541 L 17.775,-222.541 L 17.775,-219.841 L 26.175,-219.841 L 26.175,-222.541
 z
M 6.89998,-242.741 L 6.89998,-256.741 L 158.9,-256.741 L 158.9,-242.741 z
M 175.6,-150.07 L 172.9,-150.07 L 172.9,-176.87 L 175.6,-176.87 L 175.6,-182.47 L 172.9,-182.47
 L 172.9,-187.67 L 175.6,-187.67 L 175.6,-193.27 L 172.9,-193.27 L 172.9,-198.47 L 175.6,-198.47
 L 175.6,-204.07 L 172.9,-204.07 L 172.9,-218.041 L 2.69998,-218.041 L 2.69998,-204.07 L 0,-204.07
 L 0,-198.47 L 2.69998,-198.47 L 2.69998,-193.27 L 0,-193.27 L 0,-187.67 L 2.69998,-187.67
 L 2.69998,-182.47 L 0,-182.47 L 0,-176.87 L 2.69998,-176.87 L 2.69998,-150.07 L 0,-150.07
 L 0,-141.3 L 175.6,-141.3 z
M 85.4,-204.167 L 85.4,-212.067 L 87.9,-212.067 L 87.9,-204.167 z
M 20.2,-204.167 L 20.2,-212.067 L 22.7,-212.067 L 22.7,-204.167 z
M 125.336,-208.444 L 125.149,-208.467 L 124.966,-208.514 L 124.791,-208.584 L 124.626,-208.674 L 124.474,-208.785
 L 124.337,-208.914 L 124.216,-209.059 L 124.116,-209.218 L 124.035,-209.389 L 123.977,-209.568 L 123.942,-209.753
 L 123.93,-209.941 L 123.942,-210.129 L 123.977,-210.314 L 124.035,-210.493 L 124.116,-210.663 L 124.216,-210.822
 L 124.337,-210.968 L 124.474,-211.097 L 124.626,-211.207 L 124.791,-211.298 L 124.966,-211.367 L 125.149,-211.414
 L 125.336,-211.438 L 125.524,-211.438 L 125.711,-211.414 L 125.893,-211.367 L 126.069,-211.298 L 126.234,-211.207
 L 126.386,-211.097 L 126.523,-210.968 L 126.643,-210.822 L 126.744,-210.663 L 126.825,-210.493 L 126.883,-210.314
 L 126.918,-210.129 L 126.93,-209.941 L 126.918,-209.753 L 126.883,-209.568 L 126.825,-209.389 L 126.744,-209.218
 L 126.643,-209.059 L 126.523,-208.914 L 126.386,-208.785 L 126.234,-208.674 L 126.069,-208.584 L 125.893,-208.514
 L 125.711,-208.467 L 125.524,-208.444 z
M 164.706,-208.444 L 164.519,-208.467 L 164.336,-208.514 L 164.161,-208.584 L 163.996,-208.674 L 163.844,-208.785
 L 163.707,-208.914 L 163.586,-209.059 L 163.486,-209.218 L 163.405,-209.389 L 163.347,-209.568 L 163.312,-209.753
 L 163.3,-209.941 L 163.312,-210.129 L 163.347,-210.314 L 163.405,-210.493 L 163.486,-210.663 L 163.586,-210.822
 L 163.707,-210.968 L 163.844,-211.097 L 163.996,-211.207 L 164.161,-211.298 L 164.336,-211.367 L 164.519,-211.414
 L 164.706,-211.438 L 164.894,-211.438 L 165.081,-211.414 L 165.263,-211.367 L 165.439,-211.298 L 165.604,-211.207
 L 165.756,-211.097 L 165.893,-210.968 L 166.013,-210.822 L 166.114,-210.663 L 166.195,-210.493 L 166.253,-210.314
 L 166.288,-210.129 L 166.3,-209.941 L 166.288,-209.753 L 166.253,-209.568 L 166.195,-209.389 L 166.114,-209.218
 L 166.013,-209.059 L 165.893,-208.914 L 165.756,-208.785 L 165.604,-208.674 L 165.439,-208.584 L 165.263,-208.514
 L 165.081,-208.467 L 164.894,-208.444 z
M 85.4,-165.833 L 85.4,-173.733 L 87.9,-173.733 L 87.9,-165.833 z
M 20.2,-165.833 L 20.2,-173.733 L 22.7,-173.733 L 22.7,-165.833 z
M 125.336,-169.074 L 125.149,-169.097 L 124.966,-169.144 L 124.791,-169.214 L 124.626,-169.304 L 124.474,-169.415
 L 124.337,-169.544 L 124.216,-169.689 L 124.116,-169.848 L 124.035,-170.019 L 123.977,-170.198 L 123.942,-170.383
 L 123.93,-170.571 L 123.942,-170.759 L 123.977,-170.944 L 124.035,-171.123 L 124.116,-171.293 L 124.216,-171.452
 L 124.337,-171.598 L 124.474,-171.727 L 124.626,-171.837 L 124.791,-171.928 L 124.966,-171.997 L 125.149,-172.044
 L 125.336,-172.068 L 125.524,-172.068 L 125.711,-172.044 L 125.893,-171.997 L 126.069,-171.928 L 126.234,-171.837
 L 126.386,-171.727 L 126.523,-171.598 L 126.643,-171.452 L 126.744,-171.293 L 126.825,-171.123 L 126.883,-170.944
 L 126.918,-170.759 L 126.93,-170.571 L 126.918,-170.383 L 126.883,-170.198 L 126.825,-170.019 L 126.744,-169.848
 L 126.643,-169.689 L 126.523,-169.544 L 126.386,-169.415 L 126.234,-169.304 L 126.069,-169.214 L 125.893,-169.144
 L 125.711,-169.097 L 125.524,-169.074 z
M 164.706,-169.074 L 164.519,-169.097 L 164.336,-169.144 L 164.161,-169.214 L 163.996,-169.304 L 163.844,-169.415
 L 163.707,-169.544 L 163.586,-169.689 L 163.486,-169.848 L 163.405,-170.019 L 163.347,-170.198 L 163.312,-170.383
 L 163.3,-170.571 L 163.312,-170.759 L 163.347,-170.944 L 163.405,-171.123 L 163.486,-171.293 L 163.586,-171.452
 L 163.707,-171.598 L 163.844,-171.727 L 163.996,-171.837 L 164.161,-171.928 L 164.336,-171.997 L 164.519,-172.044
 L 164.706,-172.068 L 164.894,-172.068 L 165.081,-172.044 L 165.263,-171.997 L 165.439,-171.928 L 165.604,-171.837
 L 165.756,-171.727 L 165.893,-171.598 L 166.013,-171.452 L 166.114,-171.293 L 166.195,-171.123 L 166.253,-170.944
 L 166.288,-170.759 L 166.3,-170.571 L 166.288,-170.383 L 166.253,-170.198 L 166.195,-170.019 L 166.114,-169.848
 L 166.013,-169.689 L 165.893,-169.544 L 165.756,-169.415 L 165.604,-169.304 L 165.439,-169.214 L 165.263,-169.144
 L 165.081,-169.097 L 164.894,-169.074 z
M 18.075,-149.6 L 18.075,-152.1 L 25.975,-152.1 L 25.975,-149.6 z
M 83.85,-149.6 L 83.85,-152.1 L 91.75,-152.1 L 91.75,-149.6 z
M 149.625,-149.6 L 149.625,-152.1 L 157.525,-152.1 L 157.525,-149.6 z
M 175.6,-69.8 L 172.9,-69.8 L 172.9,-75 L 175.6,-75 L 175.6,-80.6 L 172.9,-80.6
 L 172.9,-85.8 L 175.6,-85.8 L 175.6,-91.4 L 172.9,-91.4 L 172.9,-96.6 L 175.6,-96.6
 L 175.6,-102.2 L 172.9,-102.2 L 172.9,-107.4 L 175.6,-107.4 L 175.6,-113 L 172.9,-113
 L 172.9,-118.2 L 175.6,-118.2 L 175.6,-123.8 L 172.9,-123.8 L 172.9,-129 L 175.6,-129
 L 175.6,-139.5 L 97.7,-139.5 L 97.7,-132.8 L 77.9,-132.8 L 77.9,-139.5 L 0,-139.5
 L 0,-129 L 2.69998,-129 L 2.69998,-123.8 L 0,-123.8 L 0,-118.2 L 2.69998,-118.2
 L 2.69998,-113 L 0,-113 L 0,-107.4 L 2.69998,-107.4 L 2.69998,-102.2 L 0,-102.2
 L 0,-96.6 L 2.69998,-96.6 L 2.69998,-91.4 L 0,-91.4 L 0,-85.8 L 2.69998,-85.8
 L 2.69998,-80.6 L 0,-80.6 L 0,-75 L 2.69998,-75 L 2.69998,-69.8 L 0,-69.8
 L 0,-59.3 L 175.6,-59.3 z
M 82.579,-114.4 L 82.8866,-114.522 L 83.5806,-114.7 L 92.0193,-114.7 L 92.7133,-114.522 L 93.021,-114.4
 z
M 77.3975,-111.4 L 77.6649,-111.651 L 77.7321,-111.7 L 97.8678,-111.7 L 97.935,-111.651 L 98.2025,-111.4
 z
M 74.7172,-108.4 L 74.9076,-108.7 L 100.692,-108.7 L 100.883,-108.4 z
M 73.0856,-105.4 L 73.2268,-105.7 L 102.373,-105.7 L 102.514,-105.4 z
M 72.2175,-102.4 L 72.2747,-102.7 L 103.325,-102.7 L 103.382,-102.4 z
M 71.9,-99.4 L 71.9189,-99.7 L 103.6,-99.7 L 103.6,-99.4 z
M 72.2175,-96.4 L 72.1603,-96.7 L 103.44,-96.7 L 103.382,-96.4 z
M 73.0856,-93.4 L 73.0166,-93.5468 L 72.9668,-93.7 L 102.633,-93.7 L 102.583,-93.5468 L 102.514,-93.4
 z
M 74.7172,-90.4 L 74.5268,-90.7 L 101.073,-90.7 L 100.883,-90.4 z
M 77.3975,-87.4 L 77.078,-87.7 L 98.522,-87.7 L 98.2025,-87.4 z
M 82.579,-84.4 L 81.8213,-84.7 L 93.7787,-84.7 L 93.021,-84.4 z
M 175.6,-2.89998 L 172.9,-2.89998 L 172.9,-54.225 L 97.9,-54.225 L 97.9,-57.6 L 77.8,-57.6
 L 77.8,-54.225 L 2.69998,-54.225 L 2.69998,-2.89998 L 0,-2.89998 L 0,-0 L 175.6,-0
 z
" stroke="blue" fill="none" stroke-width="0.01"/>
</svg>
