<?xml version="1.0" standalone="no"?>
<!DOCTYPE svg PUBLIC "-//W3C//DTD SVG 1.1//EN" "http://www.w3.org/Graphics/SVG/1.1/DTD/svg11.dtd">
<svg width="176mm" height="360mm" viewBox="0 -360 176 360" xmlns="http://www.w3.org/2000/svg" version="1.1">
<title>OpenSCAD Model</title>
<path d="
M 153.921,-286.401 L 161.023,-302.291 L 166.505,-302.291 L 166.505,-304.991 L 175.6,-304.991 L 175.6,-357.191
 L 165.3,-357.191 L 165.3,-359.891 L 159.7,-359.891 L 159.7,-357.191 L 154.5,-357.191 L 154.5,-359.891
 L 148.9,-359.891 L 148.9,-357.191 L 143.7,-357.191 L 143.7,-359.891 L 138.1,-359.891 L 138.1,-357.191
 L 132.9,-357.191 L 132.9,-359.891 L 127.3,-359.891 L 127.3,-357.191 L 122.1,-357.191 L 122.1,-359.891
 L 116.5,-359.891 L 116.5,-357.191 L 111.3,-357.191 L 111.3,-359.891 L 105.7,-359.891 L 105.7,-357.191
 L 95.4,-357.191 L 95.4,-309.739 L 95.1578,-309.739 L 94.4788,-309.653 L 93.8159,-309.483 L 93.1795,-309.231
 L 92.5798,-308.902 L 92.026,-308.499 L 91.5271,-308.031 L 91.0909,-307.503 L 90.7241,-306.926 L 90.4327,-306.306
 L 90.2212,-305.655 L 90.093,-304.983 L 90.05,-304.3 L 90.093,-303.617 L 90.2212,-302.945 L 90.4327,-302.294
 L 90.7241,-301.674 L 91.0909,-301.097 L 91.5271,-300.569 L 92.026,-300.101 L 92.5798,-299.698 L 93.1795,-299.369
 L 93.8159,-299.117 L 94.4788,-298.947 L 95.1578,-298.861 L 95.8422,-298.861 L 96.5212,-298.947 L 97.1841,-299.117
 L 97.8205,-299.369 L 98.4202,-299.698 L 98.974,-300.101 L 99.4729,-300.569 L 99.9091,-301.097 L 100.276,-301.674
 L 100.566,-302.291 L 112.505,-302.291 L 112.505,-304.991 L 117.705,-304.991 L 117.705,-302.291 L 123.305,-302.291
 L 123.305,-304.991 L 128.505,-304.991 L 128.505,-302.291 L 134.105,-302.291 L 134.105,-304.991 L 139.305,-304.991
 L 139.305,-302.291 L 143.752,-302.291 L 143.936,-288.461 L 144.015,-288.365 L 153.809,-286.344 z
M 164.6,-327.141 L 164.6,-335.041 L 167.3,-335.041 L 167.3,-327.141 z
M 95.377,-302.345 L 95.1329,-302.376 L 94.8946,-302.437 L 94.6658,-302.527 L 94.4502,-302.646 L 94.2512,-302.79
 L 94.0718,-302.959 L 93.915,-303.148 L 93.7832,-303.356 L 93.6784,-303.579 L 93.6024,-303.813 L 93.5563,-304.054
 L 93.5408,-304.3 L 93.5563,-304.546 L 93.6024,-304.787 L 93.6784,-305.021 L 93.7832,-305.244 L 93.915,-305.452
 L 94.0718,-305.641 L 94.2512,-305.81 L 94.4502,-305.954 L 94.6658,-306.073 L 94.8946,-306.163 L 95.1329,-306.224
 L 95.377,-306.255 L 95.623,-306.255 L 95.8671,-306.224 L 96.1054,-306.163 L 96.3342,-306.073 L 96.5498,-305.954
 L 96.7488,-305.81 L 96.9282,-305.641 L 97.085,-305.452 L 97.2168,-305.244 L 97.3216,-305.021 L 97.3976,-304.787
 L 97.4437,-304.546 L 97.4592,-304.3 L 97.4437,-304.054 L 97.3976,-303.813 L 97.3216,-303.579 L 97.2168,-303.356
 L 97.085,-303.148 L 96.9282,-302.959 L 96.7488,-302.79 L 96.5498,-302.646 L 96.3342,-302.527 L 96.1054,-302.437
 L 95.8671,-302.376 L 95.623,-302.345 z
M 31.5845,-288.365 L 31.6643,-288.461 L 31.8481,-302.291 L 36.2954,-302.291 L 36.2954,-304.991 L 41.4954,-304.991
 L 41.4954,-302.291 L 47.0954,-302.291 L 47.0954,-304.991 L 52.2954,-304.991 L 52.2954,-302.291 L 57.8954,-302.291
 L 57.8954,-304.991 L 63.0954,-304.991 L 63.0954,-302.291 L 75.0341,-302.291 L 75.3241,-301.674 L 75.6909,-301.097
 L 76.1271,-300.569 L 76.626,-300.101 L 77.1797,-299.698 L 77.7795,-299.369 L 78.4159,-299.117 L 79.0788,-298.947
 L 79.7578,-298.861 L 80.4422,-298.861 L 81.1212,-298.947 L 81.7841,-299.117 L 82.4205,-299.369 L 83.0202,-299.698
 L 83.5739,-300.101 L 84.0729,-300.569 L 84.5091,-301.097 L 84.8759,-301.674 L 85.1673,-302.294 L 85.3788,-302.945
 L 85.507,-303.617 L 85.55,-304.3 L 85.507,-304.983 L 85.3788,-305.655 L 85.1673,-306.306 L 84.8759,-306.926
 L 84.5091,-307.503 L 84.0729,-308.031 L 83.5739,-308.499 L 83.0202,-308.902 L 82.4205,-309.231 L 81.7841,-309.483
 L 81.1212,-309.653 L 80.4422,-309.739 L 80.2,-309.739 L 80.2,-357.191 L 69.9,-357.191 L 69.9,-359.891
 L 64.3,-359.891 L 64.3,-357.191 L 59.1,-357.191 L 59.1,-359.891 L 53.5,-359.891 L 53.5,-357.191
 L 48.3,-357.191 L 48.3,-359.891 L 42.7,-359.891 L 42.7,-357.191 L 37.5,-357.191 L 37.5,-359.891
 L 31.9,-359.891 L 31.9,-357.191 L 26.7,-357.191 L 26.7,-359.891 L 21.1,-359.891 L 21.1,-357.191
 L 15.9,-357.191 L 15.9,-359.891 L 10.3,-359.891 L 10.3,-357.191 L 0,-357.191 L 0,-304.991
 L 9.0954,-304.991 L 9.0954,-302.291 L 14.5773,-302.291 L 21.6794,-286.401 L 21.7909,-286.344 z
M 8.29999,-327.141 L 8.29999,-335.041 L 11,-335.041 L 11,-327.141 z
M 79.977,-302.345 L 79.7329,-302.376 L 79.4946,-302.437 L 79.2658,-302.527 L 79.0502,-302.646 L 78.8512,-302.79
 L 78.6718,-302.959 L 78.515,-303.148 L 78.3831,-303.356 L 78.2784,-303.579 L 78.2024,-303.813 L 78.1563,-304.054
 L 78.1408,-304.3 L 78.1563,-304.546 L 78.2024,-304.787 L 78.2784,-305.021 L 78.3831,-305.244 L 78.515,-305.452
 L 78.6718,-305.641 L 78.8512,-305.81 L 79.0502,-305.954 L 79.2658,-306.073 L 79.4946,-306.163 L 79.7329,-306.224
 L 79.977,-306.255 L 80.223,-306.255 L 80.4671,-306.224 L 80.7054,-306.163 L 80.9342,-306.073 L 81.1498,-305.954
 L 81.3488,-305.81 L 81.5282,-305.641 L 81.685,-305.452 L 81.8168,-305.244 L 81.9216,-305.021 L 81.9976,-304.787
 L 82.0437,-304.546 L 82.0592,-304.3 L 82.0437,-304.054 L 81.9976,-303.813 L 81.9216,-303.579 L 81.8168,-303.356
 L 81.685,-303.148 L 81.5282,-302.959 L 81.3488,-302.79 L 81.1498,-302.646 L 80.9342,-302.527 L 80.7054,-302.437
 L 80.4671,-302.376 L 80.223,-302.345 z
M 83.45,-232.591 L 83.45,-229.891 L 91.75,-229.891 L 91.75,-232.591 L 149.225,-232.591 L 149.225,-229.891
 L 157.725,-229.891 L 157.725,-232.591 L 172.9,-232.591 L 172.9,-254.491 L 175.6,-254.491 L 175.6,-262.641
 L 172.9,-262.641 L 172.9,-284.791 L 2.69998,-284.791 L 2.69998,-262.641 L 0,-262.641 L 0,-254.491
 L 2.69998,-254.491 L 2.69998,-232.591 L 17.775,-232.591 L 17.775,-229.891 L 25.975,-229.891 L 25.975,-232.591
 z
M 165.586,-277.809 L 165.586,-279.572 L 167.264,-280.117 L 168.3,-278.691 L 167.264,-277.264 z
M 7.58646,-277.809 L 7.58646,-279.572 L 9.2635,-280.117 L 10.3,-278.691 L 9.2635,-277.264 z
M 6.79999,-252.691 L 6.79999,-266.691 L 158.8,-266.691 L 158.8,-252.691 z
M 7.58646,-237.809 L 7.58646,-239.572 L 9.2635,-240.117 L 10.3,-238.691 L 9.2635,-237.264 z
M 165.586,-237.809 L 165.586,-239.572 L 167.264,-240.117 L 168.3,-238.691 L 167.264,-237.264 z
M 175.6,-147.4 L 175.6,-156.595 L 172.9,-156.595 L 172.9,-183.395 L 175.6,-183.395 L 175.6,-188.995
 L 172.9,-188.995 L 172.9,-194.195 L 175.6,-194.195 L 175.6,-199.795 L 172.9,-199.795 L 172.9,-204.995
 L 175.6,-204.995 L 175.6,-210.595 L 172.9,-210.595 L 172.9,-225.091 L 2.69998,-225.091 L 2.69998,-210.595
 L 0,-210.595 L 0,-204.995 L 2.69998,-204.995 L 2.69998,-199.795 L 0,-199.795 L 0,-194.195
 L 2.69998,-194.195 L 2.69998,-188.995 L 0,-188.995 L 0,-183.395 L 2.69998,-183.395 L 2.69998,-156.595
 L 0,-156.595 L 0,-147.4 L 0.0999908,-147.3 L 175.5,-147.3 z
M 164.706,-215.494 L 164.519,-215.517 L 164.336,-215.564 L 164.161,-215.634 L 163.996,-215.724 L 163.844,-215.835
 L 163.707,-215.964 L 163.586,-216.109 L 163.486,-216.268 L 163.405,-216.439 L 163.347,-216.618 L 163.312,-216.803
 L 163.3,-216.991 L 163.312,-217.179 L 163.347,-217.364 L 163.405,-217.543 L 163.486,-217.713 L 163.586,-217.872
 L 163.707,-218.018 L 163.844,-218.147 L 163.996,-218.257 L 164.161,-218.348 L 164.336,-218.417 L 164.519,-218.464
 L 164.706,-218.488 L 164.894,-218.488 L 165.081,-218.464 L 165.263,-218.417 L 165.439,-218.348 L 165.604,-218.257
 L 165.756,-218.147 L 165.893,-218.018 L 166.013,-217.872 L 166.114,-217.713 L 166.195,-217.543 L 166.253,-217.364
 L 166.288,-217.179 L 166.3,-216.991 L 166.288,-216.803 L 166.253,-216.618 L 166.195,-216.439 L 166.114,-216.268
 L 166.013,-216.109 L 165.893,-215.964 L 165.756,-215.835 L 165.604,-215.724 L 165.439,-215.634 L 165.263,-215.564
 L 165.081,-215.517 L 164.894,-215.494 z
M 125.336,-215.494 L 125.149,-215.517 L 124.966,-215.564 L 124.791,-215.634 L 124.626,-215.724 L 124.474,-215.835
 L 124.337,-215.964 L 124.216,-216.109 L 124.116,-216.268 L 124.035,-216.439 L 123.977,-216.618 L 123.942,-216.803
 L 123.93,-216.991 L 123.942,-217.179 L 123.977,-217.364 L 124.035,-217.543 L 124.116,-217.713 L 124.216,-217.872
 L 124.337,-218.018 L 124.474,-218.147 L 124.626,-218.257 L 124.791,-218.348 L 124.966,-218.417 L 125.149,-218.464
 L 125.336,-218.488 L 125.524,-218.488 L 125.711,-218.464 L 125.893,-218.417 L 126.069,-218.348 L 126.234,-218.257
 L 126.386,-218.147 L 126.523,-218.018 L 126.643,-217.872 L 126.744,-217.713 L 126.825,-217.543 L 126.883,-217.364
 L 126.918,-217.179 L 126.93,-216.991 L 126.918,-216.803 L 126.883,-216.618 L 126.825,-216.439 L 126.744,-216.268
 L 126.643,-216.109 L 126.523,-215.964 L 126.386,-215.835 L 126.234,-215.724 L 126.069,-215.634 L 125.893,-215.564
 L 125.711,-215.517 L 125.524,-215.494 z
M 88.5865,-204.609 L 88.5865,-206.372 L 90.2635,-206.917 L 91.3,-205.491 L 90.2635,-204.064 z
M 32.5865,-204.609 L 32.5865,-206.372 L 34.2635,-206.917 L 35.3,-205.491 L 34.2635,-204.064 z
M 164.706,-176.124 L 164.519,-176.147 L 164.336,-176.194 L 164.161,-176.264 L 163.996,-176.354 L 163.844,-176.465
 L 163.707,-176.594 L 163.586,-176.739 L 163.486,-176.898 L 163.405,-177.069 L 163.347,-177.248 L 163.312,-177.433
 L 163.3,-177.621 L 163.312,-177.809 L 163.347,-177.994 L 163.405,-178.173 L 163.486,-178.343 L 163.586,-178.502
 L 163.707,-178.648 L 163.844,-178.777 L 163.996,-178.887 L 164.161,-178.978 L 164.336,-179.047 L 164.519,-179.094
 L 164.706,-179.118 L 164.894,-179.118 L 165.081,-179.094 L 165.263,-179.047 L 165.439,-178.978 L 165.604,-178.887
 L 165.756,-178.777 L 165.893,-178.648 L 166.013,-178.502 L 166.114,-178.343 L 166.195,-178.173 L 166.253,-177.994
 L 166.288,-177.809 L 166.3,-177.621 L 166.288,-177.433 L 166.253,-177.248 L 166.195,-177.069 L 166.114,-176.898
 L 166.013,-176.739 L 165.893,-176.594 L 165.756,-176.465 L 165.604,-176.354 L 165.439,-176.264 L 165.263,-176.194
 L 165.081,-176.147 L 164.894,-176.124 z
M 125.336,-176.124 L 125.149,-176.147 L 124.966,-176.194 L 124.791,-176.264 L 124.626,-176.354 L 124.474,-176.465
 L 124.337,-176.594 L 124.216,-176.739 L 124.116,-176.898 L 124.035,-177.069 L 123.977,-177.248 L 123.942,-177.433
 L 123.93,-177.621 L 123.942,-177.809 L 123.977,-177.994 L 124.035,-178.173 L 124.116,-178.343 L 124.216,-178.502
 L 124.337,-178.648 L 124.474,-178.777 L 124.626,-178.887 L 124.791,-178.978 L 124.966,-179.047 L 125.149,-179.094
 L 125.336,-179.118 L 125.524,-179.118 L 125.711,-179.094 L 125.893,-179.047 L 126.069,-178.978 L 126.234,-178.887
 L 126.386,-178.777 L 126.523,-178.648 L 126.643,-178.502 L 126.744,-178.343 L 126.825,-178.173 L 126.883,-177.994
 L 126.918,-177.809 L 126.93,-177.621 L 126.918,-177.433 L 126.883,-177.248 L 126.825,-177.069 L 126.744,-176.898
 L 126.643,-176.739 L 126.523,-176.594 L 126.386,-176.465 L 126.234,-176.354 L 126.069,-176.264 L 125.893,-176.194
 L 125.711,-176.147 L 125.524,-176.124 z
M 149.625,-155.6 L 149.625,-158.1 L 157.525,-158.1 L 157.525,-155.6 z
M 83.85,-155.6 L 83.85,-158.1 L 91.75,-158.1 L 91.75,-155.6 z
M 18.075,-155.6 L 18.075,-158.1 L 25.975,-158.1 L 25.975,-155.6 z
M 175.6,-161.877 L 175.417,-161.795 L 175.6,-161.795 z
M 0,-161.877 L 0,-161.795 L 0.183334,-161.795 z
M 175.6,-62.4 L 175.6,-72.8 L 172.9,-72.8 L 172.9,-78 L 175.6,-78 L 175.6,-83.6
 L 172.9,-83.6 L 172.9,-88.8 L 175.6,-88.8 L 175.6,-94.4 L 172.9,-94.4 L 172.9,-99.6
 L 175.6,-99.6 L 175.6,-105.2 L 172.9,-105.2 L 172.9,-110.4 L 175.6,-110.4 L 175.6,-116
 L 172.9,-116 L 172.9,-121.2 L 175.6,-121.2 L 175.6,-126.8 L 172.9,-126.8 L 172.9,-132
 L 175.6,-132 L 175.6,-142.4 L 175.5,-142.5 L 95.7,-142.5 L 95.7,-135.8 L 79.9,-135.8
 L 79.9,-142.5 L 0.0999908,-142.5 L 0,-142.4 L 0,-132 L 2.69998,-132 L 2.69998,-126.8
 L 0,-126.8 L 0,-121.2 L 2.69998,-121.2 L 2.69998,-116 L 0,-116 L 0,-110.4
 L 2.69998,-110.4 L 2.69998,-105.2 L 0,-105.2 L 0,-99.6 L 2.69998,-99.6 L 2.69998,-94.4
 L 0,-94.4 L 0,-88.8 L 2.69998,-88.8 L 2.69998,-83.6 L 0,-83.6 L 0,-78
 L 2.69998,-78 L 2.69998,-72.8 L 0,-72.8 L 0,-62.4 L 0.0999908,-62.3 L 175.5,-62.3
 z
M 82.579,-117.4 L 82.8866,-117.522 L 83.5806,-117.7 L 92.0193,-117.7 L 92.7133,-117.522 L 93.021,-117.4
 z
M 77.3975,-114.4 L 77.6649,-114.651 L 77.7321,-114.7 L 97.8678,-114.7 L 97.935,-114.651 L 98.2025,-114.4
 z
M 74.7172,-111.4 L 74.9076,-111.7 L 100.692,-111.7 L 100.883,-111.4 z
M 73.0856,-108.4 L 73.2268,-108.7 L 102.373,-108.7 L 102.514,-108.4 z
M 72.2175,-105.4 L 72.2747,-105.7 L 103.325,-105.7 L 103.382,-105.4 z
M 71.9,-102.4 L 71.9189,-102.7 L 103.6,-102.7 L 103.6,-102.4 z
M 72.2175,-99.4 L 72.1603,-99.7 L 103.44,-99.7 L 103.382,-99.4 z
M 73.0856,-96.4 L 73.0166,-96.5468 L 72.9668,-96.7 L 102.633,-96.7 L 102.583,-96.5468 L 102.514,-96.4
 z
M 74.7172,-93.4 L 74.5268,-93.7 L 101.073,-93.7 L 100.883,-93.4 z
M 77.3975,-90.4 L 77.078,-90.7 L 98.522,-90.7 L 98.2025,-90.4 z
M 82.579,-87.4 L 81.8213,-87.7 L 93.7787,-87.7 L 93.021,-87.4 z
M 175.6,-0.0999908 L 175.6,-2.89998 L 172.9,-2.89998 L 172.9,-54.9 L 95.9,-54.9 L 95.9,-57.6
 L 79.8,-57.6 L 79.8,-54.9 L 2.69998,-54.9 L 2.69998,-2.89998 L 0,-2.89998 L 0,-0.0999908
 L 0.0999908,-0 L 175.5,-0 z
" stroke="blue" fill="none" stroke-width="0.01"/>
</svg>
