<?xml version="1.0" standalone="no"?>
<!DOCTYPE svg PUBLIC "-//W3C//DTD SVG 1.1//EN" "http://www.w3.org/Graphics/SVG/1.1/DTD/svg11.dtd">
<svg width="170mm" height="52mm" viewBox="-85 -26 85 26" xmlns="http://www.w3.org/2000/svg" version="1.1">
<title>OpenSCAD Model</title>
<path d="
M 48.1372,-13.5152 L 48.3022,-13.5655 L 48.4482,-13.6455 L 48.5722,-13.7515 L 48.6729,-13.8807 L 48.7472,-14.0305
 L 48.7929,-14.1972 L 48.8082,-14.3775 L 48.7969,-14.5207 L 48.7632,-14.6625 L 48.7064,-14.7965 L 48.6242,-14.9145
 L 48.5102,-15.0167 L 48.3742,-15.0955 L 48.2262,-15.1457 L 48.0742,-15.1625 L 47.9104,-15.1462 L 47.7672,-15.0975
 L 47.6427,-15.0117 L 47.5352,-14.8825 L 47.5282,-14.8895 L 47.5364,-15.0037 L 47.5552,-15.1325 L 47.5857,-15.265
 L 47.6292,-15.3885 L 47.6887,-15.4992 L 47.7652,-15.5915 L 47.8616,-15.6537 L 47.9792,-15.6745 L 48.0939,-15.6552
 L 48.1882,-15.5975 L 48.2572,-15.5147 L 48.2962,-15.4185 L 48.7622,-15.4185 L 48.7307,-15.5645 L 48.6762,-15.6925
 L 48.6007,-15.8017 L 48.5061,-15.8915 L 48.3949,-15.963 L 48.2672,-16.0155 L 48.1267,-16.0477 L 47.9752,-16.0585
 L 47.7339,-16.0295 L 47.5322,-15.9425 L 47.3677,-15.8092 L 47.2362,-15.6415 L 47.1367,-15.4455 L 47.0682,-15.2275
 L 47.0292,-14.9985 L 47.0162,-14.7695 L 47.0267,-14.5357 L 47.0582,-14.3065 L 47.1167,-14.0912 L 47.2082,-13.8995
 L 47.3344,-13.7375 L 47.4972,-13.6095 L 47.7019,-13.5262 L 47.9542,-13.4985 z
M 47.8334,-13.892 L 47.7552,-13.9205 L 47.6877,-13.9647 L 47.6311,-14.0215 L 47.5864,-14.0897 L 47.5542,-14.1665
 L 47.5347,-14.248 L 47.5282,-14.3305 L 47.5341,-14.4182 L 47.5522,-14.5015 L 47.5832,-14.5777 L 47.6262,-14.6445
 L 47.6817,-14.7 L 47.7502,-14.7425 L 47.8307,-14.7695 L 47.9221,-14.7785 L 48.0112,-14.7685 L 48.0882,-14.7385
 L 48.1534,-14.6932 L 48.2052,-14.6355 L 48.2452,-14.5672 L 48.2732,-14.4905 L 48.2904,-14.4082 L 48.2962,-14.3235
 L 48.2899,-14.2415 L 48.2711,-14.1615 L 48.2409,-14.0867 L 48.1982,-14.0205 L 48.1444,-13.9645 L 48.0812,-13.9205
 L 48.0074,-13.892 L 47.9221,-13.8825 z
M -10.9674,-13.512 L -10.8154,-13.5525 L -10.6889,-13.6157 L -10.5854,-13.6995 L -10.5034,-13.8007 L -10.4414,-13.9165
 L -10.3946,-14.0432 L -10.3604,-14.1775 L -10.3369,-14.318 L -10.3244,-14.4615 L -10.3191,-14.605 L -10.3174,-14.7435
 L -10.3191,-14.881 L -10.3244,-15.0235 L -10.3369,-15.1675 L -10.3604,-15.3075 L -10.3946,-15.443 L -10.4414,-15.5715
 L -10.5034,-15.6885 L -10.5854,-15.7895 L -10.6891,-15.8737 L -10.8164,-15.9385 L -10.9691,-15.9805 L -11.1494,-15.9945
 L -11.3296,-15.9805 L -11.4824,-15.9385 L -11.6096,-15.8737 L -11.7134,-15.7895 L -11.7956,-15.6885 L -11.8584,-15.5715
 L -11.9046,-15.443 L -11.9394,-15.3075 L -11.9621,-15.1675 L -11.9744,-15.0235 L -11.9796,-14.881 L -11.9814,-14.7435
 L -11.9796,-14.605 L -11.9744,-14.4615 L -11.9621,-14.318 L -11.9394,-14.1775 L -11.9046,-14.0432 L -11.8584,-13.9165
 L -11.7956,-13.8007 L -11.7134,-13.6995 L -11.6096,-13.6157 L -11.4824,-13.5525 L -11.3296,-13.512 L -11.1494,-13.4985
 z
M -11.3176,-13.7805 L -11.4444,-13.8585 L -11.5349,-13.9742 L -11.5964,-14.1135 L -11.6339,-14.2705 L -11.6524,-14.4375
 L -11.6591,-14.6012 L -11.6614,-14.7485 L -11.6594,-14.9475 L -11.6541,-15.0572 L -11.6424,-15.1665 L -11.6229,-15.275
 L -11.5964,-15.3805 L -11.5596,-15.478 L -11.5094,-15.5625 L -11.4439,-15.6337 L -11.3634,-15.6895 L -11.2659,-15.7262
 L -11.1494,-15.7385 L -11.0329,-15.7262 L -10.9354,-15.6895 L -10.8551,-15.6337 L -10.7904,-15.5625 L -10.7394,-15.478
 L -10.7024,-15.3805 L -10.6761,-15.275 L -10.6574,-15.1665 L -10.6449,-15.0572 L -10.6394,-14.9475 L -10.6374,-14.7485
 L -10.6396,-14.6012 L -10.6464,-14.4375 L -10.6649,-14.2705 L -10.7024,-14.1135 L -10.7641,-13.9742 L -10.8554,-13.8585
 L -10.9814,-13.7805 L -11.1494,-13.7545 z
M -28.3211,-13.5115 L -28.1556,-13.5505 L -28.0031,-13.6137 L -27.8696,-13.7015 L -27.7581,-13.8135 L -27.6716,-13.9495
 L -27.6161,-14.1085 L -27.5976,-14.2875 L -27.6261,-14.4797 L -27.7116,-14.6425 L -27.8474,-14.7647 L -28.0266,-14.8355
 L -28.0266,-14.8425 L -27.8674,-14.9117 L -27.7536,-15.0235 L -27.6846,-15.167 L -27.6616,-15.3315 L -27.6801,-15.4822
 L -27.7356,-15.6145 L -27.8196,-15.7287 L -27.9256,-15.8235 L -28.0494,-15.8985 L -28.1886,-15.9515 L -28.3349,-15.9837
 L -28.4816,-15.9945 L -28.6611,-15.98 L -28.8236,-15.9365 L -28.9659,-15.8675 L -29.0866,-15.7745 L -29.1844,-15.6577
 L -29.2576,-15.5175 L -29.3051,-15.3567 L -29.3256,-15.1785 L -28.8776,-15.1785 L -28.8551,-15.3492 L -28.7796,-15.4875
 L -28.6529,-15.5797 L -28.4766,-15.6105 L -28.3409,-15.589 L -28.2216,-15.5245 L -28.1376,-15.4207 L -28.1096,-15.2795
 L -28.1221,-15.184 L -28.1596,-15.1095 L -28.2166,-15.053 L -28.2876,-15.0115 L -28.3686,-14.9842 L -28.4556,-14.9705
 L -28.5429,-14.967 L -28.6246,-14.9705 L -28.6246,-14.6505 L -28.5326,-14.649 L -28.4366,-14.6445 L -28.3416,-14.6322
 L -28.2546,-14.6055 L -28.1846,-14.561 L -28.1406,-14.4955 L -28.1174,-14.4035 L -28.1096,-14.2775 L -28.1386,-14.1137
 L -28.2256,-13.9885 L -28.3546,-13.909 L -28.5096,-13.8825 L -28.6111,-13.892 L -28.6976,-13.9205 L -28.7701,-13.965
 L -28.8296,-14.0225 L -28.8756,-14.0925 L -28.9096,-14.1745 L -28.9316,-14.2647 L -28.9416,-14.3595 L -29.3896,-14.3595
 L -29.3761,-14.161 L -29.3296,-13.9875 L -29.2523,-13.8397 L -29.1486,-13.7185 L -29.0191,-13.6242 L -28.8646,-13.5555
 L -28.6879,-13.5127 L -28.4936,-13.4985 z
M 22.8901,-13.8185 L 21.6101,-13.8185 L 21.6426,-13.925 L 21.6981,-14.0185 L 21.7721,-14.1032 L 21.8601,-14.1815
 L 21.9599,-14.2552 L 22.0691,-14.3245 L 22.2971,-14.4605 L 22.4086,-14.5342 L 22.5171,-14.6115 L 22.6181,-14.695
 L 22.7071,-14.7875 L 22.7819,-14.892 L 22.8401,-15.0095 L 22.8776,-15.1427 L 22.8901,-15.2945 L 22.8746,-15.4552
 L 22.8281,-15.5955 L 22.7549,-15.7155 L 22.6591,-15.8135 L 22.5429,-15.891 L 22.4081,-15.9475 L 22.2594,-15.9827
 L 22.1011,-15.9945 L 21.9126,-15.9782 L 21.7451,-15.9295 L 21.6019,-15.852 L 21.4841,-15.7495 L 21.3929,-15.6232
 L 21.3291,-15.4745 L 21.2944,-15.3082 L 21.2901,-15.1275 L 21.6101,-15.1275 L 21.6136,-15.238 L 21.6321,-15.3475
 L 21.6671,-15.4517 L 21.7181,-15.5445 L 21.7861,-15.623 L 21.8701,-15.6845 L 21.9721,-15.725 L 22.0921,-15.7385
 L 22.1866,-15.7307 L 22.2761,-15.7075 L 22.3581,-15.6697 L 22.4281,-15.6185 L 22.4864,-15.5547 L 22.5311,-15.4795
 L 22.5604,-15.394 L 22.5701,-15.2995 L 22.5601,-15.18 L 22.5301,-15.0755 L 22.4806,-14.983 L 22.4121,-14.8975
 L 22.3239,-14.8157 L 22.2151,-14.7345 L 22.0876,-14.6497 L 21.8156,-14.4797 L 21.6951,-14.3965 L 21.5831,-14.3037
 L 21.4831,-14.1975 L 21.3974,-14.0745 L 21.3281,-13.9315 L 21.2786,-13.7627 L 21.2501,-13.5625 L 22.8901,-13.5625
 z
M 42.8839,-13.5155 L 43.0539,-13.5665 L 43.1976,-13.6462 L 43.3149,-13.7495 L 43.4066,-13.8725 L 43.4719,-14.0115
 L 43.5116,-14.1617 L 43.5249,-14.3165 L 43.5096,-14.515 L 43.4639,-14.6865 L 43.3926,-14.8322 L 43.2989,-14.9515
 L 43.1846,-15.0447 L 43.0519,-15.1105 L 42.9064,-15.1495 L 42.7519,-15.1625 L 42.6301,-15.1517 L 42.5069,-15.1195
 L 42.3954,-15.0657 L 42.3069,-14.9885 L 42.2999,-14.9955 L 42.4319,-15.7385 L 43.4249,-15.7385 L 43.4249,-15.9945
 L 42.2449,-15.9945 L 42.0149,-14.6875 L 42.2449,-14.6735 L 42.3331,-14.7682 L 42.4339,-14.8425 L 42.5486,-14.8905
 L 42.6789,-14.9065 L 42.7916,-14.896 L 42.8939,-14.8645 L 42.9839,-14.814 L 43.0599,-14.7465 L 43.1211,-14.6645
 L 43.1669,-14.5685 L 43.1954,-14.4605 L 43.2049,-14.3425 L 43.1951,-14.2047 L 43.1659,-14.0855 L 43.1209,-13.9845
 L 43.0619,-13.9015 L 42.9904,-13.8375 L 42.9079,-13.7915 L 42.8176,-13.7637 L 42.7229,-13.7545 L 42.6249,-13.7627
 L 42.5349,-13.7875 L 42.4554,-13.8272 L 42.3869,-13.8805 L 42.3311,-13.9465 L 42.2879,-14.0225 L 42.2586,-14.1075
 L 42.2449,-14.1985 L 41.9249,-14.1985 L 41.9424,-14.0402 L 41.9889,-13.8995 L 42.0606,-13.779 L 42.1539,-13.6795
 L 42.2669,-13.602 L 42.3959,-13.5455 L 42.5374,-13.5102 L 42.6879,-13.4985 z
M 49.9636,-13.514 L 50.1311,-13.5605 L 50.2841,-13.643 L 50.4171,-13.7665 L 50.5279,-13.935 L 50.6121,-14.1525
 L 50.6661,-14.4242 L 50.6841,-14.7555 L 50.6661,-15.0775 L 50.6121,-15.3435 L 50.5279,-15.5587 L 50.4171,-15.7265
 L 50.2841,-15.85 L 50.1311,-15.9325 L 49.9636,-15.979 L 49.7851,-15.9945 L 49.6081,-15.979 L 49.4411,-15.9325
 L 49.2891,-15.85 L 49.1571,-15.7265 L 49.0476,-15.5587 L 48.9631,-15.3435 L 48.9099,-15.0775 L 48.8921,-14.7555
 L 48.9099,-14.4242 L 48.9631,-14.1525 L 49.0476,-13.935 L 49.1571,-13.7665 L 49.2891,-13.643 L 49.4411,-13.5605
 L 49.6081,-13.514 L 49.7851,-13.4985 z
M 49.6579,-13.907 L 49.5641,-13.9805 L 49.4976,-14.0885 L 49.4521,-14.2165 L 49.4241,-14.3572 L 49.4101,-14.5035
 L 49.4056,-14.6412 L 49.4051,-14.9085 L 49.4091,-14.9995 L 49.4171,-15.0925 L 49.4304,-15.1867 L 49.4501,-15.2795
 L 49.4786,-15.3675 L 49.5161,-15.4455 L 49.5639,-15.5122 L 49.6231,-15.5645 L 49.6961,-15.599 L 49.7851,-15.6105
 L 49.8739,-15.599 L 49.9481,-15.5645 L 50.0091,-15.5122 L 50.0581,-15.4455 L 50.0964,-15.3675 L 50.1231,-15.2795
 L 50.1426,-15.1867 L 50.1571,-15.0925 L 50.1664,-14.9995 L 50.1701,-14.9085 L 50.1721,-14.7565 L 50.1704,-14.6412
 L 50.1651,-14.5035 L 50.1519,-14.3572 L 50.1241,-14.2165 L 50.0781,-14.0885 L 50.0101,-13.9805 L 49.9149,-13.907
 L 49.7851,-13.8825 z
M 41.3841,-14.1385 L 41.7171,-14.1385 L 41.7171,-14.3945 L 41.3841,-14.3945 L 41.3841,-15.9945 L 41.1661,-15.9945
 L 40.0481,-14.4185 L 40.0481,-14.1385 L 41.1281,-14.1385 L 41.1281,-13.5625 L 41.3841,-13.5625 z
M 40.3021,-14.3945 L 41.1211,-15.5795 L 41.1281,-15.5795 L 41.1281,-14.3945 z
M -42.3806,-13.514 L -42.2131,-13.5605 L -42.0601,-13.643 L -41.9271,-13.7665 L -41.8164,-13.935 L -41.7321,-14.1525
 L -41.6781,-14.4242 L -41.6601,-14.7555 L -41.6781,-15.0775 L -41.7321,-15.3435 L -41.8164,-15.5587 L -41.9271,-15.7265
 L -42.0601,-15.85 L -42.2131,-15.9325 L -42.3806,-15.979 L -42.5591,-15.9945 L -42.7361,-15.979 L -42.9031,-15.9325
 L -43.0551,-15.85 L -43.1871,-15.7265 L -43.2966,-15.5587 L -43.3811,-15.3435 L -43.4344,-15.0775 L -43.4521,-14.7555
 L -43.4344,-14.4242 L -43.3811,-14.1525 L -43.2966,-13.935 L -43.1871,-13.7665 L -43.0551,-13.643 L -42.9031,-13.5605
 L -42.7361,-13.514 L -42.5591,-13.4985 z
M -42.6864,-13.907 L -42.7801,-13.9805 L -42.8466,-14.0885 L -42.8921,-14.2165 L -42.9201,-14.3572 L -42.9341,-14.5035
 L -42.9386,-14.6412 L -42.9391,-14.9085 L -42.9351,-14.9995 L -42.9271,-15.0925 L -42.9138,-15.1867 L -42.8941,-15.2795
 L -42.8656,-15.3675 L -42.8281,-15.4455 L -42.7803,-15.5122 L -42.7211,-15.5645 L -42.6481,-15.599 L -42.5591,-15.6105
 L -42.4704,-15.599 L -42.3961,-15.5645 L -42.3351,-15.5122 L -42.2861,-15.4455 L -42.2479,-15.3675 L -42.2211,-15.2795
 L -42.2016,-15.1867 L -42.1871,-15.0925 L -42.1779,-14.9995 L -42.1741,-14.9085 L -42.1721,-14.7565 L -42.1739,-14.6412
 L -42.1791,-14.5035 L -42.1924,-14.3572 L -42.2201,-14.2165 L -42.2661,-14.0885 L -42.3341,-13.9805 L -42.4294,-13.907
 L -42.5591,-13.8825 z
M -0.995377,-15.9945 L -1.24039,-15.9945 L -1.27689,-15.8712 L -1.33438,-15.7715 L -1.40938,-15.6935 L -1.49838,-15.6335
 L -1.59914,-15.5912 L -1.71138,-15.5645 L -1.83113,-15.551 L -1.95438,-15.5465 L -1.95438,-15.2905 L -1.31538,-15.2905
 L -1.31538,-13.5625 L -0.995377,-13.5625 z
M 35.9011,-13.514 L 36.0686,-13.5605 L 36.2216,-13.643 L 36.3546,-13.7665 L 36.4654,-13.935 L 36.5496,-14.1525
 L 36.6036,-14.4242 L 36.6216,-14.7555 L 36.6036,-15.0775 L 36.5496,-15.3435 L 36.4654,-15.5587 L 36.3546,-15.7265
 L 36.2216,-15.85 L 36.0686,-15.9325 L 35.9011,-15.979 L 35.7226,-15.9945 L 35.5456,-15.979 L 35.3786,-15.9325
 L 35.2266,-15.85 L 35.0946,-15.7265 L 34.9851,-15.5587 L 34.9006,-15.3435 L 34.8474,-15.0775 L 34.8296,-14.7555
 L 34.8474,-14.4242 L 34.9006,-14.1525 L 34.9851,-13.935 L 35.0946,-13.7665 L 35.2266,-13.643 L 35.3786,-13.5605
 L 35.5456,-13.514 L 35.7226,-13.4985 z
M 35.5954,-13.907 L 35.5016,-13.9805 L 35.4351,-14.0885 L 35.3896,-14.2165 L 35.3616,-14.3572 L 35.3476,-14.5035
 L 35.3431,-14.6412 L 35.3426,-14.9085 L 35.3466,-14.9995 L 35.3546,-15.0925 L 35.3679,-15.1867 L 35.3876,-15.2795
 L 35.4161,-15.3675 L 35.4536,-15.4455 L 35.5014,-15.5122 L 35.5606,-15.5645 L 35.6336,-15.599 L 35.7226,-15.6105
 L 35.8114,-15.599 L 35.8856,-15.5645 L 35.9466,-15.5122 L 35.9956,-15.4455 L 36.0339,-15.3675 L 36.0606,-15.2795
 L 36.0801,-15.1867 L 36.0946,-15.0925 L 36.1039,-14.9995 L 36.1076,-14.9085 L 36.1096,-14.7565 L 36.1079,-14.6412
 L 36.1026,-14.5035 L 36.0894,-14.3572 L 36.0616,-14.2165 L 36.0156,-14.0885 L 35.9476,-13.9805 L 35.8524,-13.907
 L 35.7226,-13.8825 z
M 24.1339,-13.5155 L 24.3039,-13.5665 L 24.4476,-13.6462 L 24.5649,-13.7495 L 24.6566,-13.8725 L 24.7219,-14.0115
 L 24.7616,-14.1617 L 24.7749,-14.3165 L 24.7596,-14.515 L 24.7139,-14.6865 L 24.6426,-14.8322 L 24.5489,-14.9515
 L 24.4346,-15.0447 L 24.3019,-15.1105 L 24.1564,-15.1495 L 24.0019,-15.1625 L 23.8801,-15.1517 L 23.7569,-15.1195
 L 23.6454,-15.0657 L 23.5569,-14.9885 L 23.5499,-14.9955 L 23.6819,-15.7385 L 24.6749,-15.7385 L 24.6749,-15.9945
 L 23.4949,-15.9945 L 23.2649,-14.6875 L 23.4949,-14.6735 L 23.5831,-14.7682 L 23.6839,-14.8425 L 23.7986,-14.8905
 L 23.9289,-14.9065 L 24.0416,-14.896 L 24.1439,-14.8645 L 24.2339,-14.814 L 24.3099,-14.7465 L 24.3711,-14.6645
 L 24.4169,-14.5685 L 24.4454,-14.4605 L 24.4549,-14.3425 L 24.4451,-14.2047 L 24.4159,-14.0855 L 24.3709,-13.9845
 L 24.3119,-13.9015 L 24.2404,-13.8375 L 24.1579,-13.7915 L 24.0676,-13.7637 L 23.9729,-13.7545 L 23.8749,-13.7627
 L 23.7849,-13.7875 L 23.7054,-13.8272 L 23.6369,-13.8805 L 23.5811,-13.9465 L 23.5379,-14.0225 L 23.5086,-14.1075
 L 23.4949,-14.1985 L 23.1749,-14.1985 L 23.1924,-14.0402 L 23.2389,-13.8995 L 23.3106,-13.779 L 23.4039,-13.6795
 L 23.5169,-13.602 L 23.6459,-13.5455 L 23.7874,-13.5102 L 23.9379,-13.4985 z
M 12.4701,-13.512 L 12.6221,-13.5525 L 12.7486,-13.6157 L 12.8521,-13.6995 L 12.9341,-13.8007 L 12.9961,-13.9165
 L 13.0429,-14.0432 L 13.0771,-14.1775 L 13.1006,-14.318 L 13.1131,-14.4615 L 13.1184,-14.605 L 13.1201,-14.7435
 L 13.1184,-14.881 L 13.1131,-15.0235 L 13.1006,-15.1675 L 13.0771,-15.3075 L 13.0429,-15.443 L 12.9961,-15.5715
 L 12.9341,-15.6885 L 12.8521,-15.7895 L 12.7484,-15.8737 L 12.6211,-15.9385 L 12.4684,-15.9805 L 12.2881,-15.9945
 L 12.1079,-15.9805 L 11.9551,-15.9385 L 11.8279,-15.8737 L 11.7241,-15.7895 L 11.6419,-15.6885 L 11.5791,-15.5715
 L 11.5329,-15.443 L 11.4981,-15.3075 L 11.4754,-15.1675 L 11.4631,-15.0235 L 11.4579,-14.881 L 11.4561,-14.7435
 L 11.4579,-14.605 L 11.4631,-14.4615 L 11.4754,-14.318 L 11.4981,-14.1775 L 11.5329,-14.0432 L 11.5791,-13.9165
 L 11.6419,-13.8007 L 11.7241,-13.6995 L 11.8279,-13.6157 L 11.9551,-13.5525 L 12.1079,-13.512 L 12.2881,-13.4985
 z
M 12.1199,-13.7805 L 11.9931,-13.8585 L 11.9026,-13.9742 L 11.8411,-14.1135 L 11.8036,-14.2705 L 11.7851,-14.4375
 L 11.7784,-14.6012 L 11.7761,-14.7485 L 11.7781,-14.9475 L 11.7834,-15.0572 L 11.7951,-15.1665 L 11.8146,-15.275
 L 11.8411,-15.3805 L 11.8779,-15.478 L 11.9281,-15.5625 L 11.9936,-15.6337 L 12.0741,-15.6895 L 12.1716,-15.7262
 L 12.2881,-15.7385 L 12.4046,-15.7262 L 12.5021,-15.6895 L 12.5824,-15.6337 L 12.6471,-15.5625 L 12.6981,-15.478
 L 12.7351,-15.3805 L 12.7614,-15.275 L 12.7801,-15.1665 L 12.7926,-15.0572 L 12.7981,-14.9475 L 12.8001,-14.7485
 L 12.7979,-14.6012 L 12.7911,-14.4375 L 12.7726,-14.2705 L 12.7351,-14.1135 L 12.6734,-13.9742 L 12.5821,-13.8585
 L 12.4561,-13.7805 L 12.2881,-13.7545 z
M -12.7141,-15.9945 L -12.9591,-15.9945 L -12.9956,-15.8712 L -13.0531,-15.7715 L -13.1281,-15.6935 L -13.2171,-15.6335
 L -13.3179,-15.5912 L -13.4301,-15.5645 L -13.5499,-15.551 L -13.6731,-15.5465 L -13.6731,-15.2905 L -13.0341,-15.2905
 L -13.0341,-13.5625 L -12.7141,-13.5625 z
M 0.696365,-13.5155 L 0.866364,-13.5665 L 1.01012,-13.6462 L 1.12737,-13.7495 L 1.21912,-13.8725 L 1.28436,-14.0115
 L 1.32411,-14.1617 L 1.33737,-14.3165 L 1.32211,-14.515 L 1.27637,-14.6865 L 1.20512,-14.8322 L 1.11137,-14.9515
 L 0.997116,-15.0447 L 0.864365,-15.1105 L 0.718872,-15.1495 L 0.564362,-15.1625 L 0.442612,-15.1517 L 0.319366,-15.1195
 L 0.20787,-15.0657 L 0.11937,-14.9885 L 0.112366,-14.9955 L 0.24437,-15.7385 L 1.23737,-15.7385 L 1.23737,-15.9945
 L 0.057373,-15.9945 L -0.172638,-14.6875 L 0.057373,-14.6735 L 0.145615,-14.7682 L 0.246368,-14.8425 L 0.361115,-14.8905
 L 0.491364,-14.9065 L 0.604111,-14.896 L 0.70636,-14.8645 L 0.796371,-14.814 L 0.87236,-14.7465 L 0.933624,-14.6645
 L 0.97937,-14.5685 L 1.00787,-14.4605 L 1.01736,-14.3425 L 1.00761,-14.2047 L 0.978363,-14.0855 L 0.933365,-13.9845
 L 0.874374,-13.9015 L 0.802872,-13.8375 L 0.720367,-13.7915 L 0.630112,-13.7637 L 0.53537,-13.7545 L 0.437363,-13.7627
 L 0.347366,-13.7875 L 0.267868,-13.8272 L 0.199371,-13.8805 L 0.143616,-13.9465 L 0.100372,-14.0225 L 0.0711212,-14.1075
 L 0.057373,-14.1985 L -0.262634,-14.1985 L -0.245132,-14.0402 L -0.198639,-13.8995 L -0.126877,-13.779 L -0.0336304,-13.6795
 L 0.079361,-13.602 L 0.208374,-13.5455 L 0.349869,-13.5102 L 0.500366,-13.4985 z
M 11.1714,-13.8185 L 9.89137,-13.8185 L 9.92387,-13.925 L 9.97937,-14.0185 L 10.0534,-14.1032 L 10.1414,-14.1815
 L 10.2411,-14.2552 L 10.3504,-14.3245 L 10.5784,-14.4605 L 10.6899,-14.5342 L 10.7984,-14.6115 L 10.8994,-14.695
 L 10.9884,-14.7875 L 11.0631,-14.892 L 11.1214,-15.0095 L 11.1589,-15.1427 L 11.1714,-15.2945 L 11.1559,-15.4552
 L 11.1094,-15.5955 L 11.0361,-15.7155 L 10.9404,-15.8135 L 10.8241,-15.891 L 10.6894,-15.9475 L 10.5406,-15.9827
 L 10.3824,-15.9945 L 10.1939,-15.9782 L 10.0264,-15.9295 L 9.88312,-15.852 L 9.76537,-15.7495 L 9.67412,-15.6232
 L 9.61037,-15.4745 L 9.57562,-15.3082 L 9.57137,-15.1275 L 9.89137,-15.1275 L 9.89487,-15.238 L 9.91336,-15.3475
 L 9.94836,-15.4517 L 9.99937,-15.5445 L 10.0674,-15.623 L 10.1514,-15.6845 L 10.2534,-15.725 L 10.3734,-15.7385
 L 10.4679,-15.7307 L 10.5574,-15.7075 L 10.6394,-15.6697 L 10.7094,-15.6185 L 10.7676,-15.5547 L 10.8124,-15.4795
 L 10.8416,-15.394 L 10.8514,-15.2995 L 10.8414,-15.18 L 10.8114,-15.0755 L 10.7619,-14.983 L 10.6934,-14.8975
 L 10.6051,-14.8157 L 10.4964,-14.7345 L 10.3689,-14.6497 L 10.0969,-14.4797 L 9.97636,-14.3965 L 9.86436,-14.3037
 L 9.76437,-14.1975 L 9.67862,-14.0745 L 9.60936,-13.9315 L 9.55986,-13.7627 L 9.53137,-13.5625 L 11.1714,-13.5625
 z
M 34.0222,-13.5115 L 34.1877,-13.5505 L 34.3401,-13.6137 L 34.4737,-13.7015 L 34.5852,-13.8135 L 34.6717,-13.9495
 L 34.7272,-14.1085 L 34.7457,-14.2875 L 34.7172,-14.4797 L 34.6317,-14.6425 L 34.4959,-14.7647 L 34.3167,-14.8355
 L 34.3167,-14.8425 L 34.4759,-14.9117 L 34.5897,-15.0235 L 34.6587,-15.167 L 34.6817,-15.3315 L 34.6632,-15.4822
 L 34.6077,-15.6145 L 34.5237,-15.7287 L 34.4177,-15.8235 L 34.2939,-15.8985 L 34.1547,-15.9515 L 34.0084,-15.9837
 L 33.8616,-15.9945 L 33.6822,-15.98 L 33.5197,-15.9365 L 33.3774,-15.8675 L 33.2567,-15.7745 L 33.1589,-15.6577
 L 33.0857,-15.5175 L 33.0382,-15.3567 L 33.0177,-15.1785 L 33.4657,-15.1785 L 33.4882,-15.3492 L 33.5637,-15.4875
 L 33.6904,-15.5797 L 33.8667,-15.6105 L 34.0024,-15.589 L 34.1217,-15.5245 L 34.2057,-15.4207 L 34.2337,-15.2795
 L 34.2212,-15.184 L 34.1837,-15.1095 L 34.1267,-15.053 L 34.0556,-15.0115 L 33.9747,-14.9842 L 33.8876,-14.9705
 L 33.8004,-14.967 L 33.7187,-14.9705 L 33.7187,-14.6505 L 33.8107,-14.649 L 33.9067,-14.6445 L 34.0017,-14.6322
 L 34.0887,-14.6055 L 34.1587,-14.561 L 34.2027,-14.4955 L 34.2259,-14.4035 L 34.2337,-14.2775 L 34.2047,-14.1137
 L 34.1177,-13.9885 L 33.9887,-13.909 L 33.8336,-13.8825 L 33.7322,-13.892 L 33.6457,-13.9205 L 33.5732,-13.965
 L 33.5137,-14.0225 L 33.4677,-14.0925 L 33.4337,-14.1745 L 33.4117,-14.2647 L 33.4017,-14.3595 L 32.9537,-14.3595
 L 32.9672,-14.161 L 33.0137,-13.9875 L 33.0909,-13.8397 L 33.1947,-13.7185 L 33.3242,-13.6242 L 33.4787,-13.5555
 L 33.6554,-13.5127 L 33.8497,-13.4985 z
M -23.6835,-13.5155 L -23.5135,-13.5665 L -23.3698,-13.6462 L -23.2525,-13.7495 L -23.1608,-13.8725 L -23.0955,-14.0115
 L -23.0558,-14.1617 L -23.0425,-14.3165 L -23.0578,-14.515 L -23.1035,-14.6865 L -23.1748,-14.8322 L -23.2685,-14.9515
 L -23.3828,-15.0447 L -23.5155,-15.1105 L -23.661,-15.1495 L -23.8155,-15.1625 L -23.9373,-15.1517 L -24.0605,-15.1195
 L -24.172,-15.0657 L -24.2605,-14.9885 L -24.2675,-14.9955 L -24.1355,-15.7385 L -23.1425,-15.7385 L -23.1425,-15.9945
 L -24.3225,-15.9945 L -24.5525,-14.6875 L -24.3225,-14.6735 L -24.2343,-14.7682 L -24.1335,-14.8425 L -24.0188,-14.8905
 L -23.8885,-14.9065 L -23.7758,-14.896 L -23.6735,-14.8645 L -23.5835,-14.814 L -23.5075,-14.7465 L -23.4463,-14.6645
 L -23.4005,-14.5685 L -23.372,-14.4605 L -23.3625,-14.3425 L -23.3723,-14.2047 L -23.4015,-14.0855 L -23.4465,-13.9845
 L -23.5055,-13.9015 L -23.577,-13.8375 L -23.6595,-13.7915 L -23.7498,-13.7637 L -23.8445,-13.7545 L -23.9425,-13.7627
 L -24.0325,-13.7875 L -24.112,-13.8272 L -24.1805,-13.8805 L -24.2363,-13.9465 L -24.2795,-14.0225 L -24.3087,-14.1075
 L -24.3225,-14.1985 L -24.6425,-14.1985 L -24.625,-14.0402 L -24.5785,-13.8995 L -24.5067,-13.779 L -24.4135,-13.6795
 L -24.3005,-13.602 L -24.1715,-13.5455 L -24.03,-13.5102 L -23.8795,-13.4985 z
M -32.4175,-13.756 L -33.6975,-13.756 L -33.665,-13.8625 L -33.6095,-13.956 L -33.5355,-14.0407 L -33.4475,-14.119
 L -33.3477,-14.1927 L -33.2385,-14.262 L -33.0105,-14.398 L -32.899,-14.4717 L -32.7905,-14.549 L -32.6895,-14.6325
 L -32.6005,-14.725 L -32.5258,-14.8295 L -32.4675,-14.947 L -32.43,-15.0802 L -32.4175,-15.232 L -32.433,-15.3927
 L -32.4795,-15.533 L -32.5528,-15.653 L -32.6485,-15.751 L -32.7648,-15.8285 L -32.8995,-15.885 L -33.0483,-15.9202
 L -33.2065,-15.932 L -33.395,-15.9157 L -33.5625,-15.867 L -33.7057,-15.7895 L -33.8235,-15.687 L -33.9147,-15.5607
 L -33.9785,-15.412 L -34.0132,-15.2457 L -34.0175,-15.065 L -33.6975,-15.065 L -33.694,-15.1755 L -33.6755,-15.285
 L -33.6405,-15.3892 L -33.5895,-15.482 L -33.5215,-15.5605 L -33.4375,-15.622 L -33.3355,-15.6625 L -33.2155,-15.676
 L -33.121,-15.6682 L -33.0315,-15.645 L -32.9495,-15.6072 L -32.8795,-15.556 L -32.8213,-15.4922 L -32.7765,-15.417
 L -32.7473,-15.3315 L -32.7375,-15.237 L -32.7475,-15.1175 L -32.7775,-15.013 L -32.827,-14.9205 L -32.8955,-14.835
 L -32.9838,-14.7532 L -33.0925,-14.672 L -33.22,-14.5872 L -33.492,-14.4172 L -33.6125,-14.334 L -33.7245,-14.2412
 L -33.8245,-14.135 L -33.9102,-14.012 L -33.9795,-13.869 L -34.029,-13.7002 L -34.0575,-13.5 L -32.4175,-13.5
 z
M -37.553,-15.932 L -37.798,-15.932 L -37.8345,-15.8087 L -37.892,-15.709 L -37.967,-15.631 L -38.056,-15.571
 L -38.1568,-15.5287 L -38.269,-15.502 L -38.3887,-15.4885 L -38.512,-15.484 L -38.512,-15.228 L -37.873,-15.228
 L -37.873,-13.5 L -37.553,-13.5 z
M -44.1563,-10.0089 L -44.0955,-10.0245 L -44.0371,-10.0476 L -43.9821,-10.0778 L -43.9313,-10.1147 L -43.8855,-10.1577
 L -43.8455,-10.2061 L -43.8119,-10.2591 L -43.7851,-10.3159 L -43.7657,-10.3756 L -43.754,-10.4373 L -43.75,-10.5
 L -43.754,-10.5627 L -43.7657,-10.6243 L -43.7851,-10.6841 L -43.8119,-10.7409 L -43.8455,-10.7939 L -43.8855,-10.8423
 L -43.9313,-10.8853 L -43.9821,-10.9221 L -44.0371,-10.9524 L -44.0955,-10.9755 L -44.1563,-10.9911 L -44.2186,-10.999
 L -44.2814,-10.999 L -44.3437,-10.9911 L -44.4045,-10.9755 L -44.4629,-10.9524 L -44.5179,-10.9221 L -44.5687,-10.8853
 L -44.6145,-10.8423 L -44.6545,-10.7939 L -44.6882,-10.7409 L -44.7149,-10.6841 L -44.7343,-10.6243 L -44.7461,-10.5627
 L -44.75,-10.5 L -44.7461,-10.4373 L -44.7343,-10.3756 L -44.7149,-10.3159 L -44.6882,-10.2591 L -44.6545,-10.2061
 L -44.6145,-10.1577 L -44.5687,-10.1147 L -44.5179,-10.0778 L -44.4629,-10.0476 L -44.4045,-10.0245 L -44.3437,-10.0089
 L -44.2814,-10.001 L -44.2186,-10.001 z
M -45.6172,-10.1316 L -45.5716,-10.1433 L -45.5278,-10.1607 L -45.4866,-10.1834 L -45.4485,-10.211 L -45.4141,-10.2433
 L -45.3841,-10.2796 L -45.3589,-10.3193 L -45.3388,-10.3619 L -45.3243,-10.4067 L -45.3155,-10.453 L -45.3125,-10.5
 L -45.3155,-10.547 L -45.3243,-10.5932 L -45.3388,-10.638 L -45.3589,-10.6806 L -45.3841,-10.7204 L -45.4141,-10.7567
 L -45.4485,-10.7889 L -45.4866,-10.8166 L -45.5278,-10.8393 L -45.5716,-10.8566 L -45.6172,-10.8683 L -45.664,-10.8743
 L -45.7111,-10.8743 L -45.7578,-10.8683 L -45.8034,-10.8566 L -45.8472,-10.8393 L -45.8884,-10.8166 L -45.9265,-10.7889
 L -45.9609,-10.7567 L -45.9909,-10.7204 L -46.0161,-10.6806 L -46.0362,-10.638 L -46.0507,-10.5932 L -46.0596,-10.547
 L -46.0625,-10.5 L -46.0596,-10.453 L -46.0507,-10.4067 L -46.0362,-10.3619 L -46.0161,-10.3193 L -45.9909,-10.2796
 L -45.9609,-10.2433 L -45.9265,-10.211 L -45.8884,-10.1834 L -45.8472,-10.1607 L -45.8034,-10.1433 L -45.7578,-10.1316
 L -45.7111,-10.1257 L -45.664,-10.1257 z
M -47.0782,-10.2544 L -47.0478,-10.2622 L -47.0186,-10.2738 L -46.9911,-10.2889 L -46.9657,-10.3074 L -46.9428,-10.3289
 L -46.9228,-10.353 L -46.9059,-10.3795 L -46.8926,-10.408 L -46.8829,-10.4378 L -46.877,-10.4687 L -46.875,-10.5
 L -46.877,-10.5313 L -46.8829,-10.5622 L -46.8926,-10.592 L -46.9059,-10.6204 L -46.9228,-10.6469 L -46.9428,-10.6711
 L -46.9657,-10.6926 L -46.9911,-10.7111 L -47.0186,-10.7262 L -47.0478,-10.7378 L -47.0782,-10.7456 L -47.1093,-10.7495
 L -47.1407,-10.7495 L -47.1719,-10.7456 L -47.2023,-10.7378 L -47.2314,-10.7262 L -47.259,-10.7111 L -47.2844,-10.6926
 L -47.3073,-10.6711 L -47.3273,-10.6469 L -47.3441,-10.6204 L -47.3575,-10.592 L -47.3672,-10.5622 L -47.373,-10.5313
 L -47.375,-10.5 L -47.373,-10.4687 L -47.3672,-10.4378 L -47.3575,-10.408 L -47.3441,-10.3795 L -47.3273,-10.353
 L -47.3073,-10.3289 L -47.2844,-10.3074 L -47.259,-10.2889 L -47.2314,-10.2738 L -47.2023,-10.2622 L -47.1719,-10.2544
 L -47.1407,-10.2505 L -47.1093,-10.2505 z
M -44.1563,-8.50885 L -44.0955,-8.52446 L -44.0371,-8.54758 L -43.9821,-8.57784 L -43.9313,-8.61473 L -43.8855,-8.65771
 L -43.8455,-8.7061 L -43.8119,-8.75911 L -43.7851,-8.81593 L -43.7657,-8.87564 L -43.754,-8.93733 L -43.75,-9
 L -43.754,-9.06265 L -43.7657,-9.12434 L -43.7851,-9.18405 L -43.8119,-9.24088 L -43.8455,-9.29388 L -43.8855,-9.34227
 L -43.9313,-9.38525 L -43.9821,-9.42215 L -44.0371,-9.45241 L -44.0955,-9.47552 L -44.1563,-9.49113 L -44.2186,-9.49901
 L -44.2814,-9.49901 L -44.3437,-9.49113 L -44.4045,-9.47552 L -44.4629,-9.45241 L -44.5179,-9.42215 L -44.5687,-9.38525
 L -44.6145,-9.34227 L -44.6545,-9.29388 L -44.6882,-9.24088 L -44.7149,-9.18405 L -44.7343,-9.12434 L -44.7461,-9.06265
 L -44.75,-9 L -44.7461,-8.93733 L -44.7343,-8.87564 L -44.7149,-8.81593 L -44.6882,-8.75911 L -44.6545,-8.7061
 L -44.6145,-8.65771 L -44.5687,-8.61473 L -44.5179,-8.57784 L -44.4629,-8.54758 L -44.4045,-8.52446 L -44.3437,-8.50885
 L -44.2814,-8.50098 L -44.2186,-8.50098 z
M -45.6172,-8.63164 L -45.5716,-8.64334 L -45.5278,-8.66068 L -45.4866,-8.68336 L -45.4485,-8.71104 L -45.4141,-8.74329
 L -45.3841,-8.77957 L -45.3589,-8.81934 L -45.3388,-8.86194 L -45.3243,-8.90674 L -45.3155,-8.95299 L -45.3125,-9
 L -45.3155,-9.047 L -45.3243,-9.09325 L -45.3388,-9.13805 L -45.3589,-9.18065 L -45.3841,-9.22041 L -45.4141,-9.2567
 L -45.4485,-9.28894 L -45.4866,-9.31662 L -45.5278,-9.33931 L -45.5716,-9.35664 L -45.6172,-9.36835 L -45.664,-9.37425
 L -45.7111,-9.37425 L -45.7578,-9.36835 L -45.8034,-9.35664 L -45.8472,-9.33931 L -45.8884,-9.31662 L -45.9265,-9.28894
 L -45.9609,-9.2567 L -45.9909,-9.22041 L -46.0161,-9.18065 L -46.0362,-9.13805 L -46.0507,-9.09325 L -46.0596,-9.047
 L -46.0625,-9 L -46.0596,-8.95299 L -46.0507,-8.90674 L -46.0362,-8.86194 L -46.0161,-8.81934 L -45.9909,-8.77957
 L -45.9609,-8.74329 L -45.9265,-8.71104 L -45.8884,-8.68336 L -45.8472,-8.66068 L -45.8034,-8.64334 L -45.7578,-8.63164
 L -45.7111,-8.62573 L -45.664,-8.62573 z
M -47.0782,-8.75443 L -47.0478,-8.76222 L -47.0186,-8.77379 L -46.9911,-8.78891 L -46.9657,-8.80736 L -46.9428,-8.82886
 L -46.9228,-8.85304 L -46.9059,-8.87955 L -46.8926,-8.90796 L -46.8829,-8.93782 L -46.877,-8.96866 L -46.875,-9
 L -46.877,-9.03133 L -46.8829,-9.06216 L -46.8926,-9.09203 L -46.9059,-9.12044 L -46.9228,-9.14694 L -46.9428,-9.17113
 L -46.9657,-9.19263 L -46.9911,-9.21107 L -47.0186,-9.2262 L -47.0478,-9.23776 L -47.0782,-9.24556 L -47.1093,-9.2495
 L -47.1407,-9.2495 L -47.1719,-9.24556 L -47.2023,-9.23776 L -47.2314,-9.2262 L -47.259,-9.21107 L -47.2844,-9.19263
 L -47.3073,-9.17113 L -47.3273,-9.14694 L -47.3441,-9.12044 L -47.3575,-9.09203 L -47.3672,-9.06216 L -47.373,-9.03133
 L -47.375,-9 L -47.373,-8.96866 L -47.3672,-8.93782 L -47.3575,-8.90796 L -47.3441,-8.87955 L -47.3273,-8.85304
 L -47.3073,-8.82886 L -47.2844,-8.80736 L -47.259,-8.78891 L -47.2314,-8.77379 L -47.2023,-8.76222 L -47.1719,-8.75443
 L -47.1407,-8.75049 L -47.1093,-8.75049 z
M -48.25,-8.60815 L -49.018,-8.60815 L -49.018,-9.19115 L -49.274,-9.19115 L -49.274,-8.60815 L -49.722,-8.60815
 L -49.722,-9.22815 L -49.978,-9.22815 L -49.978,-8.28815 L -48.25,-8.28815 z
M -48.25,-7.50854 L -49.018,-7.50854 L -49.018,-8.09154 L -49.274,-8.09154 L -49.274,-7.50854 L -49.722,-7.50854
 L -49.722,-8.12854 L -49.978,-8.12854 L -49.978,-7.18855 L -48.25,-7.18855 z
M -44.1563,-7.00885 L -44.0955,-7.02446 L -44.0371,-7.04758 L -43.9821,-7.07784 L -43.9313,-7.11473 L -43.8855,-7.15771
 L -43.8455,-7.2061 L -43.8119,-7.25911 L -43.7851,-7.31593 L -43.7657,-7.37564 L -43.754,-7.43733 L -43.75,-7.5
 L -43.754,-7.56265 L -43.7657,-7.62434 L -43.7851,-7.68405 L -43.8119,-7.74088 L -43.8455,-7.79388 L -43.8855,-7.84227
 L -43.9313,-7.88525 L -43.9821,-7.92215 L -44.0371,-7.95241 L -44.0955,-7.97552 L -44.1563,-7.99113 L -44.2186,-7.99901
 L -44.2814,-7.99901 L -44.3437,-7.99113 L -44.4045,-7.97552 L -44.4629,-7.95241 L -44.5179,-7.92215 L -44.5687,-7.88525
 L -44.6145,-7.84227 L -44.6545,-7.79388 L -44.6882,-7.74088 L -44.7149,-7.68405 L -44.7343,-7.62434 L -44.7461,-7.56265
 L -44.75,-7.5 L -44.7461,-7.43733 L -44.7343,-7.37564 L -44.7149,-7.31593 L -44.6882,-7.25911 L -44.6545,-7.2061
 L -44.6145,-7.15771 L -44.5687,-7.11473 L -44.5179,-7.07784 L -44.4629,-7.04758 L -44.4045,-7.02446 L -44.3437,-7.00885
 L -44.2814,-7.00098 L -44.2186,-7.00098 z
M -45.6172,-7.13164 L -45.5716,-7.14334 L -45.5278,-7.16068 L -45.4866,-7.18336 L -45.4485,-7.21104 L -45.4141,-7.24329
 L -45.3841,-7.27957 L -45.3589,-7.31934 L -45.3388,-7.36194 L -45.3243,-7.40674 L -45.3155,-7.45299 L -45.3125,-7.5
 L -45.3155,-7.547 L -45.3243,-7.59325 L -45.3388,-7.63805 L -45.3589,-7.68065 L -45.3841,-7.72041 L -45.4141,-7.7567
 L -45.4485,-7.78894 L -45.4866,-7.81662 L -45.5278,-7.83931 L -45.5716,-7.85664 L -45.6172,-7.86835 L -45.664,-7.87425
 L -45.7111,-7.87425 L -45.7578,-7.86835 L -45.8034,-7.85664 L -45.8472,-7.83931 L -45.8884,-7.81662 L -45.9265,-7.78894
 L -45.9609,-7.7567 L -45.9909,-7.72041 L -46.0161,-7.68065 L -46.0362,-7.63805 L -46.0507,-7.59325 L -46.0596,-7.547
 L -46.0625,-7.5 L -46.0596,-7.45299 L -46.0507,-7.40674 L -46.0362,-7.36194 L -46.0161,-7.31934 L -45.9909,-7.27957
 L -45.9609,-7.24329 L -45.9265,-7.21104 L -45.8884,-7.18336 L -45.8472,-7.16068 L -45.8034,-7.14334 L -45.7578,-7.13164
 L -45.7111,-7.12573 L -45.664,-7.12573 z
M -47.0782,-7.25443 L -47.0478,-7.26222 L -47.0186,-7.27379 L -46.9911,-7.28891 L -46.9657,-7.30736 L -46.9428,-7.32886
 L -46.9228,-7.35304 L -46.9059,-7.37955 L -46.8926,-7.40796 L -46.8829,-7.43782 L -46.877,-7.46866 L -46.875,-7.5
 L -46.877,-7.53133 L -46.8829,-7.56216 L -46.8926,-7.59203 L -46.9059,-7.62044 L -46.9228,-7.64694 L -46.9428,-7.67113
 L -46.9657,-7.69263 L -46.9911,-7.71107 L -47.0186,-7.7262 L -47.0478,-7.73776 L -47.0782,-7.74556 L -47.1093,-7.7495
 L -47.1407,-7.7495 L -47.1719,-7.74556 L -47.2023,-7.73776 L -47.2314,-7.7262 L -47.259,-7.71107 L -47.2844,-7.69263
 L -47.3073,-7.67113 L -47.3273,-7.64694 L -47.3441,-7.62044 L -47.3575,-7.59203 L -47.3672,-7.56216 L -47.373,-7.53133
 L -47.375,-7.5 L -47.373,-7.46866 L -47.3672,-7.43782 L -47.3575,-7.40796 L -47.3441,-7.37955 L -47.3273,-7.35304
 L -47.3073,-7.32886 L -47.2844,-7.30736 L -47.259,-7.28891 L -47.2314,-7.27379 L -47.2023,-7.26222 L -47.1719,-7.25443
 L -47.1407,-7.25049 L -47.1093,-7.25049 z
M -48.9523,-5.80899 L -48.779,-5.82324 L -48.6255,-5.85324 L -48.495,-5.90524 L -48.39,-5.98325 L -48.313,-6.08925
 L -48.2658,-6.23 L -48.25,-6.41225 L -48.2658,-6.5945 L -48.313,-6.73524 L -48.39,-6.84099 L -48.495,-6.91824
 L -48.6255,-6.97099 L -48.779,-7.00124 L -48.9523,-7.01549 L -49.142,-7.02025 L -49.3313,-7.01549 L -49.505,-7.00124
 L -49.6593,-6.97099 L -49.79,-6.91824 L -49.8958,-6.84099 L -49.975,-6.73524 L -50.0252,-6.5945 L -50.042,-6.41225
 L -50.0252,-6.23 L -49.975,-6.08925 L -49.8958,-5.98325 L -49.79,-5.90524 L -49.6593,-5.85324 L -49.505,-5.82324
 L -49.3313,-5.80899 L -49.142,-5.80424 z
M -49.3065,-6.12674 L -49.44,-6.13425 L -49.55,-6.14925 L -49.638,-6.17424 L -49.7053,-6.21175 L -49.751,-6.26224
 L -49.7773,-6.32825 L -49.786,-6.41225 L -49.7773,-6.49625 L -49.751,-6.56224 L -49.7053,-6.61249 L -49.638,-6.64925
 L -49.55,-6.67499 L -49.44,-6.69025 L -49.3065,-6.69774 L -49.146,-6.70024 L -48.985,-6.69774 L -48.85,-6.69025
 L -48.7395,-6.67499 L -48.652,-6.64925 L -48.5863,-6.61249 L -48.541,-6.56224 L -48.5148,-6.49625 L -48.506,-6.41225
 L -48.5148,-6.32825 L -48.541,-6.26224 L -48.5863,-6.21175 L -48.652,-6.17424 L -48.7395,-6.14925 L -48.85,-6.13425
 L -48.985,-6.12674 L -49.146,-6.12424 z
M -44.1563,-5.50885 L -44.0955,-5.52446 L -44.0371,-5.54758 L -43.9821,-5.57784 L -43.9313,-5.61473 L -43.8855,-5.65771
 L -43.8455,-5.7061 L -43.8119,-5.75911 L -43.7851,-5.81593 L -43.7657,-5.87564 L -43.754,-5.93733 L -43.75,-6
 L -43.754,-6.06265 L -43.7657,-6.12434 L -43.7851,-6.18405 L -43.8119,-6.24088 L -43.8455,-6.29388 L -43.8855,-6.34227
 L -43.9313,-6.38525 L -43.9821,-6.42215 L -44.0371,-6.45241 L -44.0955,-6.47552 L -44.1563,-6.49113 L -44.2186,-6.49901
 L -44.2814,-6.49901 L -44.3437,-6.49113 L -44.4045,-6.47552 L -44.4629,-6.45241 L -44.5179,-6.42215 L -44.5687,-6.38525
 L -44.6145,-6.34227 L -44.6545,-6.29388 L -44.6882,-6.24088 L -44.7149,-6.18405 L -44.7343,-6.12434 L -44.7461,-6.06265
 L -44.75,-6 L -44.7461,-5.93733 L -44.7343,-5.87564 L -44.7149,-5.81593 L -44.6882,-5.75911 L -44.6545,-5.7061
 L -44.6145,-5.65771 L -44.5687,-5.61473 L -44.5179,-5.57784 L -44.4629,-5.54758 L -44.4045,-5.52446 L -44.3437,-5.50885
 L -44.2814,-5.50098 L -44.2186,-5.50098 z
M -45.6172,-5.63164 L -45.5716,-5.64334 L -45.5278,-5.66068 L -45.4866,-5.68336 L -45.4485,-5.71104 L -45.4141,-5.74329
 L -45.3841,-5.77957 L -45.3589,-5.81934 L -45.3388,-5.86194 L -45.3243,-5.90674 L -45.3155,-5.95299 L -45.3125,-6
 L -45.3155,-6.047 L -45.3243,-6.09325 L -45.3388,-6.13805 L -45.3589,-6.18065 L -45.3841,-6.22041 L -45.4141,-6.2567
 L -45.4485,-6.28894 L -45.4866,-6.31662 L -45.5278,-6.33931 L -45.5716,-6.35664 L -45.6172,-6.36835 L -45.664,-6.37425
 L -45.7111,-6.37425 L -45.7578,-6.36835 L -45.8034,-6.35664 L -45.8472,-6.33931 L -45.8884,-6.31662 L -45.9265,-6.28894
 L -45.9609,-6.2567 L -45.9909,-6.22041 L -46.0161,-6.18065 L -46.0362,-6.13805 L -46.0507,-6.09325 L -46.0596,-6.047
 L -46.0625,-6 L -46.0596,-5.95299 L -46.0507,-5.90674 L -46.0362,-5.86194 L -46.0161,-5.81934 L -45.9909,-5.77957
 L -45.9609,-5.74329 L -45.9265,-5.71104 L -45.8884,-5.68336 L -45.8472,-5.66068 L -45.8034,-5.64334 L -45.7578,-5.63164
 L -45.7111,-5.62573 L -45.664,-5.62573 z
M -47.0782,-5.75443 L -47.0478,-5.76222 L -47.0186,-5.77379 L -46.9911,-5.78891 L -46.9657,-5.80736 L -46.9428,-5.82886
 L -46.9228,-5.85304 L -46.9059,-5.87955 L -46.8926,-5.90796 L -46.8829,-5.93782 L -46.877,-5.96866 L -46.875,-6
 L -46.877,-6.03133 L -46.8829,-6.06216 L -46.8926,-6.09203 L -46.9059,-6.12044 L -46.9228,-6.14694 L -46.9428,-6.17113
 L -46.9657,-6.19263 L -46.9911,-6.21107 L -47.0186,-6.2262 L -47.0478,-6.23776 L -47.0782,-6.24556 L -47.1093,-6.2495
 L -47.1407,-6.2495 L -47.1719,-6.24556 L -47.2023,-6.23776 L -47.2314,-6.2262 L -47.259,-6.21107 L -47.2844,-6.19263
 L -47.3073,-6.17113 L -47.3273,-6.14694 L -47.3441,-6.12044 L -47.3575,-6.09203 L -47.3672,-6.06216 L -47.373,-6.03133
 L -47.375,-6 L -47.373,-5.96866 L -47.3672,-5.93782 L -47.3575,-5.90796 L -47.3441,-5.87955 L -47.3273,-5.85304
 L -47.3073,-5.82886 L -47.2844,-5.80736 L -47.259,-5.78891 L -47.2314,-5.77379 L -47.2023,-5.76222 L -47.1719,-5.75443
 L -47.1407,-5.75049 L -47.1093,-5.75049 z
M -44.1563,-4.00887 L -44.0955,-4.02448 L -44.0371,-4.04759 L -43.9821,-4.07785 L -43.9313,-4.11475 L -43.8855,-4.15773
 L -43.8455,-4.20612 L -43.8119,-4.25912 L -43.7851,-4.31595 L -43.7657,-4.37566 L -43.754,-4.43735 L -43.75,-4.5
 L -43.754,-4.56265 L -43.7657,-4.62434 L -43.7851,-4.68405 L -43.8119,-4.74088 L -43.8455,-4.79388 L -43.8855,-4.84227
 L -43.9313,-4.88525 L -43.9821,-4.92215 L -44.0371,-4.95241 L -44.0955,-4.97552 L -44.1563,-4.99113 L -44.2186,-4.99901
 L -44.2814,-4.99901 L -44.3437,-4.99113 L -44.4045,-4.97552 L -44.4629,-4.95241 L -44.5179,-4.92215 L -44.5687,-4.88525
 L -44.6145,-4.84227 L -44.6545,-4.79388 L -44.6882,-4.74088 L -44.7149,-4.68405 L -44.7343,-4.62434 L -44.7461,-4.56265
 L -44.75,-4.5 L -44.7461,-4.43735 L -44.7343,-4.37566 L -44.7149,-4.31595 L -44.6882,-4.25912 L -44.6545,-4.20612
 L -44.6145,-4.15773 L -44.5687,-4.11475 L -44.5179,-4.07785 L -44.4629,-4.04759 L -44.4045,-4.02448 L -44.3437,-4.00887
 L -44.2814,-4.00099 L -44.2186,-4.00099 z
M -45.6172,-4.13165 L -45.5716,-4.14336 L -45.5278,-4.16069 L -45.4866,-4.18338 L -45.4485,-4.21106 L -45.4141,-4.2433
 L -45.3841,-4.27959 L -45.3589,-4.31935 L -45.3388,-4.36195 L -45.3243,-4.40675 L -45.3155,-4.453 L -45.3125,-4.5
 L -45.3155,-4.547 L -45.3243,-4.59325 L -45.3388,-4.63805 L -45.3589,-4.68065 L -45.3841,-4.72041 L -45.4141,-4.7567
 L -45.4485,-4.78894 L -45.4866,-4.81662 L -45.5278,-4.83931 L -45.5716,-4.85664 L -45.6172,-4.86835 L -45.664,-4.87425
 L -45.7111,-4.87425 L -45.7578,-4.86835 L -45.8034,-4.85664 L -45.8472,-4.83931 L -45.8884,-4.81662 L -45.9265,-4.78894
 L -45.9609,-4.7567 L -45.9909,-4.72041 L -46.0161,-4.68065 L -46.0362,-4.63805 L -46.0507,-4.59325 L -46.0596,-4.547
 L -46.0625,-4.5 L -46.0596,-4.453 L -46.0507,-4.40675 L -46.0362,-4.36195 L -46.0161,-4.31935 L -45.9909,-4.27959
 L -45.9609,-4.2433 L -45.9265,-4.21106 L -45.8884,-4.18338 L -45.8472,-4.16069 L -45.8034,-4.14336 L -45.7578,-4.13165
 L -45.7111,-4.12575 L -45.664,-4.12575 z
M -47.0782,-4.25444 L -47.0478,-4.26224 L -47.0186,-4.2738 L -46.9911,-4.28893 L -46.9657,-4.30737 L -46.9428,-4.32887
 L -46.9228,-4.35306 L -46.9059,-4.37956 L -46.8926,-4.40797 L -46.8829,-4.43784 L -46.877,-4.46867 L -46.875,-4.5
 L -46.877,-4.53133 L -46.8829,-4.56216 L -46.8926,-4.59203 L -46.9059,-4.62044 L -46.9228,-4.64694 L -46.9428,-4.67113
 L -46.9657,-4.69263 L -46.9911,-4.71107 L -47.0186,-4.7262 L -47.0478,-4.73776 L -47.0782,-4.74556 L -47.1093,-4.7495
 L -47.1407,-4.7495 L -47.1719,-4.74556 L -47.2023,-4.73776 L -47.2314,-4.7262 L -47.259,-4.71107 L -47.2844,-4.69263
 L -47.3073,-4.67113 L -47.3273,-4.64694 L -47.3441,-4.62044 L -47.3575,-4.59203 L -47.3672,-4.56216 L -47.373,-4.53133
 L -47.375,-4.5 L -47.373,-4.46867 L -47.3672,-4.43784 L -47.3575,-4.40797 L -47.3441,-4.37956 L -47.3273,-4.35306
 L -47.3073,-4.32887 L -47.2844,-4.30737 L -47.259,-4.28893 L -47.2314,-4.2738 L -47.2023,-4.26224 L -47.1719,-4.25444
 L -47.1407,-4.2505 L -47.1093,-4.2505 z
M -44.1563,4.99115 L -44.0955,4.97554 L -44.0371,4.95242 L -43.9821,4.92216 L -43.9313,4.88527 L -43.8855,4.84229
 L -43.8455,4.7939 L -43.8119,4.74089 L -43.7851,4.68407 L -43.7657,4.62436 L -43.754,4.56267 L -43.75,4.5
 L -43.754,4.43735 L -43.7657,4.37566 L -43.7851,4.31595 L -43.8119,4.25912 L -43.8455,4.20612 L -43.8855,4.15773
 L -43.9313,4.11475 L -43.9821,4.07785 L -44.0371,4.04759 L -44.0955,4.02448 L -44.1563,4.00887 L -44.2186,4.00099
 L -44.2814,4.00099 L -44.3437,4.00887 L -44.4045,4.02448 L -44.4629,4.04759 L -44.5179,4.07785 L -44.5687,4.11475
 L -44.6145,4.15773 L -44.6545,4.20612 L -44.6882,4.25912 L -44.7149,4.31595 L -44.7343,4.37566 L -44.7461,4.43735
 L -44.75,4.5 L -44.7461,4.56267 L -44.7343,4.62436 L -44.7149,4.68407 L -44.6882,4.74089 L -44.6545,4.7939
 L -44.6145,4.84229 L -44.5687,4.88527 L -44.5179,4.92216 L -44.4629,4.95242 L -44.4045,4.97554 L -44.3437,4.99115
 L -44.2814,4.99902 L -44.2186,4.99902 z
M -45.6172,4.86836 L -45.5716,4.85666 L -45.5278,4.83932 L -45.4866,4.81664 L -45.4485,4.78896 L -45.4141,4.75671
 L -45.3841,4.72043 L -45.3589,4.68066 L -45.3388,4.63806 L -45.3243,4.59326 L -45.3155,4.54701 L -45.3125,4.5
 L -45.3155,4.453 L -45.3243,4.40675 L -45.3388,4.36195 L -45.3589,4.31935 L -45.3841,4.27959 L -45.4141,4.2433
 L -45.4485,4.21106 L -45.4866,4.18338 L -45.5278,4.16069 L -45.5716,4.14336 L -45.6172,4.13165 L -45.664,4.12575
 L -45.7111,4.12575 L -45.7578,4.13165 L -45.8034,4.14336 L -45.8472,4.16069 L -45.8884,4.18338 L -45.9265,4.21106
 L -45.9609,4.2433 L -45.9909,4.27959 L -46.0161,4.31935 L -46.0362,4.36195 L -46.0507,4.40675 L -46.0596,4.453
 L -46.0625,4.5 L -46.0596,4.54701 L -46.0507,4.59326 L -46.0362,4.63806 L -46.0161,4.68066 L -45.9909,4.72043
 L -45.9609,4.75671 L -45.9265,4.78896 L -45.8884,4.81664 L -45.8472,4.83932 L -45.8034,4.85666 L -45.7578,4.86836
 L -45.7111,4.87427 L -45.664,4.87427 z
M -47.0782,4.74557 L -47.0478,4.73778 L -47.0186,4.72621 L -46.9911,4.71109 L -46.9657,4.69264 L -46.9428,4.67114
 L -46.9228,4.64696 L -46.9059,4.62045 L -46.8926,4.59204 L -46.8829,4.56218 L -46.877,4.53134 L -46.875,4.5
 L -46.877,4.46867 L -46.8829,4.43784 L -46.8926,4.40797 L -46.9059,4.37956 L -46.9228,4.35306 L -46.9428,4.32887
 L -46.9657,4.30737 L -46.9911,4.28893 L -47.0186,4.2738 L -47.0478,4.26224 L -47.0782,4.25444 L -47.1093,4.2505
 L -47.1407,4.2505 L -47.1719,4.25444 L -47.2023,4.26224 L -47.2314,4.2738 L -47.259,4.28893 L -47.2844,4.30737
 L -47.3073,4.32887 L -47.3273,4.35306 L -47.3441,4.37956 L -47.3575,4.40797 L -47.3672,4.43784 L -47.373,4.46867
 L -47.375,4.5 L -47.373,4.53134 L -47.3672,4.56218 L -47.3575,4.59204 L -47.3441,4.62045 L -47.3273,4.64696
 L -47.3073,4.67114 L -47.2844,4.69264 L -47.259,4.71109 L -47.2314,4.72621 L -47.2023,4.73778 L -47.1719,4.74557
 L -47.1407,4.74951 L -47.1093,4.74951 z
M -44.1563,6.49115 L -44.0955,6.47554 L -44.0371,6.45242 L -43.9821,6.42216 L -43.9313,6.38527 L -43.8855,6.34229
 L -43.8455,6.2939 L -43.8119,6.24089 L -43.7851,6.18407 L -43.7657,6.12436 L -43.754,6.06267 L -43.75,6
 L -43.754,5.93735 L -43.7657,5.87566 L -43.7851,5.81595 L -43.8119,5.75912 L -43.8455,5.70612 L -43.8855,5.65773
 L -43.9313,5.61475 L -43.9821,5.57785 L -44.0371,5.54759 L -44.0955,5.52448 L -44.1563,5.50887 L -44.2186,5.50099
 L -44.2814,5.50099 L -44.3437,5.50887 L -44.4045,5.52448 L -44.4629,5.54759 L -44.5179,5.57785 L -44.5687,5.61475
 L -44.6145,5.65773 L -44.6545,5.70612 L -44.6882,5.75912 L -44.7149,5.81595 L -44.7343,5.87566 L -44.7461,5.93735
 L -44.75,6 L -44.7461,6.06267 L -44.7343,6.12436 L -44.7149,6.18407 L -44.6882,6.24089 L -44.6545,6.2939
 L -44.6145,6.34229 L -44.5687,6.38527 L -44.5179,6.42216 L -44.4629,6.45242 L -44.4045,6.47554 L -44.3437,6.49115
 L -44.2814,6.49902 L -44.2186,6.49902 z
M -45.6172,6.36836 L -45.5716,6.35666 L -45.5278,6.33932 L -45.4866,6.31664 L -45.4485,6.28896 L -45.4141,6.25671
 L -45.3841,6.22043 L -45.3589,6.18066 L -45.3388,6.13806 L -45.3243,6.09326 L -45.3155,6.04701 L -45.3125,6
 L -45.3155,5.953 L -45.3243,5.90675 L -45.3388,5.86195 L -45.3589,5.81935 L -45.3841,5.77959 L -45.4141,5.7433
 L -45.4485,5.71106 L -45.4866,5.68338 L -45.5278,5.66069 L -45.5716,5.64336 L -45.6172,5.63165 L -45.664,5.62575
 L -45.7111,5.62575 L -45.7578,5.63165 L -45.8034,5.64336 L -45.8472,5.66069 L -45.8884,5.68338 L -45.9265,5.71106
 L -45.9609,5.7433 L -45.9909,5.77959 L -46.0161,5.81935 L -46.0362,5.86195 L -46.0507,5.90675 L -46.0596,5.953
 L -46.0625,6 L -46.0596,6.04701 L -46.0507,6.09326 L -46.0362,6.13806 L -46.0161,6.18066 L -45.9909,6.22043
 L -45.9609,6.25671 L -45.9265,6.28896 L -45.8884,6.31664 L -45.8472,6.33932 L -45.8034,6.35666 L -45.7578,6.36836
 L -45.7111,6.37427 L -45.664,6.37427 z
M -47.0782,6.24557 L -47.0478,6.23778 L -47.0186,6.22621 L -46.9911,6.21109 L -46.9657,6.19264 L -46.9428,6.17114
 L -46.9228,6.14696 L -46.9059,6.12045 L -46.8926,6.09204 L -46.8829,6.06218 L -46.877,6.03134 L -46.875,6
 L -46.877,5.96867 L -46.8829,5.93784 L -46.8926,5.90797 L -46.9059,5.87956 L -46.9228,5.85306 L -46.9428,5.82887
 L -46.9657,5.80737 L -46.9911,5.78893 L -47.0186,5.7738 L -47.0478,5.76224 L -47.0782,5.75444 L -47.1093,5.7505
 L -47.1407,5.7505 L -47.1719,5.75444 L -47.2023,5.76224 L -47.2314,5.7738 L -47.259,5.78893 L -47.2844,5.80737
 L -47.3073,5.82887 L -47.3273,5.85306 L -47.3441,5.87956 L -47.3575,5.90797 L -47.3672,5.93784 L -47.373,5.96867
 L -47.375,6 L -47.373,6.03134 L -47.3672,6.06218 L -47.3575,6.09204 L -47.3441,6.12045 L -47.3273,6.14696
 L -47.3073,6.17114 L -47.2844,6.19264 L -47.259,6.21109 L -47.2314,6.22621 L -47.2023,6.23778 L -47.1719,6.24557
 L -47.1407,6.24951 L -47.1093,6.24951 z
M -48.25,6.39185 L -49.018,6.39185 L -49.018,5.80885 L -49.274,5.80885 L -49.274,6.39185 L -49.722,6.39185
 L -49.722,5.77185 L -49.978,5.77185 L -49.978,6.71185 L -48.25,6.71185 z
M -48.25,7.49146 L -49.018,7.49146 L -49.018,6.90846 L -49.274,6.90846 L -49.274,7.49146 L -49.722,7.49146
 L -49.722,6.87146 L -49.978,6.87146 L -49.978,7.81145 L -48.25,7.81145 z
M -44.1563,7.99115 L -44.0955,7.97554 L -44.0371,7.95242 L -43.9821,7.92216 L -43.9313,7.88527 L -43.8855,7.84229
 L -43.8455,7.7939 L -43.8119,7.74089 L -43.7851,7.68407 L -43.7657,7.62436 L -43.754,7.56267 L -43.75,7.5
 L -43.754,7.43735 L -43.7657,7.37566 L -43.7851,7.31595 L -43.8119,7.25912 L -43.8455,7.20612 L -43.8855,7.15773
 L -43.9313,7.11475 L -43.9821,7.07785 L -44.0371,7.04759 L -44.0955,7.02448 L -44.1563,7.00887 L -44.2186,7.00099
 L -44.2814,7.00099 L -44.3437,7.00887 L -44.4045,7.02448 L -44.4629,7.04759 L -44.5179,7.07785 L -44.5687,7.11475
 L -44.6145,7.15773 L -44.6545,7.20612 L -44.6882,7.25912 L -44.7149,7.31595 L -44.7343,7.37566 L -44.7461,7.43735
 L -44.75,7.5 L -44.7461,7.56267 L -44.7343,7.62436 L -44.7149,7.68407 L -44.6882,7.74089 L -44.6545,7.7939
 L -44.6145,7.84229 L -44.5687,7.88527 L -44.5179,7.92216 L -44.4629,7.95242 L -44.4045,7.97554 L -44.3437,7.99115
 L -44.2814,7.99902 L -44.2186,7.99902 z
M -45.6172,7.86836 L -45.5716,7.85666 L -45.5278,7.83932 L -45.4866,7.81664 L -45.4485,7.78896 L -45.4141,7.75671
 L -45.3841,7.72043 L -45.3589,7.68066 L -45.3388,7.63806 L -45.3243,7.59326 L -45.3155,7.54701 L -45.3125,7.5
 L -45.3155,7.453 L -45.3243,7.40675 L -45.3388,7.36195 L -45.3589,7.31935 L -45.3841,7.27959 L -45.4141,7.2433
 L -45.4485,7.21106 L -45.4866,7.18338 L -45.5278,7.16069 L -45.5716,7.14336 L -45.6172,7.13165 L -45.664,7.12575
 L -45.7111,7.12575 L -45.7578,7.13165 L -45.8034,7.14336 L -45.8472,7.16069 L -45.8884,7.18338 L -45.9265,7.21106
 L -45.9609,7.2433 L -45.9909,7.27959 L -46.0161,7.31935 L -46.0362,7.36195 L -46.0507,7.40675 L -46.0596,7.453
 L -46.0625,7.5 L -46.0596,7.54701 L -46.0507,7.59326 L -46.0362,7.63806 L -46.0161,7.68066 L -45.9909,7.72043
 L -45.9609,7.75671 L -45.9265,7.78896 L -45.8884,7.81664 L -45.8472,7.83932 L -45.8034,7.85666 L -45.7578,7.86836
 L -45.7111,7.87427 L -45.664,7.87427 z
M -47.0782,7.74557 L -47.0478,7.73778 L -47.0186,7.72621 L -46.9911,7.71109 L -46.9657,7.69264 L -46.9428,7.67114
 L -46.9228,7.64696 L -46.9059,7.62045 L -46.8926,7.59204 L -46.8829,7.56218 L -46.877,7.53134 L -46.875,7.5
 L -46.877,7.46867 L -46.8829,7.43784 L -46.8926,7.40797 L -46.9059,7.37956 L -46.9228,7.35306 L -46.9428,7.32887
 L -46.9657,7.30737 L -46.9911,7.28893 L -47.0186,7.2738 L -47.0478,7.26224 L -47.0782,7.25444 L -47.1093,7.2505
 L -47.1407,7.2505 L -47.1719,7.25444 L -47.2023,7.26224 L -47.2314,7.2738 L -47.259,7.28893 L -47.2844,7.30737
 L -47.3073,7.32887 L -47.3273,7.35306 L -47.3441,7.37956 L -47.3575,7.40797 L -47.3672,7.43784 L -47.373,7.46867
 L -47.375,7.5 L -47.373,7.53134 L -47.3672,7.56218 L -47.3575,7.59204 L -47.3441,7.62045 L -47.3273,7.64696
 L -47.3073,7.67114 L -47.2844,7.69264 L -47.259,7.71109 L -47.2314,7.72621 L -47.2023,7.73778 L -47.1719,7.74557
 L -47.1407,7.74951 L -47.1093,7.74951 z
M -48.9523,9.19101 L -48.779,9.17676 L -48.6255,9.14676 L -48.495,9.09476 L -48.39,9.01675 L -48.313,8.91075
 L -48.2658,8.77 L -48.25,8.58775 L -48.2658,8.4055 L -48.313,8.26476 L -48.39,8.15901 L -48.495,8.08176
 L -48.6255,8.02901 L -48.779,7.99876 L -48.9523,7.98451 L -49.142,7.97975 L -49.3313,7.98451 L -49.505,7.99876
 L -49.6593,8.02901 L -49.79,8.08176 L -49.8958,8.15901 L -49.975,8.26476 L -50.0252,8.4055 L -50.042,8.58775
 L -50.0252,8.77 L -49.975,8.91075 L -49.8958,9.01675 L -49.79,9.09476 L -49.6593,9.14676 L -49.505,9.17676
 L -49.3313,9.19101 L -49.142,9.19576 z
M -49.3065,8.87326 L -49.44,8.86575 L -49.55,8.85075 L -49.638,8.82576 L -49.7053,8.78825 L -49.751,8.73776
 L -49.7773,8.67175 L -49.786,8.58775 L -49.7773,8.50375 L -49.751,8.43776 L -49.7053,8.38751 L -49.638,8.35075
 L -49.55,8.32501 L -49.44,8.30975 L -49.3065,8.30226 L -49.146,8.29976 L -48.985,8.30226 L -48.85,8.30975
 L -48.7395,8.32501 L -48.652,8.35075 L -48.5863,8.38751 L -48.541,8.43776 L -48.5148,8.50375 L -48.506,8.58775
 L -48.5148,8.67175 L -48.541,8.73776 L -48.5863,8.78825 L -48.652,8.82576 L -48.7395,8.85075 L -48.85,8.86575
 L -48.985,8.87326 L -49.146,8.87576 z
M -44.1563,9.49115 L -44.0955,9.47554 L -44.0371,9.45242 L -43.9821,9.42216 L -43.9313,9.38527 L -43.8855,9.34229
 L -43.8455,9.2939 L -43.8119,9.24089 L -43.7851,9.18407 L -43.7657,9.12436 L -43.754,9.06267 L -43.75,9
 L -43.754,8.93735 L -43.7657,8.87566 L -43.7851,8.81595 L -43.8119,8.75912 L -43.8455,8.70612 L -43.8855,8.65773
 L -43.9313,8.61475 L -43.9821,8.57785 L -44.0371,8.54759 L -44.0955,8.52448 L -44.1563,8.50887 L -44.2186,8.50099
 L -44.2814,8.50099 L -44.3437,8.50887 L -44.4045,8.52448 L -44.4629,8.54759 L -44.5179,8.57785 L -44.5687,8.61475
 L -44.6145,8.65773 L -44.6545,8.70612 L -44.6882,8.75912 L -44.7149,8.81595 L -44.7343,8.87566 L -44.7461,8.93735
 L -44.75,9 L -44.7461,9.06267 L -44.7343,9.12436 L -44.7149,9.18407 L -44.6882,9.24089 L -44.6545,9.2939
 L -44.6145,9.34229 L -44.5687,9.38527 L -44.5179,9.42216 L -44.4629,9.45242 L -44.4045,9.47554 L -44.3437,9.49115
 L -44.2814,9.49902 L -44.2186,9.49902 z
M -45.6172,9.36836 L -45.5716,9.35666 L -45.5278,9.33932 L -45.4866,9.31664 L -45.4485,9.28896 L -45.4141,9.25671
 L -45.3841,9.22043 L -45.3589,9.18066 L -45.3388,9.13806 L -45.3243,9.09326 L -45.3155,9.04701 L -45.3125,9
 L -45.3155,8.953 L -45.3243,8.90675 L -45.3388,8.86195 L -45.3589,8.81935 L -45.3841,8.77959 L -45.4141,8.7433
 L -45.4485,8.71106 L -45.4866,8.68338 L -45.5278,8.66069 L -45.5716,8.64336 L -45.6172,8.63165 L -45.664,8.62575
 L -45.7111,8.62575 L -45.7578,8.63165 L -45.8034,8.64336 L -45.8472,8.66069 L -45.8884,8.68338 L -45.9265,8.71106
 L -45.9609,8.7433 L -45.9909,8.77959 L -46.0161,8.81935 L -46.0362,8.86195 L -46.0507,8.90675 L -46.0596,8.953
 L -46.0625,9 L -46.0596,9.04701 L -46.0507,9.09326 L -46.0362,9.13806 L -46.0161,9.18066 L -45.9909,9.22043
 L -45.9609,9.25671 L -45.9265,9.28896 L -45.8884,9.31664 L -45.8472,9.33932 L -45.8034,9.35666 L -45.7578,9.36836
 L -45.7111,9.37427 L -45.664,9.37427 z
M -47.0782,9.24557 L -47.0478,9.23778 L -47.0186,9.22621 L -46.9911,9.21109 L -46.9657,9.19264 L -46.9428,9.17114
 L -46.9228,9.14696 L -46.9059,9.12045 L -46.8926,9.09204 L -46.8829,9.06218 L -46.877,9.03134 L -46.875,9
 L -46.877,8.96867 L -46.8829,8.93784 L -46.8926,8.90797 L -46.9059,8.87956 L -46.9228,8.85306 L -46.9428,8.82887
 L -46.9657,8.80737 L -46.9911,8.78893 L -47.0186,8.7738 L -47.0478,8.76224 L -47.0782,8.75444 L -47.1093,8.7505
 L -47.1407,8.7505 L -47.1719,8.75444 L -47.2023,8.76224 L -47.2314,8.7738 L -47.259,8.78893 L -47.2844,8.80737
 L -47.3073,8.82887 L -47.3273,8.85306 L -47.3441,8.87956 L -47.3575,8.90797 L -47.3672,8.93784 L -47.373,8.96867
 L -47.375,9 L -47.373,9.03134 L -47.3672,9.06218 L -47.3575,9.09204 L -47.3441,9.12045 L -47.3273,9.14696
 L -47.3073,9.17114 L -47.2844,9.19264 L -47.259,9.21109 L -47.2314,9.22621 L -47.2023,9.23778 L -47.1719,9.24557
 L -47.1407,9.24951 L -47.1093,9.24951 z
M -44.1563,10.9911 L -44.0955,10.9755 L -44.0371,10.9524 L -43.9821,10.9221 L -43.9313,10.8853 L -43.8855,10.8423
 L -43.8455,10.7939 L -43.8119,10.7409 L -43.7851,10.6841 L -43.7657,10.6243 L -43.754,10.5627 L -43.75,10.5
 L -43.754,10.4373 L -43.7657,10.3757 L -43.7851,10.3159 L -43.8119,10.2591 L -43.8455,10.2061 L -43.8855,10.1577
 L -43.9313,10.1147 L -43.9821,10.0779 L -44.0371,10.0476 L -44.0955,10.0245 L -44.1563,10.0089 L -44.2186,10.001
 L -44.2814,10.001 L -44.3437,10.0089 L -44.4045,10.0245 L -44.4629,10.0476 L -44.5179,10.0779 L -44.5687,10.1147
 L -44.6145,10.1577 L -44.6545,10.2061 L -44.6882,10.2591 L -44.7149,10.3159 L -44.7343,10.3757 L -44.7461,10.4373
 L -44.75,10.5 L -44.7461,10.5627 L -44.7343,10.6243 L -44.7149,10.6841 L -44.6882,10.7409 L -44.6545,10.7939
 L -44.6145,10.8423 L -44.5687,10.8853 L -44.5179,10.9221 L -44.4629,10.9524 L -44.4045,10.9755 L -44.3437,10.9911
 L -44.2814,10.999 L -44.2186,10.999 z
M -45.6172,10.8683 L -45.5716,10.8566 L -45.5278,10.8393 L -45.4866,10.8166 L -45.4485,10.7889 L -45.4141,10.7567
 L -45.3841,10.7204 L -45.3589,10.6806 L -45.3388,10.638 L -45.3243,10.5932 L -45.3155,10.547 L -45.3125,10.5
 L -45.3155,10.453 L -45.3243,10.4068 L -45.3388,10.362 L -45.3589,10.3194 L -45.3841,10.2796 L -45.4141,10.2433
 L -45.4485,10.2111 L -45.4866,10.1834 L -45.5278,10.1607 L -45.5716,10.1434 L -45.6172,10.1317 L -45.664,10.1257
 L -45.7111,10.1257 L -45.7578,10.1317 L -45.8034,10.1434 L -45.8472,10.1607 L -45.8884,10.1834 L -45.9265,10.2111
 L -45.9609,10.2433 L -45.9909,10.2796 L -46.0161,10.3194 L -46.0362,10.362 L -46.0507,10.4068 L -46.0596,10.453
 L -46.0625,10.5 L -46.0596,10.547 L -46.0507,10.5932 L -46.0362,10.638 L -46.0161,10.6806 L -45.9909,10.7204
 L -45.9609,10.7567 L -45.9265,10.7889 L -45.8884,10.8166 L -45.8472,10.8393 L -45.8034,10.8566 L -45.7578,10.8683
 L -45.7111,10.8743 L -45.664,10.8743 z
M -47.0782,10.7456 L -47.0478,10.7378 L -47.0186,10.7262 L -46.9911,10.7111 L -46.9657,10.6926 L -46.9428,10.6711
 L -46.9228,10.6469 L -46.9059,10.6204 L -46.8926,10.592 L -46.8829,10.5622 L -46.877,10.5313 L -46.875,10.5
 L -46.877,10.4687 L -46.8829,10.4378 L -46.8926,10.408 L -46.9059,10.3796 L -46.9228,10.3531 L -46.9428,10.3289
 L -46.9657,10.3074 L -46.9911,10.2889 L -47.0186,10.2738 L -47.0478,10.2622 L -47.0782,10.2544 L -47.1093,10.2505
 L -47.1407,10.2505 L -47.1719,10.2544 L -47.2023,10.2622 L -47.2314,10.2738 L -47.259,10.2889 L -47.2844,10.3074
 L -47.3073,10.3289 L -47.3273,10.3531 L -47.3441,10.3796 L -47.3575,10.408 L -47.3672,10.4378 L -47.373,10.4687
 L -47.375,10.5 L -47.373,10.5313 L -47.3672,10.5622 L -47.3575,10.592 L -47.3441,10.6204 L -47.3273,10.6469
 L -47.3073,10.6711 L -47.2844,10.6926 L -47.259,10.7111 L -47.2314,10.7262 L -47.2023,10.7378 L -47.1719,10.7456
 L -47.1407,10.7495 L -47.1093,10.7495 z
M 48.1372,15.9847 L 48.3022,15.9345 L 48.4482,15.8545 L 48.5722,15.7485 L 48.6729,15.6192 L 48.7472,15.4695
 L 48.7929,15.3027 L 48.8082,15.1225 L 48.7969,14.9792 L 48.7632,14.8375 L 48.7064,14.7035 L 48.6242,14.5855
 L 48.5102,14.4832 L 48.3742,14.4045 L 48.2262,14.3542 L 48.0742,14.3375 L 47.9104,14.3537 L 47.7672,14.4025
 L 47.6427,14.4882 L 47.5352,14.6175 L 47.5282,14.6105 L 47.5364,14.4962 L 47.5552,14.3675 L 47.5857,14.235
 L 47.6292,14.1115 L 47.6887,14.0007 L 47.7652,13.9085 L 47.8616,13.8462 L 47.9792,13.8255 L 48.0939,13.8447
 L 48.1882,13.9025 L 48.2572,13.9852 L 48.2962,14.0815 L 48.7622,14.0815 L 48.7307,13.9355 L 48.6762,13.8075
 L 48.6007,13.6982 L 48.5061,13.6085 L 48.3949,13.537 L 48.2672,13.4845 L 48.1267,13.4523 L 47.9752,13.4415
 L 47.7339,13.4705 L 47.5322,13.5575 L 47.3677,13.6907 L 47.2362,13.8585 L 47.1367,14.0545 L 47.0682,14.2725
 L 47.0292,14.5015 L 47.0162,14.7305 L 47.0267,14.9642 L 47.0582,15.1935 L 47.1167,15.4087 L 47.2082,15.6005
 L 47.3344,15.7625 L 47.4972,15.8905 L 47.7019,15.9737 L 47.9542,16.0015 z
M 47.8334,15.608 L 47.7552,15.5795 L 47.6877,15.5352 L 47.6311,15.4785 L 47.5864,15.4102 L 47.5542,15.3335
 L 47.5347,15.252 L 47.5282,15.1695 L 47.5341,15.0817 L 47.5522,14.9985 L 47.5832,14.9222 L 47.6262,14.8555
 L 47.6817,14.8 L 47.7502,14.7575 L 47.8307,14.7305 L 47.9221,14.7215 L 48.0112,14.7315 L 48.0882,14.7615
 L 48.1534,14.8067 L 48.2052,14.8645 L 48.2452,14.9327 L 48.2732,15.0095 L 48.2904,15.0917 L 48.2962,15.1765
 L 48.2899,15.2585 L 48.2711,15.3385 L 48.2409,15.4132 L 48.1982,15.4795 L 48.1444,15.5355 L 48.0812,15.5795
 L 48.0074,15.608 L 47.9221,15.6175 z
M 34.0222,15.926 L 34.1877,15.887 L 34.3401,15.8237 L 34.4737,15.736 L 34.5852,15.624 L 34.6717,15.488
 L 34.7272,15.329 L 34.7457,15.15 L 34.7172,14.9577 L 34.6317,14.795 L 34.4959,14.6727 L 34.3167,14.602
 L 34.3167,14.595 L 34.4759,14.5257 L 34.5897,14.414 L 34.6587,14.2705 L 34.6817,14.106 L 34.6632,13.9552
 L 34.6077,13.823 L 34.5237,13.7087 L 34.4177,13.614 L 34.2939,13.539 L 34.1547,13.486 L 34.0084,13.4538
 L 33.8616,13.443 L 33.6822,13.4575 L 33.5197,13.501 L 33.3774,13.57 L 33.2567,13.663 L 33.1589,13.7797
 L 33.0857,13.92 L 33.0382,14.0807 L 33.0177,14.259 L 33.4657,14.259 L 33.4882,14.0882 L 33.5637,13.95
 L 33.6904,13.8577 L 33.8667,13.827 L 34.0024,13.8485 L 34.1217,13.913 L 34.2057,14.0167 L 34.2337,14.158
 L 34.2212,14.2535 L 34.1837,14.328 L 34.1267,14.3845 L 34.0556,14.426 L 33.9747,14.4532 L 33.8876,14.467
 L 33.8004,14.4705 L 33.7187,14.467 L 33.7187,14.787 L 33.8107,14.7885 L 33.9067,14.793 L 34.0017,14.8052
 L 34.0887,14.832 L 34.1587,14.8765 L 34.2027,14.942 L 34.2259,15.034 L 34.2337,15.16 L 34.2047,15.3237
 L 34.1177,15.449 L 33.9887,15.5285 L 33.8336,15.555 L 33.7322,15.5455 L 33.6457,15.517 L 33.5732,15.4725
 L 33.5137,15.415 L 33.4677,15.345 L 33.4337,15.263 L 33.4117,15.1727 L 33.4017,15.078 L 32.9537,15.078
 L 32.9672,15.2765 L 33.0137,15.45 L 33.0909,15.5977 L 33.1947,15.719 L 33.3242,15.8132 L 33.4787,15.882
 L 33.6554,15.9247 L 33.8497,15.939 z
M 35.9011,15.9235 L 36.0686,15.877 L 36.2216,15.7945 L 36.3546,15.671 L 36.4654,15.5025 L 36.5496,15.285
 L 36.6036,15.0132 L 36.6216,14.682 L 36.6036,14.36 L 36.5496,14.094 L 36.4654,13.8787 L 36.3546,13.711
 L 36.2216,13.5875 L 36.0686,13.505 L 35.9011,13.4585 L 35.7226,13.443 L 35.5456,13.4585 L 35.3786,13.505
 L 35.2266,13.5875 L 35.0946,13.711 L 34.9851,13.8787 L 34.9006,14.094 L 34.8474,14.36 L 34.8296,14.682
 L 34.8474,15.0132 L 34.9006,15.285 L 34.9851,15.5025 L 35.0946,15.671 L 35.2266,15.7945 L 35.3786,15.877
 L 35.5456,15.9235 L 35.7226,15.939 z
M 35.5954,15.5305 L 35.5016,15.457 L 35.4351,15.349 L 35.3896,15.221 L 35.3616,15.0802 L 35.3476,14.934
 L 35.3431,14.7962 L 35.3426,14.529 L 35.3466,14.438 L 35.3546,14.345 L 35.3679,14.2507 L 35.3876,14.158
 L 35.4161,14.07 L 35.4536,13.992 L 35.5014,13.9252 L 35.5606,13.873 L 35.6336,13.8385 L 35.7226,13.827
 L 35.8114,13.8385 L 35.8856,13.873 L 35.9466,13.9252 L 35.9956,13.992 L 36.0339,14.07 L 36.0606,14.158
 L 36.0801,14.2507 L 36.0946,14.345 L 36.1039,14.438 L 36.1076,14.529 L 36.1096,14.681 L 36.1079,14.7962
 L 36.1026,14.934 L 36.0894,15.0802 L 36.0616,15.221 L 36.0156,15.349 L 35.9476,15.457 L 35.8524,15.5305
 L 35.7226,15.555 z
M -28.3211,15.926 L -28.1556,15.887 L -28.0031,15.8237 L -27.8696,15.736 L -27.7581,15.624 L -27.6716,15.488
 L -27.6161,15.329 L -27.5976,15.15 L -27.6261,14.9577 L -27.7116,14.795 L -27.8474,14.6727 L -28.0266,14.602
 L -28.0266,14.595 L -27.8674,14.5257 L -27.7536,14.414 L -27.6846,14.2705 L -27.6616,14.106 L -27.6801,13.9552
 L -27.7356,13.823 L -27.8196,13.7087 L -27.9256,13.614 L -28.0494,13.539 L -28.1886,13.486 L -28.3349,13.4538
 L -28.4816,13.443 L -28.6611,13.4575 L -28.8236,13.501 L -28.9659,13.57 L -29.0866,13.663 L -29.1844,13.7797
 L -29.2576,13.92 L -29.3051,14.0807 L -29.3256,14.259 L -28.8776,14.259 L -28.8551,14.0882 L -28.7796,13.95
 L -28.6529,13.8577 L -28.4766,13.827 L -28.3409,13.8485 L -28.2216,13.913 L -28.1376,14.0167 L -28.1096,14.158
 L -28.1221,14.2535 L -28.1596,14.328 L -28.2166,14.3845 L -28.2876,14.426 L -28.3686,14.4532 L -28.4556,14.467
 L -28.5429,14.4705 L -28.6246,14.467 L -28.6246,14.787 L -28.5326,14.7885 L -28.4366,14.793 L -28.3416,14.8052
 L -28.2546,14.832 L -28.1846,14.8765 L -28.1406,14.942 L -28.1174,15.034 L -28.1096,15.16 L -28.1386,15.3237
 L -28.2256,15.449 L -28.3546,15.5285 L -28.5096,15.555 L -28.6111,15.5455 L -28.6976,15.517 L -28.7701,15.4725
 L -28.8296,15.415 L -28.8756,15.345 L -28.9096,15.263 L -28.9316,15.1727 L -28.9416,15.078 L -29.3896,15.078
 L -29.3761,15.2765 L -29.3296,15.45 L -29.2523,15.5977 L -29.1486,15.719 L -29.0191,15.8132 L -28.8646,15.882
 L -28.6879,15.9247 L -28.4936,15.939 z
M -42.3806,15.9235 L -42.2131,15.877 L -42.0601,15.7945 L -41.9271,15.671 L -41.8164,15.5025 L -41.7321,15.285
 L -41.6781,15.0132 L -41.6601,14.682 L -41.6781,14.36 L -41.7321,14.094 L -41.8164,13.8787 L -41.9271,13.711
 L -42.0601,13.5875 L -42.2131,13.505 L -42.3806,13.4585 L -42.5591,13.443 L -42.7361,13.4585 L -42.9031,13.505
 L -43.0551,13.5875 L -43.1871,13.711 L -43.2966,13.8787 L -43.3811,14.094 L -43.4344,14.36 L -43.4521,14.682
 L -43.4344,15.0132 L -43.3811,15.285 L -43.2966,15.5025 L -43.1871,15.671 L -43.0551,15.7945 L -42.9031,15.877
 L -42.7361,15.9235 L -42.5591,15.939 z
M -42.6864,15.5305 L -42.7801,15.457 L -42.8466,15.349 L -42.8921,15.221 L -42.9201,15.0802 L -42.9341,14.934
 L -42.9386,14.7962 L -42.9391,14.529 L -42.9351,14.438 L -42.9271,14.345 L -42.9138,14.2507 L -42.8941,14.158
 L -42.8656,14.07 L -42.8281,13.992 L -42.7803,13.9252 L -42.7211,13.873 L -42.6481,13.8385 L -42.5591,13.827
 L -42.4704,13.8385 L -42.3961,13.873 L -42.3351,13.9252 L -42.2861,13.992 L -42.2479,14.07 L -42.2211,14.158
 L -42.2016,14.2507 L -42.1871,14.345 L -42.1779,14.438 L -42.1741,14.529 L -42.1721,14.681 L -42.1739,14.7962
 L -42.1791,14.934 L -42.1924,15.0802 L -42.2201,15.221 L -42.2661,15.349 L -42.3341,15.457 L -42.4294,15.5305
 L -42.5591,15.555 z
M 49.9636,15.986 L 50.1311,15.9395 L 50.2841,15.857 L 50.4171,15.7335 L 50.5279,15.565 L 50.6121,15.3475
 L 50.6661,15.0757 L 50.6841,14.7445 L 50.6661,14.4225 L 50.6121,14.1565 L 50.5279,13.9412 L 50.4171,13.7735
 L 50.2841,13.65 L 50.1311,13.5675 L 49.9636,13.521 L 49.7851,13.5055 L 49.6081,13.521 L 49.4411,13.5675
 L 49.2891,13.65 L 49.1571,13.7735 L 49.0476,13.9412 L 48.9631,14.1565 L 48.9099,14.4225 L 48.8921,14.7445
 L 48.9099,15.0757 L 48.9631,15.3475 L 49.0476,15.565 L 49.1571,15.7335 L 49.2891,15.857 L 49.4411,15.9395
 L 49.6081,15.986 L 49.7851,16.0015 z
M 49.6579,15.593 L 49.5641,15.5195 L 49.4976,15.4115 L 49.4521,15.2835 L 49.4241,15.1427 L 49.4101,14.9965
 L 49.4056,14.8587 L 49.4051,14.5915 L 49.4091,14.5005 L 49.4171,14.4075 L 49.4304,14.3132 L 49.4501,14.2205
 L 49.4786,14.1325 L 49.5161,14.0545 L 49.5639,13.9877 L 49.6231,13.9355 L 49.6961,13.901 L 49.7851,13.8895
 L 49.8739,13.901 L 49.9481,13.9355 L 50.0091,13.9877 L 50.0581,14.0545 L 50.0964,14.1325 L 50.1231,14.2205
 L 50.1426,14.3132 L 50.1571,14.4075 L 50.1664,14.5005 L 50.1701,14.5915 L 50.1721,14.7435 L 50.1704,14.8587
 L 50.1651,14.9965 L 50.1519,15.1427 L 50.1241,15.2835 L 50.0781,15.4115 L 50.0101,15.5195 L 49.9149,15.593
 L 49.7851,15.6175 z
" stroke="red" fill="black" stroke-width="0.01"/>
<path d="
M 85,-26 L -85,-26 L -85,26 L 85,26 z
M -42.8781,-3.5 L -42.8781,-12.5 L -42.2781,-12.5 L -42.2781,-3.5 z
M -28.8156,-3.5 L -28.8156,-12.5 L -28.2156,-12.5 L -28.2156,-3.5 z
M 34.4656,-3.5 L 34.4656,-12.5 L 35.0656,-12.5 L 35.0656,-3.5 z
M 48.5281,-3.5 L 48.5281,-12.5 L 49.1281,-12.5 L 49.1281,-3.5 z
M 41.5969,-3.5 L 41.5969,-11.5 L 41.9969,-11.5 L 41.9969,-3.5 z
M 22.8469,-3.5 L 22.8469,-11.5 L 23.2469,-11.5 L 23.2469,-3.5 z
M 11.1281,-3.5 L 11.1281,-11.5 L 11.5281,-11.5 L 11.5281,-3.5 z
M -38.0906,-3.5 L -38.0906,-11.5 L -37.6906,-11.5 L -37.6906,-3.5 z
M -33.4031,-3.5 L -33.4031,-11.5 L -33.0031,-11.5 L -33.0031,-3.5 z
M -24.0281,-3.5 L -24.0281,-11.5 L -23.6281,-11.5 L -23.6281,-3.5 z
M -12.3094,-3.5 L -12.3094,-11.5 L -11.9094,-11.5 L -11.9094,-3.5 z
M -0.590637,-3.5 L -0.590637,-11.5 L -0.190628,-11.5 L -0.190628,-3.5 z
M 46.2844,-3.5 L 46.2844,-9.5 L 46.6844,-9.5 L 46.6844,-3.5 z
M 36.9094,-3.5 L 36.9094,-9.5 L 37.3094,-9.5 L 37.3094,-3.5 z
M 39.2531,-3.5 L 39.2531,-9.5 L 39.6531,-9.5 L 39.6531,-3.5 z
M 43.9406,-3.5 L 43.9406,-9.5 L 44.3406,-9.5 L 44.3406,-3.5 z
M 29.8781,-3.5 L 29.8781,-8 L 30.2781,-8 L 30.2781,-3.5 z
M 32.2219,-3.5 L 32.2219,-8 L 32.6219,-8 L 32.6219,-3.5 z
M 27.5344,-3.5 L 27.5344,-8 L 27.9344,-8 L 27.9344,-3.5 z
M -26.3719,-3.5 L -26.3719,-8 L -25.9719,-8 L -25.9719,-3.5 z
M -21.6844,-3.5 L -21.6844,-8 L -21.2844,-8 L -21.2844,-3.5 z
M -19.3406,-3.5 L -19.3406,-8 L -18.9406,-8 L -18.9406,-3.5 z
M -16.9969,-3.5 L -16.9969,-8 L -16.5969,-8 L -16.5969,-3.5 z
M -14.6531,-3.5 L -14.6531,-8 L -14.2531,-8 L -14.2531,-3.5 z
M -9.96564,-3.5 L -9.96564,-8 L -9.56563,-8 L -9.56563,-3.5 z
M -7.62189,-3.5 L -7.62189,-8 L -7.22188,-8 L -7.22188,-3.5 z
M -5.27814,-3.5 L -5.27814,-8 L -4.87813,-8 L -4.87813,-3.5 z
M -2.93439,-3.5 L -2.93439,-8 L -2.53438,-8 L -2.53438,-3.5 z
M 1.75311,-3.5 L 1.75311,-8 L 2.15312,-8 L 2.15312,-3.5 z
M 4.09686,-3.5 L 4.09686,-8 L 4.49687,-8 L 4.49687,-3.5 z
M 6.44061,-3.5 L 6.44061,-8 L 6.84062,-8 L 6.84062,-3.5 z
M 8.78436,-3.5 L 8.78436,-8 L 9.18437,-8 L 9.18437,-3.5 z
M 13.4719,-3.5 L 13.4719,-8 L 13.8719,-8 L 13.8719,-3.5 z
M 15.8156,-3.5 L 15.8156,-8 L 16.2156,-8 L 16.2156,-3.5 z
M 18.1594,-3.5 L 18.1594,-8 L 18.5594,-8 L 18.5594,-3.5 z
M 20.5031,-3.5 L 20.5031,-8 L 20.9031,-8 L 20.9031,-3.5 z
M 25.1906,-3.5 L 25.1906,-8 L 25.5906,-8 L 25.5906,-3.5 z
M -35.7469,-3.5 L -35.7469,-6.5 L -35.3469,-6.5 L -35.3469,-3.5 z
M -40.4344,-3.5 L -40.4344,-6.5 L -40.0344,-6.5 L -40.0344,-3.5 z
M -31.0594,-3.5 L -31.0594,-6.5 L -30.6594,-6.5 L -30.6594,-3.5 z
M 59.9058,1.49704 L 59.7189,1.47342 L 59.5365,1.42657 L 59.3613,1.35724 L 59.1963,1.26648 L 59.0439,1.15576
 L 58.9065,1.02681 L 58.7865,0.881668 L 58.6855,0.722626 L 58.6053,0.552185 L 58.5471,0.373032 L 58.5118,0.187988
 L 58.5,-0 L 58.5118,-0.187988 L 58.5471,-0.373032 L 58.6053,-0.552185 L 58.6855,-0.722626 L 58.7865,-0.881668
 L 58.9065,-1.02681 L 59.0439,-1.15576 L 59.1963,-1.26648 L 59.3613,-1.35724 L 59.5365,-1.42657 L 59.7189,-1.47342
 L 59.9058,-1.49704 L 60.0942,-1.49704 L 60.2811,-1.47342 L 60.4635,-1.42657 L 60.6387,-1.35724 L 60.8037,-1.26648
 L 60.9561,-1.15576 L 61.0934,-1.02681 L 61.2135,-0.881668 L 61.3145,-0.722626 L 61.3947,-0.552185 L 61.4529,-0.373032
 L 61.4882,-0.187988 L 61.5,-0 L 61.4882,0.187988 L 61.4529,0.373032 L 61.3947,0.552185 L 61.3145,0.722626
 L 61.2135,0.881668 L 61.0934,1.02681 L 60.9561,1.15576 L 60.8037,1.26648 L 60.6387,1.35724 L 60.4635,1.42657
 L 60.2811,1.47342 L 60.0942,1.49704 z
M -60.0942,1.49704 L -60.2811,1.47342 L -60.4635,1.42657 L -60.6387,1.35724 L -60.8037,1.26648 L -60.9561,1.15576
 L -61.0934,1.02681 L -61.2135,0.881668 L -61.3145,0.722626 L -61.3947,0.552185 L -61.4529,0.373032 L -61.4882,0.187988
 L -61.5,-0 L -61.4882,-0.187988 L -61.4529,-0.373032 L -61.3947,-0.552185 L -61.3145,-0.722626 L -61.2135,-0.881668
 L -61.0934,-1.02681 L -60.9561,-1.15576 L -60.8037,-1.26648 L -60.6387,-1.35724 L -60.4635,-1.42657 L -60.2811,-1.47342
 L -60.0942,-1.49704 L -59.9058,-1.49704 L -59.7189,-1.47342 L -59.5365,-1.42657 L -59.3613,-1.35724 L -59.1963,-1.26648
 L -59.0439,-1.15576 L -58.9065,-1.02681 L -58.7865,-0.881668 L -58.6855,-0.722626 L -58.6053,-0.552185 L -58.5471,-0.373032
 L -58.5118,-0.187988 L -58.5,-0 L -58.5118,0.187988 L -58.5471,0.373032 L -58.6053,0.552185 L -58.6855,0.722626
 L -58.7865,0.881668 L -58.9065,1.02681 L -59.0439,1.15576 L -59.1963,1.26648 L -59.3613,1.35724 L -59.5365,1.42657
 L -59.7189,1.47342 L -59.9058,1.49704 z
M -54.0942,1.49704 L -54.2811,1.47342 L -54.4635,1.42657 L -54.6387,1.35724 L -54.8037,1.26648 L -54.9561,1.15576
 L -55.0934,1.02681 L -55.2135,0.881668 L -55.3145,0.722626 L -55.3947,0.552185 L -55.4529,0.373032 L -55.4882,0.187988
 L -55.5,-0 L -55.4882,-0.187988 L -55.4529,-0.373032 L -55.3947,-0.552185 L -55.3145,-0.722626 L -55.2135,-0.881668
 L -55.0934,-1.02681 L -54.9561,-1.15576 L -54.8037,-1.26648 L -54.6387,-1.35724 L -54.4635,-1.42657 L -54.2811,-1.47342
 L -54.0942,-1.49704 L 54.0942,-1.49704 L 54.2811,-1.47342 L 54.4635,-1.42657 L 54.6387,-1.35724 L 54.8037,-1.26648
 L 54.9561,-1.15576 L 55.0934,-1.02681 L 55.2135,-0.881668 L 55.3145,-0.722626 L 55.3947,-0.552185 L 55.4529,-0.373032
 L 55.4882,-0.187988 L 55.5,-0 L 55.4882,0.187988 L 55.4529,0.373032 L 55.3947,0.552185 L 55.3145,0.722626
 L 55.2135,0.881668 L 55.0934,1.02681 L 54.9561,1.15576 L 54.8037,1.26648 L 54.6387,1.35724 L 54.4635,1.42657
 L 54.2811,1.47342 L 54.0942,1.49704 z
M -42.8781,12.5 L -42.8781,3.5 L -42.2781,3.5 L -42.2781,12.5 z
M -28.8156,12.5 L -28.8156,3.5 L -28.2156,3.5 L -28.2156,12.5 z
M 34.4656,12.5 L 34.4656,3.5 L 35.0656,3.5 L 35.0656,12.5 z
M 48.5281,12.5 L 48.5281,3.5 L 49.1281,3.5 L 49.1281,12.5 z
M -38.0906,11.5 L -38.0906,3.5 L -37.6906,3.5 L -37.6906,11.5 z
M -33.4031,11.5 L -33.4031,3.5 L -33.0031,3.5 L -33.0031,11.5 z
M -24.0281,11.5 L -24.0281,3.5 L -23.6281,3.5 L -23.6281,11.5 z
M -12.3094,11.5 L -12.3094,3.5 L -11.9094,3.5 L -11.9094,11.5 z
M -0.590637,11.5 L -0.590637,3.5 L -0.190628,3.5 L -0.190628,11.5 z
M 11.1281,11.5 L 11.1281,3.5 L 11.5281,3.5 L 11.5281,11.5 z
M 22.8469,11.5 L 22.8469,3.5 L 23.2469,3.5 L 23.2469,11.5 z
M 41.5969,11.5 L 41.5969,3.5 L 41.9969,3.5 L 41.9969,11.5 z
M -40.4344,6.5 L -40.4344,3.5 L -40.0344,3.5 L -40.0344,6.5 z
M -35.7469,6.5 L -35.7469,3.5 L -35.3469,3.5 L -35.3469,6.5 z
M -31.0594,6.5 L -31.0594,3.5 L -30.6594,3.5 L -30.6594,6.5 z
M -26.3719,8 L -26.3719,3.5 L -25.9719,3.5 L -25.9719,8 z
M -21.6844,8 L -21.6844,3.5 L -21.2844,3.5 L -21.2844,8 z
M -19.3406,8 L -19.3406,3.5 L -18.9406,3.5 L -18.9406,8 z
M -16.9969,8 L -16.9969,3.5 L -16.5969,3.5 L -16.5969,8 z
M -14.6531,8 L -14.6531,3.5 L -14.2531,3.5 L -14.2531,8 z
M -9.96564,8 L -9.96564,3.5 L -9.56563,3.5 L -9.56563,8 z
M -7.62189,8 L -7.62189,3.5 L -7.22188,3.5 L -7.22188,8 z
M -5.27814,8 L -5.27814,3.5 L -4.87813,3.5 L -4.87813,8 z
M -2.93439,8 L -2.93439,3.5 L -2.53438,3.5 L -2.53438,8 z
M 1.75311,8 L 1.75311,3.5 L 2.15312,3.5 L 2.15312,8 z
M 4.09686,8 L 4.09686,3.5 L 4.49687,3.5 L 4.49687,8 z
M 6.44061,8 L 6.44061,3.5 L 6.84062,3.5 L 6.84062,8 z
M 8.78436,8 L 8.78436,3.5 L 9.18437,3.5 L 9.18437,8 z
M 13.4719,8 L 13.4719,3.5 L 13.8719,3.5 L 13.8719,8 z
M 15.8156,8 L 15.8156,3.5 L 16.2156,3.5 L 16.2156,8 z
M 18.1594,8 L 18.1594,3.5 L 18.5594,3.5 L 18.5594,8 z
M 20.5031,8 L 20.5031,3.5 L 20.9031,3.5 L 20.9031,8 z
M 25.1906,8 L 25.1906,3.5 L 25.5906,3.5 L 25.5906,8 z
M 27.5344,8 L 27.5344,3.5 L 27.9344,3.5 L 27.9344,8 z
M 29.8781,8 L 29.8781,3.5 L 30.2781,3.5 L 30.2781,8 z
M 32.2219,8 L 32.2219,3.5 L 32.6219,3.5 L 32.6219,8 z
M 36.9094,9.5 L 36.9094,3.5 L 37.3094,3.5 L 37.3094,9.5 z
M 39.2531,9.5 L 39.2531,3.5 L 39.6531,3.5 L 39.6531,9.5 z
M 43.9406,9.5 L 43.9406,3.5 L 44.3406,3.5 L 44.3406,9.5 z
M 46.2844,9.5 L 46.2844,3.5 L 46.6844,3.5 L 46.6844,9.5 z
" stroke="blue" fill="none" stroke-width="0.01"/>
</svg>
