<?xml version="1.0" standalone="no"?>
<!DOCTYPE svg PUBLIC "-//W3C//DTD SVG 1.1//EN" "http://www.w3.org/Graphics/SVG/1.1/DTD/svg11.dtd">
<svg width="170mm" height="52mm" viewBox="-85 -26 170 52" xmlns="http://www.w3.org/2000/svg" version="1.1">
<title>OpenSCAD Model</title>
<path d="
M 85,-26 L -85,-26 L -85,26 L 85,26 z
M -42.8781,-3.5 L -42.8781,-12.5 L -42.2781,-12.5 L -42.2781,-3.5 z
M -28.8156,-3.5 L -28.8156,-12.5 L -28.2156,-12.5 L -28.2156,-3.5 z
M 34.4656,-3.5 L 34.4656,-12.5 L 35.0656,-12.5 L 35.0656,-3.5 z
M 48.5281,-3.5 L 48.5281,-12.5 L 49.1281,-12.5 L 49.1281,-3.5 z
M 41.5969,-3.5 L 41.5969,-11.5 L 41.9969,-11.5 L 41.9969,-3.5 z
M 22.8469,-3.5 L 22.8469,-11.5 L 23.2469,-11.5 L 23.2469,-3.5 z
M 11.1281,-3.5 L 11.1281,-11.5 L 11.5281,-11.5 L 11.5281,-3.5 z
M -38.0906,-3.5 L -38.0906,-11.5 L -37.6906,-11.5 L -37.6906,-3.5 z
M -33.4031,-3.5 L -33.4031,-11.5 L -33.0031,-11.5 L -33.0031,-3.5 z
M -24.0281,-3.5 L -24.0281,-11.5 L -23.6281,-11.5 L -23.6281,-3.5 z
M -12.3094,-3.5 L -12.3094,-11.5 L -11.9094,-11.5 L -11.9094,-3.5 z
M -0.590637,-3.5 L -0.590637,-11.5 L -0.190628,-11.5 L -0.190628,-3.5 z
M 46.2844,-3.5 L 46.2844,-9.5 L 46.6844,-9.5 L 46.6844,-3.5 z
M 36.9094,-3.5 L 36.9094,-9.5 L 37.3094,-9.5 L 37.3094,-3.5 z
M 39.2531,-3.5 L 39.2531,-9.5 L 39.6531,-9.5 L 39.6531,-3.5 z
M 43.9406,-3.5 L 43.9406,-9.5 L 44.3406,-9.5 L 44.3406,-3.5 z
M 29.8781,-3.5 L 29.8781,-8 L 30.2781,-8 L 30.2781,-3.5 z
M 32.2219,-3.5 L 32.2219,-8 L 32.6219,-8 L 32.6219,-3.5 z
M 27.5344,-3.5 L 27.5344,-8 L 27.9344,-8 L 27.9344,-3.5 z
M -26.3719,-3.5 L -26.3719,-8 L -25.9719,-8 L -25.9719,-3.5 z
M -21.6844,-3.5 L -21.6844,-8 L -21.2844,-8 L -21.2844,-3.5 z
M -19.3406,-3.5 L -19.3406,-8 L -18.9406,-8 L -18.9406,-3.5 z
M -16.9969,-3.5 L -16.9969,-8 L -16.5969,-8 L -16.5969,-3.5 z
M -14.6531,-3.5 L -14.6531,-8 L -14.2531,-8 L -14.2531,-3.5 z
M -9.96564,-3.5 L -9.96564,-8 L -9.56563,-8 L -9.56563,-3.5 z
M -7.62189,-3.5 L -7.62189,-8 L -7.22188,-8 L -7.22188,-3.5 z
M -5.27814,-3.5 L -5.27814,-8 L -4.87813,-8 L -4.87813,-3.5 z
M -2.93439,-3.5 L -2.93439,-8 L -2.53438,-8 L -2.53438,-3.5 z
M 1.75311,-3.5 L 1.75311,-8 L 2.15312,-8 L 2.15312,-3.5 z
M 4.09686,-3.5 L 4.09686,-8 L 4.49687,-8 L 4.49687,-3.5 z
M 6.44061,-3.5 L 6.44061,-8 L 6.84062,-8 L 6.84062,-3.5 z
M 8.78436,-3.5 L 8.78436,-8 L 9.18437,-8 L 9.18437,-3.5 z
M 13.4719,-3.5 L 13.4719,-8 L 13.8719,-8 L 13.8719,-3.5 z
M 15.8156,-3.5 L 15.8156,-8 L 16.2156,-8 L 16.2156,-3.5 z
M 18.1594,-3.5 L 18.1594,-8 L 18.5594,-8 L 18.5594,-3.5 z
M 20.5031,-3.5 L 20.5031,-8 L 20.9031,-8 L 20.9031,-3.5 z
M 25.1906,-3.5 L 25.1906,-8 L 25.5906,-8 L 25.5906,-3.5 z
M -35.7469,-3.5 L -35.7469,-6.5 L -35.3469,-6.5 L -35.3469,-3.5 z
M -40.4344,-3.5 L -40.4344,-6.5 L -40.0344,-6.5 L -40.0344,-3.5 z
M -31.0594,-3.5 L -31.0594,-6.5 L -30.6594,-6.5 L -30.6594,-3.5 z
M 59.9058,1.49704 L 59.7189,1.47342 L 59.5365,1.42657 L 59.3613,1.35724 L 59.1963,1.26648 L 59.0439,1.15576
 L 58.9065,1.02681 L 58.7865,0.881668 L 58.6855,0.722626 L 58.6053,0.552185 L 58.5471,0.373032 L 58.5118,0.187988
 L 58.5,-0 L 58.5118,-0.187988 L 58.5471,-0.373032 L 58.6053,-0.552185 L 58.6855,-0.722626 L 58.7865,-0.881668
 L 58.9065,-1.02681 L 59.0439,-1.15576 L 59.1963,-1.26648 L 59.3613,-1.35724 L 59.5365,-1.42657 L 59.7189,-1.47342
 L 59.9058,-1.49704 L 60.0942,-1.49704 L 60.2811,-1.47342 L 60.4635,-1.42657 L 60.6387,-1.35724 L 60.8037,-1.26648
 L 60.9561,-1.15576 L 61.0934,-1.02681 L 61.2135,-0.881668 L 61.3145,-0.722626 L 61.3947,-0.552185 L 61.4529,-0.373032
 L 61.4882,-0.187988 L 61.5,-0 L 61.4882,0.187988 L 61.4529,0.373032 L 61.3947,0.552185 L 61.3145,0.722626
 L 61.2135,0.881668 L 61.0934,1.02681 L 60.9561,1.15576 L 60.8037,1.26648 L 60.6387,1.35724 L 60.4635,1.42657
 L 60.2811,1.47342 L 60.0942,1.49704 z
M -60.0942,1.49704 L -60.2811,1.47342 L -60.4635,1.42657 L -60.6387,1.35724 L -60.8037,1.26648 L -60.9561,1.15576
 L -61.0934,1.02681 L -61.2135,0.881668 L -61.3145,0.722626 L -61.3947,0.552185 L -61.4529,0.373032 L -61.4882,0.187988
 L -61.5,-0 L -61.4882,-0.187988 L -61.4529,-0.373032 L -61.3947,-0.552185 L -61.3145,-0.722626 L -61.2135,-0.881668
 L -61.0934,-1.02681 L -60.9561,-1.15576 L -60.8037,-1.26648 L -60.6387,-1.35724 L -60.4635,-1.42657 L -60.2811,-1.47342
 L -60.0942,-1.49704 L -59.9058,-1.49704 L -59.7189,-1.47342 L -59.5365,-1.42657 L -59.3613,-1.35724 L -59.1963,-1.26648
 L -59.0439,-1.15576 L -58.9065,-1.02681 L -58.7865,-0.881668 L -58.6855,-0.722626 L -58.6053,-0.552185 L -58.5471,-0.373032
 L -58.5118,-0.187988 L -58.5,-0 L -58.5118,0.187988 L -58.5471,0.373032 L -58.6053,0.552185 L -58.6855,0.722626
 L -58.7865,0.881668 L -58.9065,1.02681 L -59.0439,1.15576 L -59.1963,1.26648 L -59.3613,1.35724 L -59.5365,1.42657
 L -59.7189,1.47342 L -59.9058,1.49704 z
M -54.0942,1.49704 L -54.2811,1.47342 L -54.4635,1.42657 L -54.6387,1.35724 L -54.8037,1.26648 L -54.9561,1.15576
 L -55.0934,1.02681 L -55.2135,0.881668 L -55.3145,0.722626 L -55.3947,0.552185 L -55.4529,0.373032 L -55.4882,0.187988
 L -55.5,-0 L -55.4882,-0.187988 L -55.4529,-0.373032 L -55.3947,-0.552185 L -55.3145,-0.722626 L -55.2135,-0.881668
 L -55.0934,-1.02681 L -54.9561,-1.15576 L -54.8037,-1.26648 L -54.6387,-1.35724 L -54.4635,-1.42657 L -54.2811,-1.47342
 L -54.0942,-1.49704 L 54.0942,-1.49704 L 54.2811,-1.47342 L 54.4635,-1.42657 L 54.6387,-1.35724 L 54.8037,-1.26648
 L 54.9561,-1.15576 L 55.0934,-1.02681 L 55.2135,-0.881668 L 55.3145,-0.722626 L 55.3947,-0.552185 L 55.4529,-0.373032
 L 55.4882,-0.187988 L 55.5,-0 L 55.4882,0.187988 L 55.4529,0.373032 L 55.3947,0.552185 L 55.3145,0.722626
 L 55.2135,0.881668 L 55.0934,1.02681 L 54.9561,1.15576 L 54.8037,1.26648 L 54.6387,1.35724 L 54.4635,1.42657
 L 54.2811,1.47342 L 54.0942,1.49704 z
M -42.8781,12.5 L -42.8781,3.5 L -42.2781,3.5 L -42.2781,12.5 z
M -28.8156,12.5 L -28.8156,3.5 L -28.2156,3.5 L -28.2156,12.5 z
M 34.4656,12.5 L 34.4656,3.5 L 35.0656,3.5 L 35.0656,12.5 z
M 48.5281,12.5 L 48.5281,3.5 L 49.1281,3.5 L 49.1281,12.5 z
M -38.0906,11.5 L -38.0906,3.5 L -37.6906,3.5 L -37.6906,11.5 z
M -33.4031,11.5 L -33.4031,3.5 L -33.0031,3.5 L -33.0031,11.5 z
M -24.0281,11.5 L -24.0281,3.5 L -23.6281,3.5 L -23.6281,11.5 z
M -12.3094,11.5 L -12.3094,3.5 L -11.9094,3.5 L -11.9094,11.5 z
M -0.590637,11.5 L -0.590637,3.5 L -0.190628,3.5 L -0.190628,11.5 z
M 11.1281,11.5 L 11.1281,3.5 L 11.5281,3.5 L 11.5281,11.5 z
M 22.8469,11.5 L 22.8469,3.5 L 23.2469,3.5 L 23.2469,11.5 z
M 41.5969,11.5 L 41.5969,3.5 L 41.9969,3.5 L 41.9969,11.5 z
M -40.4344,6.5 L -40.4344,3.5 L -40.0344,3.5 L -40.0344,6.5 z
M -35.7469,6.5 L -35.7469,3.5 L -35.3469,3.5 L -35.3469,6.5 z
M -31.0594,6.5 L -31.0594,3.5 L -30.6594,3.5 L -30.6594,6.5 z
M -26.3719,8 L -26.3719,3.5 L -25.9719,3.5 L -25.9719,8 z
M -21.6844,8 L -21.6844,3.5 L -21.2844,3.5 L -21.2844,8 z
M -19.3406,8 L -19.3406,3.5 L -18.9406,3.5 L -18.9406,8 z
M -16.9969,8 L -16.9969,3.5 L -16.5969,3.5 L -16.5969,8 z
M -14.6531,8 L -14.6531,3.5 L -14.2531,3.5 L -14.2531,8 z
M -9.96564,8 L -9.96564,3.5 L -9.56563,3.5 L -9.56563,8 z
M -7.62189,8 L -7.62189,3.5 L -7.22188,3.5 L -7.22188,8 z
M -5.27814,8 L -5.27814,3.5 L -4.87813,3.5 L -4.87813,8 z
M -2.93439,8 L -2.93439,3.5 L -2.53438,3.5 L -2.53438,8 z
M 1.75311,8 L 1.75311,3.5 L 2.15312,3.5 L 2.15312,8 z
M 4.09686,8 L 4.09686,3.5 L 4.49687,3.5 L 4.49687,8 z
M 6.44061,8 L 6.44061,3.5 L 6.84062,3.5 L 6.84062,8 z
M 8.78436,8 L 8.78436,3.5 L 9.18437,3.5 L 9.18437,8 z
M 13.4719,8 L 13.4719,3.5 L 13.8719,3.5 L 13.8719,8 z
M 15.8156,8 L 15.8156,3.5 L 16.2156,3.5 L 16.2156,8 z
M 18.1594,8 L 18.1594,3.5 L 18.5594,3.5 L 18.5594,8 z
M 20.5031,8 L 20.5031,3.5 L 20.9031,3.5 L 20.9031,8 z
M 25.1906,8 L 25.1906,3.5 L 25.5906,3.5 L 25.5906,8 z
M 27.5344,8 L 27.5344,3.5 L 27.9344,3.5 L 27.9344,8 z
M 29.8781,8 L 29.8781,3.5 L 30.2781,3.5 L 30.2781,8 z
M 32.2219,8 L 32.2219,3.5 L 32.6219,3.5 L 32.6219,8 z
M 36.9094,9.5 L 36.9094,3.5 L 37.3094,3.5 L 37.3094,9.5 z
M 39.2531,9.5 L 39.2531,3.5 L 39.6531,3.5 L 39.6531,9.5 z
M 43.9406,9.5 L 43.9406,3.5 L 44.3406,3.5 L 44.3406,9.5 z
M 46.2844,9.5 L 46.2844,3.5 L 46.6844,3.5 L 46.6844,9.5 z
" stroke="blue" fill="none" stroke-width="0.01"/>
<path d="
M 48.1266,-13.5152 L 48.2904,-13.5655 L 48.4354,-13.6455 L 48.5584,-13.7515 L 48.6581,-13.8807 L 48.7314,-14.0305
 L 48.7771,-14.1972 L 48.7924,-14.3775 L 48.7811,-14.5207 L 48.7474,-14.6625 L 48.6894,-14.7965 L 48.6054,-14.9145
 L 48.4909,-15.0167 L 48.3534,-15.0955 L 48.2029,-15.1457 L 48.0494,-15.1625 L 47.8836,-15.1462 L 47.7384,-15.0975
 L 47.6121,-15.0117 L 47.5034,-14.8825 L 47.4964,-14.8895 L 47.5046,-15.0037 L 47.5234,-15.1325 L 47.5551,-15.265
 L 47.6004,-15.3885 L 47.6614,-15.4992 L 47.7404,-15.5915 L 47.8391,-15.6537 L 47.9594,-15.6745 L 48.0769,-15.6552
 L 48.1734,-15.5975 L 48.2446,-15.5147 L 48.2844,-15.4185 L 48.7504,-15.4185 L 48.7189,-15.5645 L 48.6644,-15.6925
 L 48.5889,-15.8017 L 48.4944,-15.8915 L 48.3834,-15.963 L 48.2564,-16.0155 L 48.1169,-16.0477 L 47.9664,-16.0585
 L 47.7271,-16.0295 L 47.5274,-15.9425 L 47.3646,-15.8092 L 47.2344,-15.6415 L 47.1359,-15.4455 L 47.0684,-15.2275
 L 47.0294,-14.9985 L 47.0164,-14.7695 L 47.0266,-14.5357 L 47.0574,-14.3065 L 47.1156,-14.0912 L 47.2064,-13.8995
 L 47.3314,-13.7375 L 47.4924,-13.6095 L 47.6956,-13.5262 L 47.9454,-13.4985 z
M 47.8434,-13.892 L 47.7654,-13.9205 L 47.6989,-13.9647 L 47.6434,-14.0215 L 47.5994,-14.0897 L 47.5674,-14.1665
 L 47.5479,-14.248 L 47.5414,-14.3305 L 47.5474,-14.4182 L 47.5654,-14.5015 L 47.5954,-14.5777 L 47.6374,-14.6445
 L 47.6926,-14.7 L 47.7604,-14.7425 L 47.8406,-14.7695 L 47.9314,-14.7785 L 48.0194,-14.7685 L 48.0954,-14.7385
 L 48.1599,-14.6932 L 48.2114,-14.6355 L 48.2506,-14.5672 L 48.2784,-14.4905 L 48.2956,-14.4082 L 48.3014,-14.3235
 L 48.2954,-14.2415 L 48.2774,-14.1615 L 48.2471,-14.0867 L 48.2044,-14.0205 L 48.1514,-13.9645 L 48.0884,-13.9205
 L 48.0156,-13.892 L 47.9314,-13.8825 z
M -10.9641,-13.512 L -10.8144,-13.5525 L -10.6899,-13.6157 L -10.5884,-13.6995 L -10.5079,-13.8007 L -10.4464,-13.9165
 L -10.3999,-14.0432 L -10.3664,-14.1775 L -10.3436,-14.318 L -10.3314,-14.4615 L -10.3261,-14.605 L -10.3244,-14.7435
 L -10.3261,-14.881 L -10.3314,-15.0235 L -10.3436,-15.1675 L -10.3664,-15.3075 L -10.3999,-15.443 L -10.4464,-15.5715
 L -10.5079,-15.6885 L -10.5884,-15.7895 L -10.6904,-15.8737 L -10.8164,-15.9385 L -10.9666,-15.9805 L -11.1434,-15.9945
 L -11.3211,-15.9805 L -11.4724,-15.9385 L -11.5976,-15.8737 L -11.6994,-15.7895 L -11.7801,-15.6885 L -11.8424,-15.5715
 L -11.8884,-15.443 L -11.9224,-15.3075 L -11.9444,-15.1675 L -11.9564,-15.0235 L -11.9616,-14.881 L -11.9634,-14.7435
 L -11.9616,-14.605 L -11.9564,-14.4615 L -11.9444,-14.318 L -11.9224,-14.1775 L -11.8884,-14.0432 L -11.8424,-13.9165
 L -11.7801,-13.8007 L -11.6994,-13.6995 L -11.5976,-13.6157 L -11.4724,-13.5525 L -11.3211,-13.512 L -11.1434,-13.4985
 z
M -11.3114,-13.7805 L -11.4364,-13.8585 L -11.5261,-13.9742 L -11.5874,-14.1135 L -11.6249,-14.2705 L -11.6434,-14.4375
 L -11.6494,-14.6012 L -11.6511,-14.8432 L -11.6504,-14.9475 L -11.6449,-15.0572 L -11.6324,-15.1665 L -11.6131,-15.275
 L -11.5874,-15.3805 L -11.5506,-15.478 L -11.5004,-15.5625 L -11.4359,-15.6337 L -11.3564,-15.6895 L -11.2599,-15.7262
 L -11.1444,-15.7385 L -11.0289,-15.7262 L -10.9324,-15.6895 L -10.8529,-15.6337 L -10.7884,-15.5625 L -10.7384,-15.478
 L -10.7024,-15.3805 L -10.6759,-15.275 L -10.6564,-15.1665 L -10.6441,-15.0572 L -10.6394,-14.9475 L -10.6374,-14.7485
 L -10.6396,-14.6012 L -10.6464,-14.4375 L -10.6641,-14.2705 L -10.7014,-14.1135 L -10.7626,-13.9742 L -10.8524,-13.8585
 L -10.9774,-13.7805 L -11.1444,-13.7545 z
M -28.3248,-13.5115 L -28.159,-13.5505 L -28.0058,-13.6137 L -27.872,-13.7015 L -27.7605,-13.8135 L -27.674,-13.9495
 L -27.6178,-14.1085 L -27.599,-14.2875 L -27.6275,-14.4797 L -27.713,-14.6425 L -27.8485,-14.7647 L -28.027,-14.8355
 L -28.027,-14.8425 L -27.8793,-14.9117 L -27.774,-15.0235 L -27.7103,-15.167 L -27.689,-15.3315 L -27.7073,-15.4822
 L -27.762,-15.6145 L -27.845,-15.7287 L -27.95,-15.8235 L -28.0733,-15.8985 L -28.211,-15.9515 L -28.356,-15.9837
 L -28.501,-15.9945 L -28.6788,-15.98 L -28.84,-15.9365 L -28.9812,-15.8675 L -29.101,-15.7745 L -29.1973,-15.6577
 L -29.27,-15.5175 L -29.3168,-15.3567 L -29.337,-15.1785 L -28.87,-15.1785 L -28.8492,-15.3492 L -28.779,-15.4875
 L -28.6605,-15.5797 L -28.497,-15.6105 L -28.37,-15.589 L -28.259,-15.5245 L -28.181,-15.4207 L -28.155,-15.2795
 L -28.1675,-15.184 L -28.205,-15.1095 L -28.262,-15.053 L -28.333,-15.0115 L -28.414,-14.9842 L -28.501,-14.9705
 L -28.5883,-14.967 L -28.67,-14.9705 L -28.67,-14.6505 L -28.578,-14.649 L -28.482,-14.6445 L -28.387,-14.6322
 L -28.3,-14.6055 L -28.2245,-14.561 L -28.164,-14.4955 L -28.1235,-14.4035 L -28.11,-14.2775 L -28.1385,-14.1137
 L -28.224,-13.9885 L -28.351,-13.909 L -28.504,-13.8825 L -28.6037,-13.892 L -28.689,-13.9205 L -28.7605,-13.965
 L -28.819,-14.0225 L -28.8643,-14.0925 L -28.898,-14.1745 L -28.9198,-14.2647 L -28.929,-14.3595 L -29.396,-14.3595
 L -29.3825,-14.161 L -29.336,-13.9875 L -29.2587,-13.8397 L -29.155,-13.7185 L -29.0245,-13.6242 L -28.869,-13.5555
 L -28.6922,-13.5127 L -28.498,-13.4985 z
M 22.8531,-13.8185 L 21.5891,-13.8185 L 21.6216,-13.925 L 21.6771,-14.0185 L 21.7519,-14.1032 L 21.8401,-14.1815
 L 21.9406,-14.2552 L 22.0501,-14.3245 L 22.2801,-14.4605 L 22.3926,-14.5342 L 22.5021,-14.6115 L 22.6039,-14.695
 L 22.6931,-14.7875 L 22.7679,-14.892 L 22.8261,-15.0095 L 22.8644,-15.1427 L 22.8771,-15.2945 L 22.8619,-15.4552
 L 22.8161,-15.5955 L 22.7449,-15.7155 L 22.6511,-15.8135 L 22.5379,-15.891 L 22.4061,-15.9475 L 22.2611,-15.9827
 L 22.1061,-15.9945 L 21.9224,-15.9782 L 21.7591,-15.9295 L 21.6194,-15.852 L 21.5041,-15.7495 L 21.4154,-15.6232
 L 21.3531,-15.4745 L 21.3191,-15.3082 L 21.3151,-15.1275 L 21.6101,-15.1275 L 21.6136,-15.238 L 21.6321,-15.3475
 L 21.6671,-15.4517 L 21.7181,-15.5445 L 21.7854,-15.623 L 21.8691,-15.6845 L 21.9701,-15.725 L 22.0891,-15.7385
 L 22.1836,-15.7307 L 22.2731,-15.7075 L 22.3544,-15.6697 L 22.4241,-15.6185 L 22.4824,-15.5547 L 22.5271,-15.4795
 L 22.5556,-15.394 L 22.5651,-15.2995 L 22.5551,-15.18 L 22.5251,-15.0755 L 22.4756,-14.983 L 22.4071,-14.8975
 L 22.3189,-14.8157 L 22.2101,-14.7345 L 22.0826,-14.6497 L 21.8106,-14.4797 L 21.6901,-14.3965 L 21.5781,-14.3037
 L 21.4781,-14.1975 L 21.3924,-14.0745 L 21.3231,-13.9315 L 21.2736,-13.7627 L 21.2451,-13.5625 L 22.8531,-13.5625
 z
M 42.9044,-13.5155 L 43.0789,-13.5665 L 43.2271,-13.6462 L 43.3479,-13.7495 L 43.4424,-13.8725 L 43.5099,-14.0115
 L 43.5504,-14.1617 L 43.5639,-14.3165 L 43.5481,-14.515 L 43.5009,-14.6865 L 43.4274,-14.8322 L 43.3309,-14.9515
 L 43.2141,-15.0447 L 43.0779,-15.1105 L 42.9276,-15.1495 L 42.7689,-15.1625 L 42.6434,-15.1517 L 42.5169,-15.1195
 L 42.4024,-15.0657 L 42.3109,-14.9885 L 42.3039,-14.9955 L 42.4359,-15.7385 L 43.4289,-15.7385 L 43.4289,-15.9945
 L 42.2139,-15.9945 L 41.9839,-14.6875 L 42.2379,-14.6735 L 42.3314,-14.7682 L 42.4379,-14.8425 L 42.5589,-14.8905
 L 42.6959,-14.9065 L 42.8151,-14.896 L 42.9229,-14.8645 L 43.0184,-14.814 L 43.0989,-14.7465 L 43.1636,-14.6645
 L 43.2119,-14.5685 L 43.2419,-14.4605 L 43.2519,-14.3425 L 43.2414,-14.2047 L 43.2099,-14.0855 L 43.1611,-13.9845
 L 43.0969,-13.9015 L 43.0196,-13.8375 L 42.9299,-13.7915 L 42.8326,-13.7637 L 42.7309,-13.7545 L 42.6246,-13.7627
 L 42.5279,-13.7875 L 42.4419,-13.8272 L 42.3679,-13.8805 L 42.3076,-13.9465 L 42.2609,-14.0225 L 42.2291,-14.1075
 L 42.2139,-14.1985 L 41.9189,-14.1985 L 41.9366,-14.0402 L 41.9839,-13.8995 L 42.0581,-13.779 L 42.1549,-13.6795
 L 42.2709,-13.602 L 42.4029,-13.5455 L 42.5484,-13.5102 L 42.7029,-13.4985 z
M 49.9634,-13.514 L 50.1291,-13.5605 L 50.2804,-13.643 L 50.4121,-13.7665 L 50.5221,-13.935 L 50.6061,-14.1525
 L 50.6594,-14.4242 L 50.6771,-14.7555 L 50.6594,-15.0775 L 50.6061,-15.3435 L 50.5221,-15.5587 L 50.4121,-15.7265
 L 50.2804,-15.85 L 50.1291,-15.9325 L 49.9634,-15.979 L 49.7861,-15.9945 L 49.6109,-15.979 L 49.4451,-15.9325
 L 49.2949,-15.85 L 49.1641,-15.7265 L 49.0556,-15.5587 L 48.9721,-15.3435 L 48.9189,-15.0775 L 48.9011,-14.7555
 L 48.9189,-14.4242 L 48.9721,-14.1525 L 49.0556,-13.935 L 49.1641,-13.7665 L 49.2949,-13.643 L 49.4451,-13.5605
 L 49.6109,-13.514 L 49.7861,-13.4985 z
M 49.6534,-13.907 L 49.5561,-13.9805 L 49.4879,-14.0885 L 49.4411,-14.2165 L 49.4124,-14.3572 L 49.3981,-14.5035
 L 49.3929,-14.6412 L 49.3921,-14.9085 L 49.3961,-14.9995 L 49.4041,-15.0925 L 49.4184,-15.1867 L 49.4391,-15.2795
 L 49.4686,-15.3675 L 49.5071,-15.4455 L 49.5561,-15.5122 L 49.6171,-15.5645 L 49.6931,-15.599 L 49.7851,-15.6105
 L 49.8774,-15.599 L 49.9541,-15.5645 L 50.0176,-15.5122 L 50.0681,-15.4455 L 50.1074,-15.3675 L 50.1351,-15.2795
 L 50.1554,-15.1867 L 50.1701,-15.0925 L 50.1801,-14.9995 L 50.1841,-14.9085 L 50.1861,-14.7565 L 50.1844,-14.6412
 L 50.1791,-14.5035 L 50.1649,-14.3572 L 50.1361,-14.2165 L 50.0886,-14.0885 L 50.0181,-13.9805 L 49.9194,-13.907
 L 49.7851,-13.8825 z
M 41.3671,-14.1385 L 41.7001,-14.1385 L 41.7001,-14.3945 L 41.3671,-14.3945 L 41.3671,-15.9945 L 41.1311,-15.9945
 L 40.0091,-14.4185 L 40.0091,-14.1385 L 41.0891,-14.1385 L 41.0891,-13.5625 L 41.3671,-13.5625 z
M 40.2631,-14.3945 L 41.0821,-15.5795 L 41.0891,-15.5795 L 41.0891,-14.3945 z
M -42.3853,-13.514 L -42.2195,-13.5605 L -42.0683,-13.643 L -41.9365,-13.7665 L -41.8265,-13.935 L -41.7425,-14.1525
 L -41.6893,-14.4242 L -41.6715,-14.7555 L -41.6893,-15.0775 L -41.7425,-15.3435 L -41.8265,-15.5587 L -41.9365,-15.7265
 L -42.0683,-15.85 L -42.2195,-15.9325 L -42.3853,-15.979 L -42.5625,-15.9945 L -42.7377,-15.979 L -42.9035,-15.9325
 L -43.0538,-15.85 L -43.1845,-15.7265 L -43.293,-15.5587 L -43.3765,-15.3435 L -43.4297,-15.0775 L -43.4475,-14.7555
 L -43.4297,-14.4242 L -43.3765,-14.1525 L -43.293,-13.935 L -43.1845,-13.7665 L -43.0538,-13.643 L -42.9035,-13.5605
 L -42.7377,-13.514 L -42.5625,-13.4985 z
M -42.6953,-13.907 L -42.7925,-13.9805 L -42.8607,-14.0885 L -42.9075,-14.2165 L -42.9362,-14.3572 L -42.9505,-14.5035
 L -42.9557,-14.6412 L -42.9565,-14.9085 L -42.9525,-14.9995 L -42.9445,-15.0925 L -42.9303,-15.1867 L -42.9095,-15.2795
 L -42.88,-15.3675 L -42.8415,-15.4455 L -42.7925,-15.5122 L -42.7315,-15.5645 L -42.6555,-15.599 L -42.5635,-15.6105
 L -42.4713,-15.599 L -42.3945,-15.5645 L -42.331,-15.5122 L -42.2805,-15.4455 L -42.2413,-15.3675 L -42.2135,-15.2795
 L -42.1933,-15.1867 L -42.1785,-15.0925 L -42.1685,-14.9995 L -42.1645,-14.9085 L -42.1625,-14.7565 L -42.1643,-14.6412
 L -42.1695,-14.5035 L -42.1838,-14.3572 L -42.2125,-14.2165 L -42.26,-14.0885 L -42.3305,-13.9805 L -42.4293,-13.907
 L -42.5635,-13.8825 z
M -1.03938,-15.9945 L -1.26538,-15.9945 L -1.29988,-15.8712 L -1.35538,-15.7715 L -1.42888,-15.6935 L -1.51738,-15.6335
 L -1.61813,-15.5912 L -1.73038,-15.5645 L -1.85013,-15.551 L -1.97339,-15.5465 L -1.97339,-15.2905 L -1.33438,-15.2905
 L -1.33438,-13.5625 L -1.03938,-13.5625 z
M 35.9009,-13.514 L 36.0666,-13.5605 L 36.2179,-13.643 L 36.3496,-13.7665 L 36.4596,-13.935 L 36.5436,-14.1525
 L 36.5969,-14.4242 L 36.6146,-14.7555 L 36.5969,-15.0775 L 36.5436,-15.3435 L 36.4596,-15.5587 L 36.3496,-15.7265
 L 36.2179,-15.85 L 36.0666,-15.9325 L 35.9009,-15.979 L 35.7236,-15.9945 L 35.5484,-15.979 L 35.3826,-15.9325
 L 35.2324,-15.85 L 35.1016,-15.7265 L 34.9931,-15.5587 L 34.9096,-15.3435 L 34.8564,-15.0775 L 34.8386,-14.7555
 L 34.8564,-14.4242 L 34.9096,-14.1525 L 34.9931,-13.935 L 35.1016,-13.7665 L 35.2324,-13.643 L 35.3826,-13.5605
 L 35.5484,-13.514 L 35.7236,-13.4985 z
M 35.5909,-13.907 L 35.4936,-13.9805 L 35.4254,-14.0885 L 35.3786,-14.2165 L 35.3499,-14.3572 L 35.3356,-14.5035
 L 35.3304,-14.6412 L 35.3296,-14.9085 L 35.3336,-14.9995 L 35.3416,-15.0925 L 35.3559,-15.1867 L 35.3766,-15.2795
 L 35.4061,-15.3675 L 35.4446,-15.4455 L 35.4936,-15.5122 L 35.5546,-15.5645 L 35.6306,-15.599 L 35.7226,-15.6105
 L 35.8149,-15.599 L 35.8916,-15.5645 L 35.9551,-15.5122 L 36.0056,-15.4455 L 36.0449,-15.3675 L 36.0726,-15.2795
 L 36.0929,-15.1867 L 36.1076,-15.0925 L 36.1176,-14.9995 L 36.1216,-14.9085 L 36.1236,-14.7565 L 36.1219,-14.6412
 L 36.1166,-14.5035 L 36.1024,-14.3572 L 36.0736,-14.2165 L 36.0261,-14.0885 L 35.9556,-13.9805 L 35.8569,-13.907
 L 35.7226,-13.8825 z
M 24.1544,-13.5155 L 24.3289,-13.5665 L 24.4771,-13.6462 L 24.5979,-13.7495 L 24.6924,-13.8725 L 24.7599,-14.0115
 L 24.8004,-14.1617 L 24.8139,-14.3165 L 24.7981,-14.515 L 24.7509,-14.6865 L 24.6774,-14.8322 L 24.5809,-14.9515
 L 24.4641,-15.0447 L 24.3279,-15.1105 L 24.1776,-15.1495 L 24.0189,-15.1625 L 23.8934,-15.1517 L 23.7669,-15.1195
 L 23.6524,-15.0657 L 23.5609,-14.9885 L 23.5539,-14.9955 L 23.6859,-15.7385 L 24.6789,-15.7385 L 24.6789,-15.9945
 L 23.4639,-15.9945 L 23.2339,-14.6875 L 23.4879,-14.6735 L 23.5814,-14.7682 L 23.6879,-14.8425 L 23.8089,-14.8905
 L 23.9459,-14.9065 L 24.0651,-14.896 L 24.1729,-14.8645 L 24.2684,-14.814 L 24.3489,-14.7465 L 24.4136,-14.6645
 L 24.4619,-14.5685 L 24.4919,-14.4605 L 24.5019,-14.3425 L 24.4914,-14.2047 L 24.4599,-14.0855 L 24.4111,-13.9845
 L 24.3469,-13.9015 L 24.2696,-13.8375 L 24.1799,-13.7915 L 24.0826,-13.7637 L 23.9809,-13.7545 L 23.8746,-13.7627
 L 23.7779,-13.7875 L 23.6919,-13.8272 L 23.6179,-13.8805 L 23.5576,-13.9465 L 23.5109,-14.0225 L 23.4791,-14.1075
 L 23.4639,-14.1985 L 23.1689,-14.1985 L 23.1866,-14.0402 L 23.2339,-13.8995 L 23.3081,-13.779 L 23.4049,-13.6795
 L 23.5209,-13.602 L 23.6529,-13.5455 L 23.7984,-13.5102 L 23.9529,-13.4985 z
M 12.4734,-13.512 L 12.6231,-13.5525 L 12.7476,-13.6157 L 12.8491,-13.6995 L 12.9296,-13.8007 L 12.9911,-13.9165
 L 13.0376,-14.0432 L 13.0711,-14.1775 L 13.0939,-14.318 L 13.1061,-14.4615 L 13.1114,-14.605 L 13.1131,-14.7435
 L 13.1114,-14.881 L 13.1061,-15.0235 L 13.0939,-15.1675 L 13.0711,-15.3075 L 13.0376,-15.443 L 12.9911,-15.5715
 L 12.9296,-15.6885 L 12.8491,-15.7895 L 12.7471,-15.8737 L 12.6211,-15.9385 L 12.4709,-15.9805 L 12.2941,-15.9945
 L 12.1164,-15.9805 L 11.9651,-15.9385 L 11.8399,-15.8737 L 11.7381,-15.7895 L 11.6574,-15.6885 L 11.5951,-15.5715
 L 11.5491,-15.443 L 11.5151,-15.3075 L 11.4931,-15.1675 L 11.4811,-15.0235 L 11.4759,-14.881 L 11.4741,-14.7435
 L 11.4759,-14.605 L 11.4811,-14.4615 L 11.4931,-14.318 L 11.5151,-14.1775 L 11.5491,-14.0432 L 11.5951,-13.9165
 L 11.6574,-13.8007 L 11.7381,-13.6995 L 11.8399,-13.6157 L 11.9651,-13.5525 L 12.1164,-13.512 L 12.2941,-13.4985
 z
M 12.1261,-13.7805 L 12.0011,-13.8585 L 11.9114,-13.9742 L 11.8501,-14.1135 L 11.8126,-14.2705 L 11.7941,-14.4375
 L 11.7881,-14.6012 L 11.7864,-14.8432 L 11.7871,-14.9475 L 11.7926,-15.0572 L 11.8051,-15.1665 L 11.8244,-15.275
 L 11.8501,-15.3805 L 11.8869,-15.478 L 11.9371,-15.5625 L 12.0016,-15.6337 L 12.0811,-15.6895 L 12.1776,-15.7262
 L 12.2931,-15.7385 L 12.4086,-15.7262 L 12.5051,-15.6895 L 12.5846,-15.6337 L 12.6491,-15.5625 L 12.6991,-15.478
 L 12.7351,-15.3805 L 12.7616,-15.275 L 12.7811,-15.1665 L 12.7934,-15.0572 L 12.7981,-14.9475 L 12.8001,-14.7485
 L 12.7979,-14.6012 L 12.7911,-14.4375 L 12.7734,-14.2705 L 12.7361,-14.1135 L 12.6749,-13.9742 L 12.5851,-13.8585
 L 12.4601,-13.7805 L 12.2931,-13.7545 z
M -12.7581,-15.9945 L -12.9841,-15.9945 L -13.0186,-15.8712 L -13.0741,-15.7715 L -13.1476,-15.6935 L -13.2361,-15.6335
 L -13.3369,-15.5912 L -13.4491,-15.5645 L -13.5689,-15.551 L -13.6921,-15.5465 L -13.6921,-15.2905 L -13.0531,-15.2905
 L -13.0531,-13.5625 L -12.7581,-13.5625 z
M 0.716873,-13.5155 L 0.891373,-13.5665 L 1.03961,-13.6462 L 1.16037,-13.7495 L 1.25487,-13.8725 L 1.32237,-14.0115
 L 1.36287,-14.1617 L 1.37637,-14.3165 L 1.36061,-14.515 L 1.31337,-14.6865 L 1.23987,-14.8322 L 1.14337,-14.9515
 L 1.02661,-15.0447 L 0.890366,-15.1105 L 0.740112,-15.1495 L 0.58136,-15.1625 L 0.455872,-15.1517 L 0.329361,-15.1195
 L 0.214874,-15.0657 L 0.123367,-14.9885 L 0.116364,-14.9955 L 0.248367,-15.7385 L 1.24136,-15.7385 L 1.24136,-15.9945
 L 0.0263672,-15.9945 L -0.203629,-14.6875 L 0.0503693,-14.6735 L 0.14386,-14.7682 L 0.250366,-14.8425 L 0.371368,-14.8905
 L 0.508362,-14.9065 L 0.627625,-14.896 L 0.735367,-14.8645 L 0.830872,-14.814 L 0.911362,-14.7465 L 0.97612,-14.6645
 L 1.02437,-14.5685 L 1.05437,-14.4605 L 1.06436,-14.3425 L 1.05386,-14.2047 L 1.02237,-14.0855 L 0.973618,-13.9845
 L 0.909363,-13.9015 L 0.832123,-13.8375 L 0.742371,-13.7915 L 0.645111,-13.7637 L 0.543365,-13.7545 L 0.437119,-13.7627
 L 0.340363,-13.7875 L 0.254364,-13.8272 L 0.180374,-13.8805 L 0.120117,-13.9465 L 0.0733643,-14.0225 L 0.0416107,-14.1075
 L 0.0263672,-14.1985 L -0.268631,-14.1985 L -0.250885,-14.0402 L -0.203629,-13.8995 L -0.129379,-13.779 L -0.0326385,-13.6795
 L 0.083374,-13.602 L 0.215363,-13.5455 L 0.36087,-13.5102 L 0.515366,-13.4985 z
M 11.1344,-13.8185 L 9.87036,-13.8185 L 9.90286,-13.925 L 9.95837,-14.0185 L 10.0331,-14.1032 L 10.1214,-14.1815
 L 10.2219,-14.2552 L 10.3314,-14.3245 L 10.5614,-14.4605 L 10.6739,-14.5342 L 10.7834,-14.6115 L 10.8851,-14.695
 L 10.9744,-14.7875 L 11.0491,-14.892 L 11.1074,-15.0095 L 11.1456,-15.1427 L 11.1584,-15.2945 L 11.1431,-15.4552
 L 11.0974,-15.5955 L 11.0261,-15.7155 L 10.9324,-15.8135 L 10.8191,-15.891 L 10.6874,-15.9475 L 10.5424,-15.9827
 L 10.3874,-15.9945 L 10.2036,-15.9782 L 10.0404,-15.9295 L 9.90062,-15.852 L 9.78537,-15.7495 L 9.69661,-15.6232
 L 9.63437,-15.4745 L 9.60037,-15.3082 L 9.59637,-15.1275 L 9.89137,-15.1275 L 9.89487,-15.238 L 9.91336,-15.3475
 L 9.94836,-15.4517 L 9.99937,-15.5445 L 10.0666,-15.623 L 10.1504,-15.6845 L 10.2514,-15.725 L 10.3704,-15.7385
 L 10.4649,-15.7307 L 10.5544,-15.7075 L 10.6356,-15.6697 L 10.7054,-15.6185 L 10.7636,-15.5547 L 10.8084,-15.4795
 L 10.8369,-15.394 L 10.8464,-15.2995 L 10.8364,-15.18 L 10.8064,-15.0755 L 10.7569,-14.983 L 10.6884,-14.8975
 L 10.6001,-14.8157 L 10.4914,-14.7345 L 10.3639,-14.6497 L 10.0919,-14.4797 L 9.97137,-14.3965 L 9.85936,-14.3037
 L 9.75937,-14.1975 L 9.67361,-14.0745 L 9.60437,-13.9315 L 9.55487,-13.7627 L 9.52637,-13.5625 L 11.1344,-13.5625
 z
M 34.0141,-13.5115 L 34.1799,-13.5505 L 34.3331,-13.6137 L 34.4669,-13.7015 L 34.5784,-13.8135 L 34.6649,-13.9495
 L 34.7211,-14.1085 L 34.7399,-14.2875 L 34.7114,-14.4797 L 34.6259,-14.6425 L 34.4904,-14.7647 L 34.3119,-14.8355
 L 34.3119,-14.8425 L 34.4596,-14.9117 L 34.5649,-15.0235 L 34.6286,-15.167 L 34.6499,-15.3315 L 34.6316,-15.4822
 L 34.5769,-15.6145 L 34.4939,-15.7287 L 34.3889,-15.8235 L 34.2656,-15.8985 L 34.1279,-15.9515 L 33.9829,-15.9837
 L 33.8379,-15.9945 L 33.6601,-15.98 L 33.4989,-15.9365 L 33.3576,-15.8675 L 33.2379,-15.7745 L 33.1416,-15.6577
 L 33.0689,-15.5175 L 33.0221,-15.3567 L 33.0019,-15.1785 L 33.4689,-15.1785 L 33.4896,-15.3492 L 33.5599,-15.4875
 L 33.6784,-15.5797 L 33.8419,-15.6105 L 33.9689,-15.589 L 34.0799,-15.5245 L 34.1579,-15.4207 L 34.1839,-15.2795
 L 34.1714,-15.184 L 34.1339,-15.1095 L 34.0769,-15.053 L 34.0059,-15.0115 L 33.9249,-14.9842 L 33.8379,-14.9705
 L 33.7506,-14.967 L 33.6689,-14.9705 L 33.6689,-14.6505 L 33.7609,-14.649 L 33.8569,-14.6445 L 33.9519,-14.6322
 L 34.0389,-14.6055 L 34.1144,-14.561 L 34.1749,-14.4955 L 34.2154,-14.4035 L 34.2289,-14.2775 L 34.2004,-14.1137
 L 34.1149,-13.9885 L 33.9879,-13.909 L 33.8349,-13.8825 L 33.7351,-13.892 L 33.6499,-13.9205 L 33.5784,-13.965
 L 33.5199,-14.0225 L 33.4746,-14.0925 L 33.4409,-14.1745 L 33.4191,-14.2647 L 33.4099,-14.3595 L 32.9429,-14.3595
 L 32.9564,-14.161 L 33.0029,-13.9875 L 33.0801,-13.8397 L 33.1839,-13.7185 L 33.3144,-13.6242 L 33.4699,-13.5555
 L 33.6466,-13.5127 L 33.8409,-13.4985 z
M -23.663,-13.5155 L -23.4885,-13.5665 L -23.3403,-13.6462 L -23.2195,-13.7495 L -23.125,-13.8725 L -23.0575,-14.0115
 L -23.017,-14.1617 L -23.0035,-14.3165 L -23.0193,-14.515 L -23.0665,-14.6865 L -23.14,-14.8322 L -23.2365,-14.9515
 L -23.3533,-15.0447 L -23.4895,-15.1105 L -23.6398,-15.1495 L -23.7985,-15.1625 L -23.924,-15.1517 L -24.0505,-15.1195
 L -24.165,-15.0657 L -24.2565,-14.9885 L -24.2635,-14.9955 L -24.1315,-15.7385 L -23.1385,-15.7385 L -23.1385,-15.9945
 L -24.3535,-15.9945 L -24.5835,-14.6875 L -24.3295,-14.6735 L -24.236,-14.7682 L -24.1295,-14.8425 L -24.0085,-14.8905
 L -23.8715,-14.9065 L -23.7523,-14.896 L -23.6445,-14.8645 L -23.549,-14.814 L -23.4685,-14.7465 L -23.4038,-14.6645
 L -23.3555,-14.5685 L -23.3255,-14.4605 L -23.3155,-14.3425 L -23.326,-14.2047 L -23.3575,-14.0855 L -23.4063,-13.9845
 L -23.4705,-13.9015 L -23.5478,-13.8375 L -23.6375,-13.7915 L -23.7348,-13.7637 L -23.8365,-13.7545 L -23.9427,-13.7627
 L -24.0395,-13.7875 L -24.1255,-13.8272 L -24.1995,-13.8805 L -24.2598,-13.9465 L -24.3065,-14.0225 L -24.3383,-14.1075
 L -24.3535,-14.1985 L -24.6485,-14.1985 L -24.6308,-14.0402 L -24.5835,-13.8995 L -24.5092,-13.779 L -24.4125,-13.6795
 L -24.2965,-13.602 L -24.1645,-13.5455 L -24.019,-13.5102 L -23.8645,-13.4985 z
M -32.4545,-13.756 L -33.7185,-13.756 L -33.686,-13.8625 L -33.6305,-13.956 L -33.5558,-14.0407 L -33.4675,-14.119
 L -33.367,-14.1927 L -33.2575,-14.262 L -33.0275,-14.398 L -32.915,-14.4717 L -32.8055,-14.549 L -32.7038,-14.6325
 L -32.6145,-14.725 L -32.5398,-14.8295 L -32.4815,-14.947 L -32.4433,-15.0802 L -32.4305,-15.232 L -32.4458,-15.3927
 L -32.4915,-15.533 L -32.5628,-15.653 L -32.6565,-15.751 L -32.7698,-15.8285 L -32.9015,-15.885 L -33.0465,-15.9202
 L -33.2015,-15.932 L -33.3853,-15.9157 L -33.5485,-15.867 L -33.6882,-15.7895 L -33.8035,-15.687 L -33.8923,-15.5607
 L -33.9545,-15.412 L -33.9885,-15.2457 L -33.9925,-15.065 L -33.6975,-15.065 L -33.694,-15.1755 L -33.6755,-15.285
 L -33.6405,-15.3892 L -33.5895,-15.482 L -33.5222,-15.5605 L -33.4385,-15.622 L -33.3375,-15.6625 L -33.2185,-15.676
 L -33.124,-15.6682 L -33.0345,-15.645 L -32.9533,-15.6072 L -32.8835,-15.556 L -32.8253,-15.4922 L -32.7805,-15.417
 L -32.752,-15.3315 L -32.7425,-15.237 L -32.7525,-15.1175 L -32.7825,-15.013 L -32.832,-14.9205 L -32.9005,-14.835
 L -32.9888,-14.7532 L -33.0975,-14.672 L -33.225,-14.5872 L -33.497,-14.4172 L -33.6175,-14.334 L -33.7295,-14.2412
 L -33.8295,-14.135 L -33.9153,-14.012 L -33.9845,-13.869 L -34.034,-13.7002 L -34.0625,-13.5 L -32.4545,-13.5
 z
M -37.597,-15.932 L -37.823,-15.932 L -37.8575,-15.8087 L -37.913,-15.709 L -37.9865,-15.631 L -38.075,-15.571
 L -38.1758,-15.5287 L -38.288,-15.502 L -38.4077,-15.4885 L -38.531,-15.484 L -38.531,-15.228 L -37.892,-15.228
 L -37.892,-13.5 L -37.597,-13.5 z
M -44.1563,-10.5089 L -44.0955,-10.5245 L -44.0371,-10.5476 L -43.9821,-10.5778 L -43.9313,-10.6147 L -43.8855,-10.6577
 L -43.8455,-10.7061 L -43.8119,-10.7591 L -43.7851,-10.8159 L -43.7657,-10.8756 L -43.754,-10.9373 L -43.75,-11
 L -43.754,-11.0627 L -43.7657,-11.1243 L -43.7851,-11.1841 L -43.8119,-11.2409 L -43.8455,-11.2939 L -43.8855,-11.3423
 L -43.9313,-11.3853 L -43.9821,-11.4221 L -44.0371,-11.4524 L -44.0955,-11.4755 L -44.1563,-11.4911 L -44.2186,-11.499
 L -44.2814,-11.499 L -44.3437,-11.4911 L -44.4045,-11.4755 L -44.4629,-11.4524 L -44.5179,-11.4221 L -44.5687,-11.3853
 L -44.6145,-11.3423 L -44.6545,-11.2939 L -44.6882,-11.2409 L -44.7149,-11.1841 L -44.7343,-11.1243 L -44.7461,-11.0627
 L -44.75,-11 L -44.7461,-10.9373 L -44.7343,-10.8756 L -44.7149,-10.8159 L -44.6882,-10.7591 L -44.6545,-10.7061
 L -44.6145,-10.6577 L -44.5687,-10.6147 L -44.5179,-10.5778 L -44.4629,-10.5476 L -44.4045,-10.5245 L -44.3437,-10.5089
 L -44.2814,-10.501 L -44.2186,-10.501 z
M -45.6172,-10.6316 L -45.5716,-10.6433 L -45.5278,-10.6607 L -45.4866,-10.6834 L -45.4485,-10.711 L -45.4141,-10.7433
 L -45.3841,-10.7796 L -45.3589,-10.8193 L -45.3388,-10.8619 L -45.3243,-10.9067 L -45.3155,-10.953 L -45.3125,-11
 L -45.3155,-11.047 L -45.3243,-11.0932 L -45.3388,-11.138 L -45.3589,-11.1806 L -45.3841,-11.2204 L -45.4141,-11.2567
 L -45.4485,-11.2889 L -45.4866,-11.3166 L -45.5278,-11.3393 L -45.5716,-11.3566 L -45.6172,-11.3683 L -45.664,-11.3743
 L -45.7111,-11.3743 L -45.7578,-11.3683 L -45.8034,-11.3566 L -45.8472,-11.3393 L -45.8884,-11.3166 L -45.9265,-11.2889
 L -45.9609,-11.2567 L -45.9909,-11.2204 L -46.0161,-11.1806 L -46.0362,-11.138 L -46.0507,-11.0932 L -46.0596,-11.047
 L -46.0625,-11 L -46.0596,-10.953 L -46.0507,-10.9067 L -46.0362,-10.8619 L -46.0161,-10.8193 L -45.9909,-10.7796
 L -45.9609,-10.7433 L -45.9265,-10.711 L -45.8884,-10.6834 L -45.8472,-10.6607 L -45.8034,-10.6433 L -45.7578,-10.6316
 L -45.7111,-10.6257 L -45.664,-10.6257 z
M -47.0782,-10.7544 L -47.0478,-10.7622 L -47.0186,-10.7738 L -46.9911,-10.7889 L -46.9657,-10.8074 L -46.9428,-10.8289
 L -46.9228,-10.853 L -46.9059,-10.8795 L -46.8926,-10.908 L -46.8829,-10.9378 L -46.877,-10.9687 L -46.875,-11
 L -46.877,-11.0313 L -46.8829,-11.0622 L -46.8926,-11.092 L -46.9059,-11.1204 L -46.9228,-11.1469 L -46.9428,-11.1711
 L -46.9657,-11.1926 L -46.9911,-11.2111 L -47.0186,-11.2262 L -47.0478,-11.2378 L -47.0782,-11.2456 L -47.1093,-11.2495
 L -47.1407,-11.2495 L -47.1719,-11.2456 L -47.2023,-11.2378 L -47.2314,-11.2262 L -47.259,-11.2111 L -47.2844,-11.1926
 L -47.3073,-11.1711 L -47.3273,-11.1469 L -47.3441,-11.1204 L -47.3575,-11.092 L -47.3672,-11.0622 L -47.373,-11.0313
 L -47.375,-11 L -47.373,-10.9687 L -47.3672,-10.9378 L -47.3575,-10.908 L -47.3441,-10.8795 L -47.3273,-10.853
 L -47.3073,-10.8289 L -47.2844,-10.8074 L -47.259,-10.7889 L -47.2314,-10.7738 L -47.2023,-10.7622 L -47.1719,-10.7544
 L -47.1407,-10.7505 L -47.1093,-10.7505 z
M -44.1563,-8.75885 L -44.0955,-8.77446 L -44.0371,-8.79758 L -43.9821,-8.82784 L -43.9313,-8.86473 L -43.8855,-8.90771
 L -43.8455,-8.9561 L -43.8119,-9.00911 L -43.7851,-9.06593 L -43.7657,-9.12564 L -43.754,-9.18733 L -43.75,-9.25
 L -43.754,-9.31265 L -43.7657,-9.37434 L -43.7851,-9.43405 L -43.8119,-9.49088 L -43.8455,-9.54388 L -43.8855,-9.59227
 L -43.9313,-9.63525 L -43.9821,-9.67215 L -44.0371,-9.70241 L -44.0955,-9.72552 L -44.1563,-9.74113 L -44.2186,-9.74901
 L -44.2814,-9.74901 L -44.3437,-9.74113 L -44.4045,-9.72552 L -44.4629,-9.70241 L -44.5179,-9.67215 L -44.5687,-9.63525
 L -44.6145,-9.59227 L -44.6545,-9.54388 L -44.6882,-9.49088 L -44.7149,-9.43405 L -44.7343,-9.37434 L -44.7461,-9.31265
 L -44.75,-9.25 L -44.7461,-9.18733 L -44.7343,-9.12564 L -44.7149,-9.06593 L -44.6882,-9.00911 L -44.6545,-8.9561
 L -44.6145,-8.90771 L -44.5687,-8.86473 L -44.5179,-8.82784 L -44.4629,-8.79758 L -44.4045,-8.77446 L -44.3437,-8.75885
 L -44.2814,-8.75098 L -44.2186,-8.75098 z
M -45.6172,-8.88164 L -45.5716,-8.89334 L -45.5278,-8.91068 L -45.4866,-8.93336 L -45.4485,-8.96104 L -45.4141,-8.99329
 L -45.3841,-9.02957 L -45.3589,-9.06934 L -45.3388,-9.11194 L -45.3243,-9.15674 L -45.3155,-9.20299 L -45.3125,-9.25
 L -45.3155,-9.297 L -45.3243,-9.34325 L -45.3388,-9.38805 L -45.3589,-9.43065 L -45.3841,-9.47041 L -45.4141,-9.5067
 L -45.4485,-9.53894 L -45.4866,-9.56662 L -45.5278,-9.58931 L -45.5716,-9.60664 L -45.6172,-9.61835 L -45.664,-9.62425
 L -45.7111,-9.62425 L -45.7578,-9.61835 L -45.8034,-9.60664 L -45.8472,-9.58931 L -45.8884,-9.56662 L -45.9265,-9.53894
 L -45.9609,-9.5067 L -45.9909,-9.47041 L -46.0161,-9.43065 L -46.0362,-9.38805 L -46.0507,-9.34325 L -46.0596,-9.297
 L -46.0625,-9.25 L -46.0596,-9.20299 L -46.0507,-9.15674 L -46.0362,-9.11194 L -46.0161,-9.06934 L -45.9909,-9.02957
 L -45.9609,-8.99329 L -45.9265,-8.96104 L -45.8884,-8.93336 L -45.8472,-8.91068 L -45.8034,-8.89334 L -45.7578,-8.88164
 L -45.7111,-8.87573 L -45.664,-8.87573 z
M -47.0782,-9.00443 L -47.0478,-9.01222 L -47.0186,-9.02379 L -46.9911,-9.03891 L -46.9657,-9.05736 L -46.9428,-9.07886
 L -46.9228,-9.10304 L -46.9059,-9.12955 L -46.8926,-9.15796 L -46.8829,-9.18782 L -46.877,-9.21866 L -46.875,-9.25
 L -46.877,-9.28133 L -46.8829,-9.31216 L -46.8926,-9.34203 L -46.9059,-9.37044 L -46.9228,-9.39694 L -46.9428,-9.42113
 L -46.9657,-9.44263 L -46.9911,-9.46107 L -47.0186,-9.4762 L -47.0478,-9.48776 L -47.0782,-9.49556 L -47.1093,-9.4995
 L -47.1407,-9.4995 L -47.1719,-9.49556 L -47.2023,-9.48776 L -47.2314,-9.4762 L -47.259,-9.46107 L -47.2844,-9.44263
 L -47.3073,-9.42113 L -47.3273,-9.39694 L -47.3441,-9.37044 L -47.3575,-9.34203 L -47.3672,-9.31216 L -47.373,-9.28133
 L -47.375,-9.25 L -47.373,-9.21866 L -47.3672,-9.18782 L -47.3575,-9.15796 L -47.3441,-9.12955 L -47.3273,-9.10304
 L -47.3073,-9.07886 L -47.2844,-9.05736 L -47.259,-9.03891 L -47.2314,-9.02379 L -47.2023,-9.01222 L -47.1719,-9.00443
 L -47.1407,-9.00049 L -47.1093,-9.00049 z
M -48.25,-8.63165 L -49.018,-8.63165 L -49.018,-9.21466 L -49.274,-9.21466 L -49.274,-8.63165 L -49.722,-8.63165
 L -49.722,-9.25166 L -49.978,-9.25166 L -49.978,-8.28166 L -48.25,-8.28166 z
M -48.25,-7.53302 L -49.018,-7.53302 L -49.018,-8.11603 L -49.274,-8.11603 L -49.274,-7.53302 L -49.722,-7.53302
 L -49.722,-8.15303 L -49.978,-8.15303 L -49.978,-7.18304 L -48.25,-7.18304 z
M -44.1563,-7.00885 L -44.0955,-7.02446 L -44.0371,-7.04758 L -43.9821,-7.07784 L -43.9313,-7.11473 L -43.8855,-7.15771
 L -43.8455,-7.2061 L -43.8119,-7.25911 L -43.7851,-7.31593 L -43.7657,-7.37564 L -43.754,-7.43733 L -43.75,-7.5
 L -43.754,-7.56265 L -43.7657,-7.62434 L -43.7851,-7.68405 L -43.8119,-7.74088 L -43.8455,-7.79388 L -43.8855,-7.84227
 L -43.9313,-7.88525 L -43.9821,-7.92215 L -44.0371,-7.95241 L -44.0955,-7.97552 L -44.1563,-7.99113 L -44.2186,-7.99901
 L -44.2814,-7.99901 L -44.3437,-7.99113 L -44.4045,-7.97552 L -44.4629,-7.95241 L -44.5179,-7.92215 L -44.5687,-7.88525
 L -44.6145,-7.84227 L -44.6545,-7.79388 L -44.6882,-7.74088 L -44.7149,-7.68405 L -44.7343,-7.62434 L -44.7461,-7.56265
 L -44.75,-7.5 L -44.7461,-7.43733 L -44.7343,-7.37564 L -44.7149,-7.31593 L -44.6882,-7.25911 L -44.6545,-7.2061
 L -44.6145,-7.15771 L -44.5687,-7.11473 L -44.5179,-7.07784 L -44.4629,-7.04758 L -44.4045,-7.02446 L -44.3437,-7.00885
 L -44.2814,-7.00098 L -44.2186,-7.00098 z
M -45.6172,-7.13164 L -45.5716,-7.14334 L -45.5278,-7.16068 L -45.4866,-7.18336 L -45.4485,-7.21104 L -45.4141,-7.24329
 L -45.3841,-7.27957 L -45.3589,-7.31934 L -45.3388,-7.36194 L -45.3243,-7.40674 L -45.3155,-7.45299 L -45.3125,-7.5
 L -45.3155,-7.547 L -45.3243,-7.59325 L -45.3388,-7.63805 L -45.3589,-7.68065 L -45.3841,-7.72041 L -45.4141,-7.7567
 L -45.4485,-7.78894 L -45.4866,-7.81662 L -45.5278,-7.83931 L -45.5716,-7.85664 L -45.6172,-7.86835 L -45.664,-7.87425
 L -45.7111,-7.87425 L -45.7578,-7.86835 L -45.8034,-7.85664 L -45.8472,-7.83931 L -45.8884,-7.81662 L -45.9265,-7.78894
 L -45.9609,-7.7567 L -45.9909,-7.72041 L -46.0161,-7.68065 L -46.0362,-7.63805 L -46.0507,-7.59325 L -46.0596,-7.547
 L -46.0625,-7.5 L -46.0596,-7.45299 L -46.0507,-7.40674 L -46.0362,-7.36194 L -46.0161,-7.31934 L -45.9909,-7.27957
 L -45.9609,-7.24329 L -45.9265,-7.21104 L -45.8884,-7.18336 L -45.8472,-7.16068 L -45.8034,-7.14334 L -45.7578,-7.13164
 L -45.7111,-7.12573 L -45.664,-7.12573 z
M -47.0782,-7.25443 L -47.0478,-7.26222 L -47.0186,-7.27379 L -46.9911,-7.28891 L -46.9657,-7.30736 L -46.9428,-7.32886
 L -46.9228,-7.35304 L -46.9059,-7.37955 L -46.8926,-7.40796 L -46.8829,-7.43782 L -46.877,-7.46866 L -46.875,-7.5
 L -46.877,-7.53133 L -46.8829,-7.56216 L -46.8926,-7.59203 L -46.9059,-7.62044 L -46.9228,-7.64694 L -46.9428,-7.67113
 L -46.9657,-7.69263 L -46.9911,-7.71107 L -47.0186,-7.7262 L -47.0478,-7.73776 L -47.0782,-7.74556 L -47.1093,-7.7495
 L -47.1407,-7.7495 L -47.1719,-7.74556 L -47.2023,-7.73776 L -47.2314,-7.7262 L -47.259,-7.71107 L -47.2844,-7.69263
 L -47.3073,-7.67113 L -47.3273,-7.64694 L -47.3441,-7.62044 L -47.3575,-7.59203 L -47.3672,-7.56216 L -47.373,-7.53133
 L -47.375,-7.5 L -47.373,-7.46866 L -47.3672,-7.43782 L -47.3575,-7.40796 L -47.3441,-7.37955 L -47.3273,-7.35304
 L -47.3073,-7.32886 L -47.2844,-7.30736 L -47.259,-7.28891 L -47.2314,-7.27379 L -47.2023,-7.26222 L -47.1719,-7.25443
 L -47.1407,-7.25049 L -47.1093,-7.25049 z
M -48.9523,-5.83121 L -48.779,-5.84471 L -48.6255,-5.8737 L -48.495,-5.92471 L -48.39,-6.00096 L -48.313,-6.10371
 L -48.2658,-6.24071 L -48.25,-6.41771 L -48.2658,-6.59445 L -48.313,-6.73071 L -48.39,-6.83395 L -48.495,-6.90971
 L -48.6255,-6.96146 L -48.779,-6.99071 L -48.9523,-7.00421 L -49.142,-7.00871 L -49.3313,-7.00421 L -49.505,-6.99071
 L -49.6593,-6.96146 L -49.79,-6.90971 L -49.8958,-6.83395 L -49.975,-6.73071 L -50.0252,-6.59445 L -50.042,-6.41771
 L -50.0252,-6.24071 L -49.975,-6.10371 L -49.8958,-6.00096 L -49.79,-5.92471 L -49.6593,-5.8737 L -49.505,-5.84471
 L -49.3313,-5.83121 L -49.142,-5.82671 z
M -49.3065,-6.17871 L -49.44,-6.18471 L -49.55,-6.19771 L -49.638,-6.2187 L -49.7053,-6.24995 L -49.751,-6.2917
 L -49.7773,-6.34721 L -49.786,-6.41771 L -49.7773,-6.48796 L -49.751,-6.54271 L -49.7053,-6.58496 L -49.638,-6.61571
 L -49.55,-6.63721 L -49.44,-6.6497 L -49.3065,-6.65646 L -49.146,-6.65871 L -48.985,-6.65646 L -48.85,-6.6497
 L -48.7395,-6.63721 L -48.652,-6.61571 L -48.5863,-6.58496 L -48.541,-6.54271 L -48.5148,-6.48796 L -48.506,-6.41771
 L -48.5148,-6.34721 L -48.541,-6.2917 L -48.5863,-6.24995 L -48.652,-6.2187 L -48.7395,-6.19771 L -48.85,-6.18471
 L -48.985,-6.17871 L -49.146,-6.17671 z
M -44.1563,-5.25885 L -44.0955,-5.27446 L -44.0371,-5.29758 L -43.9821,-5.32784 L -43.9313,-5.36473 L -43.8855,-5.40771
 L -43.8455,-5.4561 L -43.8119,-5.50911 L -43.7851,-5.56593 L -43.7657,-5.62564 L -43.754,-5.68733 L -43.75,-5.75
 L -43.754,-5.81265 L -43.7657,-5.87434 L -43.7851,-5.93405 L -43.8119,-5.99088 L -43.8455,-6.04388 L -43.8855,-6.09227
 L -43.9313,-6.13525 L -43.9821,-6.17215 L -44.0371,-6.20241 L -44.0955,-6.22552 L -44.1563,-6.24113 L -44.2186,-6.24901
 L -44.2814,-6.24901 L -44.3437,-6.24113 L -44.4045,-6.22552 L -44.4629,-6.20241 L -44.5179,-6.17215 L -44.5687,-6.13525
 L -44.6145,-6.09227 L -44.6545,-6.04388 L -44.6882,-5.99088 L -44.7149,-5.93405 L -44.7343,-5.87434 L -44.7461,-5.81265
 L -44.75,-5.75 L -44.7461,-5.68733 L -44.7343,-5.62564 L -44.7149,-5.56593 L -44.6882,-5.50911 L -44.6545,-5.4561
 L -44.6145,-5.40771 L -44.5687,-5.36473 L -44.5179,-5.32784 L -44.4629,-5.29758 L -44.4045,-5.27446 L -44.3437,-5.25885
 L -44.2814,-5.25098 L -44.2186,-5.25098 z
M -45.6172,-5.38164 L -45.5716,-5.39334 L -45.5278,-5.41068 L -45.4866,-5.43336 L -45.4485,-5.46104 L -45.4141,-5.49329
 L -45.3841,-5.52957 L -45.3589,-5.56934 L -45.3388,-5.61194 L -45.3243,-5.65674 L -45.3155,-5.70299 L -45.3125,-5.75
 L -45.3155,-5.797 L -45.3243,-5.84325 L -45.3388,-5.88805 L -45.3589,-5.93065 L -45.3841,-5.97041 L -45.4141,-6.0067
 L -45.4485,-6.03894 L -45.4866,-6.06662 L -45.5278,-6.08931 L -45.5716,-6.10664 L -45.6172,-6.11835 L -45.664,-6.12425
 L -45.7111,-6.12425 L -45.7578,-6.11835 L -45.8034,-6.10664 L -45.8472,-6.08931 L -45.8884,-6.06662 L -45.9265,-6.03894
 L -45.9609,-6.0067 L -45.9909,-5.97041 L -46.0161,-5.93065 L -46.0362,-5.88805 L -46.0507,-5.84325 L -46.0596,-5.797
 L -46.0625,-5.75 L -46.0596,-5.70299 L -46.0507,-5.65674 L -46.0362,-5.61194 L -46.0161,-5.56934 L -45.9909,-5.52957
 L -45.9609,-5.49329 L -45.9265,-5.46104 L -45.8884,-5.43336 L -45.8472,-5.41068 L -45.8034,-5.39334 L -45.7578,-5.38164
 L -45.7111,-5.37573 L -45.664,-5.37573 z
M -47.0782,-5.50443 L -47.0478,-5.51222 L -47.0186,-5.52379 L -46.9911,-5.53891 L -46.9657,-5.55736 L -46.9428,-5.57886
 L -46.9228,-5.60304 L -46.9059,-5.62955 L -46.8926,-5.65796 L -46.8829,-5.68782 L -46.877,-5.71866 L -46.875,-5.75
 L -46.877,-5.78133 L -46.8829,-5.81216 L -46.8926,-5.84203 L -46.9059,-5.87044 L -46.9228,-5.89694 L -46.9428,-5.92113
 L -46.9657,-5.94263 L -46.9911,-5.96107 L -47.0186,-5.9762 L -47.0478,-5.98776 L -47.0782,-5.99556 L -47.1093,-5.9995
 L -47.1407,-5.9995 L -47.1719,-5.99556 L -47.2023,-5.98776 L -47.2314,-5.9762 L -47.259,-5.96107 L -47.2844,-5.94263
 L -47.3073,-5.92113 L -47.3273,-5.89694 L -47.3441,-5.87044 L -47.3575,-5.84203 L -47.3672,-5.81216 L -47.373,-5.78133
 L -47.375,-5.75 L -47.373,-5.71866 L -47.3672,-5.68782 L -47.3575,-5.65796 L -47.3441,-5.62955 L -47.3273,-5.60304
 L -47.3073,-5.57886 L -47.2844,-5.55736 L -47.259,-5.53891 L -47.2314,-5.52379 L -47.2023,-5.51222 L -47.1719,-5.50443
 L -47.1407,-5.50049 L -47.1093,-5.50049 z
M -44.1563,-3.50887 L -44.0955,-3.52448 L -44.0371,-3.54759 L -43.9821,-3.57785 L -43.9313,-3.61475 L -43.8855,-3.65773
 L -43.8455,-3.70612 L -43.8119,-3.75912 L -43.7851,-3.81595 L -43.7657,-3.87566 L -43.754,-3.93735 L -43.75,-4
 L -43.754,-4.06265 L -43.7657,-4.12434 L -43.7851,-4.18405 L -43.8119,-4.24088 L -43.8455,-4.29388 L -43.8855,-4.34227
 L -43.9313,-4.38525 L -43.9821,-4.42215 L -44.0371,-4.45241 L -44.0955,-4.47552 L -44.1563,-4.49113 L -44.2186,-4.49901
 L -44.2814,-4.49901 L -44.3437,-4.49113 L -44.4045,-4.47552 L -44.4629,-4.45241 L -44.5179,-4.42215 L -44.5687,-4.38525
 L -44.6145,-4.34227 L -44.6545,-4.29388 L -44.6882,-4.24088 L -44.7149,-4.18405 L -44.7343,-4.12434 L -44.7461,-4.06265
 L -44.75,-4 L -44.7461,-3.93735 L -44.7343,-3.87566 L -44.7149,-3.81595 L -44.6882,-3.75912 L -44.6545,-3.70612
 L -44.6145,-3.65773 L -44.5687,-3.61475 L -44.5179,-3.57785 L -44.4629,-3.54759 L -44.4045,-3.52448 L -44.3437,-3.50887
 L -44.2814,-3.50099 L -44.2186,-3.50099 z
M -45.6172,-3.63165 L -45.5716,-3.64336 L -45.5278,-3.66069 L -45.4866,-3.68338 L -45.4485,-3.71106 L -45.4141,-3.7433
 L -45.3841,-3.77959 L -45.3589,-3.81935 L -45.3388,-3.86195 L -45.3243,-3.90675 L -45.3155,-3.953 L -45.3125,-4
 L -45.3155,-4.047 L -45.3243,-4.09325 L -45.3388,-4.13805 L -45.3589,-4.18065 L -45.3841,-4.22041 L -45.4141,-4.2567
 L -45.4485,-4.28894 L -45.4866,-4.31662 L -45.5278,-4.33931 L -45.5716,-4.35664 L -45.6172,-4.36835 L -45.664,-4.37425
 L -45.7111,-4.37425 L -45.7578,-4.36835 L -45.8034,-4.35664 L -45.8472,-4.33931 L -45.8884,-4.31662 L -45.9265,-4.28894
 L -45.9609,-4.2567 L -45.9909,-4.22041 L -46.0161,-4.18065 L -46.0362,-4.13805 L -46.0507,-4.09325 L -46.0596,-4.047
 L -46.0625,-4 L -46.0596,-3.953 L -46.0507,-3.90675 L -46.0362,-3.86195 L -46.0161,-3.81935 L -45.9909,-3.77959
 L -45.9609,-3.7433 L -45.9265,-3.71106 L -45.8884,-3.68338 L -45.8472,-3.66069 L -45.8034,-3.64336 L -45.7578,-3.63165
 L -45.7111,-3.62575 L -45.664,-3.62575 z
M -47.0782,-3.75444 L -47.0478,-3.76224 L -47.0186,-3.7738 L -46.9911,-3.78893 L -46.9657,-3.80737 L -46.9428,-3.82887
 L -46.9228,-3.85306 L -46.9059,-3.87956 L -46.8926,-3.90797 L -46.8829,-3.93784 L -46.877,-3.96867 L -46.875,-4
 L -46.877,-4.03133 L -46.8829,-4.06216 L -46.8926,-4.09203 L -46.9059,-4.12044 L -46.9228,-4.14694 L -46.9428,-4.17113
 L -46.9657,-4.19263 L -46.9911,-4.21107 L -47.0186,-4.2262 L -47.0478,-4.23776 L -47.0782,-4.24556 L -47.1093,-4.2495
 L -47.1407,-4.2495 L -47.1719,-4.24556 L -47.2023,-4.23776 L -47.2314,-4.2262 L -47.259,-4.21107 L -47.2844,-4.19263
 L -47.3073,-4.17113 L -47.3273,-4.14694 L -47.3441,-4.12044 L -47.3575,-4.09203 L -47.3672,-4.06216 L -47.373,-4.03133
 L -47.375,-4 L -47.373,-3.96867 L -47.3672,-3.93784 L -47.3575,-3.90797 L -47.3441,-3.87956 L -47.3273,-3.85306
 L -47.3073,-3.82887 L -47.2844,-3.80737 L -47.259,-3.78893 L -47.2314,-3.7738 L -47.2023,-3.76224 L -47.1719,-3.75444
 L -47.1407,-3.7505 L -47.1093,-3.7505 z
M -44.1563,4.49115 L -44.0955,4.47554 L -44.0371,4.45242 L -43.9821,4.42216 L -43.9313,4.38527 L -43.8855,4.34229
 L -43.8455,4.2939 L -43.8119,4.24089 L -43.7851,4.18407 L -43.7657,4.12436 L -43.754,4.06267 L -43.75,4
 L -43.754,3.93735 L -43.7657,3.87566 L -43.7851,3.81595 L -43.8119,3.75912 L -43.8455,3.70612 L -43.8855,3.65773
 L -43.9313,3.61475 L -43.9821,3.57785 L -44.0371,3.54759 L -44.0955,3.52448 L -44.1563,3.50887 L -44.2186,3.50099
 L -44.2814,3.50099 L -44.3437,3.50887 L -44.4045,3.52448 L -44.4629,3.54759 L -44.5179,3.57785 L -44.5687,3.61475
 L -44.6145,3.65773 L -44.6545,3.70612 L -44.6882,3.75912 L -44.7149,3.81595 L -44.7343,3.87566 L -44.7461,3.93735
 L -44.75,4 L -44.7461,4.06267 L -44.7343,4.12436 L -44.7149,4.18407 L -44.6882,4.24089 L -44.6545,4.2939
 L -44.6145,4.34229 L -44.5687,4.38527 L -44.5179,4.42216 L -44.4629,4.45242 L -44.4045,4.47554 L -44.3437,4.49115
 L -44.2814,4.49902 L -44.2186,4.49902 z
M -45.6172,4.36836 L -45.5716,4.35666 L -45.5278,4.33932 L -45.4866,4.31664 L -45.4485,4.28896 L -45.4141,4.25671
 L -45.3841,4.22043 L -45.3589,4.18066 L -45.3388,4.13806 L -45.3243,4.09326 L -45.3155,4.04701 L -45.3125,4
 L -45.3155,3.953 L -45.3243,3.90675 L -45.3388,3.86195 L -45.3589,3.81935 L -45.3841,3.77959 L -45.4141,3.7433
 L -45.4485,3.71106 L -45.4866,3.68338 L -45.5278,3.66069 L -45.5716,3.64336 L -45.6172,3.63165 L -45.664,3.62575
 L -45.7111,3.62575 L -45.7578,3.63165 L -45.8034,3.64336 L -45.8472,3.66069 L -45.8884,3.68338 L -45.9265,3.71106
 L -45.9609,3.7433 L -45.9909,3.77959 L -46.0161,3.81935 L -46.0362,3.86195 L -46.0507,3.90675 L -46.0596,3.953
 L -46.0625,4 L -46.0596,4.04701 L -46.0507,4.09326 L -46.0362,4.13806 L -46.0161,4.18066 L -45.9909,4.22043
 L -45.9609,4.25671 L -45.9265,4.28896 L -45.8884,4.31664 L -45.8472,4.33932 L -45.8034,4.35666 L -45.7578,4.36836
 L -45.7111,4.37427 L -45.664,4.37427 z
M -47.0782,4.24557 L -47.0478,4.23778 L -47.0186,4.22621 L -46.9911,4.21109 L -46.9657,4.19264 L -46.9428,4.17114
 L -46.9228,4.14696 L -46.9059,4.12045 L -46.8926,4.09204 L -46.8829,4.06218 L -46.877,4.03134 L -46.875,4
 L -46.877,3.96867 L -46.8829,3.93784 L -46.8926,3.90797 L -46.9059,3.87956 L -46.9228,3.85306 L -46.9428,3.82887
 L -46.9657,3.80737 L -46.9911,3.78893 L -47.0186,3.7738 L -47.0478,3.76224 L -47.0782,3.75444 L -47.1093,3.7505
 L -47.1407,3.7505 L -47.1719,3.75444 L -47.2023,3.76224 L -47.2314,3.7738 L -47.259,3.78893 L -47.2844,3.80737
 L -47.3073,3.82887 L -47.3273,3.85306 L -47.3441,3.87956 L -47.3575,3.90797 L -47.3672,3.93784 L -47.373,3.96867
 L -47.375,4 L -47.373,4.03134 L -47.3672,4.06218 L -47.3575,4.09204 L -47.3441,4.12045 L -47.3273,4.14696
 L -47.3073,4.17114 L -47.2844,4.19264 L -47.259,4.21109 L -47.2314,4.22621 L -47.2023,4.23778 L -47.1719,4.24557
 L -47.1407,4.24951 L -47.1093,4.24951 z
M -44.1563,6.24115 L -44.0955,6.22554 L -44.0371,6.20242 L -43.9821,6.17216 L -43.9313,6.13527 L -43.8855,6.09229
 L -43.8455,6.0439 L -43.8119,5.99089 L -43.7851,5.93407 L -43.7657,5.87436 L -43.754,5.81267 L -43.75,5.75
 L -43.754,5.68735 L -43.7657,5.62566 L -43.7851,5.56595 L -43.8119,5.50912 L -43.8455,5.45612 L -43.8855,5.40773
 L -43.9313,5.36475 L -43.9821,5.32785 L -44.0371,5.29759 L -44.0955,5.27448 L -44.1563,5.25887 L -44.2186,5.25099
 L -44.2814,5.25099 L -44.3437,5.25887 L -44.4045,5.27448 L -44.4629,5.29759 L -44.5179,5.32785 L -44.5687,5.36475
 L -44.6145,5.40773 L -44.6545,5.45612 L -44.6882,5.50912 L -44.7149,5.56595 L -44.7343,5.62566 L -44.7461,5.68735
 L -44.75,5.75 L -44.7461,5.81267 L -44.7343,5.87436 L -44.7149,5.93407 L -44.6882,5.99089 L -44.6545,6.0439
 L -44.6145,6.09229 L -44.5687,6.13527 L -44.5179,6.17216 L -44.4629,6.20242 L -44.4045,6.22554 L -44.3437,6.24115
 L -44.2814,6.24902 L -44.2186,6.24902 z
M -45.6172,6.11836 L -45.5716,6.10666 L -45.5278,6.08932 L -45.4866,6.06664 L -45.4485,6.03896 L -45.4141,6.00671
 L -45.3841,5.97043 L -45.3589,5.93066 L -45.3388,5.88806 L -45.3243,5.84326 L -45.3155,5.79701 L -45.3125,5.75
 L -45.3155,5.703 L -45.3243,5.65675 L -45.3388,5.61195 L -45.3589,5.56935 L -45.3841,5.52959 L -45.4141,5.4933
 L -45.4485,5.46106 L -45.4866,5.43338 L -45.5278,5.41069 L -45.5716,5.39336 L -45.6172,5.38165 L -45.664,5.37575
 L -45.7111,5.37575 L -45.7578,5.38165 L -45.8034,5.39336 L -45.8472,5.41069 L -45.8884,5.43338 L -45.9265,5.46106
 L -45.9609,5.4933 L -45.9909,5.52959 L -46.0161,5.56935 L -46.0362,5.61195 L -46.0507,5.65675 L -46.0596,5.703
 L -46.0625,5.75 L -46.0596,5.79701 L -46.0507,5.84326 L -46.0362,5.88806 L -46.0161,5.93066 L -45.9909,5.97043
 L -45.9609,6.00671 L -45.9265,6.03896 L -45.8884,6.06664 L -45.8472,6.08932 L -45.8034,6.10666 L -45.7578,6.11836
 L -45.7111,6.12427 L -45.664,6.12427 z
M -47.0782,5.99557 L -47.0478,5.98778 L -47.0186,5.97621 L -46.9911,5.96109 L -46.9657,5.94264 L -46.9428,5.92114
 L -46.9228,5.89696 L -46.9059,5.87045 L -46.8926,5.84204 L -46.8829,5.81218 L -46.877,5.78134 L -46.875,5.75
 L -46.877,5.71867 L -46.8829,5.68784 L -46.8926,5.65797 L -46.9059,5.62956 L -46.9228,5.60306 L -46.9428,5.57887
 L -46.9657,5.55737 L -46.9911,5.53893 L -47.0186,5.5238 L -47.0478,5.51224 L -47.0782,5.50444 L -47.1093,5.5005
 L -47.1407,5.5005 L -47.1719,5.50444 L -47.2023,5.51224 L -47.2314,5.5238 L -47.259,5.53893 L -47.2844,5.55737
 L -47.3073,5.57887 L -47.3273,5.60306 L -47.3441,5.62956 L -47.3575,5.65797 L -47.3672,5.68784 L -47.373,5.71867
 L -47.375,5.75 L -47.373,5.78134 L -47.3672,5.81218 L -47.3575,5.84204 L -47.3441,5.87045 L -47.3273,5.89696
 L -47.3073,5.92114 L -47.2844,5.94264 L -47.259,5.96109 L -47.2314,5.97621 L -47.2023,5.98778 L -47.1719,5.99557
 L -47.1407,5.99951 L -47.1093,5.99951 z
M -48.25,6.36835 L -49.018,6.36835 L -49.018,5.78534 L -49.274,5.78534 L -49.274,6.36835 L -49.722,6.36835
 L -49.722,5.74834 L -49.978,5.74834 L -49.978,6.71834 L -48.25,6.71834 z
M -48.25,7.46698 L -49.018,7.46698 L -49.018,6.88397 L -49.274,6.88397 L -49.274,7.46698 L -49.722,7.46698
 L -49.722,6.84697 L -49.978,6.84697 L -49.978,7.81696 L -48.25,7.81696 z
M -44.1563,7.99115 L -44.0955,7.97554 L -44.0371,7.95242 L -43.9821,7.92216 L -43.9313,7.88527 L -43.8855,7.84229
 L -43.8455,7.7939 L -43.8119,7.74089 L -43.7851,7.68407 L -43.7657,7.62436 L -43.754,7.56267 L -43.75,7.5
 L -43.754,7.43735 L -43.7657,7.37566 L -43.7851,7.31595 L -43.8119,7.25912 L -43.8455,7.20612 L -43.8855,7.15773
 L -43.9313,7.11475 L -43.9821,7.07785 L -44.0371,7.04759 L -44.0955,7.02448 L -44.1563,7.00887 L -44.2186,7.00099
 L -44.2814,7.00099 L -44.3437,7.00887 L -44.4045,7.02448 L -44.4629,7.04759 L -44.5179,7.07785 L -44.5687,7.11475
 L -44.6145,7.15773 L -44.6545,7.20612 L -44.6882,7.25912 L -44.7149,7.31595 L -44.7343,7.37566 L -44.7461,7.43735
 L -44.75,7.5 L -44.7461,7.56267 L -44.7343,7.62436 L -44.7149,7.68407 L -44.6882,7.74089 L -44.6545,7.7939
 L -44.6145,7.84229 L -44.5687,7.88527 L -44.5179,7.92216 L -44.4629,7.95242 L -44.4045,7.97554 L -44.3437,7.99115
 L -44.2814,7.99902 L -44.2186,7.99902 z
M -45.6172,7.86836 L -45.5716,7.85666 L -45.5278,7.83932 L -45.4866,7.81664 L -45.4485,7.78896 L -45.4141,7.75671
 L -45.3841,7.72043 L -45.3589,7.68066 L -45.3388,7.63806 L -45.3243,7.59326 L -45.3155,7.54701 L -45.3125,7.5
 L -45.3155,7.453 L -45.3243,7.40675 L -45.3388,7.36195 L -45.3589,7.31935 L -45.3841,7.27959 L -45.4141,7.2433
 L -45.4485,7.21106 L -45.4866,7.18338 L -45.5278,7.16069 L -45.5716,7.14336 L -45.6172,7.13165 L -45.664,7.12575
 L -45.7111,7.12575 L -45.7578,7.13165 L -45.8034,7.14336 L -45.8472,7.16069 L -45.8884,7.18338 L -45.9265,7.21106
 L -45.9609,7.2433 L -45.9909,7.27959 L -46.0161,7.31935 L -46.0362,7.36195 L -46.0507,7.40675 L -46.0596,7.453
 L -46.0625,7.5 L -46.0596,7.54701 L -46.0507,7.59326 L -46.0362,7.63806 L -46.0161,7.68066 L -45.9909,7.72043
 L -45.9609,7.75671 L -45.9265,7.78896 L -45.8884,7.81664 L -45.8472,7.83932 L -45.8034,7.85666 L -45.7578,7.86836
 L -45.7111,7.87427 L -45.664,7.87427 z
M -47.0782,7.74557 L -47.0478,7.73778 L -47.0186,7.72621 L -46.9911,7.71109 L -46.9657,7.69264 L -46.9428,7.67114
 L -46.9228,7.64696 L -46.9059,7.62045 L -46.8926,7.59204 L -46.8829,7.56218 L -46.877,7.53134 L -46.875,7.5
 L -46.877,7.46867 L -46.8829,7.43784 L -46.8926,7.40797 L -46.9059,7.37956 L -46.9228,7.35306 L -46.9428,7.32887
 L -46.9657,7.30737 L -46.9911,7.28893 L -47.0186,7.2738 L -47.0478,7.26224 L -47.0782,7.25444 L -47.1093,7.2505
 L -47.1407,7.2505 L -47.1719,7.25444 L -47.2023,7.26224 L -47.2314,7.2738 L -47.259,7.28893 L -47.2844,7.30737
 L -47.3073,7.32887 L -47.3273,7.35306 L -47.3441,7.37956 L -47.3575,7.40797 L -47.3672,7.43784 L -47.373,7.46867
 L -47.375,7.5 L -47.373,7.53134 L -47.3672,7.56218 L -47.3575,7.59204 L -47.3441,7.62045 L -47.3273,7.64696
 L -47.3073,7.67114 L -47.2844,7.69264 L -47.259,7.71109 L -47.2314,7.72621 L -47.2023,7.73778 L -47.1719,7.74557
 L -47.1407,7.74951 L -47.1093,7.74951 z
M -48.9523,9.16879 L -48.779,9.15529 L -48.6255,9.1263 L -48.495,9.07529 L -48.39,8.99904 L -48.313,8.89629
 L -48.2658,8.75929 L -48.25,8.58229 L -48.2658,8.40555 L -48.313,8.26929 L -48.39,8.16605 L -48.495,8.09029
 L -48.6255,8.03854 L -48.779,8.00929 L -48.9523,7.99579 L -49.142,7.99129 L -49.3313,7.99579 L -49.505,8.00929
 L -49.6593,8.03854 L -49.79,8.09029 L -49.8958,8.16605 L -49.975,8.26929 L -50.0252,8.40555 L -50.042,8.58229
 L -50.0252,8.75929 L -49.975,8.89629 L -49.8958,8.99904 L -49.79,9.07529 L -49.6593,9.1263 L -49.505,9.15529
 L -49.3313,9.16879 L -49.142,9.17329 z
M -49.3065,8.82129 L -49.44,8.81529 L -49.55,8.80229 L -49.638,8.7813 L -49.7053,8.75005 L -49.751,8.7083
 L -49.7773,8.65279 L -49.786,8.58229 L -49.7773,8.51204 L -49.751,8.45729 L -49.7053,8.41504 L -49.638,8.38429
 L -49.55,8.36279 L -49.44,8.3503 L -49.3065,8.34354 L -49.146,8.34129 L -48.985,8.34354 L -48.85,8.3503
 L -48.7395,8.36279 L -48.652,8.38429 L -48.5863,8.41504 L -48.541,8.45729 L -48.5148,8.51204 L -48.506,8.58229
 L -48.5148,8.65279 L -48.541,8.7083 L -48.5863,8.75005 L -48.652,8.7813 L -48.7395,8.80229 L -48.85,8.81529
 L -48.985,8.82129 L -49.146,8.82329 z
M -44.1563,9.74115 L -44.0955,9.72554 L -44.0371,9.70242 L -43.9821,9.67216 L -43.9313,9.63527 L -43.8855,9.59229
 L -43.8455,9.5439 L -43.8119,9.49089 L -43.7851,9.43407 L -43.7657,9.37436 L -43.754,9.31267 L -43.75,9.25
 L -43.754,9.18735 L -43.7657,9.12566 L -43.7851,9.06595 L -43.8119,9.00912 L -43.8455,8.95612 L -43.8855,8.90773
 L -43.9313,8.86475 L -43.9821,8.82785 L -44.0371,8.79759 L -44.0955,8.77448 L -44.1563,8.75887 L -44.2186,8.75099
 L -44.2814,8.75099 L -44.3437,8.75887 L -44.4045,8.77448 L -44.4629,8.79759 L -44.5179,8.82785 L -44.5687,8.86475
 L -44.6145,8.90773 L -44.6545,8.95612 L -44.6882,9.00912 L -44.7149,9.06595 L -44.7343,9.12566 L -44.7461,9.18735
 L -44.75,9.25 L -44.7461,9.31267 L -44.7343,9.37436 L -44.7149,9.43407 L -44.6882,9.49089 L -44.6545,9.5439
 L -44.6145,9.59229 L -44.5687,9.63527 L -44.5179,9.67216 L -44.4629,9.70242 L -44.4045,9.72554 L -44.3437,9.74115
 L -44.2814,9.74902 L -44.2186,9.74902 z
M -45.6172,9.61836 L -45.5716,9.60666 L -45.5278,9.58932 L -45.4866,9.56664 L -45.4485,9.53896 L -45.4141,9.50671
 L -45.3841,9.47043 L -45.3589,9.43066 L -45.3388,9.38806 L -45.3243,9.34326 L -45.3155,9.29701 L -45.3125,9.25
 L -45.3155,9.203 L -45.3243,9.15675 L -45.3388,9.11195 L -45.3589,9.06935 L -45.3841,9.02959 L -45.4141,8.9933
 L -45.4485,8.96106 L -45.4866,8.93338 L -45.5278,8.91069 L -45.5716,8.89336 L -45.6172,8.88165 L -45.664,8.87575
 L -45.7111,8.87575 L -45.7578,8.88165 L -45.8034,8.89336 L -45.8472,8.91069 L -45.8884,8.93338 L -45.9265,8.96106
 L -45.9609,8.9933 L -45.9909,9.02959 L -46.0161,9.06935 L -46.0362,9.11195 L -46.0507,9.15675 L -46.0596,9.203
 L -46.0625,9.25 L -46.0596,9.29701 L -46.0507,9.34326 L -46.0362,9.38806 L -46.0161,9.43066 L -45.9909,9.47043
 L -45.9609,9.50671 L -45.9265,9.53896 L -45.8884,9.56664 L -45.8472,9.58932 L -45.8034,9.60666 L -45.7578,9.61836
 L -45.7111,9.62427 L -45.664,9.62427 z
M -47.0782,9.49557 L -47.0478,9.48778 L -47.0186,9.47621 L -46.9911,9.46109 L -46.9657,9.44264 L -46.9428,9.42114
 L -46.9228,9.39696 L -46.9059,9.37045 L -46.8926,9.34204 L -46.8829,9.31218 L -46.877,9.28134 L -46.875,9.25
 L -46.877,9.21867 L -46.8829,9.18784 L -46.8926,9.15797 L -46.9059,9.12956 L -46.9228,9.10306 L -46.9428,9.07887
 L -46.9657,9.05737 L -46.9911,9.03893 L -47.0186,9.0238 L -47.0478,9.01224 L -47.0782,9.00444 L -47.1093,9.0005
 L -47.1407,9.0005 L -47.1719,9.00444 L -47.2023,9.01224 L -47.2314,9.0238 L -47.259,9.03893 L -47.2844,9.05737
 L -47.3073,9.07887 L -47.3273,9.10306 L -47.3441,9.12956 L -47.3575,9.15797 L -47.3672,9.18784 L -47.373,9.21867
 L -47.375,9.25 L -47.373,9.28134 L -47.3672,9.31218 L -47.3575,9.34204 L -47.3441,9.37045 L -47.3273,9.39696
 L -47.3073,9.42114 L -47.2844,9.44264 L -47.259,9.46109 L -47.2314,9.47621 L -47.2023,9.48778 L -47.1719,9.49557
 L -47.1407,9.49951 L -47.1093,9.49951 z
M -44.1563,11.4911 L -44.0955,11.4755 L -44.0371,11.4524 L -43.9821,11.4221 L -43.9313,11.3853 L -43.8855,11.3423
 L -43.8455,11.2939 L -43.8119,11.2409 L -43.7851,11.1841 L -43.7657,11.1243 L -43.754,11.0627 L -43.75,11
 L -43.754,10.9373 L -43.7657,10.8757 L -43.7851,10.8159 L -43.8119,10.7591 L -43.8455,10.7061 L -43.8855,10.6577
 L -43.9313,10.6147 L -43.9821,10.5779 L -44.0371,10.5476 L -44.0955,10.5245 L -44.1563,10.5089 L -44.2186,10.501
 L -44.2814,10.501 L -44.3437,10.5089 L -44.4045,10.5245 L -44.4629,10.5476 L -44.5179,10.5779 L -44.5687,10.6147
 L -44.6145,10.6577 L -44.6545,10.7061 L -44.6882,10.7591 L -44.7149,10.8159 L -44.7343,10.8757 L -44.7461,10.9373
 L -44.75,11 L -44.7461,11.0627 L -44.7343,11.1243 L -44.7149,11.1841 L -44.6882,11.2409 L -44.6545,11.2939
 L -44.6145,11.3423 L -44.5687,11.3853 L -44.5179,11.4221 L -44.4629,11.4524 L -44.4045,11.4755 L -44.3437,11.4911
 L -44.2814,11.499 L -44.2186,11.499 z
M -45.6172,11.3683 L -45.5716,11.3566 L -45.5278,11.3393 L -45.4866,11.3166 L -45.4485,11.2889 L -45.4141,11.2567
 L -45.3841,11.2204 L -45.3589,11.1806 L -45.3388,11.138 L -45.3243,11.0932 L -45.3155,11.047 L -45.3125,11
 L -45.3155,10.953 L -45.3243,10.9068 L -45.3388,10.862 L -45.3589,10.8194 L -45.3841,10.7796 L -45.4141,10.7433
 L -45.4485,10.7111 L -45.4866,10.6834 L -45.5278,10.6607 L -45.5716,10.6434 L -45.6172,10.6317 L -45.664,10.6257
 L -45.7111,10.6257 L -45.7578,10.6317 L -45.8034,10.6434 L -45.8472,10.6607 L -45.8884,10.6834 L -45.9265,10.7111
 L -45.9609,10.7433 L -45.9909,10.7796 L -46.0161,10.8194 L -46.0362,10.862 L -46.0507,10.9068 L -46.0596,10.953
 L -46.0625,11 L -46.0596,11.047 L -46.0507,11.0932 L -46.0362,11.138 L -46.0161,11.1806 L -45.9909,11.2204
 L -45.9609,11.2567 L -45.9265,11.2889 L -45.8884,11.3166 L -45.8472,11.3393 L -45.8034,11.3566 L -45.7578,11.3683
 L -45.7111,11.3743 L -45.664,11.3743 z
M -47.0782,11.2456 L -47.0478,11.2378 L -47.0186,11.2262 L -46.9911,11.2111 L -46.9657,11.1926 L -46.9428,11.1711
 L -46.9228,11.1469 L -46.9059,11.1204 L -46.8926,11.092 L -46.8829,11.0622 L -46.877,11.0313 L -46.875,11
 L -46.877,10.9687 L -46.8829,10.9378 L -46.8926,10.908 L -46.9059,10.8796 L -46.9228,10.8531 L -46.9428,10.8289
 L -46.9657,10.8074 L -46.9911,10.7889 L -47.0186,10.7738 L -47.0478,10.7622 L -47.0782,10.7544 L -47.1093,10.7505
 L -47.1407,10.7505 L -47.1719,10.7544 L -47.2023,10.7622 L -47.2314,10.7738 L -47.259,10.7889 L -47.2844,10.8074
 L -47.3073,10.8289 L -47.3273,10.8531 L -47.3441,10.8796 L -47.3575,10.908 L -47.3672,10.9378 L -47.373,10.9687
 L -47.375,11 L -47.373,11.0313 L -47.3672,11.0622 L -47.3575,11.092 L -47.3441,11.1204 L -47.3273,11.1469
 L -47.3073,11.1711 L -47.2844,11.1926 L -47.259,11.2111 L -47.2314,11.2262 L -47.2023,11.2378 L -47.1719,11.2456
 L -47.1407,11.2495 L -47.1093,11.2495 z
M 48.1266,15.9847 L 48.2904,15.9345 L 48.4354,15.8545 L 48.5584,15.7485 L 48.6581,15.6192 L 48.7314,15.4695
 L 48.7771,15.3027 L 48.7924,15.1225 L 48.7811,14.9792 L 48.7474,14.8375 L 48.6894,14.7035 L 48.6054,14.5855
 L 48.4909,14.4832 L 48.3534,14.4045 L 48.2029,14.3542 L 48.0494,14.3375 L 47.8836,14.3537 L 47.7384,14.4025
 L 47.6121,14.4882 L 47.5034,14.6175 L 47.4964,14.6105 L 47.5046,14.4962 L 47.5234,14.3675 L 47.5551,14.235
 L 47.6004,14.1115 L 47.6614,14.0007 L 47.7404,13.9085 L 47.8391,13.8462 L 47.9594,13.8255 L 48.0769,13.8447
 L 48.1734,13.9025 L 48.2446,13.9852 L 48.2844,14.0815 L 48.7504,14.0815 L 48.7189,13.9355 L 48.6644,13.8075
 L 48.5889,13.6982 L 48.4944,13.6085 L 48.3834,13.537 L 48.2564,13.4845 L 48.1169,13.4523 L 47.9664,13.4415
 L 47.7271,13.4705 L 47.5274,13.5575 L 47.3646,13.6907 L 47.2344,13.8585 L 47.1359,14.0545 L 47.0684,14.2725
 L 47.0294,14.5015 L 47.0164,14.7305 L 47.0266,14.9642 L 47.0574,15.1935 L 47.1156,15.4087 L 47.2064,15.6005
 L 47.3314,15.7625 L 47.4924,15.8905 L 47.6956,15.9737 L 47.9454,16.0015 z
M 47.8434,15.608 L 47.7654,15.5795 L 47.6989,15.5352 L 47.6434,15.4785 L 47.5994,15.4102 L 47.5674,15.3335
 L 47.5479,15.252 L 47.5414,15.1695 L 47.5474,15.0817 L 47.5654,14.9985 L 47.5954,14.9222 L 47.6374,14.8555
 L 47.6926,14.8 L 47.7604,14.7575 L 47.8406,14.7305 L 47.9314,14.7215 L 48.0194,14.7315 L 48.0954,14.7615
 L 48.1599,14.8067 L 48.2114,14.8645 L 48.2506,14.9327 L 48.2784,15.0095 L 48.2956,15.0917 L 48.3014,15.1765
 L 48.2954,15.2585 L 48.2774,15.3385 L 48.2471,15.4132 L 48.2044,15.4795 L 48.1514,15.5355 L 48.0884,15.5795
 L 48.0156,15.608 L 47.9314,15.6175 z
M 34.0141,15.926 L 34.1799,15.887 L 34.3331,15.8237 L 34.4669,15.736 L 34.5784,15.624 L 34.6649,15.488
 L 34.7211,15.329 L 34.7399,15.15 L 34.7114,14.9577 L 34.6259,14.795 L 34.4904,14.6727 L 34.3119,14.602
 L 34.3119,14.595 L 34.4596,14.5257 L 34.5649,14.414 L 34.6286,14.2705 L 34.6499,14.106 L 34.6316,13.9552
 L 34.5769,13.823 L 34.4939,13.7087 L 34.3889,13.614 L 34.2656,13.539 L 34.1279,13.486 L 33.9829,13.4538
 L 33.8379,13.443 L 33.6601,13.4575 L 33.4989,13.501 L 33.3576,13.57 L 33.2379,13.663 L 33.1416,13.7797
 L 33.0689,13.92 L 33.0221,14.0807 L 33.0019,14.259 L 33.4689,14.259 L 33.4896,14.0882 L 33.5599,13.95
 L 33.6784,13.8577 L 33.8419,13.827 L 33.9689,13.8485 L 34.0799,13.913 L 34.1579,14.0167 L 34.1839,14.158
 L 34.1714,14.2535 L 34.1339,14.328 L 34.0769,14.3845 L 34.0059,14.426 L 33.9249,14.4532 L 33.8379,14.467
 L 33.7506,14.4705 L 33.6689,14.467 L 33.6689,14.787 L 33.7609,14.7885 L 33.8569,14.793 L 33.9519,14.8052
 L 34.0389,14.832 L 34.1144,14.8765 L 34.1749,14.942 L 34.2154,15.034 L 34.2289,15.16 L 34.2004,15.3237
 L 34.1149,15.449 L 33.9879,15.5285 L 33.8349,15.555 L 33.7351,15.5455 L 33.6499,15.517 L 33.5784,15.4725
 L 33.5199,15.415 L 33.4746,15.345 L 33.4409,15.263 L 33.4191,15.1727 L 33.4099,15.078 L 32.9429,15.078
 L 32.9564,15.2765 L 33.0029,15.45 L 33.0801,15.5977 L 33.1839,15.719 L 33.3144,15.8132 L 33.4699,15.882
 L 33.6466,15.9247 L 33.8409,15.939 z
M 35.9009,15.9235 L 36.0666,15.877 L 36.2179,15.7945 L 36.3496,15.671 L 36.4596,15.5025 L 36.5436,15.285
 L 36.5969,15.0132 L 36.6146,14.682 L 36.5969,14.36 L 36.5436,14.094 L 36.4596,13.8787 L 36.3496,13.711
 L 36.2179,13.5875 L 36.0666,13.505 L 35.9009,13.4585 L 35.7236,13.443 L 35.5484,13.4585 L 35.3826,13.505
 L 35.2324,13.5875 L 35.1016,13.711 L 34.9931,13.8787 L 34.9096,14.094 L 34.8564,14.36 L 34.8386,14.682
 L 34.8564,15.0132 L 34.9096,15.285 L 34.9931,15.5025 L 35.1016,15.671 L 35.2324,15.7945 L 35.3826,15.877
 L 35.5484,15.9235 L 35.7236,15.939 z
M 35.5909,15.5305 L 35.4936,15.457 L 35.4254,15.349 L 35.3786,15.221 L 35.3499,15.0802 L 35.3356,14.934
 L 35.3304,14.7962 L 35.3296,14.529 L 35.3336,14.438 L 35.3416,14.345 L 35.3559,14.2507 L 35.3766,14.158
 L 35.4061,14.07 L 35.4446,13.992 L 35.4936,13.9252 L 35.5546,13.873 L 35.6306,13.8385 L 35.7226,13.827
 L 35.8149,13.8385 L 35.8916,13.873 L 35.9551,13.9252 L 36.0056,13.992 L 36.0449,14.07 L 36.0726,14.158
 L 36.0929,14.2507 L 36.1076,14.345 L 36.1176,14.438 L 36.1216,14.529 L 36.1236,14.681 L 36.1219,14.7962
 L 36.1166,14.934 L 36.1024,15.0802 L 36.0736,15.221 L 36.0261,15.349 L 35.9556,15.457 L 35.8569,15.5305
 L 35.7226,15.555 z
M -28.3248,15.926 L -28.159,15.887 L -28.0058,15.8237 L -27.872,15.736 L -27.7605,15.624 L -27.674,15.488
 L -27.6178,15.329 L -27.599,15.15 L -27.6275,14.9577 L -27.713,14.795 L -27.8485,14.6727 L -28.027,14.602
 L -28.027,14.595 L -27.8793,14.5257 L -27.774,14.414 L -27.7103,14.2705 L -27.689,14.106 L -27.7073,13.9552
 L -27.762,13.823 L -27.845,13.7087 L -27.95,13.614 L -28.0733,13.539 L -28.211,13.486 L -28.356,13.4538
 L -28.501,13.443 L -28.6788,13.4575 L -28.84,13.501 L -28.9812,13.57 L -29.101,13.663 L -29.1973,13.7797
 L -29.27,13.92 L -29.3168,14.0807 L -29.337,14.259 L -28.87,14.259 L -28.8492,14.0882 L -28.779,13.95
 L -28.6605,13.8577 L -28.497,13.827 L -28.37,13.8485 L -28.259,13.913 L -28.181,14.0167 L -28.155,14.158
 L -28.1675,14.2535 L -28.205,14.328 L -28.262,14.3845 L -28.333,14.426 L -28.414,14.4532 L -28.501,14.467
 L -28.5883,14.4705 L -28.67,14.467 L -28.67,14.787 L -28.578,14.7885 L -28.482,14.793 L -28.387,14.8052
 L -28.3,14.832 L -28.2245,14.8765 L -28.164,14.942 L -28.1235,15.034 L -28.11,15.16 L -28.1385,15.3237
 L -28.224,15.449 L -28.351,15.5285 L -28.504,15.555 L -28.6037,15.5455 L -28.689,15.517 L -28.7605,15.4725
 L -28.819,15.415 L -28.8643,15.345 L -28.898,15.263 L -28.9198,15.1727 L -28.929,15.078 L -29.396,15.078
 L -29.3825,15.2765 L -29.336,15.45 L -29.2587,15.5977 L -29.155,15.719 L -29.0245,15.8132 L -28.869,15.882
 L -28.6922,15.9247 L -28.498,15.939 z
M -42.3853,15.9235 L -42.2195,15.877 L -42.0683,15.7945 L -41.9365,15.671 L -41.8265,15.5025 L -41.7425,15.285
 L -41.6893,15.0132 L -41.6715,14.682 L -41.6893,14.36 L -41.7425,14.094 L -41.8265,13.8787 L -41.9365,13.711
 L -42.0683,13.5875 L -42.2195,13.505 L -42.3853,13.4585 L -42.5625,13.443 L -42.7377,13.4585 L -42.9035,13.505
 L -43.0538,13.5875 L -43.1845,13.711 L -43.293,13.8787 L -43.3765,14.094 L -43.4297,14.36 L -43.4475,14.682
 L -43.4297,15.0132 L -43.3765,15.285 L -43.293,15.5025 L -43.1845,15.671 L -43.0538,15.7945 L -42.9035,15.877
 L -42.7377,15.9235 L -42.5625,15.939 z
M -42.6953,15.5305 L -42.7925,15.457 L -42.8607,15.349 L -42.9075,15.221 L -42.9362,15.0802 L -42.9505,14.934
 L -42.9557,14.7962 L -42.9565,14.529 L -42.9525,14.438 L -42.9445,14.345 L -42.9303,14.2507 L -42.9095,14.158
 L -42.88,14.07 L -42.8415,13.992 L -42.7925,13.9252 L -42.7315,13.873 L -42.6555,13.8385 L -42.5635,13.827
 L -42.4713,13.8385 L -42.3945,13.873 L -42.331,13.9252 L -42.2805,13.992 L -42.2413,14.07 L -42.2135,14.158
 L -42.1933,14.2507 L -42.1785,14.345 L -42.1685,14.438 L -42.1645,14.529 L -42.1625,14.681 L -42.1643,14.7962
 L -42.1695,14.934 L -42.1838,15.0802 L -42.2125,15.221 L -42.26,15.349 L -42.3305,15.457 L -42.4293,15.5305
 L -42.5635,15.555 z
M 49.9634,15.986 L 50.1291,15.9395 L 50.2804,15.857 L 50.4121,15.7335 L 50.5221,15.565 L 50.6061,15.3475
 L 50.6594,15.0757 L 50.6771,14.7445 L 50.6594,14.4225 L 50.6061,14.1565 L 50.5221,13.9412 L 50.4121,13.7735
 L 50.2804,13.65 L 50.1291,13.5675 L 49.9634,13.521 L 49.7861,13.5055 L 49.6109,13.521 L 49.4451,13.5675
 L 49.2949,13.65 L 49.1641,13.7735 L 49.0556,13.9412 L 48.9721,14.1565 L 48.9189,14.4225 L 48.9011,14.7445
 L 48.9189,15.0757 L 48.9721,15.3475 L 49.0556,15.565 L 49.1641,15.7335 L 49.2949,15.857 L 49.4451,15.9395
 L 49.6109,15.986 L 49.7861,16.0015 z
M 49.6534,15.593 L 49.5561,15.5195 L 49.4879,15.4115 L 49.4411,15.2835 L 49.4124,15.1427 L 49.3981,14.9965
 L 49.3929,14.8587 L 49.3921,14.5915 L 49.3961,14.5005 L 49.4041,14.4075 L 49.4184,14.3132 L 49.4391,14.2205
 L 49.4686,14.1325 L 49.5071,14.0545 L 49.5561,13.9877 L 49.6171,13.9355 L 49.6931,13.901 L 49.7851,13.8895
 L 49.8774,13.901 L 49.9541,13.9355 L 50.0176,13.9877 L 50.0681,14.0545 L 50.1074,14.1325 L 50.1351,14.2205
 L 50.1554,14.3132 L 50.1701,14.4075 L 50.1801,14.5005 L 50.1841,14.5915 L 50.1861,14.7435 L 50.1844,14.8587
 L 50.1791,14.9965 L 50.1649,15.1427 L 50.1361,15.2835 L 50.0886,15.4115 L 50.0181,15.5195 L 49.9194,15.593
 L 49.7851,15.6175 z
" stroke="red" fill="black" stroke-width="0.01"/>
</svg>
