  0
SECTION
  2
HEADER
  9
$MEASUREMENT
  70
  1
  9
$INSUNITS
  70
  4
  0
ENDSEC
  0
SECTION
  2
TABLES
  0
TABLE
  2
LTYPE
 70
     1
  0
LTYPE
  2
CONTINUOUS
 70
    64
  3
Ausgezogene Linie
 72
    65
 73
     0
 40
0.0
  0
ENDTAB
  0
TABLE
  2
LAYER
 70
     3
  0
LAYER
  2
Contour
 70
    64
 62
     7
  6
CONTINUOUS
  0
LAYER
  2
Engraving
 70
    64
 62
     7
  6
CONTINUOUS
  0
LAYER
  2
Reference_points
 70
    64
 62
     1
  6
CONTINUOUS
  0
ENDTAB
  0
TABLE
  2
STYLE
 70
     1
  0
STYLE
  2
TXT
 70
    64
 40
0.0
 41
1.0
 50
0.0
 71
     0
 42
3.500000
  3
TXT
  0
ENDTAB
  0
ENDSEC
  0
SECTION
  2
BLOCKS
  0
ENDSEC
  0
SECTION
  2
ENTITIES
  0
LINE
  8
Contour
 62
   7
 39
0.100
  6
CONTINUOUS
 10
170.00000
 20
52.00000
 30
 0
 11
0.00000
 21
52.00000
  0
LINE
  8
Contour
 62
   7
 39
0.100
  6
CONTINUOUS
 10
0.00000
 20
52.00000
 30
 0
 11
0.00000
 21
52.00000
  0
LINE
  8
Contour
 62
   7
 39
0.100
  6
CONTINUOUS
 10
0.00000
 20
52.00000
 30
 0
 11
0.00000
 21
0.00000
  0
LINE
  8
Contour
 62
   7
 39
0.100
  6
CONTINUOUS
 10
0.00000
 20
0.00000
 30
 0
 11
0.00000
 21
0.00000
  0
LINE
  8
Contour
 62
   7
 39
0.100
  6
CONTINUOUS
 10
0.00000
 20
0.00000
 30
 0
 11
170.00000
 21
0.00000
  0
LINE
  8
Contour
 62
   7
 39
0.100
  6
CONTINUOUS
 10
170.00000
 20
0.00000
 30
 0
 11
170.00000
 21
0.00000
  0
LINE
  8
Contour
 62
   7
 39
0.100
  6
CONTINUOUS
 10
170.00000
 20
0.00000
 30
 0
 11
170.00000
 21
52.00000
  0
LINE
  8
Contour
 62
   7
 39
0.100
  6
CONTINUOUS
 10
170.00000
 20
52.00000
 30
 0
 11
170.00000
 21
52.00000
  0
LINE
  8
Engraving
 62
   7
 39
0.400
  6
CONTINUOUS
 10
40.47000
 20
36.80000
 30
 0
 11
40.47000
 21
19.20000
  0
ARC
  8
Engraving
 62
   7
 39
0.200
  6
CONTINUOUS
 10
40.47300
 20
16.49200
 30
 0
 40
0.46500
 50
-90.24643
 51
-20.26748
  0
ARC
  8
Engraving
 62
   7
 39
0.200
  6
CONTINUOUS
 10
39.46900
 20
16.84500
 30
 0
 40
1.52900
 50
-19.64374
 51
19.64374
  0
ARC
  8
Engraving
 62
   7
 39
0.200
  6
CONTINUOUS
 10
40.47100
 20
17.20100
 30
 0
 40
0.46600
 50
19.83593
 51
160.20575
  0
ARC
  8
Engraving
 62
   7
 39
0.200
  6
CONTINUOUS
 10
41.47200
 20
16.84500
 30
 0
 40
1.52900
 50
160.35626
 51
199.64374
  0
ARC
  8
Engraving
 62
   7
 39
0.200
  6
CONTINUOUS
 10
40.46800
 20
16.49200
 30
 0
 40
0.46500
 50
-159.73252
 51
-89.63035
  0
LINE
  8
Engraving
 62
   7
 39
0.200
  6
CONTINUOUS
 10
40.47100
 20
16.02700
 30
 0
 11
40.47100
 21
15.99400
  0
ARC
  8
Engraving
 62
   7
 39
0.200
  6
CONTINUOUS
 10
40.46600
 20
16.50000
 30
 0
 40
0.50600
 50
-89.43385
 51
-19.50912
  0
ARC
  8
Engraving
 62
   7
 39
0.200
  6
CONTINUOUS
 10
39.50300
 20
16.84500
 30
 0
 40
1.52900
 50
-19.64374
 51
19.64374
  0
ARC
  8
Engraving
 62
   7
 39
0.200
  6
CONTINUOUS
 10
40.47100
 20
17.18800
 30
 0
 40
0.50200
 50
19.91485
 51
160.08515
  0
ARC
  8
Engraving
 62
   7
 39
0.200
  6
CONTINUOUS
 10
41.43900
 20
16.84500
 30
 0
 40
1.52900
 50
160.35626
 51
199.64374
  0
ARC
  8
Engraving
 62
   7
 39
0.200
  6
CONTINUOUS
 10
40.47600
 20
16.50000
 30
 0
 40
0.50600
 50
-160.49088
 51
-90.56615
  0
LINE
  8
Engraving
 62
   7
 39
0.200
  6
CONTINUOUS
 10
40.47100
 20
15.99400
 30
 0
 11
40.47100
 21
15.96000
  0
ARC
  8
Engraving
 62
   7
 39
0.200
  6
CONTINUOUS
 10
40.47100
 20
16.49900
 30
 0
 40
0.53900
 50
-90.00000
 51
-20.08305
  0
ARC
  8
Engraving
 62
   7
 39
0.200
  6
CONTINUOUS
 10
39.49000
 20
16.84500
 30
 0
 40
1.57900
 50
-19.65138
 51
19.65138
  0
ARC
  8
Engraving
 62
   7
 39
0.200
  6
CONTINUOUS
 10
40.47100
 20
17.19300
 30
 0
 40
0.53800
 50
19.88303
 51
160.11697
  0
ARC
  8
Engraving
 62
   7
 39
0.200
  6
CONTINUOUS
 10
41.45200
 20
16.84500
 30
 0
 40
1.57900
 50
160.34862
 51
199.65138
  0
ARC
  8
Engraving
 62
   7
 39
0.200
  6
CONTINUOUS
 10
40.47100
 20
16.49900
 30
 0
 40
0.53900
 50
-159.91695
 51
-90.00000
  0
LINE
  8
Engraving
 62
   7
 39
0.200
  6
CONTINUOUS
 10
40.47100
 20
15.96000
 30
 0
 11
40.47100
 21
15.92600
  0
ARC
  8
Engraving
 62
   7
 39
0.200
  6
CONTINUOUS
 10
40.47500
 20
16.49700
 30
 0
 40
0.57100
 50
-90.40136
 51
-20.49734
  0
ARC
  8
Engraving
 62
   7
 39
0.200
  6
CONTINUOUS
 10
39.47600
 20
16.84500
 30
 0
 40
1.62900
 50
-19.65856
 51
19.65856
  0
ARC
  8
Engraving
 62
   7
 39
0.200
  6
CONTINUOUS
 10
40.47100
 20
17.19700
 30
 0
 40
0.57400
 50
19.98311
 51
160.05098
  0
ARC
  8
Engraving
 62
   7
 39
0.200
  6
CONTINUOUS
 10
41.46500
 20
16.84500
 30
 0
 40
1.62900
 50
160.34144
 51
199.65856
  0
ARC
  8
Engraving
 62
   7
 39
0.200
  6
CONTINUOUS
 10
40.46600
 20
16.49700
 30
 0
 40
0.57100
 50
-159.50266
 51
-89.49830
  0
LINE
  8
Engraving
 62
   7
 39
0.200
  6
CONTINUOUS
 10
40.47100
 20
15.92600
 30
 0
 11
40.47100
 21
15.89300
  0
ARC
  8
Engraving
 62
   7
 39
0.200
  6
CONTINUOUS
 10
40.46800
 20
16.50500
 30
 0
 40
0.61200
 50
-89.71914
 51
-19.85521
  0
ARC
  8
Engraving
 62
   7
 39
0.200
  6
CONTINUOUS
 10
39.51000
 20
16.84500
 30
 0
 40
1.62900
 50
-19.65856
 51
19.65856
  0
ARC
  8
Engraving
 62
   7
 39
0.200
  6
CONTINUOUS
 10
40.47100
 20
17.18400
 30
 0
 40
0.61000
 50
20.03929
 51
159.96071
  0
ARC
  8
Engraving
 62
   7
 39
0.200
  6
CONTINUOUS
 10
41.43200
 20
16.84500
 30
 0
 40
1.62900
 50
160.34144
 51
199.65856
  0
ARC
  8
Engraving
 62
   7
 39
0.200
  6
CONTINUOUS
 10
40.47400
 20
16.50500
 30
 0
 40
0.61200
 50
-160.14479
 51
-90.28086
  0
LINE
  8
Engraving
 62
   7
 39
0.200
  6
CONTINUOUS
 10
40.47100
 20
15.89300
 30
 0
 11
40.47100
 21
15.85900
  0
ARC
  8
Engraving
 62
   7
 39
0.200
  6
CONTINUOUS
 10
40.47300
 20
16.50400
 30
 0
 40
0.64500
 50
-90.17766
 51
-20.31697
  0
ARC
  8
Engraving
 62
   7
 39
0.200
  6
CONTINUOUS
 10
39.49700
 20
16.84500
 30
 0
 40
1.67900
 50
-19.66530
 51
19.66530
  0
ARC
  8
Engraving
 62
   7
 39
0.200
  6
CONTINUOUS
 10
40.47100
 20
17.18900
 30
 0
 40
0.64600
 50
20.00584
 51
159.99416
  0
ARC
  8
Engraving
 62
   7
 39
0.200
  6
CONTINUOUS
 10
41.44500
 20
16.84500
 30
 0
 40
1.67900
 50
160.33470
 51
199.66530
  0
ARC
  8
Engraving
 62
   7
 39
0.200
  6
CONTINUOUS
 10
40.46900
 20
16.50400
 30
 0
 40
0.64500
 50
-159.68303
 51
-89.82234
  0
LINE
  8
Engraving
 62
   7
 39
0.200
  6
CONTINUOUS
 10
40.47100
 20
15.85900
 30
 0
 11
40.47100
 21
15.82500
  0
ARC
  8
Engraving
 62
   7
 39
0.200
  6
CONTINUOUS
 10
40.47800
 20
16.50200
 30
 0
 40
0.67700
 50
-90.59240
 51
-20.68489
  0
ARC
  8
Engraving
 62
   7
 39
0.200
  6
CONTINUOUS
 10
39.48300
 20
16.84500
 30
 0
 40
1.72900
 50
-19.67166
 51
19.67166
  0
ARC
  8
Engraving
 62
   7
 39
0.200
  6
CONTINUOUS
 10
40.47100
 20
17.19300
 30
 0
 40
0.68100
 50
20.08368
 51
159.94516
  0
ARC
  8
Engraving
 62
   7
 39
0.200
  6
CONTINUOUS
 10
41.45800
 20
16.84500
 30
 0
 40
1.72900
 50
160.32834
 51
199.67166
  0
ARC
  8
Engraving
 62
   7
 39
0.200
  6
CONTINUOUS
 10
40.45400
 20
16.48900
 30
 0
 40
0.66400
 50
-160.09065
 51
-88.53341
  0
LINE
  8
Engraving
 62
   7
 39
0.400
  6
CONTINUOUS
 10
52.97000
 20
36.80000
 30
 0
 11
52.97000
 21
19.20000
  0
ARC
  8
Engraving
 62
   7
 39
0.200
  6
CONTINUOUS
 10
53.01900
 20
17.25900
 30
 0
 40
0.52900
 50
135.61277
 51
-179.89169
  0
ARC
  8
Engraving
 62
   7
 39
0.200
  6
CONTINUOUS
 10
52.98200
 20
17.25400
 30
 0
 40
0.50700
 50
316.35822
 51
132.28129
  0
LINE
  8
Engraving
 62
   7
 39
0.200
  6
CONTINUOUS
 10
53.34900
 20
16.90400
 30
 0
 11
52.57400
 21
16.24700
  0
ARC
  8
Engraving
 62
   7
 39
0.200
  6
CONTINUOUS
 10
52.96800
 20
15.86000
 30
 0
 40
0.55200
 50
135.51352
 51
171.35638
  0
LINE
  8
Engraving
 62
   7
 39
0.200
  6
CONTINUOUS
 10
52.42200
 20
15.94300
 30
 0
 11
53.51800
 21
15.94300
  0
LINE
  8
Engraving
 62
   7
 39
0.200
  6
CONTINUOUS
 10
53.51800
 20
15.94300
 30
 0
 11
53.55200
 21
15.97700
  0
LINE
  8
Engraving
 62
   7
 39
0.200
  6
CONTINUOUS
 10
53.55200
 20
15.97700
 30
 0
 11
52.45600
 21
15.97700
  0
ARC
  8
Engraving
 62
   7
 39
0.200
  6
CONTINUOUS
 10
52.99600
 20
15.82500
 30
 0
 40
0.56100
 50
493.77191
 51
164.27907
  0
LINE
  8
Engraving
 62
   7
 39
0.200
  6
CONTINUOUS
 10
52.60800
 20
16.23000
 30
 0
 11
53.38300
 21
16.88700
  0
ARC
  8
Engraving
 62
   7
 39
0.200
  6
CONTINUOUS
 10
52.99600
 20
17.26600
 30
 0
 40
0.54200
 50
-44.40163
 51
135.59681
  0
ARC
  8
Engraving
 62
   7
 39
0.200
  6
CONTINUOUS
 10
53.00500
 20
17.26700
 30
 0
 40
0.54900
 50
136.32879
 51
180.93919
  0
LINE
  8
Engraving
 62
   7
 39
0.200
  6
CONTINUOUS
 10
52.45600
 20
17.25800
 30
 0
 11
52.45600
 21
17.22400
  0
LINE
  8
Engraving
 62
   7
 39
0.200
  6
CONTINUOUS
 10
52.45600
 20
17.22400
 30
 0
 11
52.52300
 21
17.22400
  0
LINE
  8
Engraving
 62
   7
 39
0.200
  6
CONTINUOUS
 10
52.52300
 20
17.22400
 30
 0
 11
52.52300
 21
17.25800
  0
ARC
  8
Engraving
 62
   7
 39
0.200
  6
CONTINUOUS
 10
53.00200
 20
17.26200
 30
 0
 40
0.47900
 50
135.93087
 51
-179.52155
  0
ARC
  8
Engraving
 62
   7
 39
0.200
  6
CONTINUOUS
 10
52.99200
 20
17.26300
 30
 0
 40
0.47100
 50
316.37621
 51
135.17206
  0
LINE
  8
Engraving
 62
   7
 39
0.200
  6
CONTINUOUS
 10
53.33300
 20
16.93800
 30
 0
 11
52.55700
 21
16.28000
  0
ARC
  8
Engraving
 62
   7
 39
0.200
  6
CONTINUOUS
 10
52.96800
 20
15.86900
 30
 0
 40
0.58100
 50
135.00000
 51
176.05481
  0
LINE
  8
Engraving
 62
   7
 39
0.200
  6
CONTINUOUS
 10
52.38800
 20
15.90900
 30
 0
 11
53.55200
 21
15.90900
  0
LINE
  8
Engraving
 62
   7
 39
0.200
  6
CONTINUOUS
 10
53.55200
 20
15.90900
 30
 0
 11
53.55200
 21
15.97700
  0
LINE
  8
Engraving
 62
   7
 39
0.200
  6
CONTINUOUS
 10
53.55200
 20
15.97700
 30
 0
 11
53.58500
 21
16.01100
  0
LINE
  8
Engraving
 62
   7
 39
0.200
  6
CONTINUOUS
 10
53.58500
 20
16.01100
 30
 0
 11
52.50600
 21
16.01100
  0
ARC
  8
Engraving
 62
   7
 39
0.200
  6
CONTINUOUS
 10
52.98100
 20
15.83800
 30
 0
 40
0.50600
 50
494.91987
 51
159.98784
  0
LINE
  8
Engraving
 62
   7
 39
0.200
  6
CONTINUOUS
 10
52.62400
 20
16.19600
 30
 0
 11
53.40000
 21
16.85400
  0
ARC
  8
Engraving
 62
   7
 39
0.200
  6
CONTINUOUS
 10
52.99600
 20
17.25800
 30
 0
 40
0.57100
 50
-45.00000
 51
135.00000
  0
ARC
  8
Engraving
 62
   7
 39
0.200
  6
CONTINUOUS
 10
53.00000
 20
17.25500
 30
 0
 40
0.57800
 50
135.07013
 51
179.70262
  0
LINE
  8
Engraving
 62
   7
 39
0.200
  6
CONTINUOUS
 10
52.42200
 20
17.25800
 30
 0
 11
52.42200
 21
17.19100
  0
LINE
  8
Engraving
 62
   7
 39
0.200
  6
CONTINUOUS
 10
52.42200
 20
17.19100
 30
 0
 11
52.55700
 21
17.19100
  0
LINE
  8
Engraving
 62
   7
 39
0.200
  6
CONTINUOUS
 10
52.55700
 20
17.19100
 30
 0
 11
52.55700
 21
17.25800
  0
ARC
  8
Engraving
 62
   7
 39
0.200
  6
CONTINUOUS
 10
52.99500
 20
17.25800
 30
 0
 40
0.43800
 50
360.00000
 51
180.00000
  0
ARC
  8
Engraving
 62
   7
 39
0.200
  6
CONTINUOUS
 10
52.99600
 20
17.27100
 30
 0
 40
0.43800
 50
313.79687
 51
-1.70006
  0
LINE
  8
Engraving
 62
   7
 39
0.200
  6
CONTINUOUS
 10
53.29900
 20
16.95500
 30
 0
 11
52.52300
 21
16.29700
  0
ARC
  8
Engraving
 62
   7
 39
0.200
  6
CONTINUOUS
 10
53.12000
 20
15.78400
 30
 0
 40
0.78700
 50
139.32765
 51
173.29016
  0
LINE
  8
Engraving
 62
   7
 39
0.200
  6
CONTINUOUS
 10
52.33800
 20
15.87600
 30
 0
 11
53.58500
 21
15.87600
  0
LINE
  8
Engraving
 62
   7
 39
0.200
  6
CONTINUOUS
 10
53.58500
 20
15.87600
 30
 0
 11
53.58500
 21
16.01100
  0
LINE
  8
Engraving
 62
   7
 39
0.200
  6
CONTINUOUS
 10
53.58500
 20
16.01100
 30
 0
 11
53.63600
 21
16.04400
  0
LINE
  8
Engraving
 62
   7
 39
0.200
  6
CONTINUOUS
 10
53.63600
 20
16.04400
 30
 0
 11
52.55700
 21
16.04400
  0
ARC
  8
Engraving
 62
   7
 39
0.200
  6
CONTINUOUS
 10
52.99400
 20
15.82200
 30
 0
 40
0.49000
 50
493.26430
 51
153.06901
  0
LINE
  8
Engraving
 62
   7
 39
0.200
  6
CONTINUOUS
 10
52.65800
 20
16.17900
 30
 0
 11
53.43400
 21
16.83700
  0
ARC
  8
Engraving
 62
   7
 39
0.200
  6
CONTINUOUS
 10
53.00300
 20
17.25300
 30
 0
 40
0.59900
 50
-43.98542
 51
0.47825
  0
ARC
  8
Engraving
 62
   7
 39
0.200
  6
CONTINUOUS
 10
52.99500
 20
17.25800
 30
 0
 40
0.60700
 50
0.00000
 51
180.00000
  0
LINE
  8
Engraving
 62
   7
 39
0.200
  6
CONTINUOUS
 10
52.38800
 20
17.25800
 30
 0
 11
52.38800
 21
17.15700
  0
LINE
  8
Engraving
 62
   7
 39
0.200
  6
CONTINUOUS
 10
52.38800
 20
17.15700
 30
 0
 11
52.59100
 21
17.15700
  0
LINE
  8
Engraving
 62
   7
 39
0.200
  6
CONTINUOUS
 10
52.59100
 20
17.15700
 30
 0
 11
52.59100
 21
17.25800
  0
ARC
  8
Engraving
 62
   7
 39
0.200
  6
CONTINUOUS
 10
53.00000
 20
17.25800
 30
 0
 40
0.40900
 50
495.39650
 51
180.00000
  0
ARC
  8
Engraving
 62
   7
 39
0.200
  6
CONTINUOUS
 10
52.99500
 20
17.25900
 30
 0
 40
0.40400
 50
315.00000
 51
135.00000
  0
LINE
  8
Engraving
 62
   7
 39
0.200
  6
CONTINUOUS
 10
53.28200
 20
16.97200
 30
 0
 11
52.50600
 21
16.31400
  0
ARC
  8
Engraving
 62
   7
 39
0.200
  6
CONTINUOUS
 10
52.98100
 20
15.83200
 30
 0
 40
0.67700
 50
134.58092
 51
179.15374
  0
LINE
  8
Engraving
 62
   7
 39
0.200
  6
CONTINUOUS
 10
52.30400
 20
15.84200
 30
 0
 11
53.63600
 21
15.84200
  0
LINE
  8
Engraving
 62
   7
 39
0.200
  6
CONTINUOUS
 10
53.63600
 20
15.84200
 30
 0
 11
53.63600
 21
16.04400
  0
LINE
  8
Engraving
 62
   7
 39
0.400
  6
CONTINUOUS
 10
62.34000
 20
36.80000
 30
 0
 11
62.34000
 21
19.20000
  0
LINE
  8
Engraving
 62
   7
 39
0.200
  6
CONTINUOUS
 10
62.87000
 20
17.76400
 30
 0
 11
62.06100
 21
17.76400
  0
LINE
  8
Engraving
 62
   7
 39
0.200
  6
CONTINUOUS
 10
62.06100
 20
17.76400
 30
 0
 11
61.82500
 21
16.90400
  0
LINE
  8
Engraving
 62
   7
 39
0.200
  6
CONTINUOUS
 10
61.82500
 20
16.90400
 30
 0
 11
61.84100
 21
16.97200
  0
ARC
  8
Engraving
 62
   7
 39
0.200
  6
CONTINUOUS
 10
62.32700
 20
16.54900
 30
 0
 40
0.64400
 50
360.08897
 51
138.96465
  0
ARC
  8
Engraving
 62
   7
 39
0.200
  6
CONTINUOUS
 10
62.32900
 20
16.54000
 30
 0
 40
0.64200
 50
194.33928
 51
0.89239
  0
LINE
  8
Engraving
 62
   7
 39
0.200
  6
CONTINUOUS
 10
61.70700
 20
16.38100
 30
 0
 11
61.74000
 21
16.38100
  0
ARC
  8
Engraving
 62
   7
 39
0.200
  6
CONTINUOUS
 10
62.32700
 20
16.54700
 30
 0
 40
0.61000
 50
-164.20942
 51
0.28178
  0
ARC
  8
Engraving
 62
   7
 39
0.200
  6
CONTINUOUS
 10
62.33500
 20
16.56000
 30
 0
 40
0.60200
 50
-0.95167
 51
145.14833
  0
LINE
  8
Engraving
 62
   7
 39
0.200
  6
CONTINUOUS
 10
61.84100
 20
16.90400
 30
 0
 11
61.87500
 21
16.90400
  0
ARC
  8
Engraving
 62
   7
 39
0.200
  6
CONTINUOUS
 10
62.33200
 20
16.56000
 30
 0
 40
0.57200
 50
358.99843
 51
143.02994
  0
ARC
  8
Engraving
 62
   7
 39
0.200
  6
CONTINUOUS
 10
62.32500
 20
16.55900
 30
 0
 40
0.57900
 50
197.90300
 51
-0.89054
  0
LINE
  8
Engraving
 62
   7
 39
0.200
  6
CONTINUOUS
 10
61.77400
 20
16.38100
 30
 0
 11
61.80800
 21
16.38100
  0
ARC
  8
Engraving
 62
   7
 39
0.200
  6
CONTINUOUS
 10
62.32300
 20
16.56500
 30
 0
 40
0.54700
 50
-160.33913
 51
-1.57079
  0
ARC
  8
Engraving
 62
   7
 39
0.200
  6
CONTINUOUS
 10
62.33600
 20
16.56200
 30
 0
 40
0.53400
 50
-1.28733
 51
140.16695
  0
LINE
  8
Engraving
 62
   7
 39
0.200
  6
CONTINUOUS
 10
61.92600
 20
16.90400
 30
 0
 11
61.95900
 21
16.90400
  0
LINE
  8
Engraving
 62
   7
 39
0.200
  6
CONTINUOUS
 10
61.95900
 20
16.90400
 30
 0
 11
61.89200
 21
17.00500
  0
LINE
  8
Engraving
 62
   7
 39
0.200
  6
CONTINUOUS
 10
61.89200
 20
17.00500
 30
 0
 11
62.09400
 21
17.73000
  0
LINE
  8
Engraving
 62
   7
 39
0.200
  6
CONTINUOUS
 10
62.09400
 20
17.73000
 30
 0
 11
62.90400
 21
17.73000
  0
LINE
  8
Engraving
 62
   7
 39
0.200
  6
CONTINUOUS
 10
62.90400
 20
17.73000
 30
 0
 11
62.90400
 21
17.79800
  0
LINE
  8
Engraving
 62
   7
 39
0.200
  6
CONTINUOUS
 10
62.90400
 20
17.79800
 30
 0
 11
62.02700
 21
17.79800
  0
LINE
  8
Engraving
 62
   7
 39
0.200
  6
CONTINUOUS
 10
62.02700
 20
17.79800
 30
 0
 11
61.79100
 21
16.90400
  0
LINE
  8
Engraving
 62
   7
 39
0.200
  6
CONTINUOUS
 10
61.79100
 20
16.90400
 30
 0
 11
61.75700
 21
16.90400
  0
LINE
  8
Engraving
 62
   7
 39
0.200
  6
CONTINUOUS
 10
61.75700
 20
16.90400
 30
 0
 11
61.99300
 21
17.83100
  0
LINE
  8
Engraving
 62
   7
 39
0.200
  6
CONTINUOUS
 10
61.99300
 20
17.83100
 30
 0
 11
62.93700
 21
17.83100
  0
LINE
  8
Engraving
 62
   7
 39
0.200
  6
CONTINUOUS
 10
62.93700
 20
17.83100
 30
 0
 11
62.93700
 21
17.69600
  0
LINE
  8
Engraving
 62
   7
 39
0.200
  6
CONTINUOUS
 10
62.93700
 20
17.69600
 30
 0
 11
62.11100
 21
17.69600
  0
LINE
  8
Engraving
 62
   7
 39
0.200
  6
CONTINUOUS
 10
62.11100
 20
17.69600
 30
 0
 11
61.94300
 21
17.10600
  0
ARC
  8
Engraving
 62
   7
 39
0.200
  6
CONTINUOUS
 10
62.32000
 20
16.54000
 30
 0
 40
0.68000
 50
317.20489
 51
123.66670
  0
ARC
  8
Engraving
 62
   7
 39
0.200
  6
CONTINUOUS
 10
62.32700
 20
16.53800
 30
 0
 40
0.67400
 50
193.49905
 51
-43.07482
  0
LINE
  8
Engraving
 62
   7
 39
0.200
  6
CONTINUOUS
 10
61.67300
 20
16.38100
 30
 0
 11
61.63900
 21
16.38100
  0
ARC
  8
Engraving
 62
   7
 39
0.200
  6
CONTINUOUS
 10
62.33000
 20
16.54200
 30
 0
 40
0.71000
 50
-166.88433
 51
-44.54347
  0
ARC
  8
Engraving
 62
   7
 39
0.200
  6
CONTINUOUS
 10
62.32900
 20
16.54500
 30
 0
 40
0.71300
 50
-44.65896
 51
118.11030
  0
LINE
  8
Engraving
 62
   7
 39
0.200
  6
CONTINUOUS
 10
61.99300
 20
17.17400
 30
 0
 11
62.12800
 21
17.66300
  0
LINE
  8
Engraving
 62
   7
 39
0.200
  6
CONTINUOUS
 10
62.12800
 20
17.66300
 30
 0
 11
62.97100
 21
17.66300
  0
LINE
  8
Engraving
 62
   7
 39
0.200
  6
CONTINUOUS
 10
62.97100
 20
17.66300
 30
 0
 11
62.97100
 21
17.86500
  0
LINE
  8
Engraving
 62
   7
 39
0.200
  6
CONTINUOUS
 10
62.97100
 20
17.86500
 30
 0
 11
61.95900
 21
17.86500
  0
LINE
  8
Engraving
 62
   7
 39
0.200
  6
CONTINUOUS
 10
61.95900
 20
17.86500
 30
 0
 11
61.72300
 21
16.90400
  0
LINE
  8
Engraving
 62
   7
 39
0.200
  6
CONTINUOUS
 10
61.72300
 20
16.90400
 30
 0
 11
61.95900
 21
16.90400
  0
ARC
  8
Engraving
 62
   7
 39
0.200
  6
CONTINUOUS
 10
62.33200
 20
16.56500
 30
 0
 40
0.50400
 50
360.22736
 51
137.73396
  0
ARC
  8
Engraving
 62
   7
 39
0.200
  6
CONTINUOUS
 10
62.33100
 20
16.55800
 30
 0
 40
0.50500
 50
200.51621
 51
1.02100
  0
LINE
  8
Engraving
 62
   7
 39
0.200
  6
CONTINUOUS
 10
61.85800
 20
16.38100
 30
 0
 11
61.63900
 21
16.38100
  0
LINE
  8
Engraving
 62
   7
 39
0.400
  6
CONTINUOUS
 10
101.41000
 20
36.80000
 30
 0
 11
101.41000
 21
19.20000
  0
ARC
  8
Engraving
 62
   7
 39
0.200
  6
CONTINUOUS
 10
100.36300
 20
17.32800
 30
 0
 40
0.43600
 50
89.73718
 51
-179.73718
  0
LINE
  8
Engraving
 62
   7
 39
0.200
  6
CONTINUOUS
 10
100.36500
 20
17.76400
 30
 0
 11
100.50000
 21
17.76400
  0
ARC
  8
Engraving
 62
   7
 39
0.200
  6
CONTINUOUS
 10
100.50100
 20
17.32600
 30
 0
 40
0.43800
 50
292.40859
 51
90.13081
  0
ARC
  8
Engraving
 62
   7
 39
0.200
  6
CONTINUOUS
 10
100.50300
 20
16.44600
 30
 0
 40
0.50300
 50
269.65828
 51
70.84439
  0
LINE
  8
Engraving
 62
   7
 39
0.200
  6
CONTINUOUS
 10
100.50000
 20
15.94300
 30
 0
 11
100.36500
 21
15.94300
  0
ARC
  8
Engraving
 62
   7
 39
0.200
  6
CONTINUOUS
 10
100.36200
 20
16.44600
 30
 0
 40
0.50300
 50
179.65828
 51
-89.65828
  0
LINE
  8
Engraving
 62
   7
 39
0.200
  6
CONTINUOUS
 10
99.85900
 20
16.44900
 30
 0
 11
99.82500
 21
16.48300
  0
LINE
  8
Engraving
 62
   7
 39
0.200
  6
CONTINUOUS
 10
99.82500
 20
16.48300
 30
 0
 11
99.82500
 21
16.44900
  0
ARC
  8
Engraving
 62
   7
 39
0.200
  6
CONTINUOUS
 10
100.36200
 20
16.44600
 30
 0
 40
0.53700
 50
179.67992
 51
270.32008
  0
LINE
  8
Engraving
 62
   7
 39
0.200
  6
CONTINUOUS
 10
100.36500
 20
15.90900
 30
 0
 11
100.50000
 21
15.90900
  0
ARC
  8
Engraving
 62
   7
 39
0.200
  6
CONTINUOUS
 10
100.49800
 20
16.45500
 30
 0
 40
0.54600
 50
-89.79013
 51
62.16817
  0
ARC
  8
Engraving
 62
   7
 39
0.200
  6
CONTINUOUS
 10
100.50400
 20
17.33200
 30
 0
 40
0.46600
 50
-57.70794
 51
90.49180
  0
LINE
  8
Engraving
 62
   7
 39
0.200
  6
CONTINUOUS
 10
100.50000
 20
17.79800
 30
 0
 11
100.36500
 21
17.79800
  0
ARC
  8
Engraving
 62
   7
 39
0.200
  6
CONTINUOUS
 10
100.36300
 20
17.32800
 30
 0
 40
0.47000
 50
89.75619
 51
180.24381
  0
LINE
  8
Engraving
 62
   7
 39
0.200
  6
CONTINUOUS
 10
99.89300
 20
17.32600
 30
 0
 11
99.89300
 21
17.29200
  0
LINE
  8
Engraving
 62
   7
 39
0.200
  6
CONTINUOUS
 10
99.89300
 20
17.29200
 30
 0
 11
99.96000
 21
17.29200
  0
LINE
  8
Engraving
 62
   7
 39
0.200
  6
CONTINUOUS
 10
99.96000
 20
17.29200
 30
 0
 11
99.96000
 21
17.32600
  0
ARC
  8
Engraving
 62
   7
 39
0.200
  6
CONTINUOUS
 10
100.36200
 20
17.32800
 30
 0
 40
0.40200
 50
89.57243
 51
-179.71495
  0
LINE
  8
Engraving
 62
   7
 39
0.200
  6
CONTINUOUS
 10
100.36500
 20
17.73000
 30
 0
 11
100.50000
 21
17.73000
  0
ARC
  8
Engraving
 62
   7
 39
0.200
  6
CONTINUOUS
 10
100.48000
 20
17.32600
 30
 0
 40
0.40400
 50
272.82712
 51
87.16589
  0
ARC
  8
Engraving
 62
   7
 39
0.200
  6
CONTINUOUS
 10
100.50000
 20
16.44900
 30
 0
 40
0.47200
 50
270.00000
 51
90.00000
  0
LINE
  8
Engraving
 62
   7
 39
0.200
  6
CONTINUOUS
 10
100.50000
 20
15.97700
 30
 0
 11
100.36500
 21
15.97700
  0
ARC
  8
Engraving
 62
   7
 39
0.200
  6
CONTINUOUS
 10
100.36300
 20
16.44700
 30
 0
 40
0.47000
 50
179.75619
 51
-89.75619
  0
LINE
  8
Engraving
 62
   7
 39
0.200
  6
CONTINUOUS
 10
99.89300
 20
16.44900
 30
 0
 11
99.89300
 21
16.48300
  0
LINE
  8
Engraving
 62
   7
 39
0.200
  6
CONTINUOUS
 10
99.89300
 20
16.48300
 30
 0
 11
99.82500
 21
16.48300
  0
LINE
  8
Engraving
 62
   7
 39
0.200
  6
CONTINUOUS
 10
99.82500
 20
16.48300
 30
 0
 11
99.79200
 21
16.51600
  0
LINE
  8
Engraving
 62
   7
 39
0.200
  6
CONTINUOUS
 10
99.79200
 20
16.51600
 30
 0
 11
99.79200
 21
16.44900
  0
ARC
  8
Engraving
 62
   7
 39
0.200
  6
CONTINUOUS
 10
100.36200
 20
16.44600
 30
 0
 40
0.57000
 50
179.69845
 51
270.30155
  0
LINE
  8
Engraving
 62
   7
 39
0.200
  6
CONTINUOUS
 10
100.36500
 20
15.87600
 30
 0
 11
100.50000
 21
15.87600
  0
ARC
  8
Engraving
 62
   7
 39
0.200
  6
CONTINUOUS
 10
100.49400
 20
16.45200
 30
 0
 40
0.57600
 50
-89.40319
 51
57.55170
  0
ARC
  8
Engraving
 62
   7
 39
0.200
  6
CONTINUOUS
 10
100.50000
 20
17.33300
 30
 0
 40
0.49800
 50
-52.50860
 51
90.00000
  0
LINE
  8
Engraving
 62
   7
 39
0.200
  6
CONTINUOUS
 10
100.50000
 20
17.83100
 30
 0
 11
100.36500
 21
17.83100
  0
ARC
  8
Engraving
 62
   7
 39
0.200
  6
CONTINUOUS
 10
100.36200
 20
17.32800
 30
 0
 40
0.50300
 50
89.65828
 51
180.22782
  0
LINE
  8
Engraving
 62
   7
 39
0.200
  6
CONTINUOUS
 10
99.85900
 20
17.32600
 30
 0
 11
99.85900
 21
17.25800
  0
LINE
  8
Engraving
 62
   7
 39
0.200
  6
CONTINUOUS
 10
99.85900
 20
17.25800
 30
 0
 11
99.99400
 21
17.25800
  0
LINE
  8
Engraving
 62
   7
 39
0.200
  6
CONTINUOUS
 10
99.99400
 20
17.25800
 30
 0
 11
99.99400
 21
17.32600
  0
ARC
  8
Engraving
 62
   7
 39
0.200
  6
CONTINUOUS
 10
100.36300
 20
17.32700
 30
 0
 40
0.36900
 50
89.68946
 51
-179.84473
  0
LINE
  8
Engraving
 62
   7
 39
0.200
  6
CONTINUOUS
 10
100.36500
 20
17.69600
 30
 0
 11
100.50000
 21
17.69600
  0
ARC
  8
Engraving
 62
   7
 39
0.200
  6
CONTINUOUS
 10
100.48100
 20
17.32600
 30
 0
 40
0.37000
 50
272.93172
 51
87.06037
  0
LINE
  8
Engraving
 62
   7
 39
0.200
  6
CONTINUOUS
 10
100.50000
 20
16.95500
 30
 0
 11
100.46600
 21
16.95500
  0
LINE
  8
Engraving
 62
   7
 39
0.200
  6
CONTINUOUS
 10
100.46600
 20
16.95500
 30
 0
 11
100.46600
 21
16.88700
  0
LINE
  8
Engraving
 62
   7
 39
0.200
  6
CONTINUOUS
 10
100.46600
 20
16.88700
 30
 0
 11
100.50000
 21
16.88700
  0
ARC
  8
Engraving
 62
   7
 39
0.200
  6
CONTINUOUS
 10
100.50000
 20
16.44900
 30
 0
 40
0.43800
 50
270.00000
 51
90.00000
  0
LINE
  8
Engraving
 62
   7
 39
0.200
  6
CONTINUOUS
 10
100.50000
 20
16.01100
 30
 0
 11
100.36500
 21
16.01100
  0
ARC
  8
Engraving
 62
   7
 39
0.200
  6
CONTINUOUS
 10
100.36300
 20
16.44700
 30
 0
 40
0.43600
 50
179.73718
 51
-89.73718
  0
LINE
  8
Engraving
 62
   7
 39
0.200
  6
CONTINUOUS
 10
99.92700
 20
16.44900
 30
 0
 11
99.92700
 21
16.51600
  0
LINE
  8
Engraving
 62
   7
 39
0.200
  6
CONTINUOUS
 10
99.92700
 20
16.51600
 30
 0
 11
99.79200
 21
16.51600
  0
LINE
  8
Engraving
 62
   7
 39
0.200
  6
CONTINUOUS
 10
99.79200
 20
16.51600
 30
 0
 11
99.75800
 21
16.55000
  0
LINE
  8
Engraving
 62
   7
 39
0.200
  6
CONTINUOUS
 10
99.75800
 20
16.55000
 30
 0
 11
99.75800
 21
16.44900
  0
ARC
  8
Engraving
 62
   7
 39
0.200
  6
CONTINUOUS
 10
100.36200
 20
16.44600
 30
 0
 40
0.60400
 50
179.71542
 51
270.28458
  0
LINE
  8
Engraving
 62
   7
 39
0.200
  6
CONTINUOUS
 10
100.36500
 20
15.84200
 30
 0
 11
100.50000
 21
15.84200
  0
ARC
  8
Engraving
 62
   7
 39
0.200
  6
CONTINUOUS
 10
100.49900
 20
16.45300
 30
 0
 40
0.61100
 50
-89.90623
 51
52.51142
  0
ARC
  8
Engraving
 62
   7
 39
0.200
  6
CONTINUOUS
 10
100.49900
 20
17.32700
 30
 0
 40
0.53800
 50
-46.27972
 51
89.89350
  0
LINE
  8
Engraving
 62
   7
 39
0.200
  6
CONTINUOUS
 10
100.50000
 20
17.86500
 30
 0
 11
100.36500
 21
17.86500
  0
ARC
  8
Engraving
 62
   7
 39
0.200
  6
CONTINUOUS
 10
100.36200
 20
17.32800
 30
 0
 40
0.53700
 50
89.67992
 51
180.21339
  0
LINE
  8
Engraving
 62
   7
 39
0.200
  6
CONTINUOUS
 10
99.82500
 20
17.32600
 30
 0
 11
99.82500
 21
17.22400
  0
LINE
  8
Engraving
 62
   7
 39
0.200
  6
CONTINUOUS
 10
99.82500
 20
17.22400
 30
 0
 11
100.02800
 21
17.22400
  0
LINE
  8
Engraving
 62
   7
 39
0.200
  6
CONTINUOUS
 10
100.02800
 20
17.22400
 30
 0
 11
100.02800
 21
17.32600
  0
ARC
  8
Engraving
 62
   7
 39
0.200
  6
CONTINUOUS
 10
100.36300
 20
17.32800
 30
 0
 40
0.33500
 50
89.65794
 51
-179.65794
  0
LINE
  8
Engraving
 62
   7
 39
0.200
  6
CONTINUOUS
 10
100.36500
 20
17.66300
 30
 0
 11
100.50000
 21
17.66300
  0
ARC
  8
Engraving
 62
   7
 39
0.200
  6
CONTINUOUS
 10
100.50000
 20
17.32600
 30
 0
 40
0.33700
 50
270.00000
 51
90.00000
  0
LINE
  8
Engraving
 62
   7
 39
0.200
  6
CONTINUOUS
 10
100.50000
 20
16.98800
 30
 0
 11
100.43200
 21
16.98800
  0
LINE
  8
Engraving
 62
   7
 39
0.200
  6
CONTINUOUS
 10
100.43200
 20
16.98800
 30
 0
 11
100.43200
 21
16.85400
  0
LINE
  8
Engraving
 62
   7
 39
0.200
  6
CONTINUOUS
 10
100.43200
 20
16.85400
 30
 0
 11
100.50000
 21
16.85400
  0
ARC
  8
Engraving
 62
   7
 39
0.200
  6
CONTINUOUS
 10
100.50000
 20
16.44900
 30
 0
 40
0.40500
 50
270.00000
 51
90.00000
  0
LINE
  8
Engraving
 62
   7
 39
0.200
  6
CONTINUOUS
 10
100.50000
 20
16.04400
 30
 0
 11
100.36500
 21
16.04400
  0
ARC
  8
Engraving
 62
   7
 39
0.200
  6
CONTINUOUS
 10
100.36200
 20
16.44600
 30
 0
 40
0.40200
 50
179.57243
 51
-89.57243
  0
LINE
  8
Engraving
 62
   7
 39
0.200
  6
CONTINUOUS
 10
99.96000
 20
16.44900
 30
 0
 11
99.96000
 21
16.55000
  0
LINE
  8
Engraving
 62
   7
 39
0.200
  6
CONTINUOUS
 10
99.96000
 20
16.55000
 30
 0
 11
99.75800
 21
16.55000
  0
ARC
  8
Engraving
 62
   7
 39
0.200
  6
CONTINUOUS
 10
102.32300
 20
16.49200
 30
 0
 40
0.46500
 50
-90.36965
 51
-20.26748
  0
ARC
  8
Engraving
 62
   7
 39
0.200
  6
CONTINUOUS
 10
101.31900
 20
16.84500
 30
 0
 40
1.52900
 50
-19.64374
 51
19.64374
  0
ARC
  8
Engraving
 62
   7
 39
0.200
  6
CONTINUOUS
 10
102.32100
 20
17.20100
 30
 0
 40
0.46600
 50
19.83593
 51
160.20575
  0
ARC
  8
Engraving
 62
   7
 39
0.200
  6
CONTINUOUS
 10
103.32200
 20
16.84500
 30
 0
 40
1.52900
 50
160.35626
 51
199.64374
  0
ARC
  8
Engraving
 62
   7
 39
0.200
  6
CONTINUOUS
 10
102.31800
 20
16.49200
 30
 0
 40
0.46500
 50
-159.73252
 51
-89.75357
  0
LINE
  8
Engraving
 62
   7
 39
0.200
  6
CONTINUOUS
 10
102.32000
 20
16.02700
 30
 0
 11
102.32000
 21
15.99400
  0
ARC
  8
Engraving
 62
   7
 39
0.200
  6
CONTINUOUS
 10
102.31600
 20
16.50000
 30
 0
 40
0.50600
 50
-89.54708
 51
-19.50912
  0
ARC
  8
Engraving
 62
   7
 39
0.200
  6
CONTINUOUS
 10
101.35300
 20
16.84500
 30
 0
 40
1.52900
 50
-19.64374
 51
19.64374
  0
ARC
  8
Engraving
 62
   7
 39
0.200
  6
CONTINUOUS
 10
102.32100
 20
17.18900
 30
 0
 40
0.50200
 50
19.80747
 51
160.23116
  0
ARC
  8
Engraving
 62
   7
 39
0.200
  6
CONTINUOUS
 10
103.28800
 20
16.84500
 30
 0
 40
1.52900
 50
160.35626
 51
199.64374
  0
ARC
  8
Engraving
 62
   7
 39
0.200
  6
CONTINUOUS
 10
102.32500
 20
16.50000
 30
 0
 40
0.50600
 50
-160.49088
 51
-90.56615
  0
LINE
  8
Engraving
 62
   7
 39
0.200
  6
CONTINUOUS
 10
102.32000
 20
15.99400
 30
 0
 11
102.32000
 21
15.96000
  0
ARC
  8
Engraving
 62
   7
 39
0.200
  6
CONTINUOUS
 10
102.32000
 20
16.49900
 30
 0
 40
0.53900
 50
-90.00000
 51
-20.08305
  0
ARC
  8
Engraving
 62
   7
 39
0.200
  6
CONTINUOUS
 10
101.33900
 20
16.84500
 30
 0
 40
1.57900
 50
-19.65138
 51
19.65138
  0
ARC
  8
Engraving
 62
   7
 39
0.200
  6
CONTINUOUS
 10
102.32100
 20
17.19200
 30
 0
 40
0.53700
 50
20.01954
 51
160.01689
  0
ARC
  8
Engraving
 62
   7
 39
0.200
  6
CONTINUOUS
 10
103.30200
 20
16.84500
 30
 0
 40
1.57900
 50
160.34862
 51
199.65138
  0
ARC
  8
Engraving
 62
   7
 39
0.200
  6
CONTINUOUS
 10
102.32100
 20
16.49900
 30
 0
 40
0.53900
 50
-159.91695
 51
-90.10630
  0
LINE
  8
Engraving
 62
   7
 39
0.200
  6
CONTINUOUS
 10
102.32000
 20
15.96000
 30
 0
 11
102.32000
 21
15.92600
  0
ARC
  8
Engraving
 62
   7
 39
0.200
  6
CONTINUOUS
 10
102.32500
 20
16.49700
 30
 0
 40
0.57100
 50
-90.50170
 51
-20.49734
  0
ARC
  8
Engraving
 62
   7
 39
0.200
  6
CONTINUOUS
 10
101.32600
 20
16.84500
 30
 0
 40
1.62900
 50
-19.65856
 51
19.65856
  0
ARC
  8
Engraving
 62
   7
 39
0.200
  6
CONTINUOUS
 10
102.32100
 20
17.19700
 30
 0
 40
0.57400
 50
19.98311
 51
160.05098
  0
ARC
  8
Engraving
 62
   7
 39
0.200
  6
CONTINUOUS
 10
103.31500
 20
16.84500
 30
 0
 40
1.62900
 50
160.34144
 51
199.65856
  0
ARC
  8
Engraving
 62
   7
 39
0.200
  6
CONTINUOUS
 10
102.31600
 20
16.49700
 30
 0
 40
0.57100
 50
-159.50266
 51
-89.59864
  0
LINE
  8
Engraving
 62
   7
 39
0.200
  6
CONTINUOUS
 10
102.32000
 20
15.92600
 30
 0
 11
102.32000
 21
15.89300
  0
ARC
  8
Engraving
 62
   7
 39
0.200
  6
CONTINUOUS
 10
102.31800
 20
16.50500
 30
 0
 40
0.61200
 50
-89.81276
 51
-19.85521
  0
ARC
  8
Engraving
 62
   7
 39
0.200
  6
CONTINUOUS
 10
101.36000
 20
16.84500
 30
 0
 40
1.62900
 50
-19.65856
 51
19.65856
  0
ARC
  8
Engraving
 62
   7
 39
0.200
  6
CONTINUOUS
 10
102.32100
 20
17.18500
 30
 0
 40
0.61000
 50
19.95099
 51
160.08104
  0
ARC
  8
Engraving
 62
   7
 39
0.200
  6
CONTINUOUS
 10
103.28100
 20
16.84500
 30
 0
 40
1.62900
 50
160.34144
 51
199.65856
  0
ARC
  8
Engraving
 62
   7
 39
0.200
  6
CONTINUOUS
 10
102.32300
 20
16.50500
 30
 0
 40
0.61200
 50
-160.14479
 51
-90.28086
  0
LINE
  8
Engraving
 62
   7
 39
0.200
  6
CONTINUOUS
 10
102.32000
 20
15.89300
 30
 0
 11
102.32000
 21
15.85900
  0
ARC
  8
Engraving
 62
   7
 39
0.200
  6
CONTINUOUS
 10
102.32200
 20
16.50400
 30
 0
 40
0.64500
 50
-90.17766
 51
-20.31697
  0
ARC
  8
Engraving
 62
   7
 39
0.200
  6
CONTINUOUS
 10
101.34600
 20
16.84500
 30
 0
 40
1.67900
 50
-19.66530
 51
19.66530
  0
ARC
  8
Engraving
 62
   7
 39
0.200
  6
CONTINUOUS
 10
102.32100
 20
17.18800
 30
 0
 40
0.64500
 50
20.11963
 51
159.91086
  0
ARC
  8
Engraving
 62
   7
 39
0.200
  6
CONTINUOUS
 10
103.29500
 20
16.84500
 30
 0
 40
1.67900
 50
160.33470
 51
199.66530
  0
ARC
  8
Engraving
 62
   7
 39
0.200
  6
CONTINUOUS
 10
102.31900
 20
16.50400
 30
 0
 40
0.64500
 50
-159.68303
 51
-89.91117
  0
LINE
  8
Engraving
 62
   7
 39
0.200
  6
CONTINUOUS
 10
102.32000
 20
15.85900
 30
 0
 11
102.32000
 21
15.82500
  0
ARC
  8
Engraving
 62
   7
 39
0.200
  6
CONTINUOUS
 10
102.32800
 20
16.50200
 30
 0
 40
0.67700
 50
-90.67702
 51
-20.68489
  0
ARC
  8
Engraving
 62
   7
 39
0.200
  6
CONTINUOUS
 10
101.33300
 20
16.84500
 30
 0
 40
1.72900
 50
-19.67166
 51
19.67166
  0
ARC
  8
Engraving
 62
   7
 39
0.200
  6
CONTINUOUS
 10
102.32100
 20
17.19300
 30
 0
 40
0.68100
 50
20.08368
 51
159.94516
  0
ARC
  8
Engraving
 62
   7
 39
0.200
  6
CONTINUOUS
 10
103.30800
 20
16.84500
 30
 0
 40
1.72900
 50
160.32834
 51
199.67166
  0
ARC
  8
Engraving
 62
   7
 39
0.200
  6
CONTINUOUS
 10
102.30400
 20
16.48900
 30
 0
 40
0.66400
 50
-160.09065
 51
-88.61965
  0
LINE
  8
Engraving
 62
   7
 39
0.200
  6
CONTINUOUS
 10
126.20100
 20
10.76400
 30
 0
 11
126.20100
 21
9.23600
  0
LINE
  8
Engraving
 62
   7
 39
0.200
  6
CONTINUOUS
 10
126.20100
 20
9.23600
 30
 0
 11
126.20100
 21
10.00000
  0
LINE
  8
Engraving
 62
   7
 39
0.200
  6
CONTINUOUS
 10
126.20100
 20
10.00000
 30
 0
 11
127.21900
 21
10.00000
  0
LINE
  8
Engraving
 62
   7
 39
0.200
  6
CONTINUOUS
 10
127.21900
 20
10.00000
 30
 0
 11
127.21900
 21
9.23600
  0
LINE
  8
Engraving
 62
   7
 39
0.200
  6
CONTINUOUS
 10
127.21900
 20
9.23600
 30
 0
 11
127.21900
 21
10.76400
  0
ARC
  8
Engraving
 62
   7
 39
0.200
  6
CONTINUOUS
 10
128.17000
 20
9.74500
 30
 0
 40
0.54300
 50
180.00000
 51
360.00000
  0
LINE
  8
Engraving
 62
   7
 39
0.200
  6
CONTINUOUS
 10
128.71300
 20
9.74500
 30
 0
 11
128.71300
 21
10.25500
  0
ARC
  8
Engraving
 62
   7
 39
0.200
  6
CONTINUOUS
 10
128.17000
 20
10.25500
 30
 0
 40
0.54300
 50
0.00000
 51
180.00000
  0
LINE
  8
Engraving
 62
   7
 39
0.200
  6
CONTINUOUS
 10
127.62700
 20
10.25500
 30
 0
 11
127.62700
 21
9.74500
  0
LINE
  8
Engraving
 62
   7
 39
0.200
  6
CONTINUOUS
 10
129.12100
 20
10.76400
 30
 0
 11
129.12100
 21
9.71100
  0
ARC
  8
Engraving
 62
   7
 39
0.200
  6
CONTINUOUS
 10
129.63000
 20
9.71100
 30
 0
 40
0.50900
 50
180.00000
 51
360.00000
  0
LINE
  8
Engraving
 62
   7
 39
0.200
  6
CONTINUOUS
 10
130.14000
 20
9.71100
 30
 0
 11
130.14000
 21
10.76400
  0
LINE
  8
Engraving
 62
   7
 39
0.200
  6
CONTINUOUS
 10
130.54700
 20
9.23600
 30
 0
 11
130.54700
 21
10.76400
  0
LINE
  8
Engraving
 62
   7
 39
0.200
  6
CONTINUOUS
 10
130.54700
 20
10.76400
 30
 0
 11
131.10700
 21
10.76400
  0
ARC
  8
Engraving
 62
   7
 39
0.200
  6
CONTINUOUS
 10
131.10700
 20
10.38200
 30
 0
 40
0.38200
 50
270.00000
 51
90.00000
  0
LINE
  8
Engraving
 62
   7
 39
0.200
  6
CONTINUOUS
 10
131.10700
 20
10.00000
 30
 0
 11
130.54700
 21
10.00000
  0
LINE
  8
Engraving
 62
   7
 39
0.200
  6
CONTINUOUS
 10
130.54700
 20
10.00000
 30
 0
 11
131.14100
 21
10.00000
  0
LINE
  8
Engraving
 62
   7
 39
0.200
  6
CONTINUOUS
 10
131.14100
 20
10.00000
 30
 0
 11
131.48100
 21
9.23600
  0
ARC
  8
Engraving
 62
   7
 39
0.200
  6
CONTINUOUS
 10
132.53300
 20
10.37000
 30
 0
 40
0.40300
 50
36.72772
 51
77.82582
  0
ARC
  8
Engraving
 62
   7
 39
0.200
  6
CONTINUOUS
 10
132.41400
 20
9.82700
 30
 0
 40
0.95900
 50
77.71746
 51
106.41314
  0
ARC
  8
Engraving
 62
   7
 39
0.200
  6
CONTINUOUS
 10
132.27400
 20
10.31200
 30
 0
 40
0.45400
 50
106.75964
 51
144.31571
  0
ARC
  8
Engraving
 62
   7
 39
0.200
  6
CONTINUOUS
 10
132.15800
 20
10.39600
 30
 0
 40
0.31100
 50
144.41950
 51
251.21498
  0
LINE
  8
Engraving
 62
   7
 39
0.200
  6
CONTINUOUS
 10
132.05800
 20
10.10200
 30
 0
 11
132.65200
 21
9.89800
  0
ARC
  8
Engraving
 62
   7
 39
0.200
  6
CONTINUOUS
 10
132.55200
 20
9.60400
 30
 0
 40
0.31100
 50
324.41950
 51
71.21498
  0
ARC
  8
Engraving
 62
   7
 39
0.200
  6
CONTINUOUS
 10
132.43600
 20
9.68800
 30
 0
 40
0.45400
 50
286.75964
 51
-35.68429
  0
ARC
  8
Engraving
 62
   7
 39
0.200
  6
CONTINUOUS
 10
132.29600
 20
10.17300
 30
 0
 40
0.95900
 50
257.71746
 51
-73.58686
  0
ARC
  8
Engraving
 62
   7
 39
0.200
  6
CONTINUOUS
 10
132.17700
 20
9.63000
 30
 0
 40
0.40300
 50
216.72772
 51
-102.17418
  0
LINE
  8
Engraving
 62
   7
 39
0.400
  6
CONTINUOUS
 10
124.84000
 20
36.80000
 30
 0
 11
124.84000
 21
19.20000
  0
ARC
  8
Engraving
 62
   7
 39
0.200
  6
CONTINUOUS
 10
124.82600
 20
17.66000
 30
 0
 40
0.18900
 50
-52.09840
 51
-14.69732
  0
LINE
  8
Engraving
 62
   7
 39
0.200
  6
CONTINUOUS
 10
125.00900
 20
17.61200
 30
 0
 11
125.00900
 21
17.49400
  0
LINE
  8
Engraving
 62
   7
 39
0.200
  6
CONTINUOUS
 10
125.00900
 20
17.49400
 30
 0
 11
124.87400
 21
17.49400
  0
ARC
  8
Engraving
 62
   7
 39
0.200
  6
CONTINUOUS
 10
124.62900
 20
17.83500
 30
 0
 40
0.42000
 50
-54.30370
 51
-9.73142
  0
LINE
  8
Engraving
 62
   7
 39
0.200
  6
CONTINUOUS
 10
125.04300
 20
17.76400
 30
 0
 11
125.04300
 21
15.94300
  0
LINE
  8
Engraving
 62
   7
 39
0.200
  6
CONTINUOUS
 10
125.04300
 20
15.94300
 30
 0
 11
125.00900
 21
15.90900
  0
LINE
  8
Engraving
 62
   7
 39
0.200
  6
CONTINUOUS
 10
125.00900
 20
15.90900
 30
 0
 11
125.00900
 21
17.46000
  0
LINE
  8
Engraving
 62
   7
 39
0.200
  6
CONTINUOUS
 10
125.00900
 20
17.46000
 30
 0
 11
124.75600
 21
17.46000
  0
ARC
  8
Engraving
 62
   7
 39
0.200
  6
CONTINUOUS
 10
124.58000
 20
17.85600
 30
 0
 40
0.43300
 50
-66.03751
 51
-7.69960
  0
LINE
  8
Engraving
 62
   7
 39
0.200
  6
CONTINUOUS
 10
125.00900
 20
17.79800
 30
 0
 11
125.07600
 21
17.79800
  0
LINE
  8
Engraving
 62
   7
 39
0.200
  6
CONTINUOUS
 10
125.07600
 20
17.79800
 30
 0
 11
125.07600
 21
15.90900
  0
LINE
  8
Engraving
 62
   7
 39
0.200
  6
CONTINUOUS
 10
125.07600
 20
15.90900
 30
 0
 11
125.00900
 21
15.90900
  0
LINE
  8
Engraving
 62
   7
 39
0.200
  6
CONTINUOUS
 10
125.00900
 20
15.90900
 30
 0
 11
124.97500
 21
15.87600
  0
LINE
  8
Engraving
 62
   7
 39
0.200
  6
CONTINUOUS
 10
124.97500
 20
15.87600
 30
 0
 11
124.97500
 21
17.42700
  0
LINE
  8
Engraving
 62
   7
 39
0.200
  6
CONTINUOUS
 10
124.97500
 20
17.42700
 30
 0
 11
124.57100
 21
17.42700
  0
ARC
  8
Engraving
 62
   7
 39
0.200
  6
CONTINUOUS
 10
124.53700
 20
17.86500
 30
 0
 40
0.43900
 50
-85.56128
 51
-4.43872
  0
LINE
  8
Engraving
 62
   7
 39
0.200
  6
CONTINUOUS
 10
124.97500
 20
17.83100
 30
 0
 11
125.11000
 21
17.83100
  0
LINE
  8
Engraving
 62
   7
 39
0.200
  6
CONTINUOUS
 10
125.11000
 20
17.83100
 30
 0
 11
125.11000
 21
15.87600
  0
LINE
  8
Engraving
 62
   7
 39
0.200
  6
CONTINUOUS
 10
125.11000
 20
15.87600
 30
 0
 11
124.97500
 21
15.87600
  0
LINE
  8
Engraving
 62
   7
 39
0.200
  6
CONTINUOUS
 10
124.97500
 20
15.87600
 30
 0
 11
124.94200
 21
15.84200
  0
LINE
  8
Engraving
 62
   7
 39
0.200
  6
CONTINUOUS
 10
124.94200
 20
15.84200
 30
 0
 11
124.94200
 21
17.39300
  0
LINE
  8
Engraving
 62
   7
 39
0.200
  6
CONTINUOUS
 10
124.94200
 20
17.39300
 30
 0
 11
124.53700
 21
17.39300
  0
LINE
  8
Engraving
 62
   7
 39
0.200
  6
CONTINUOUS
 10
124.53700
 20
17.39300
 30
 0
 11
124.53700
 21
17.46000
  0
ARC
  8
Engraving
 62
   7
 39
0.200
  6
CONTINUOUS
 10
124.54000
 20
17.86200
 30
 0
 40
0.40200
 50
-90.42757
 51
0.42757
  0
LINE
  8
Engraving
 62
   7
 39
0.200
  6
CONTINUOUS
 10
124.94200
 20
17.86500
 30
 0
 11
125.14400
 21
17.86500
  0
LINE
  8
Engraving
 62
   7
 39
0.200
  6
CONTINUOUS
 10
125.14400
 20
17.86500
 30
 0
 11
125.14400
 21
15.84200
  0
LINE
  8
Engraving
 62
   7
 39
0.200
  6
CONTINUOUS
 10
125.14400
 20
15.84200
 30
 0
 11
124.94200
 21
15.84200
  0
ARC
  8
Engraving
 62
   7
 39
0.200
  6
CONTINUOUS
 10
35.64400
 20
9.74500
 30
 0
 40
0.54300
 50
180.00000
 51
360.00000
  0
LINE
  8
Engraving
 62
   7
 39
0.200
  6
CONTINUOUS
 10
36.18700
 20
9.74500
 30
 0
 11
36.18700
 21
10.25500
  0
ARC
  8
Engraving
 62
   7
 39
0.200
  6
CONTINUOUS
 10
35.64400
 20
10.25500
 30
 0
 40
0.54300
 50
0.00000
 51
180.00000
  0
LINE
  8
Engraving
 62
   7
 39
0.200
  6
CONTINUOUS
 10
35.10100
 20
10.25500
 30
 0
 11
35.10100
 21
9.74500
  0
LINE
  8
Engraving
 62
   7
 39
0.200
  6
CONTINUOUS
 10
36.59500
 20
10.00000
 30
 0
 11
37.44400
 21
10.00000
  0
LINE
  8
Engraving
 62
   7
 39
0.200
  6
CONTINUOUS
 10
37.61300
 20
10.76400
 30
 0
 11
36.59500
 21
10.76400
  0
LINE
  8
Engraving
 62
   7
 39
0.200
  6
CONTINUOUS
 10
36.59500
 20
10.76400
 30
 0
 11
36.59500
 21
9.23600
  0
LINE
  8
Engraving
 62
   7
 39
0.200
  6
CONTINUOUS
 10
38.02100
 20
10.00000
 30
 0
 11
38.87000
 21
10.00000
  0
LINE
  8
Engraving
 62
   7
 39
0.200
  6
CONTINUOUS
 10
39.04000
 20
10.76400
 30
 0
 11
38.02100
 21
10.76400
  0
LINE
  8
Engraving
 62
   7
 39
0.200
  6
CONTINUOUS
 10
38.02100
 20
10.76400
 30
 0
 11
38.02100
 21
9.23600
  0
LINE
  8
Engraving
 62
   7
 39
0.200
  6
CONTINUOUS
 10
46.72000
 20
26.10000
 30
 0
 11
46.72000
 21
19.10000
  0
LINE
  8
Engraving
 62
   7
 39
0.200
  6
CONTINUOUS
 10
46.72000
 20
36.90000
 30
 0
 11
46.72000
 21
29.90000
  0
ARC
  8
Engraving
 62
   7
 39
0.200
  6
CONTINUOUS
 10
40.47300
 20
38.99400
 30
 0
 40
0.46500
 50
-90.24643
 51
-20.26748
  0
ARC
  8
Engraving
 62
   7
 39
0.200
  6
CONTINUOUS
 10
39.46900
 20
39.34700
 30
 0
 40
1.52900
 50
-19.64374
 51
19.64374
  0
ARC
  8
Engraving
 62
   7
 39
0.200
  6
CONTINUOUS
 10
40.47100
 20
39.70300
 30
 0
 40
0.46600
 50
19.83593
 51
160.20575
  0
ARC
  8
Engraving
 62
   7
 39
0.200
  6
CONTINUOUS
 10
41.47200
 20
39.34700
 30
 0
 40
1.52900
 50
160.35626
 51
199.64374
  0
ARC
  8
Engraving
 62
   7
 39
0.200
  6
CONTINUOUS
 10
40.46800
 20
38.99400
 30
 0
 40
0.46500
 50
-159.73252
 51
-89.63035
  0
LINE
  8
Engraving
 62
   7
 39
0.200
  6
CONTINUOUS
 10
40.47100
 20
38.52900
 30
 0
 11
40.47100
 21
38.49600
  0
ARC
  8
Engraving
 62
   7
 39
0.200
  6
CONTINUOUS
 10
40.46600
 20
39.00200
 30
 0
 40
0.50600
 50
-89.43385
 51
-19.50912
  0
ARC
  8
Engraving
 62
   7
 39
0.200
  6
CONTINUOUS
 10
39.50300
 20
39.34700
 30
 0
 40
1.52900
 50
-19.64374
 51
19.64374
  0
ARC
  8
Engraving
 62
   7
 39
0.200
  6
CONTINUOUS
 10
40.47100
 20
39.69000
 30
 0
 40
0.50200
 50
19.91485
 51
160.08515
  0
ARC
  8
Engraving
 62
   7
 39
0.200
  6
CONTINUOUS
 10
41.43900
 20
39.34700
 30
 0
 40
1.52900
 50
160.35626
 51
199.64374
  0
ARC
  8
Engraving
 62
   7
 39
0.200
  6
CONTINUOUS
 10
40.47600
 20
39.00200
 30
 0
 40
0.50600
 50
-160.49088
 51
-90.56615
  0
LINE
  8
Engraving
 62
   7
 39
0.200
  6
CONTINUOUS
 10
40.47100
 20
38.49600
 30
 0
 11
40.47100
 21
38.46200
  0
ARC
  8
Engraving
 62
   7
 39
0.200
  6
CONTINUOUS
 10
40.47100
 20
39.00100
 30
 0
 40
0.53900
 50
-90.00000
 51
-20.08305
  0
ARC
  8
Engraving
 62
   7
 39
0.200
  6
CONTINUOUS
 10
39.49000
 20
39.34700
 30
 0
 40
1.57900
 50
-19.65138
 51
19.65138
  0
ARC
  8
Engraving
 62
   7
 39
0.200
  6
CONTINUOUS
 10
40.47100
 20
39.69500
 30
 0
 40
0.53800
 50
19.88303
 51
160.11697
  0
ARC
  8
Engraving
 62
   7
 39
0.200
  6
CONTINUOUS
 10
41.45200
 20
39.34700
 30
 0
 40
1.57900
 50
160.34862
 51
199.65138
  0
ARC
  8
Engraving
 62
   7
 39
0.200
  6
CONTINUOUS
 10
40.47100
 20
39.00100
 30
 0
 40
0.53900
 50
-159.91695
 51
-90.00000
  0
LINE
  8
Engraving
 62
   7
 39
0.200
  6
CONTINUOUS
 10
40.47100
 20
38.46200
 30
 0
 11
40.47100
 21
38.42800
  0
ARC
  8
Engraving
 62
   7
 39
0.200
  6
CONTINUOUS
 10
40.47500
 20
38.99900
 30
 0
 40
0.57100
 50
-90.40136
 51
-20.49734
  0
ARC
  8
Engraving
 62
   7
 39
0.200
  6
CONTINUOUS
 10
39.47600
 20
39.34700
 30
 0
 40
1.62900
 50
-19.65856
 51
19.65856
  0
ARC
  8
Engraving
 62
   7
 39
0.200
  6
CONTINUOUS
 10
40.47100
 20
39.69900
 30
 0
 40
0.57400
 50
19.98311
 51
160.05098
  0
ARC
  8
Engraving
 62
   7
 39
0.200
  6
CONTINUOUS
 10
41.46500
 20
39.34700
 30
 0
 40
1.62900
 50
160.34144
 51
199.65856
  0
ARC
  8
Engraving
 62
   7
 39
0.200
  6
CONTINUOUS
 10
40.46600
 20
38.99900
 30
 0
 40
0.57100
 50
-159.50266
 51
-89.49830
  0
LINE
  8
Engraving
 62
   7
 39
0.200
  6
CONTINUOUS
 10
40.47100
 20
38.42800
 30
 0
 11
40.47100
 21
38.39500
  0
ARC
  8
Engraving
 62
   7
 39
0.200
  6
CONTINUOUS
 10
40.46800
 20
39.00700
 30
 0
 40
0.61200
 50
-89.71914
 51
-19.85521
  0
ARC
  8
Engraving
 62
   7
 39
0.200
  6
CONTINUOUS
 10
39.51000
 20
39.34700
 30
 0
 40
1.62900
 50
-19.65856
 51
19.65856
  0
ARC
  8
Engraving
 62
   7
 39
0.200
  6
CONTINUOUS
 10
40.47100
 20
39.68600
 30
 0
 40
0.61000
 50
20.03929
 51
159.96071
  0
ARC
  8
Engraving
 62
   7
 39
0.200
  6
CONTINUOUS
 10
41.43200
 20
39.34700
 30
 0
 40
1.62900
 50
160.34144
 51
199.65856
  0
ARC
  8
Engraving
 62
   7
 39
0.200
  6
CONTINUOUS
 10
40.47400
 20
39.00700
 30
 0
 40
0.61200
 50
-160.14479
 51
-90.28086
  0
LINE
  8
Engraving
 62
   7
 39
0.200
  6
CONTINUOUS
 10
40.47100
 20
38.39500
 30
 0
 11
40.47100
 21
38.36100
  0
ARC
  8
Engraving
 62
   7
 39
0.200
  6
CONTINUOUS
 10
40.47300
 20
39.00600
 30
 0
 40
0.64500
 50
-90.17766
 51
-20.31697
  0
ARC
  8
Engraving
 62
   7
 39
0.200
  6
CONTINUOUS
 10
39.49700
 20
39.34700
 30
 0
 40
1.67900
 50
-19.66530
 51
19.66530
  0
ARC
  8
Engraving
 62
   7
 39
0.200
  6
CONTINUOUS
 10
40.47100
 20
39.69100
 30
 0
 40
0.64600
 50
20.00584
 51
159.99416
  0
ARC
  8
Engraving
 62
   7
 39
0.200
  6
CONTINUOUS
 10
41.44500
 20
39.34700
 30
 0
 40
1.67900
 50
160.33470
 51
199.66530
  0
ARC
  8
Engraving
 62
   7
 39
0.200
  6
CONTINUOUS
 10
40.46900
 20
39.00600
 30
 0
 40
0.64500
 50
-159.68303
 51
-89.82234
  0
LINE
  8
Engraving
 62
   7
 39
0.200
  6
CONTINUOUS
 10
40.47100
 20
38.36100
 30
 0
 11
40.47100
 21
38.32700
  0
ARC
  8
Engraving
 62
   7
 39
0.200
  6
CONTINUOUS
 10
40.47800
 20
39.00400
 30
 0
 40
0.67700
 50
-90.59240
 51
-20.68489
  0
ARC
  8
Engraving
 62
   7
 39
0.200
  6
CONTINUOUS
 10
39.48300
 20
39.34700
 30
 0
 40
1.72900
 50
-19.67166
 51
19.67166
  0
ARC
  8
Engraving
 62
   7
 39
0.200
  6
CONTINUOUS
 10
40.47100
 20
39.69500
 30
 0
 40
0.68100
 50
20.08368
 51
159.94516
  0
ARC
  8
Engraving
 62
   7
 39
0.200
  6
CONTINUOUS
 10
41.45800
 20
39.34700
 30
 0
 40
1.72900
 50
160.32834
 51
199.67166
  0
ARC
  8
Engraving
 62
   7
 39
0.200
  6
CONTINUOUS
 10
40.45400
 20
38.99100
 30
 0
 40
0.66400
 50
-160.09065
 51
-88.53341
  0
ARC
  8
Engraving
 62
   7
 39
0.200
  6
CONTINUOUS
 10
53.01900
 20
39.76100
 30
 0
 40
0.52900
 50
135.61277
 51
-179.89169
  0
ARC
  8
Engraving
 62
   7
 39
0.200
  6
CONTINUOUS
 10
52.98200
 20
39.75600
 30
 0
 40
0.50700
 50
316.35822
 51
132.28129
  0
LINE
  8
Engraving
 62
   7
 39
0.200
  6
CONTINUOUS
 10
53.34900
 20
39.40600
 30
 0
 11
52.57400
 21
38.74900
  0
ARC
  8
Engraving
 62
   7
 39
0.200
  6
CONTINUOUS
 10
52.96800
 20
38.36200
 30
 0
 40
0.55200
 50
135.51352
 51
171.35638
  0
LINE
  8
Engraving
 62
   7
 39
0.200
  6
CONTINUOUS
 10
52.42200
 20
38.44500
 30
 0
 11
53.51800
 21
38.44500
  0
LINE
  8
Engraving
 62
   7
 39
0.200
  6
CONTINUOUS
 10
53.51800
 20
38.44500
 30
 0
 11
53.55200
 21
38.47900
  0
LINE
  8
Engraving
 62
   7
 39
0.200
  6
CONTINUOUS
 10
53.55200
 20
38.47900
 30
 0
 11
52.45600
 21
38.47900
  0
ARC
  8
Engraving
 62
   7
 39
0.200
  6
CONTINUOUS
 10
52.99600
 20
38.32700
 30
 0
 40
0.56100
 50
493.77191
 51
164.27907
  0
LINE
  8
Engraving
 62
   7
 39
0.200
  6
CONTINUOUS
 10
52.60800
 20
38.73200
 30
 0
 11
53.38300
 21
39.38900
  0
ARC
  8
Engraving
 62
   7
 39
0.200
  6
CONTINUOUS
 10
52.99600
 20
39.76800
 30
 0
 40
0.54200
 50
-44.40163
 51
135.59681
  0
ARC
  8
Engraving
 62
   7
 39
0.200
  6
CONTINUOUS
 10
53.00500
 20
39.76900
 30
 0
 40
0.54900
 50
136.32879
 51
180.93919
  0
LINE
  8
Engraving
 62
   7
 39
0.200
  6
CONTINUOUS
 10
52.45600
 20
39.76000
 30
 0
 11
52.45600
 21
39.72600
  0
LINE
  8
Engraving
 62
   7
 39
0.200
  6
CONTINUOUS
 10
52.45600
 20
39.72600
 30
 0
 11
52.52300
 21
39.72600
  0
LINE
  8
Engraving
 62
   7
 39
0.200
  6
CONTINUOUS
 10
52.52300
 20
39.72600
 30
 0
 11
52.52300
 21
39.76000
  0
ARC
  8
Engraving
 62
   7
 39
0.200
  6
CONTINUOUS
 10
53.00200
 20
39.76400
 30
 0
 40
0.47900
 50
135.93087
 51
-179.52155
  0
ARC
  8
Engraving
 62
   7
 39
0.200
  6
CONTINUOUS
 10
52.99200
 20
39.76500
 30
 0
 40
0.47100
 50
316.37621
 51
135.17206
  0
LINE
  8
Engraving
 62
   7
 39
0.200
  6
CONTINUOUS
 10
53.33300
 20
39.44000
 30
 0
 11
52.55700
 21
38.78200
  0
ARC
  8
Engraving
 62
   7
 39
0.200
  6
CONTINUOUS
 10
52.96800
 20
38.37100
 30
 0
 40
0.58100
 50
135.00000
 51
176.05481
  0
LINE
  8
Engraving
 62
   7
 39
0.200
  6
CONTINUOUS
 10
52.38800
 20
38.41100
 30
 0
 11
53.55200
 21
38.41100
  0
LINE
  8
Engraving
 62
   7
 39
0.200
  6
CONTINUOUS
 10
53.55200
 20
38.41100
 30
 0
 11
53.55200
 21
38.47900
  0
LINE
  8
Engraving
 62
   7
 39
0.200
  6
CONTINUOUS
 10
53.55200
 20
38.47900
 30
 0
 11
53.58500
 21
38.51300
  0
LINE
  8
Engraving
 62
   7
 39
0.200
  6
CONTINUOUS
 10
53.58500
 20
38.51300
 30
 0
 11
52.50600
 21
38.51300
  0
ARC
  8
Engraving
 62
   7
 39
0.200
  6
CONTINUOUS
 10
52.98100
 20
38.34000
 30
 0
 40
0.50600
 50
494.91987
 51
159.98784
  0
LINE
  8
Engraving
 62
   7
 39
0.200
  6
CONTINUOUS
 10
52.62400
 20
38.69800
 30
 0
 11
53.40000
 21
39.35600
  0
ARC
  8
Engraving
 62
   7
 39
0.200
  6
CONTINUOUS
 10
52.99600
 20
39.76000
 30
 0
 40
0.57100
 50
-45.00000
 51
135.00000
  0
ARC
  8
Engraving
 62
   7
 39
0.200
  6
CONTINUOUS
 10
53.00000
 20
39.75700
 30
 0
 40
0.57800
 50
135.07013
 51
179.70262
  0
LINE
  8
Engraving
 62
   7
 39
0.200
  6
CONTINUOUS
 10
52.42200
 20
39.76000
 30
 0
 11
52.42200
 21
39.69300
  0
LINE
  8
Engraving
 62
   7
 39
0.200
  6
CONTINUOUS
 10
52.42200
 20
39.69300
 30
 0
 11
52.55700
 21
39.69300
  0
LINE
  8
Engraving
 62
   7
 39
0.200
  6
CONTINUOUS
 10
52.55700
 20
39.69300
 30
 0
 11
52.55700
 21
39.76000
  0
ARC
  8
Engraving
 62
   7
 39
0.200
  6
CONTINUOUS
 10
52.99500
 20
39.76000
 30
 0
 40
0.43800
 50
360.00000
 51
180.00000
  0
ARC
  8
Engraving
 62
   7
 39
0.200
  6
CONTINUOUS
 10
52.99600
 20
39.77300
 30
 0
 40
0.43800
 50
313.79687
 51
-1.70006
  0
LINE
  8
Engraving
 62
   7
 39
0.200
  6
CONTINUOUS
 10
53.29900
 20
39.45700
 30
 0
 11
52.52300
 21
38.79900
  0
ARC
  8
Engraving
 62
   7
 39
0.200
  6
CONTINUOUS
 10
53.12000
 20
38.28600
 30
 0
 40
0.78700
 50
139.32765
 51
173.29016
  0
LINE
  8
Engraving
 62
   7
 39
0.200
  6
CONTINUOUS
 10
52.33800
 20
38.37800
 30
 0
 11
53.58500
 21
38.37800
  0
LINE
  8
Engraving
 62
   7
 39
0.200
  6
CONTINUOUS
 10
53.58500
 20
38.37800
 30
 0
 11
53.58500
 21
38.51300
  0
LINE
  8
Engraving
 62
   7
 39
0.200
  6
CONTINUOUS
 10
53.58500
 20
38.51300
 30
 0
 11
53.63600
 21
38.54600
  0
LINE
  8
Engraving
 62
   7
 39
0.200
  6
CONTINUOUS
 10
53.63600
 20
38.54600
 30
 0
 11
52.55700
 21
38.54600
  0
ARC
  8
Engraving
 62
   7
 39
0.200
  6
CONTINUOUS
 10
52.99400
 20
38.32400
 30
 0
 40
0.49000
 50
493.26430
 51
153.06901
  0
LINE
  8
Engraving
 62
   7
 39
0.200
  6
CONTINUOUS
 10
52.65800
 20
38.68100
 30
 0
 11
53.43400
 21
39.33900
  0
ARC
  8
Engraving
 62
   7
 39
0.200
  6
CONTINUOUS
 10
53.00300
 20
39.75500
 30
 0
 40
0.59900
 50
-43.98542
 51
0.47825
  0
ARC
  8
Engraving
 62
   7
 39
0.200
  6
CONTINUOUS
 10
52.99500
 20
39.76000
 30
 0
 40
0.60700
 50
0.00000
 51
180.00000
  0
LINE
  8
Engraving
 62
   7
 39
0.200
  6
CONTINUOUS
 10
52.38800
 20
39.76000
 30
 0
 11
52.38800
 21
39.65900
  0
LINE
  8
Engraving
 62
   7
 39
0.200
  6
CONTINUOUS
 10
52.38800
 20
39.65900
 30
 0
 11
52.59100
 21
39.65900
  0
LINE
  8
Engraving
 62
   7
 39
0.200
  6
CONTINUOUS
 10
52.59100
 20
39.65900
 30
 0
 11
52.59100
 21
39.76000
  0
ARC
  8
Engraving
 62
   7
 39
0.200
  6
CONTINUOUS
 10
53.00000
 20
39.76000
 30
 0
 40
0.40900
 50
495.39650
 51
180.00000
  0
ARC
  8
Engraving
 62
   7
 39
0.200
  6
CONTINUOUS
 10
52.99500
 20
39.76100
 30
 0
 40
0.40400
 50
315.00000
 51
135.00000
  0
LINE
  8
Engraving
 62
   7
 39
0.200
  6
CONTINUOUS
 10
53.28200
 20
39.47400
 30
 0
 11
52.50600
 21
38.81600
  0
ARC
  8
Engraving
 62
   7
 39
0.200
  6
CONTINUOUS
 10
52.98100
 20
38.33400
 30
 0
 40
0.67700
 50
134.58092
 51
179.15374
  0
LINE
  8
Engraving
 62
   7
 39
0.200
  6
CONTINUOUS
 10
52.30400
 20
38.34400
 30
 0
 11
53.63600
 21
38.34400
  0
LINE
  8
Engraving
 62
   7
 39
0.200
  6
CONTINUOUS
 10
53.63600
 20
38.34400
 30
 0
 11
53.63600
 21
38.54600
  0
LINE
  8
Engraving
 62
   7
 39
0.200
  6
CONTINUOUS
 10
62.87000
 20
40.26600
 30
 0
 11
62.06100
 21
40.26600
  0
LINE
  8
Engraving
 62
   7
 39
0.200
  6
CONTINUOUS
 10
62.06100
 20
40.26600
 30
 0
 11
61.82500
 21
39.40600
  0
LINE
  8
Engraving
 62
   7
 39
0.200
  6
CONTINUOUS
 10
61.82500
 20
39.40600
 30
 0
 11
61.84100
 21
39.47400
  0
ARC
  8
Engraving
 62
   7
 39
0.200
  6
CONTINUOUS
 10
62.32700
 20
39.05100
 30
 0
 40
0.64400
 50
360.08897
 51
138.96465
  0
ARC
  8
Engraving
 62
   7
 39
0.200
  6
CONTINUOUS
 10
62.32900
 20
39.04200
 30
 0
 40
0.64200
 50
194.33928
 51
0.89239
  0
LINE
  8
Engraving
 62
   7
 39
0.200
  6
CONTINUOUS
 10
61.70700
 20
38.88300
 30
 0
 11
61.74000
 21
38.88300
  0
ARC
  8
Engraving
 62
   7
 39
0.200
  6
CONTINUOUS
 10
62.32700
 20
39.04900
 30
 0
 40
0.61000
 50
-164.20942
 51
0.28178
  0
ARC
  8
Engraving
 62
   7
 39
0.200
  6
CONTINUOUS
 10
62.33500
 20
39.06200
 30
 0
 40
0.60200
 50
-0.95167
 51
145.14833
  0
LINE
  8
Engraving
 62
   7
 39
0.200
  6
CONTINUOUS
 10
61.84100
 20
39.40600
 30
 0
 11
61.87500
 21
39.40600
  0
ARC
  8
Engraving
 62
   7
 39
0.200
  6
CONTINUOUS
 10
62.33200
 20
39.06200
 30
 0
 40
0.57200
 50
358.99843
 51
143.02994
  0
ARC
  8
Engraving
 62
   7
 39
0.200
  6
CONTINUOUS
 10
62.32500
 20
39.06100
 30
 0
 40
0.57900
 50
197.90300
 51
-0.89054
  0
LINE
  8
Engraving
 62
   7
 39
0.200
  6
CONTINUOUS
 10
61.77400
 20
38.88300
 30
 0
 11
61.80800
 21
38.88300
  0
ARC
  8
Engraving
 62
   7
 39
0.200
  6
CONTINUOUS
 10
62.32300
 20
39.06700
 30
 0
 40
0.54700
 50
-160.33913
 51
-1.57079
  0
ARC
  8
Engraving
 62
   7
 39
0.200
  6
CONTINUOUS
 10
62.33600
 20
39.06400
 30
 0
 40
0.53400
 50
-1.28733
 51
140.16695
  0
LINE
  8
Engraving
 62
   7
 39
0.200
  6
CONTINUOUS
 10
61.92600
 20
39.40600
 30
 0
 11
61.95900
 21
39.40600
  0
LINE
  8
Engraving
 62
   7
 39
0.200
  6
CONTINUOUS
 10
61.95900
 20
39.40600
 30
 0
 11
61.89200
 21
39.50700
  0
LINE
  8
Engraving
 62
   7
 39
0.200
  6
CONTINUOUS
 10
61.89200
 20
39.50700
 30
 0
 11
62.09400
 21
40.23200
  0
LINE
  8
Engraving
 62
   7
 39
0.200
  6
CONTINUOUS
 10
62.09400
 20
40.23200
 30
 0
 11
62.90400
 21
40.23200
  0
LINE
  8
Engraving
 62
   7
 39
0.200
  6
CONTINUOUS
 10
62.90400
 20
40.23200
 30
 0
 11
62.90400
 21
40.30000
  0
LINE
  8
Engraving
 62
   7
 39
0.200
  6
CONTINUOUS
 10
62.90400
 20
40.30000
 30
 0
 11
62.02700
 21
40.30000
  0
LINE
  8
Engraving
 62
   7
 39
0.200
  6
CONTINUOUS
 10
62.02700
 20
40.30000
 30
 0
 11
61.79100
 21
39.40600
  0
LINE
  8
Engraving
 62
   7
 39
0.200
  6
CONTINUOUS
 10
61.79100
 20
39.40600
 30
 0
 11
61.75700
 21
39.40600
  0
LINE
  8
Engraving
 62
   7
 39
0.200
  6
CONTINUOUS
 10
61.75700
 20
39.40600
 30
 0
 11
61.99300
 21
40.33300
  0
LINE
  8
Engraving
 62
   7
 39
0.200
  6
CONTINUOUS
 10
61.99300
 20
40.33300
 30
 0
 11
62.93700
 21
40.33300
  0
LINE
  8
Engraving
 62
   7
 39
0.200
  6
CONTINUOUS
 10
62.93700
 20
40.33300
 30
 0
 11
62.93700
 21
40.19800
  0
LINE
  8
Engraving
 62
   7
 39
0.200
  6
CONTINUOUS
 10
62.93700
 20
40.19800
 30
 0
 11
62.11100
 21
40.19800
  0
LINE
  8
Engraving
 62
   7
 39
0.200
  6
CONTINUOUS
 10
62.11100
 20
40.19800
 30
 0
 11
61.94300
 21
39.60800
  0
ARC
  8
Engraving
 62
   7
 39
0.200
  6
CONTINUOUS
 10
62.32000
 20
39.04200
 30
 0
 40
0.68000
 50
317.20489
 51
123.66670
  0
ARC
  8
Engraving
 62
   7
 39
0.200
  6
CONTINUOUS
 10
62.32700
 20
39.04000
 30
 0
 40
0.67400
 50
193.49905
 51
-43.07482
  0
LINE
  8
Engraving
 62
   7
 39
0.200
  6
CONTINUOUS
 10
61.67300
 20
38.88300
 30
 0
 11
61.63900
 21
38.88300
  0
ARC
  8
Engraving
 62
   7
 39
0.200
  6
CONTINUOUS
 10
62.33000
 20
39.04400
 30
 0
 40
0.71000
 50
-166.88433
 51
-44.54347
  0
ARC
  8
Engraving
 62
   7
 39
0.200
  6
CONTINUOUS
 10
62.32900
 20
39.04700
 30
 0
 40
0.71300
 50
-44.65896
 51
118.11030
  0
LINE
  8
Engraving
 62
   7
 39
0.200
  6
CONTINUOUS
 10
61.99300
 20
39.67600
 30
 0
 11
62.12800
 21
40.16500
  0
LINE
  8
Engraving
 62
   7
 39
0.200
  6
CONTINUOUS
 10
62.12800
 20
40.16500
 30
 0
 11
62.97100
 21
40.16500
  0
LINE
  8
Engraving
 62
   7
 39
0.200
  6
CONTINUOUS
 10
62.97100
 20
40.16500
 30
 0
 11
62.97100
 21
40.36700
  0
LINE
  8
Engraving
 62
   7
 39
0.200
  6
CONTINUOUS
 10
62.97100
 20
40.36700
 30
 0
 11
61.95900
 21
40.36700
  0
LINE
  8
Engraving
 62
   7
 39
0.200
  6
CONTINUOUS
 10
61.95900
 20
40.36700
 30
 0
 11
61.72300
 21
39.40600
  0
LINE
  8
Engraving
 62
   7
 39
0.200
  6
CONTINUOUS
 10
61.72300
 20
39.40600
 30
 0
 11
61.95900
 21
39.40600
  0
ARC
  8
Engraving
 62
   7
 39
0.200
  6
CONTINUOUS
 10
62.33200
 20
39.06700
 30
 0
 40
0.50400
 50
360.22736
 51
137.73396
  0
ARC
  8
Engraving
 62
   7
 39
0.200
  6
CONTINUOUS
 10
62.33100
 20
39.06000
 30
 0
 40
0.50500
 50
200.51621
 51
1.02100
  0
LINE
  8
Engraving
 62
   7
 39
0.200
  6
CONTINUOUS
 10
61.85800
 20
38.88300
 30
 0
 11
61.63900
 21
38.88300
  0
ARC
  8
Engraving
 62
   7
 39
0.200
  6
CONTINUOUS
 10
100.36300
 20
39.83000
 30
 0
 40
0.43600
 50
89.73718
 51
-179.73718
  0
LINE
  8
Engraving
 62
   7
 39
0.200
  6
CONTINUOUS
 10
100.36500
 20
40.26600
 30
 0
 11
100.50000
 21
40.26600
  0
ARC
  8
Engraving
 62
   7
 39
0.200
  6
CONTINUOUS
 10
100.50100
 20
39.82800
 30
 0
 40
0.43800
 50
292.40859
 51
90.13081
  0
ARC
  8
Engraving
 62
   7
 39
0.200
  6
CONTINUOUS
 10
100.50300
 20
38.94800
 30
 0
 40
0.50300
 50
269.65828
 51
70.84439
  0
LINE
  8
Engraving
 62
   7
 39
0.200
  6
CONTINUOUS
 10
100.50000
 20
38.44500
 30
 0
 11
100.36500
 21
38.44500
  0
ARC
  8
Engraving
 62
   7
 39
0.200
  6
CONTINUOUS
 10
100.36200
 20
38.94800
 30
 0
 40
0.50300
 50
179.65828
 51
-89.65828
  0
LINE
  8
Engraving
 62
   7
 39
0.200
  6
CONTINUOUS
 10
99.85900
 20
38.95100
 30
 0
 11
99.82500
 21
38.98500
  0
LINE
  8
Engraving
 62
   7
 39
0.200
  6
CONTINUOUS
 10
99.82500
 20
38.98500
 30
 0
 11
99.82500
 21
38.95100
  0
ARC
  8
Engraving
 62
   7
 39
0.200
  6
CONTINUOUS
 10
100.36200
 20
38.94800
 30
 0
 40
0.53700
 50
179.67992
 51
270.32008
  0
LINE
  8
Engraving
 62
   7
 39
0.200
  6
CONTINUOUS
 10
100.36500
 20
38.41100
 30
 0
 11
100.50000
 21
38.41100
  0
ARC
  8
Engraving
 62
   7
 39
0.200
  6
CONTINUOUS
 10
100.49800
 20
38.95700
 30
 0
 40
0.54600
 50
-89.79013
 51
62.16817
  0
ARC
  8
Engraving
 62
   7
 39
0.200
  6
CONTINUOUS
 10
100.50400
 20
39.83400
 30
 0
 40
0.46600
 50
-57.70794
 51
90.49180
  0
LINE
  8
Engraving
 62
   7
 39
0.200
  6
CONTINUOUS
 10
100.50000
 20
40.30000
 30
 0
 11
100.36500
 21
40.30000
  0
ARC
  8
Engraving
 62
   7
 39
0.200
  6
CONTINUOUS
 10
100.36300
 20
39.83000
 30
 0
 40
0.47000
 50
89.75619
 51
180.24381
  0
LINE
  8
Engraving
 62
   7
 39
0.200
  6
CONTINUOUS
 10
99.89300
 20
39.82800
 30
 0
 11
99.89300
 21
39.79400
  0
LINE
  8
Engraving
 62
   7
 39
0.200
  6
CONTINUOUS
 10
99.89300
 20
39.79400
 30
 0
 11
99.96000
 21
39.79400
  0
LINE
  8
Engraving
 62
   7
 39
0.200
  6
CONTINUOUS
 10
99.96000
 20
39.79400
 30
 0
 11
99.96000
 21
39.82800
  0
ARC
  8
Engraving
 62
   7
 39
0.200
  6
CONTINUOUS
 10
100.36200
 20
39.83000
 30
 0
 40
0.40200
 50
89.57243
 51
-179.71495
  0
LINE
  8
Engraving
 62
   7
 39
0.200
  6
CONTINUOUS
 10
100.36500
 20
40.23200
 30
 0
 11
100.50000
 21
40.23200
  0
ARC
  8
Engraving
 62
   7
 39
0.200
  6
CONTINUOUS
 10
100.48000
 20
39.82800
 30
 0
 40
0.40400
 50
272.82712
 51
87.16589
  0
ARC
  8
Engraving
 62
   7
 39
0.200
  6
CONTINUOUS
 10
100.50000
 20
38.95100
 30
 0
 40
0.47200
 50
270.00000
 51
90.00000
  0
LINE
  8
Engraving
 62
   7
 39
0.200
  6
CONTINUOUS
 10
100.50000
 20
38.47900
 30
 0
 11
100.36500
 21
38.47900
  0
ARC
  8
Engraving
 62
   7
 39
0.200
  6
CONTINUOUS
 10
100.36300
 20
38.94900
 30
 0
 40
0.47000
 50
179.75619
 51
-89.75619
  0
LINE
  8
Engraving
 62
   7
 39
0.200
  6
CONTINUOUS
 10
99.89300
 20
38.95100
 30
 0
 11
99.89300
 21
38.98500
  0
LINE
  8
Engraving
 62
   7
 39
0.200
  6
CONTINUOUS
 10
99.89300
 20
38.98500
 30
 0
 11
99.82500
 21
38.98500
  0
LINE
  8
Engraving
 62
   7
 39
0.200
  6
CONTINUOUS
 10
99.82500
 20
38.98500
 30
 0
 11
99.79200
 21
39.01800
  0
LINE
  8
Engraving
 62
   7
 39
0.200
  6
CONTINUOUS
 10
99.79200
 20
39.01800
 30
 0
 11
99.79200
 21
38.95100
  0
ARC
  8
Engraving
 62
   7
 39
0.200
  6
CONTINUOUS
 10
100.36200
 20
38.94800
 30
 0
 40
0.57000
 50
179.69845
 51
270.30155
  0
LINE
  8
Engraving
 62
   7
 39
0.200
  6
CONTINUOUS
 10
100.36500
 20
38.37800
 30
 0
 11
100.50000
 21
38.37800
  0
ARC
  8
Engraving
 62
   7
 39
0.200
  6
CONTINUOUS
 10
100.49400
 20
38.95400
 30
 0
 40
0.57600
 50
-89.40319
 51
57.55170
  0
ARC
  8
Engraving
 62
   7
 39
0.200
  6
CONTINUOUS
 10
100.50000
 20
39.83500
 30
 0
 40
0.49800
 50
-52.50860
 51
90.00000
  0
LINE
  8
Engraving
 62
   7
 39
0.200
  6
CONTINUOUS
 10
100.50000
 20
40.33300
 30
 0
 11
100.36500
 21
40.33300
  0
ARC
  8
Engraving
 62
   7
 39
0.200
  6
CONTINUOUS
 10
100.36200
 20
39.83000
 30
 0
 40
0.50300
 50
89.65828
 51
180.22782
  0
LINE
  8
Engraving
 62
   7
 39
0.200
  6
CONTINUOUS
 10
99.85900
 20
39.82800
 30
 0
 11
99.85900
 21
39.76000
  0
LINE
  8
Engraving
 62
   7
 39
0.200
  6
CONTINUOUS
 10
99.85900
 20
39.76000
 30
 0
 11
99.99400
 21
39.76000
  0
LINE
  8
Engraving
 62
   7
 39
0.200
  6
CONTINUOUS
 10
99.99400
 20
39.76000
 30
 0
 11
99.99400
 21
39.82800
  0
ARC
  8
Engraving
 62
   7
 39
0.200
  6
CONTINUOUS
 10
100.36300
 20
39.82900
 30
 0
 40
0.36900
 50
89.68946
 51
-179.84473
  0
LINE
  8
Engraving
 62
   7
 39
0.200
  6
CONTINUOUS
 10
100.36500
 20
40.19800
 30
 0
 11
100.50000
 21
40.19800
  0
ARC
  8
Engraving
 62
   7
 39
0.200
  6
CONTINUOUS
 10
100.48100
 20
39.82800
 30
 0
 40
0.37000
 50
272.93172
 51
87.06037
  0
LINE
  8
Engraving
 62
   7
 39
0.200
  6
CONTINUOUS
 10
100.50000
 20
39.45700
 30
 0
 11
100.46600
 21
39.45700
  0
LINE
  8
Engraving
 62
   7
 39
0.200
  6
CONTINUOUS
 10
100.46600
 20
39.45700
 30
 0
 11
100.46600
 21
39.38900
  0
LINE
  8
Engraving
 62
   7
 39
0.200
  6
CONTINUOUS
 10
100.46600
 20
39.38900
 30
 0
 11
100.50000
 21
39.38900
  0
ARC
  8
Engraving
 62
   7
 39
0.200
  6
CONTINUOUS
 10
100.50000
 20
38.95100
 30
 0
 40
0.43800
 50
270.00000
 51
90.00000
  0
LINE
  8
Engraving
 62
   7
 39
0.200
  6
CONTINUOUS
 10
100.50000
 20
38.51300
 30
 0
 11
100.36500
 21
38.51300
  0
ARC
  8
Engraving
 62
   7
 39
0.200
  6
CONTINUOUS
 10
100.36300
 20
38.94900
 30
 0
 40
0.43600
 50
179.73718
 51
-89.73718
  0
LINE
  8
Engraving
 62
   7
 39
0.200
  6
CONTINUOUS
 10
99.92700
 20
38.95100
 30
 0
 11
99.92700
 21
39.01800
  0
LINE
  8
Engraving
 62
   7
 39
0.200
  6
CONTINUOUS
 10
99.92700
 20
39.01800
 30
 0
 11
99.79200
 21
39.01800
  0
LINE
  8
Engraving
 62
   7
 39
0.200
  6
CONTINUOUS
 10
99.79200
 20
39.01800
 30
 0
 11
99.75800
 21
39.05200
  0
LINE
  8
Engraving
 62
   7
 39
0.200
  6
CONTINUOUS
 10
99.75800
 20
39.05200
 30
 0
 11
99.75800
 21
38.95100
  0
ARC
  8
Engraving
 62
   7
 39
0.200
  6
CONTINUOUS
 10
100.36200
 20
38.94800
 30
 0
 40
0.60400
 50
179.71542
 51
270.28458
  0
LINE
  8
Engraving
 62
   7
 39
0.200
  6
CONTINUOUS
 10
100.36500
 20
38.34400
 30
 0
 11
100.50000
 21
38.34400
  0
ARC
  8
Engraving
 62
   7
 39
0.200
  6
CONTINUOUS
 10
100.49900
 20
38.95500
 30
 0
 40
0.61100
 50
-89.90623
 51
52.51142
  0
ARC
  8
Engraving
 62
   7
 39
0.200
  6
CONTINUOUS
 10
100.49900
 20
39.82900
 30
 0
 40
0.53800
 50
-46.27972
 51
89.89350
  0
LINE
  8
Engraving
 62
   7
 39
0.200
  6
CONTINUOUS
 10
100.50000
 20
40.36700
 30
 0
 11
100.36500
 21
40.36700
  0
ARC
  8
Engraving
 62
   7
 39
0.200
  6
CONTINUOUS
 10
100.36200
 20
39.83000
 30
 0
 40
0.53700
 50
89.67992
 51
180.21339
  0
LINE
  8
Engraving
 62
   7
 39
0.200
  6
CONTINUOUS
 10
99.82500
 20
39.82800
 30
 0
 11
99.82500
 21
39.72600
  0
LINE
  8
Engraving
 62
   7
 39
0.200
  6
CONTINUOUS
 10
99.82500
 20
39.72600
 30
 0
 11
100.02800
 21
39.72600
  0
LINE
  8
Engraving
 62
   7
 39
0.200
  6
CONTINUOUS
 10
100.02800
 20
39.72600
 30
 0
 11
100.02800
 21
39.82800
  0
ARC
  8
Engraving
 62
   7
 39
0.200
  6
CONTINUOUS
 10
100.36300
 20
39.83000
 30
 0
 40
0.33500
 50
89.65794
 51
-179.65794
  0
LINE
  8
Engraving
 62
   7
 39
0.200
  6
CONTINUOUS
 10
100.36500
 20
40.16500
 30
 0
 11
100.50000
 21
40.16500
  0
ARC
  8
Engraving
 62
   7
 39
0.200
  6
CONTINUOUS
 10
100.50000
 20
39.82800
 30
 0
 40
0.33700
 50
270.00000
 51
90.00000
  0
LINE
  8
Engraving
 62
   7
 39
0.200
  6
CONTINUOUS
 10
100.50000
 20
39.49000
 30
 0
 11
100.43200
 21
39.49000
  0
LINE
  8
Engraving
 62
   7
 39
0.200
  6
CONTINUOUS
 10
100.43200
 20
39.49000
 30
 0
 11
100.43200
 21
39.35600
  0
LINE
  8
Engraving
 62
   7
 39
0.200
  6
CONTINUOUS
 10
100.43200
 20
39.35600
 30
 0
 11
100.50000
 21
39.35600
  0
ARC
  8
Engraving
 62
   7
 39
0.200
  6
CONTINUOUS
 10
100.50000
 20
38.95100
 30
 0
 40
0.40500
 50
270.00000
 51
90.00000
  0
LINE
  8
Engraving
 62
   7
 39
0.200
  6
CONTINUOUS
 10
100.50000
 20
38.54600
 30
 0
 11
100.36500
 21
38.54600
  0
ARC
  8
Engraving
 62
   7
 39
0.200
  6
CONTINUOUS
 10
100.36200
 20
38.94800
 30
 0
 40
0.40200
 50
179.57243
 51
-89.57243
  0
LINE
  8
Engraving
 62
   7
 39
0.200
  6
CONTINUOUS
 10
99.96000
 20
38.95100
 30
 0
 11
99.96000
 21
39.05200
  0
LINE
  8
Engraving
 62
   7
 39
0.200
  6
CONTINUOUS
 10
99.96000
 20
39.05200
 30
 0
 11
99.75800
 21
39.05200
  0
ARC
  8
Engraving
 62
   7
 39
0.200
  6
CONTINUOUS
 10
102.32300
 20
38.99400
 30
 0
 40
0.46500
 50
-90.36965
 51
-20.26748
  0
ARC
  8
Engraving
 62
   7
 39
0.200
  6
CONTINUOUS
 10
101.31900
 20
39.34700
 30
 0
 40
1.52900
 50
-19.64374
 51
19.64374
  0
ARC
  8
Engraving
 62
   7
 39
0.200
  6
CONTINUOUS
 10
102.32100
 20
39.70300
 30
 0
 40
0.46600
 50
19.83593
 51
160.20575
  0
ARC
  8
Engraving
 62
   7
 39
0.200
  6
CONTINUOUS
 10
103.32200
 20
39.34700
 30
 0
 40
1.52900
 50
160.35626
 51
199.64374
  0
ARC
  8
Engraving
 62
   7
 39
0.200
  6
CONTINUOUS
 10
102.31800
 20
38.99400
 30
 0
 40
0.46500
 50
-159.73252
 51
-89.75357
  0
LINE
  8
Engraving
 62
   7
 39
0.200
  6
CONTINUOUS
 10
102.32000
 20
38.52900
 30
 0
 11
102.32000
 21
38.49600
  0
ARC
  8
Engraving
 62
   7
 39
0.200
  6
CONTINUOUS
 10
102.31600
 20
39.00200
 30
 0
 40
0.50600
 50
-89.54708
 51
-19.50912
  0
ARC
  8
Engraving
 62
   7
 39
0.200
  6
CONTINUOUS
 10
101.35300
 20
39.34700
 30
 0
 40
1.52900
 50
-19.64374
 51
19.64374
  0
ARC
  8
Engraving
 62
   7
 39
0.200
  6
CONTINUOUS
 10
102.32100
 20
39.69100
 30
 0
 40
0.50200
 50
19.80747
 51
160.23116
  0
ARC
  8
Engraving
 62
   7
 39
0.200
  6
CONTINUOUS
 10
103.28800
 20
39.34700
 30
 0
 40
1.52900
 50
160.35626
 51
199.64374
  0
ARC
  8
Engraving
 62
   7
 39
0.200
  6
CONTINUOUS
 10
102.32500
 20
39.00200
 30
 0
 40
0.50600
 50
-160.49088
 51
-90.56615
  0
LINE
  8
Engraving
 62
   7
 39
0.200
  6
CONTINUOUS
 10
102.32000
 20
38.49600
 30
 0
 11
102.32000
 21
38.46200
  0
ARC
  8
Engraving
 62
   7
 39
0.200
  6
CONTINUOUS
 10
102.32000
 20
39.00100
 30
 0
 40
0.53900
 50
-90.00000
 51
-20.08305
  0
ARC
  8
Engraving
 62
   7
 39
0.200
  6
CONTINUOUS
 10
101.33900
 20
39.34700
 30
 0
 40
1.57900
 50
-19.65138
 51
19.65138
  0
ARC
  8
Engraving
 62
   7
 39
0.200
  6
CONTINUOUS
 10
102.32100
 20
39.69400
 30
 0
 40
0.53700
 50
20.01954
 51
160.01689
  0
ARC
  8
Engraving
 62
   7
 39
0.200
  6
CONTINUOUS
 10
103.30200
 20
39.34700
 30
 0
 40
1.57900
 50
160.34862
 51
199.65138
  0
ARC
  8
Engraving
 62
   7
 39
0.200
  6
CONTINUOUS
 10
102.32100
 20
39.00100
 30
 0
 40
0.53900
 50
-159.91695
 51
-90.10630
  0
LINE
  8
Engraving
 62
   7
 39
0.200
  6
CONTINUOUS
 10
102.32000
 20
38.46200
 30
 0
 11
102.32000
 21
38.42800
  0
ARC
  8
Engraving
 62
   7
 39
0.200
  6
CONTINUOUS
 10
102.32500
 20
38.99900
 30
 0
 40
0.57100
 50
-90.50170
 51
-20.49734
  0
ARC
  8
Engraving
 62
   7
 39
0.200
  6
CONTINUOUS
 10
101.32600
 20
39.34700
 30
 0
 40
1.62900
 50
-19.65856
 51
19.65856
  0
ARC
  8
Engraving
 62
   7
 39
0.200
  6
CONTINUOUS
 10
102.32100
 20
39.69900
 30
 0
 40
0.57400
 50
19.98311
 51
160.05098
  0
ARC
  8
Engraving
 62
   7
 39
0.200
  6
CONTINUOUS
 10
103.31500
 20
39.34700
 30
 0
 40
1.62900
 50
160.34144
 51
199.65856
  0
ARC
  8
Engraving
 62
   7
 39
0.200
  6
CONTINUOUS
 10
102.31600
 20
38.99900
 30
 0
 40
0.57100
 50
-159.50266
 51
-89.59864
  0
LINE
  8
Engraving
 62
   7
 39
0.200
  6
CONTINUOUS
 10
102.32000
 20
38.42800
 30
 0
 11
102.32000
 21
38.39500
  0
ARC
  8
Engraving
 62
   7
 39
0.200
  6
CONTINUOUS
 10
102.31800
 20
39.00700
 30
 0
 40
0.61200
 50
-89.81276
 51
-19.85521
  0
ARC
  8
Engraving
 62
   7
 39
0.200
  6
CONTINUOUS
 10
101.36000
 20
39.34700
 30
 0
 40
1.62900
 50
-19.65856
 51
19.65856
  0
ARC
  8
Engraving
 62
   7
 39
0.200
  6
CONTINUOUS
 10
102.32100
 20
39.68700
 30
 0
 40
0.61000
 50
19.95099
 51
160.08104
  0
ARC
  8
Engraving
 62
   7
 39
0.200
  6
CONTINUOUS
 10
103.28100
 20
39.34700
 30
 0
 40
1.62900
 50
160.34144
 51
199.65856
  0
ARC
  8
Engraving
 62
   7
 39
0.200
  6
CONTINUOUS
 10
102.32300
 20
39.00700
 30
 0
 40
0.61200
 50
-160.14479
 51
-90.28086
  0
LINE
  8
Engraving
 62
   7
 39
0.200
  6
CONTINUOUS
 10
102.32000
 20
38.39500
 30
 0
 11
102.32000
 21
38.36100
  0
ARC
  8
Engraving
 62
   7
 39
0.200
  6
CONTINUOUS
 10
102.32200
 20
39.00600
 30
 0
 40
0.64500
 50
-90.17766
 51
-20.31697
  0
ARC
  8
Engraving
 62
   7
 39
0.200
  6
CONTINUOUS
 10
101.34600
 20
39.34700
 30
 0
 40
1.67900
 50
-19.66530
 51
19.66530
  0
ARC
  8
Engraving
 62
   7
 39
0.200
  6
CONTINUOUS
 10
102.32100
 20
39.69000
 30
 0
 40
0.64500
 50
20.11963
 51
159.91086
  0
ARC
  8
Engraving
 62
   7
 39
0.200
  6
CONTINUOUS
 10
103.29500
 20
39.34700
 30
 0
 40
1.67900
 50
160.33470
 51
199.66530
  0
ARC
  8
Engraving
 62
   7
 39
0.200
  6
CONTINUOUS
 10
102.31900
 20
39.00600
 30
 0
 40
0.64500
 50
-159.68303
 51
-89.91117
  0
LINE
  8
Engraving
 62
   7
 39
0.200
  6
CONTINUOUS
 10
102.32000
 20
38.36100
 30
 0
 11
102.32000
 21
38.32700
  0
ARC
  8
Engraving
 62
   7
 39
0.200
  6
CONTINUOUS
 10
102.32800
 20
39.00400
 30
 0
 40
0.67700
 50
-90.67702
 51
-20.68489
  0
ARC
  8
Engraving
 62
   7
 39
0.200
  6
CONTINUOUS
 10
101.33300
 20
39.34700
 30
 0
 40
1.72900
 50
-19.67166
 51
19.67166
  0
ARC
  8
Engraving
 62
   7
 39
0.200
  6
CONTINUOUS
 10
102.32100
 20
39.69500
 30
 0
 40
0.68100
 50
20.08368
 51
159.94516
  0
ARC
  8
Engraving
 62
   7
 39
0.200
  6
CONTINUOUS
 10
103.30800
 20
39.34700
 30
 0
 40
1.72900
 50
160.32834
 51
199.67166
  0
ARC
  8
Engraving
 62
   7
 39
0.200
  6
CONTINUOUS
 10
102.30400
 20
38.99100
 30
 0
 40
0.66400
 50
-160.09065
 51
-88.61965
  0
ARC
  8
Engraving
 62
   7
 39
0.200
  6
CONTINUOUS
 10
124.82600
 20
40.16200
 30
 0
 40
0.18900
 50
-52.09840
 51
-14.69732
  0
LINE
  8
Engraving
 62
   7
 39
0.200
  6
CONTINUOUS
 10
125.00900
 20
40.11400
 30
 0
 11
125.00900
 21
39.99600
  0
LINE
  8
Engraving
 62
   7
 39
0.200
  6
CONTINUOUS
 10
125.00900
 20
39.99600
 30
 0
 11
124.87400
 21
39.99600
  0
ARC
  8
Engraving
 62
   7
 39
0.200
  6
CONTINUOUS
 10
124.62900
 20
40.33700
 30
 0
 40
0.42000
 50
-54.30370
 51
-9.73142
  0
LINE
  8
Engraving
 62
   7
 39
0.200
  6
CONTINUOUS
 10
125.04300
 20
40.26600
 30
 0
 11
125.04300
 21
38.44500
  0
LINE
  8
Engraving
 62
   7
 39
0.200
  6
CONTINUOUS
 10
125.04300
 20
38.44500
 30
 0
 11
125.00900
 21
38.41100
  0
LINE
  8
Engraving
 62
   7
 39
0.200
  6
CONTINUOUS
 10
125.00900
 20
38.41100
 30
 0
 11
125.00900
 21
39.96200
  0
LINE
  8
Engraving
 62
   7
 39
0.200
  6
CONTINUOUS
 10
125.00900
 20
39.96200
 30
 0
 11
124.75600
 21
39.96200
  0
ARC
  8
Engraving
 62
   7
 39
0.200
  6
CONTINUOUS
 10
124.58000
 20
40.35800
 30
 0
 40
0.43300
 50
-66.03751
 51
-7.69960
  0
LINE
  8
Engraving
 62
   7
 39
0.200
  6
CONTINUOUS
 10
125.00900
 20
40.30000
 30
 0
 11
125.07600
 21
40.30000
  0
LINE
  8
Engraving
 62
   7
 39
0.200
  6
CONTINUOUS
 10
125.07600
 20
40.30000
 30
 0
 11
125.07600
 21
38.41100
  0
LINE
  8
Engraving
 62
   7
 39
0.200
  6
CONTINUOUS
 10
125.07600
 20
38.41100
 30
 0
 11
125.00900
 21
38.41100
  0
LINE
  8
Engraving
 62
   7
 39
0.200
  6
CONTINUOUS
 10
125.00900
 20
38.41100
 30
 0
 11
124.97500
 21
38.37800
  0
LINE
  8
Engraving
 62
   7
 39
0.200
  6
CONTINUOUS
 10
124.97500
 20
38.37800
 30
 0
 11
124.97500
 21
39.92900
  0
LINE
  8
Engraving
 62
   7
 39
0.200
  6
CONTINUOUS
 10
124.97500
 20
39.92900
 30
 0
 11
124.57100
 21
39.92900
  0
ARC
  8
Engraving
 62
   7
 39
0.200
  6
CONTINUOUS
 10
124.53700
 20
40.36700
 30
 0
 40
0.43900
 50
-85.56128
 51
-4.43872
  0
LINE
  8
Engraving
 62
   7
 39
0.200
  6
CONTINUOUS
 10
124.97500
 20
40.33300
 30
 0
 11
125.11000
 21
40.33300
  0
LINE
  8
Engraving
 62
   7
 39
0.200
  6
CONTINUOUS
 10
125.11000
 20
40.33300
 30
 0
 11
125.11000
 21
38.37800
  0
LINE
  8
Engraving
 62
   7
 39
0.200
  6
CONTINUOUS
 10
125.11000
 20
38.37800
 30
 0
 11
124.97500
 21
38.37800
  0
LINE
  8
Engraving
 62
   7
 39
0.200
  6
CONTINUOUS
 10
124.97500
 20
38.37800
 30
 0
 11
124.94200
 21
38.34400
  0
LINE
  8
Engraving
 62
   7
 39
0.200
  6
CONTINUOUS
 10
124.94200
 20
38.34400
 30
 0
 11
124.94200
 21
39.89500
  0
LINE
  8
Engraving
 62
   7
 39
0.200
  6
CONTINUOUS
 10
124.94200
 20
39.89500
 30
 0
 11
124.53700
 21
39.89500
  0
LINE
  8
Engraving
 62
   7
 39
0.200
  6
CONTINUOUS
 10
124.53700
 20
39.89500
 30
 0
 11
124.53700
 21
39.96200
  0
ARC
  8
Engraving
 62
   7
 39
0.200
  6
CONTINUOUS
 10
124.54000
 20
40.36400
 30
 0
 40
0.40200
 50
-90.42757
 51
0.42757
  0
LINE
  8
Engraving
 62
   7
 39
0.200
  6
CONTINUOUS
 10
124.94200
 20
40.36700
 30
 0
 11
125.14400
 21
40.36700
  0
LINE
  8
Engraving
 62
   7
 39
0.200
  6
CONTINUOUS
 10
125.14400
 20
40.36700
 30
 0
 11
125.14400
 21
38.34400
  0
LINE
  8
Engraving
 62
   7
 39
0.200
  6
CONTINUOUS
 10
125.14400
 20
38.34400
 30
 0
 11
124.94200
 21
38.34400
  0
LINE
  8
Engraving
 62
   7
 39
0.200
  6
CONTINUOUS
 10
46.46800
 20
39.91700
 30
 0
 11
46.52400
 21
39.91700
  0
ARC
  8
Engraving
 62
   7
 39
0.200
  6
CONTINUOUS
 10
46.52600
 20
40.36400
 30
 0
 40
0.44700
 50
-90.25636
 51
0.38453
  0
LINE
  8
Engraving
 62
   7
 39
0.200
  6
CONTINUOUS
 10
46.97300
 20
40.36700
 30
 0
 11
46.97300
 21
39.35600
  0
LINE
  8
Engraving
 62
   7
 39
0.200
  6
CONTINUOUS
 10
46.97300
 20
39.35600
 30
 0
 11
46.97300
 21
38.34400
  0
LINE
  8
Engraving
 62
   7
 39
0.200
  6
CONTINUOUS
 10
70.16000
 20
26.10000
 30
 0
 11
70.16000
 21
19.10000
  0
LINE
  8
Engraving
 62
   7
 39
0.200
  6
CONTINUOUS
 10
70.16000
 20
36.90000
 30
 0
 11
70.16000
 21
29.90000
  0
LINE
  8
Engraving
 62
   7
 39
0.200
  6
CONTINUOUS
 10
69.13600
 20
39.91700
 30
 0
 11
69.19200
 21
39.91700
  0
ARC
  8
Engraving
 62
   7
 39
0.200
  6
CONTINUOUS
 10
69.19400
 20
40.36400
 30
 0
 40
0.44700
 50
-90.25636
 51
0.38453
  0
LINE
  8
Engraving
 62
   7
 39
0.200
  6
CONTINUOUS
 10
69.64100
 20
40.36700
 30
 0
 11
69.64100
 21
39.35600
  0
LINE
  8
Engraving
 62
   7
 39
0.200
  6
CONTINUOUS
 10
69.64100
 20
39.35600
 30
 0
 11
69.64100
 21
38.34400
  0
ARC
  8
Engraving
 62
   7
 39
0.200
  6
CONTINUOUS
 10
72.30200
 20
39.35600
 30
 0
 40
2.35000
 50
164.75130
 51
195.27223
  0
ARC
  8
Engraving
 62
   7
 39
0.200
  6
CONTINUOUS
 10
70.57500
 20
38.91100
 30
 0
 40
0.56700
 50
-162.13991
 51
-90.70732
  0
ARC
  8
Engraving
 62
   7
 39
0.200
  6
CONTINUOUS
 10
70.56200
 20
38.91100
 30
 0
 40
0.56700
 50
-89.39372
 51
-17.86009
  0
ARC
  8
Engraving
 62
   7
 39
0.200
  6
CONTINUOUS
 10
68.83500
 20
39.35600
 30
 0
 40
2.35000
 50
-15.27223
 51
15.24870
  0
ARC
  8
Engraving
 62
   7
 39
0.200
  6
CONTINUOUS
 10
70.56900
 20
39.79700
 30
 0
 40
0.56200
 50
18.37043
 51
161.66167
  0
LINE
  8
Engraving
 62
   7
 39
0.200
  6
CONTINUOUS
 10
77.97000
 20
26.10000
 30
 0
 11
77.97000
 21
19.10000
  0
LINE
  8
Engraving
 62
   7
 39
0.200
  6
CONTINUOUS
 10
77.97000
 20
36.90000
 30
 0
 11
77.97000
 21
29.90000
  0
LINE
  8
Engraving
 62
   7
 39
0.200
  6
CONTINUOUS
 10
76.95900
 20
39.91700
 30
 0
 11
77.01500
 21
39.91700
  0
ARC
  8
Engraving
 62
   7
 39
0.200
  6
CONTINUOUS
 10
77.01700
 20
40.36400
 30
 0
 40
0.44700
 50
-90.25636
 51
0.38453
  0
LINE
  8
Engraving
 62
   7
 39
0.200
  6
CONTINUOUS
 10
77.46400
 20
40.36700
 30
 0
 11
77.46400
 21
39.35600
  0
LINE
  8
Engraving
 62
   7
 39
0.200
  6
CONTINUOUS
 10
77.46400
 20
39.35600
 30
 0
 11
77.46400
 21
38.34400
  0
LINE
  8
Engraving
 62
   7
 39
0.200
  6
CONTINUOUS
 10
78.93900
 20
40.36700
 30
 0
 11
78.04000
 21
40.36700
  0
LINE
  8
Engraving
 62
   7
 39
0.200
  6
CONTINUOUS
 10
78.04000
 20
40.36700
 30
 0
 11
77.87200
 21
39.35600
  0
ARC
  8
Engraving
 62
   7
 39
0.200
  6
CONTINUOUS
 10
78.43600
 20
38.80600
 30
 0
 40
0.78800
 50
451.16321
 51
135.72002
  0
ARC
  8
Engraving
 62
   7
 39
0.200
  6
CONTINUOUS
 10
78.42300
 20
39.03500
 30
 0
 40
0.55900
 50
359.69251
 51
90.30749
  0
LINE
  8
Engraving
 62
   7
 39
0.200
  6
CONTINUOUS
 10
78.98200
 20
39.03200
 30
 0
 11
78.98200
 21
38.97600
  0
ARC
  8
Engraving
 62
   7
 39
0.200
  6
CONTINUOUS
 10
78.36500
 20
38.96800
 30
 0
 40
0.61700
 50
196.37906
 51
0.74285
  0
LINE
  8
Engraving
 62
   7
 39
0.200
  6
CONTINUOUS
 10
85.78000
 20
26.10000
 30
 0
 11
85.78000
 21
19.10000
  0
LINE
  8
Engraving
 62
   7
 39
0.200
  6
CONTINUOUS
 10
85.78000
 20
36.90000
 30
 0
 11
85.78000
 21
29.90000
  0
ARC
  8
Engraving
 62
   7
 39
0.200
  6
CONTINUOUS
 10
84.96300
 20
39.80800
 30
 0
 40
0.55900
 50
89.69251
 51
-179.69251
  0
LINE
  8
Engraving
 62
   7
 39
0.200
  6
CONTINUOUS
 10
84.96600
 20
40.36700
 30
 0
 11
85.02200
 21
40.36700
  0
ARC
  8
Engraving
 62
   7
 39
0.200
  6
CONTINUOUS
 10
85.02700
 20
39.80000
 30
 0
 40
0.56700
 50
300.77306
 51
90.50524
  0
LINE
  8
Engraving
 62
   7
 39
0.200
  6
CONTINUOUS
 10
85.31700
 20
39.31300
 30
 0
 11
84.81100
 21
39.03200
  0
ARC
  8
Engraving
 62
   7
 39
0.200
  6
CONTINUOUS
 10
85.17800
 20
38.33500
 30
 0
 40
0.78800
 50
117.76870
 51
179.34564
  0
LINE
  8
Engraving
 62
   7
 39
0.200
  6
CONTINUOUS
 10
84.39000
 20
38.34400
 30
 0
 11
85.62600
 21
38.34400
  0
ARC
  8
Engraving
 62
   7
 39
0.200
  6
CONTINUOUS
 10
88.28600
 20
39.35600
 30
 0
 40
2.35000
 50
164.75130
 51
195.27223
  0
ARC
  8
Engraving
 62
   7
 39
0.200
  6
CONTINUOUS
 10
86.55900
 20
38.91100
 30
 0
 40
0.56700
 50
-162.13991
 51
-90.60628
  0
ARC
  8
Engraving
 62
   7
 39
0.200
  6
CONTINUOUS
 10
86.54700
 20
38.91100
 30
 0
 40
0.56700
 50
-89.39372
 51
-17.86009
  0
ARC
  8
Engraving
 62
   7
 39
0.200
  6
CONTINUOUS
 10
84.82000
 20
39.35600
 30
 0
 40
2.35000
 50
-15.27223
 51
15.24870
  0
ARC
  8
Engraving
 62
   7
 39
0.200
  6
CONTINUOUS
 10
86.55300
 20
39.79900
 30
 0
 40
0.56200
 50
18.14476
 51
161.85524
  0
LINE
  8
Engraving
 62
   7
 39
0.200
  6
CONTINUOUS
 10
93.59000
 20
26.10000
 30
 0
 11
93.59000
 21
19.10000
  0
LINE
  8
Engraving
 62
   7
 39
0.200
  6
CONTINUOUS
 10
93.59000
 20
36.90000
 30
 0
 11
93.59000
 21
29.90000
  0
ARC
  8
Engraving
 62
   7
 39
0.200
  6
CONTINUOUS
 10
92.78700
 20
39.80800
 30
 0
 40
0.55900
 50
89.69251
 51
-179.69251
  0
LINE
  8
Engraving
 62
   7
 39
0.200
  6
CONTINUOUS
 10
92.79000
 20
40.36700
 30
 0
 11
92.84600
 21
40.36700
  0
ARC
  8
Engraving
 62
   7
 39
0.200
  6
CONTINUOUS
 10
92.85100
 20
39.80000
 30
 0
 40
0.56700
 50
300.77306
 51
90.50524
  0
LINE
  8
Engraving
 62
   7
 39
0.200
  6
CONTINUOUS
 10
93.14100
 20
39.31300
 30
 0
 11
92.63500
 21
39.03200
  0
ARC
  8
Engraving
 62
   7
 39
0.200
  6
CONTINUOUS
 10
93.00200
 20
38.33500
 30
 0
 40
0.78800
 50
117.76870
 51
179.34564
  0
LINE
  8
Engraving
 62
   7
 39
0.200
  6
CONTINUOUS
 10
92.21400
 20
38.34400
 30
 0
 11
93.45000
 21
38.34400
  0
LINE
  8
Engraving
 62
   7
 39
0.200
  6
CONTINUOUS
 10
94.92500
 20
40.36700
 30
 0
 11
94.02600
 21
40.36700
  0
LINE
  8
Engraving
 62
   7
 39
0.200
  6
CONTINUOUS
 10
94.02600
 20
40.36700
 30
 0
 11
93.85700
 21
39.35600
  0
ARC
  8
Engraving
 62
   7
 39
0.200
  6
CONTINUOUS
 10
94.42100
 20
38.80600
 30
 0
 40
0.78800
 50
451.16321
 51
135.72002
  0
ARC
  8
Engraving
 62
   7
 39
0.200
  6
CONTINUOUS
 10
94.40800
 20
39.03500
 30
 0
 40
0.55900
 50
359.69251
 51
90.30749
  0
LINE
  8
Engraving
 62
   7
 39
0.200
  6
CONTINUOUS
 10
94.96700
 20
39.03200
 30
 0
 11
94.96700
 21
38.97600
  0
ARC
  8
Engraving
 62
   7
 39
0.200
  6
CONTINUOUS
 10
94.35000
 20
38.97100
 30
 0
 40
0.61700
 50
196.67256
 51
0.46430
  0
LINE
  8
Engraving
 62
   7
 39
0.200
  6
CONTINUOUS
 10
95.16000
 20
36.90000
 30
 0
 11
95.16000
 21
34.90000
  0
LINE
  8
Engraving
 62
   7
 39
0.200
  6
CONTINUOUS
 10
95.16000
 20
21.10000
 30
 0
 11
95.16000
 21
19.10000
  0
LINE
  8
Engraving
 62
   7
 39
0.200
  6
CONTINUOUS
 10
96.72000
 20
36.90000
 30
 0
 11
96.72000
 21
34.90000
  0
LINE
  8
Engraving
 62
   7
 39
0.200
  6
CONTINUOUS
 10
96.72000
 20
21.10000
 30
 0
 11
96.72000
 21
19.10000
  0
LINE
  8
Engraving
 62
   7
 39
0.200
  6
CONTINUOUS
 10
98.28000
 20
36.90000
 30
 0
 11
98.28000
 21
34.90000
  0
LINE
  8
Engraving
 62
   7
 39
0.200
  6
CONTINUOUS
 10
98.28000
 20
21.10000
 30
 0
 11
98.28000
 21
19.10000
  0
LINE
  8
Engraving
 62
   7
 39
0.200
  6
CONTINUOUS
 10
99.84000
 20
36.90000
 30
 0
 11
99.84000
 21
34.90000
  0
LINE
  8
Engraving
 62
   7
 39
0.200
  6
CONTINUOUS
 10
99.84000
 20
21.10000
 30
 0
 11
99.84000
 21
19.10000
  0
LINE
  8
Engraving
 62
   7
 39
0.200
  6
CONTINUOUS
 10
71.72000
 20
36.90000
 30
 0
 11
71.72000
 21
34.90000
  0
LINE
  8
Engraving
 62
   7
 39
0.200
  6
CONTINUOUS
 10
71.72000
 20
21.10000
 30
 0
 11
71.72000
 21
19.10000
  0
LINE
  8
Engraving
 62
   7
 39
0.200
  6
CONTINUOUS
 10
73.28000
 20
36.90000
 30
 0
 11
73.28000
 21
34.90000
  0
LINE
  8
Engraving
 62
   7
 39
0.200
  6
CONTINUOUS
 10
73.28000
 20
21.10000
 30
 0
 11
73.28000
 21
19.10000
  0
LINE
  8
Engraving
 62
   7
 39
0.200
  6
CONTINUOUS
 10
74.84000
 20
36.90000
 30
 0
 11
74.84000
 21
34.90000
  0
LINE
  8
Engraving
 62
   7
 39
0.200
  6
CONTINUOUS
 10
74.84000
 20
21.10000
 30
 0
 11
74.84000
 21
19.10000
  0
LINE
  8
Engraving
 62
   7
 39
0.200
  6
CONTINUOUS
 10
76.40000
 20
36.90000
 30
 0
 11
76.40000
 21
34.90000
  0
LINE
  8
Engraving
 62
   7
 39
0.200
  6
CONTINUOUS
 10
76.40000
 20
21.10000
 30
 0
 11
76.40000
 21
19.10000
  0
LINE
  8
Engraving
 62
   7
 39
0.200
  6
CONTINUOUS
 10
79.53500
 20
36.90000
 30
 0
 11
79.53500
 21
34.90000
  0
LINE
  8
Engraving
 62
   7
 39
0.200
  6
CONTINUOUS
 10
79.53500
 20
21.10000
 30
 0
 11
79.53500
 21
19.10000
  0
LINE
  8
Engraving
 62
   7
 39
0.200
  6
CONTINUOUS
 10
81.09500
 20
36.90000
 30
 0
 11
81.09500
 21
34.90000
  0
LINE
  8
Engraving
 62
   7
 39
0.200
  6
CONTINUOUS
 10
81.09500
 20
21.10000
 30
 0
 11
81.09500
 21
19.10000
  0
LINE
  8
Engraving
 62
   7
 39
0.200
  6
CONTINUOUS
 10
82.65500
 20
36.90000
 30
 0
 11
82.65500
 21
34.90000
  0
LINE
  8
Engraving
 62
   7
 39
0.200
  6
CONTINUOUS
 10
82.65500
 20
21.10000
 30
 0
 11
82.65500
 21
19.10000
  0
LINE
  8
Engraving
 62
   7
 39
0.200
  6
CONTINUOUS
 10
84.21500
 20
36.90000
 30
 0
 11
84.21500
 21
34.90000
  0
LINE
  8
Engraving
 62
   7
 39
0.200
  6
CONTINUOUS
 10
84.21500
 20
21.10000
 30
 0
 11
84.21500
 21
19.10000
  0
LINE
  8
Engraving
 62
   7
 39
0.200
  6
CONTINUOUS
 10
87.34500
 20
36.90000
 30
 0
 11
87.34500
 21
34.90000
  0
LINE
  8
Engraving
 62
   7
 39
0.200
  6
CONTINUOUS
 10
87.34500
 20
21.10000
 30
 0
 11
87.34500
 21
19.10000
  0
LINE
  8
Engraving
 62
   7
 39
0.200
  6
CONTINUOUS
 10
88.90500
 20
36.90000
 30
 0
 11
88.90500
 21
34.90000
  0
LINE
  8
Engraving
 62
   7
 39
0.200
  6
CONTINUOUS
 10
88.90500
 20
21.10000
 30
 0
 11
88.90500
 21
19.10000
  0
LINE
  8
Engraving
 62
   7
 39
0.200
  6
CONTINUOUS
 10
90.46500
 20
36.90000
 30
 0
 11
90.46500
 21
34.90000
  0
LINE
  8
Engraving
 62
   7
 39
0.200
  6
CONTINUOUS
 10
90.46500
 20
21.10000
 30
 0
 11
90.46500
 21
19.10000
  0
LINE
  8
Engraving
 62
   7
 39
0.200
  6
CONTINUOUS
 10
92.02500
 20
36.90000
 30
 0
 11
92.02500
 21
34.90000
  0
LINE
  8
Engraving
 62
   7
 39
0.200
  6
CONTINUOUS
 10
92.02500
 20
21.10000
 30
 0
 11
92.02500
 21
19.10000
  0
LINE
  8
Engraving
 62
   7
 39
0.200
  6
CONTINUOUS
 10
109.22000
 20
26.10000
 30
 0
 11
109.22000
 21
19.10000
  0
LINE
  8
Engraving
 62
   7
 39
0.200
  6
CONTINUOUS
 10
109.22000
 20
36.90000
 30
 0
 11
109.22000
 21
29.90000
  0
LINE
  8
Engraving
 62
   7
 39
0.200
  6
CONTINUOUS
 10
108.75700
 20
38.34400
 30
 0
 11
108.75700
 21
39.35600
  0
LINE
  8
Engraving
 62
   7
 39
0.200
  6
CONTINUOUS
 10
108.75700
 20
39.35600
 30
 0
 11
108.75700
 21
40.36700
  0
LINE
  8
Engraving
 62
   7
 39
0.200
  6
CONTINUOUS
 10
108.75700
 20
40.36700
 30
 0
 11
108.70100
 21
40.36700
  0
LINE
  8
Engraving
 62
   7
 39
0.200
  6
CONTINUOUS
 10
108.70100
 20
40.36700
 30
 0
 11
107.80200
 21
38.96200
  0
LINE
  8
Engraving
 62
   7
 39
0.200
  6
CONTINUOUS
 10
107.80200
 20
38.96200
 30
 0
 11
107.80200
 21
38.90600
  0
LINE
  8
Engraving
 62
   7
 39
0.200
  6
CONTINUOUS
 10
107.80200
 20
38.90600
 30
 0
 11
109.09400
 21
38.90600
  0
ARC
  8
Engraving
 62
   7
 39
0.200
  6
CONTINUOUS
 10
111.75400
 20
39.35600
 30
 0
 40
2.35000
 50
164.75130
 51
195.27223
  0
ARC
  8
Engraving
 62
   7
 39
0.200
  6
CONTINUOUS
 10
110.02700
 20
38.91100
 30
 0
 40
0.56700
 50
-162.13991
 51
-90.60628
  0
ARC
  8
Engraving
 62
   7
 39
0.200
  6
CONTINUOUS
 10
110.01500
 20
38.91100
 30
 0
 40
0.56700
 50
-89.39372
 51
-17.86009
  0
ARC
  8
Engraving
 62
   7
 39
0.200
  6
CONTINUOUS
 10
108.28800
 20
39.35600
 30
 0
 40
2.35000
 50
-15.27223
 51
15.24870
  0
ARC
  8
Engraving
 62
   7
 39
0.200
  6
CONTINUOUS
 10
110.02100
 20
39.79900
 30
 0
 40
0.56200
 50
18.14476
 51
161.85524
  0
LINE
  8
Engraving
 62
   7
 39
0.200
  6
CONTINUOUS
 10
117.03000
 20
26.10000
 30
 0
 11
117.03000
 21
19.10000
  0
LINE
  8
Engraving
 62
   7
 39
0.200
  6
CONTINUOUS
 10
117.03000
 20
36.90000
 30
 0
 11
117.03000
 21
29.90000
  0
LINE
  8
Engraving
 62
   7
 39
0.200
  6
CONTINUOUS
 10
116.82000
 20
40.36700
 30
 0
 11
115.92000
 21
40.36700
  0
LINE
  8
Engraving
 62
   7
 39
0.200
  6
CONTINUOUS
 10
115.92000
 20
40.36700
 30
 0
 11
115.75200
 21
39.35600
  0
ARC
  8
Engraving
 62
   7
 39
0.200
  6
CONTINUOUS
 10
116.31600
 20
38.80600
 30
 0
 40
0.78800
 50
451.16321
 51
135.72002
  0
ARC
  8
Engraving
 62
   7
 39
0.200
  6
CONTINUOUS
 10
116.30300
 20
39.03500
 30
 0
 40
0.55900
 50
359.69251
 51
90.30749
  0
LINE
  8
Engraving
 62
   7
 39
0.200
  6
CONTINUOUS
 10
116.86200
 20
39.03200
 30
 0
 11
116.86200
 21
38.97600
  0
ARC
  8
Engraving
 62
   7
 39
0.200
  6
CONTINUOUS
 10
116.24500
 20
38.97100
 30
 0
 40
0.61700
 50
196.67256
 51
0.46430
  0
ARC
  8
Engraving
 62
   7
 39
0.200
  6
CONTINUOUS
 10
119.52200
 20
39.35600
 30
 0
 40
2.35000
 50
164.75130
 51
195.27223
  0
ARC
  8
Engraving
 62
   7
 39
0.200
  6
CONTINUOUS
 10
117.79500
 20
38.91100
 30
 0
 40
0.56700
 50
-162.13991
 51
-90.60628
  0
ARC
  8
Engraving
 62
   7
 39
0.200
  6
CONTINUOUS
 10
117.78300
 20
38.91100
 30
 0
 40
0.56700
 50
-89.39372
 51
-17.86009
  0
ARC
  8
Engraving
 62
   7
 39
0.200
  6
CONTINUOUS
 10
116.05600
 20
39.35600
 30
 0
 40
2.35000
 50
-15.27223
 51
15.24870
  0
ARC
  8
Engraving
 62
   7
 39
0.200
  6
CONTINUOUS
 10
117.78900
 20
39.79900
 30
 0
 40
0.56200
 50
18.14476
 51
161.85524
  0
LINE
  8
Engraving
 62
   7
 39
0.200
  6
CONTINUOUS
 10
63.91000
 20
36.90000
 30
 0
 11
63.91000
 21
34.90000
  0
LINE
  8
Engraving
 62
   7
 39
0.200
  6
CONTINUOUS
 10
63.91000
 20
21.10000
 30
 0
 11
63.91000
 21
19.10000
  0
LINE
  8
Engraving
 62
   7
 39
0.200
  6
CONTINUOUS
 10
65.47000
 20
36.90000
 30
 0
 11
65.47000
 21
34.90000
  0
LINE
  8
Engraving
 62
   7
 39
0.200
  6
CONTINUOUS
 10
65.47000
 20
21.10000
 30
 0
 11
65.47000
 21
19.10000
  0
LINE
  8
Engraving
 62
   7
 39
0.200
  6
CONTINUOUS
 10
67.03000
 20
36.90000
 30
 0
 11
67.03000
 21
34.90000
  0
LINE
  8
Engraving
 62
   7
 39
0.200
  6
CONTINUOUS
 10
67.03000
 20
21.10000
 30
 0
 11
67.03000
 21
19.10000
  0
LINE
  8
Engraving
 62
   7
 39
0.200
  6
CONTINUOUS
 10
68.59000
 20
36.90000
 30
 0
 11
68.59000
 21
34.90000
  0
LINE
  8
Engraving
 62
   7
 39
0.200
  6
CONTINUOUS
 10
68.59000
 20
21.10000
 30
 0
 11
68.59000
 21
19.10000
  0
LINE
  8
Engraving
 62
   7
 39
0.200
  6
CONTINUOUS
 10
102.97000
 20
36.90000
 30
 0
 11
102.97000
 21
32.90000
  0
LINE
  8
Engraving
 62
   7
 39
0.200
  6
CONTINUOUS
 10
102.97000
 20
23.10000
 30
 0
 11
102.97000
 21
19.10000
  0
LINE
  8
Engraving
 62
   7
 39
0.200
  6
CONTINUOUS
 10
104.53000
 20
36.90000
 30
 0
 11
104.53000
 21
32.90000
  0
LINE
  8
Engraving
 62
   7
 39
0.200
  6
CONTINUOUS
 10
104.53000
 20
23.10000
 30
 0
 11
104.53000
 21
19.10000
  0
LINE
  8
Engraving
 62
   7
 39
0.200
  6
CONTINUOUS
 10
106.09000
 20
36.90000
 30
 0
 11
106.09000
 21
32.90000
  0
LINE
  8
Engraving
 62
   7
 39
0.200
  6
CONTINUOUS
 10
106.09000
 20
23.10000
 30
 0
 11
106.09000
 21
19.10000
  0
LINE
  8
Engraving
 62
   7
 39
0.200
  6
CONTINUOUS
 10
107.65000
 20
36.90000
 30
 0
 11
107.65000
 21
32.90000
  0
LINE
  8
Engraving
 62
   7
 39
0.200
  6
CONTINUOUS
 10
107.65000
 20
23.10000
 30
 0
 11
107.65000
 21
19.10000
  0
LINE
  8
Engraving
 62
   7
 39
0.200
  6
CONTINUOUS
 10
110.78000
 20
36.90000
 30
 0
 11
110.78000
 21
32.90000
  0
LINE
  8
Engraving
 62
   7
 39
0.200
  6
CONTINUOUS
 10
110.78000
 20
23.10000
 30
 0
 11
110.78000
 21
19.10000
  0
LINE
  8
Engraving
 62
   7
 39
0.200
  6
CONTINUOUS
 10
112.34000
 20
36.90000
 30
 0
 11
112.34000
 21
32.90000
  0
LINE
  8
Engraving
 62
   7
 39
0.200
  6
CONTINUOUS
 10
112.34000
 20
23.10000
 30
 0
 11
112.34000
 21
19.10000
  0
LINE
  8
Engraving
 62
   7
 39
0.200
  6
CONTINUOUS
 10
113.91000
 20
36.90000
 30
 0
 11
113.91000
 21
32.90000
  0
LINE
  8
Engraving
 62
   7
 39
0.200
  6
CONTINUOUS
 10
113.91000
 20
23.10000
 30
 0
 11
113.91000
 21
19.10000
  0
LINE
  8
Engraving
 62
   7
 39
0.200
  6
CONTINUOUS
 10
115.47000
 20
36.90000
 30
 0
 11
115.47000
 21
32.90000
  0
LINE
  8
Engraving
 62
   7
 39
0.200
  6
CONTINUOUS
 10
115.47000
 20
23.10000
 30
 0
 11
115.47000
 21
19.10000
  0
LINE
  8
Engraving
 62
   7
 39
0.200
  6
CONTINUOUS
 10
42.03000
 20
19.60000
 30
 0
 11
42.03000
 21
19.10000
  0
LINE
  8
Engraving
 62
   7
 39
0.200
  6
CONTINUOUS
 10
42.03000
 20
36.90000
 30
 0
 11
42.03000
 21
36.40000
  0
LINE
  8
Engraving
 62
   7
 39
0.200
  6
CONTINUOUS
 10
43.59000
 20
36.90000
 30
 0
 11
43.59000
 21
35.90000
  0
LINE
  8
Engraving
 62
   7
 39
0.200
  6
CONTINUOUS
 10
43.59000
 20
20.10000
 30
 0
 11
43.59000
 21
19.10000
  0
LINE
  8
Engraving
 62
   7
 39
0.200
  6
CONTINUOUS
 10
45.16000
 20
36.90000
 30
 0
 11
45.16000
 21
36.40000
  0
LINE
  8
Engraving
 62
   7
 39
0.200
  6
CONTINUOUS
 10
45.16000
 20
19.60000
 30
 0
 11
45.16000
 21
19.10000
  0
LINE
  8
Engraving
 62
   7
 39
0.200
  6
CONTINUOUS
 10
48.28000
 20
36.90000
 30
 0
 11
48.28000
 21
36.40000
  0
LINE
  8
Engraving
 62
   7
 39
0.200
  6
CONTINUOUS
 10
48.28000
 20
19.60000
 30
 0
 11
48.28000
 21
19.10000
  0
LINE
  8
Engraving
 62
   7
 39
0.200
  6
CONTINUOUS
 10
49.84000
 20
36.90000
 30
 0
 11
49.84000
 21
35.90000
  0
LINE
  8
Engraving
 62
   7
 39
0.200
  6
CONTINUOUS
 10
49.84000
 20
20.10000
 30
 0
 11
49.84000
 21
19.10000
  0
LINE
  8
Engraving
 62
   7
 39
0.200
  6
CONTINUOUS
 10
51.41000
 20
36.90000
 30
 0
 11
51.41000
 21
36.40000
  0
LINE
  8
Engraving
 62
   7
 39
0.200
  6
CONTINUOUS
 10
51.41000
 20
19.60000
 30
 0
 11
51.41000
 21
19.10000
  0
LINE
  8
Engraving
 62
   7
 39
0.200
  6
CONTINUOUS
 10
54.53000
 20
36.90000
 30
 0
 11
54.53000
 21
35.90000
  0
LINE
  8
Engraving
 62
   7
 39
0.200
  6
CONTINUOUS
 10
54.53000
 20
20.10000
 30
 0
 11
54.53000
 21
19.10000
  0
LINE
  8
Engraving
 62
   7
 39
0.200
  6
CONTINUOUS
 10
57.66000
 20
20.10000
 30
 0
 11
57.66000
 21
19.10000
  0
LINE
  8
Engraving
 62
   7
 39
0.200
  6
CONTINUOUS
 10
57.66000
 20
36.90000
 30
 0
 11
57.66000
 21
35.90000
  0
LINE
  8
Engraving
 62
   7
 39
0.200
  6
CONTINUOUS
 10
60.78000
 20
20.10000
 30
 0
 11
60.78000
 21
19.10000
  0
LINE
  8
Engraving
 62
   7
 39
0.200
  6
CONTINUOUS
 10
60.78000
 20
36.90000
 30
 0
 11
60.78000
 21
35.90000
  0
LINE
  8
Engraving
 62
   7
 39
0.200
  6
CONTINUOUS
 10
59.22000
 20
21.10000
 30
 0
 11
59.22000
 21
19.10000
  0
LINE
  8
Engraving
 62
   7
 39
0.200
  6
CONTINUOUS
 10
59.22000
 20
36.90000
 30
 0
 11
59.22000
 21
34.90000
  0
LINE
  8
Engraving
 62
   7
 39
0.200
  6
CONTINUOUS
 10
56.09000
 20
21.10000
 30
 0
 11
56.09000
 21
19.10000
  0
LINE
  8
Engraving
 62
   7
 39
0.200
  6
CONTINUOUS
 10
56.09000
 20
36.90000
 30
 0
 11
56.09000
 21
34.90000
  0
LINE
  8
Engraving
 62
   7
 39
0.200
  6
CONTINUOUS
 10
118.59500
 20
36.90000
 30
 0
 11
118.59500
 21
32.90000
  0
LINE
  8
Engraving
 62
   7
 39
0.200
  6
CONTINUOUS
 10
118.59500
 20
23.10000
 30
 0
 11
118.59500
 21
19.10000
  0
LINE
  8
Engraving
 62
   7
 39
0.200
  6
CONTINUOUS
 10
120.15500
 20
36.90000
 30
 0
 11
120.15500
 21
32.90000
  0
LINE
  8
Engraving
 62
   7
 39
0.200
  6
CONTINUOUS
 10
120.15500
 20
23.10000
 30
 0
 11
120.15500
 21
19.10000
  0
LINE
  8
Engraving
 62
   7
 39
0.200
  6
CONTINUOUS
 10
121.72500
 20
36.90000
 30
 0
 11
121.72500
 21
32.90000
  0
LINE
  8
Engraving
 62
   7
 39
0.200
  6
CONTINUOUS
 10
121.72500
 20
23.10000
 30
 0
 11
121.72500
 21
19.10000
  0
LINE
  8
Engraving
 62
   7
 39
0.200
  6
CONTINUOUS
 10
123.28500
 20
36.90000
 30
 0
 11
123.28500
 21
32.90000
  0
LINE
  8
Engraving
 62
   7
 39
0.200
  6
CONTINUOUS
 10
123.28500
 20
23.10000
 30
 0
 11
123.28500
 21
19.10000
  0
LINE
  8
Engraving
 62
   7
 39
0.200
  6
CONTINUOUS
 10
129.53000
 20
26.10000
 30
 0
 11
129.53000
 21
19.10000
  0
LINE
  8
Engraving
 62
   7
 39
0.200
  6
CONTINUOUS
 10
129.53000
 20
36.90000
 30
 0
 11
129.53000
 21
29.90000
  0
ARC
  8
Engraving
 62
   7
 39
0.200
  6
CONTINUOUS
 10
129.48500
 20
39.80800
 30
 0
 40
0.55900
 50
89.69251
 51
-179.69251
  0
LINE
  8
Engraving
 62
   7
 39
0.200
  6
CONTINUOUS
 10
129.48800
 20
40.36700
 30
 0
 11
129.54400
 21
40.36700
  0
ARC
  8
Engraving
 62
   7
 39
0.200
  6
CONTINUOUS
 10
129.54900
 20
39.80000
 30
 0
 40
0.56700
 50
300.77306
 51
90.50524
  0
LINE
  8
Engraving
 62
   7
 39
0.200
  6
CONTINUOUS
 10
129.83900
 20
39.31300
 30
 0
 11
129.33300
 21
39.03200
  0
ARC
  8
Engraving
 62
   7
 39
0.200
  6
CONTINUOUS
 10
129.70000
 20
38.33500
 30
 0
 40
0.78800
 50
117.76870
 51
179.34564
  0
LINE
  8
Engraving
 62
   7
 39
0.200
  6
CONTINUOUS
 10
128.91200
 20
38.34400
 30
 0
 11
130.14800
 21
38.34400
  0
LINE
  8
Engraving
 62
   7
 39
0.200
  6
CONTINUOUS
 10
134.22000
 20
26.10000
 30
 0
 11
134.22000
 21
19.10000
  0
LINE
  8
Engraving
 62
   7
 39
0.200
  6
CONTINUOUS
 10
134.22000
 20
36.90000
 30
 0
 11
134.22000
 21
29.90000
  0
ARC
  8
Engraving
 62
   7
 39
0.200
  6
CONTINUOUS
 10
134.18900
 20
39.86400
 30
 0
 40
0.50300
 50
89.77218
 51
-179.65828
  0
LINE
  8
Engraving
 62
   7
 39
0.200
  6
CONTINUOUS
 10
134.19100
 20
40.36700
 30
 0
 11
134.24800
 21
40.36700
  0
ARC
  8
Engraving
 62
   7
 39
0.200
  6
CONTINUOUS
 10
134.25000
 20
39.86400
 30
 0
 40
0.50300
 50
359.65828
 51
90.22782
  0
ARC
  8
Engraving
 62
   7
 39
0.200
  6
CONTINUOUS
 10
134.30600
 20
39.85900
 30
 0
 40
0.44700
 50
269.74364
 51
0.25636
  0
LINE
  8
Engraving
 62
   7
 39
0.200
  6
CONTINUOUS
 10
134.30400
 20
39.41200
 30
 0
 11
134.13500
 21
39.41200
  0
LINE
  8
Engraving
 62
   7
 39
0.200
  6
CONTINUOUS
 10
134.13500
 20
39.41200
 30
 0
 11
134.30400
 21
39.41200
  0
ARC
  8
Engraving
 62
   7
 39
0.200
  6
CONTINUOUS
 10
134.30700
 20
38.90900
 30
 0
 40
0.50300
 50
359.65828
 51
90.34172
  0
ARC
  8
Engraving
 62
   7
 39
0.200
  6
CONTINUOUS
 10
134.25100
 20
38.90300
 30
 0
 40
0.55900
 50
269.69251
 51
0.30749
  0
LINE
  8
Engraving
 62
   7
 39
0.200
  6
CONTINUOUS
 10
134.24800
 20
38.34400
 30
 0
 11
134.19100
 21
38.34400
  0
ARC
  8
Engraving
 62
   7
 39
0.200
  6
CONTINUOUS
 10
134.19000
 20
38.90700
 30
 0
 40
0.56300
 50
185.81188
 51
-89.89823
  0
LINE
  8
Engraving
 62
   7
 39
0.200
  6
CONTINUOUS
 10
78.31100
 20
9.23600
 30
 0
 11
78.31100
 21
10.76400
  0
LINE
  8
Engraving
 62
   7
 39
0.200
  6
CONTINUOUS
 10
78.31100
 20
10.76400
 30
 0
 11
78.90500
 21
9.66000
  0
LINE
  8
Engraving
 62
   7
 39
0.200
  6
CONTINUOUS
 10
78.90500
 20
9.66000
 30
 0
 11
79.49900
 21
10.76400
  0
LINE
  8
Engraving
 62
   7
 39
0.200
  6
CONTINUOUS
 10
79.49900
 20
10.76400
 30
 0
 11
79.49900
 21
9.23600
  0
LINE
  8
Engraving
 62
   7
 39
0.200
  6
CONTINUOUS
 10
79.90700
 20
10.76400
 30
 0
 11
79.90700
 21
9.23600
  0
LINE
  8
Engraving
 62
   7
 39
0.200
  6
CONTINUOUS
 10
80.31400
 20
9.23600
 30
 0
 11
80.31400
 21
10.76400
  0
LINE
  8
Engraving
 62
   7
 39
0.200
  6
CONTINUOUS
 10
80.31400
 20
10.76400
 30
 0
 11
81.33300
 21
9.23600
  0
LINE
  8
Engraving
 62
   7
 39
0.200
  6
CONTINUOUS
 10
81.33300
 20
9.23600
 30
 0
 11
81.33300
 21
10.76400
  0
LINE
  8
Engraving
 62
   7
 39
0.200
  6
CONTINUOUS
 10
81.74000
 20
10.76400
 30
 0
 11
81.74000
 21
9.71100
  0
ARC
  8
Engraving
 62
   7
 39
0.200
  6
CONTINUOUS
 10
82.24900
 20
9.71100
 30
 0
 40
0.50900
 50
180.00000
 51
360.00000
  0
LINE
  8
Engraving
 62
   7
 39
0.200
  6
CONTINUOUS
 10
82.75900
 20
9.71100
 30
 0
 11
82.75900
 21
10.76400
  0
LINE
  8
Engraving
 62
   7
 39
0.200
  6
CONTINUOUS
 10
83.16600
 20
10.76400
 30
 0
 11
84.18500
 21
10.76400
  0
LINE
  8
Engraving
 62
   7
 39
0.200
  6
CONTINUOUS
 10
84.18500
 20
10.76400
 30
 0
 11
83.67600
 21
10.76400
  0
LINE
  8
Engraving
 62
   7
 39
0.200
  6
CONTINUOUS
 10
83.67600
 20
10.76400
 30
 0
 11
83.67600
 21
9.23600
  0
LINE
  8
Engraving
 62
   7
 39
0.200
  6
CONTINUOUS
 10
84.59300
 20
10.00000
 30
 0
 11
85.44100
 21
10.00000
  0
LINE
  8
Engraving
 62
   7
 39
0.200
  6
CONTINUOUS
 10
85.61100
 20
10.76400
 30
 0
 11
84.59300
 21
10.76400
  0
LINE
  8
Engraving
 62
   7
 39
0.200
  6
CONTINUOUS
 10
84.59300
 20
10.76400
 30
 0
 11
84.59300
 21
9.23600
  0
LINE
  8
Engraving
 62
   7
 39
0.200
  6
CONTINUOUS
 10
84.59300
 20
9.23600
 30
 0
 11
85.61100
 21
9.23600
  0
ARC
  8
Engraving
 62
   7
 39
0.200
  6
CONTINUOUS
 10
86.68000
 20
10.37000
 30
 0
 40
0.40300
 50
36.72772
 51
77.68694
  0
ARC
  8
Engraving
 62
   7
 39
0.200
  6
CONTINUOUS
 10
86.56100
 20
9.82700
 30
 0
 40
0.95900
 50
77.65909
 51
106.41314
  0
ARC
  8
Engraving
 62
   7
 39
0.200
  6
CONTINUOUS
 10
86.42200
 20
10.31300
 30
 0
 40
0.45400
 50
106.91701
 51
144.41828
  0
ARC
  8
Engraving
 62
   7
 39
0.200
  6
CONTINUOUS
 10
86.30600
 20
10.39600
 30
 0
 40
0.31100
 50
144.41950
 51
251.04049
  0
LINE
  8
Engraving
 62
   7
 39
0.200
  6
CONTINUOUS
 10
86.20500
 20
10.10200
 30
 0
 11
86.80000
 21
9.89800
  0
ARC
  8
Engraving
 62
   7
 39
0.200
  6
CONTINUOUS
 10
86.69900
 20
9.60400
 30
 0
 40
0.31100
 50
324.41950
 51
71.04049
  0
ARC
  8
Engraving
 62
   7
 39
0.200
  6
CONTINUOUS
 10
86.58300
 20
9.68700
 30
 0
 40
0.45400
 50
286.91701
 51
-35.58172
  0
ARC
  8
Engraving
 62
   7
 39
0.200
  6
CONTINUOUS
 10
86.44400
 20
10.17300
 30
 0
 40
0.95900
 50
257.65909
 51
-73.58686
  0
ARC
  8
Engraving
 62
   7
 39
0.200
  6
CONTINUOUS
 10
86.32500
 20
9.63000
 30
 0
 40
0.40300
 50
216.72772
 51
-102.31306
  0
LINE
  8
Engraving
 62
   7
 39
0.200
  6
CONTINUOUS
 10
126.41000
 20
25.10000
 30
 0
 11
126.41000
 21
19.10000
  0
LINE
  8
Engraving
 62
   7
 39
0.200
  6
CONTINUOUS
 10
126.41000
 20
36.90000
 30
 0
 11
126.41000
 21
30.90000
  0
LINE
  8
Engraving
 62
   7
 39
0.200
  6
CONTINUOUS
 10
127.97000
 20
25.10000
 30
 0
 11
127.97000
 21
19.10000
  0
LINE
  8
Engraving
 62
   7
 39
0.200
  6
CONTINUOUS
 10
127.97000
 20
36.90000
 30
 0
 11
127.97000
 21
30.90000
  0
LINE
  8
Engraving
 62
   7
 39
0.200
  6
CONTINUOUS
 10
131.09000
 20
25.10000
 30
 0
 11
131.09000
 21
19.10000
  0
LINE
  8
Engraving
 62
   7
 39
0.200
  6
CONTINUOUS
 10
131.09000
 20
36.90000
 30
 0
 11
131.09000
 21
30.90000
  0
LINE
  8
Engraving
 62
   7
 39
0.200
  6
CONTINUOUS
 10
132.66000
 20
25.10000
 30
 0
 11
132.66000
 21
19.10000
  0
LINE
  8
Engraving
 62
   7
 39
0.200
  6
CONTINUOUS
 10
132.66000
 20
36.90000
 30
 0
 11
132.66000
 21
30.90000
  0
LINE
  8
Engraving
 62
   7
 39
0.200
  6
CONTINUOUS
 10
42.03500
 20
10.00000
 30
 0
 11
77.18500
 21
10.00000
  0
LINE
  8
Engraving
 62
   7
 39
0.200
  6
CONTINUOUS
 10
42.03000
 20
11.00000
 30
 0
 11
42.03000
 21
10.00000
  0
LINE
  8
Engraving
 62
   7
 39
0.200
  6
CONTINUOUS
 10
88.13500
 20
10.00000
 30
 0
 11
123.28500
 21
10.00000
  0
LINE
  8
Engraving
 62
   7
 39
0.200
  6
CONTINUOUS
 10
123.28900
 20
11.00000
 30
 0
 11
123.28900
 21
10.00000
  0
CIRCLE
  8
Engraving
 62
   7
 39
0.400
  6
CONTINUOUS
 10
38.50000
 20
25.70000
 30
 0
 40
0.50000
  0
CIRCLE
  8
Engraving
 62
   7
 39
0.400
  6
CONTINUOUS
 10
38.50000
 20
22.95000
 30
 0
 40
0.50000
  0
CIRCLE
  8
Engraving
 62
   7
 39
0.400
  6
CONTINUOUS
 10
38.50000
 20
20.20000
 30
 0
 40
0.50000
  0
CIRCLE
  8
Engraving
 62
   7
 39
0.400
  6
CONTINUOUS
 10
36.50000
 20
25.70000
 30
 0
 40
0.25000
  0
CIRCLE
  8
Engraving
 62
   7
 39
0.400
  6
CONTINUOUS
 10
36.50000
 20
22.95000
 30
 0
 40
0.25000
  0
CIRCLE
  8
Engraving
 62
   7
 39
0.400
  6
CONTINUOUS
 10
36.50000
 20
20.20000
 30
 0
 40
0.25000
  0
CIRCLE
  8
Engraving
 62
   7
 39
0.200
  6
CONTINUOUS
 10
35.00000
 20
20.20000
 30
 0
 40
0.12500
  0
CIRCLE
  8
Engraving
 62
   7
 39
0.200
  6
CONTINUOUS
 10
35.00000
 20
22.95000
 30
 0
 40
0.12500
  0
CIRCLE
  8
Engraving
 62
   7
 39
0.200
  6
CONTINUOUS
 10
35.00000
 20
25.70000
 30
 0
 40
0.12500
  0
CIRCLE
  8
Engraving
 62
   7
 39
0.400
  6
CONTINUOUS
 10
37.50000
 20
24.32000
 30
 0
 40
0.25000
  0
CIRCLE
  8
Engraving
 62
   7
 39
0.400
  6
CONTINUOUS
 10
37.50000
 20
21.57000
 30
 0
 40
0.25000
  0
CIRCLE
  8
Engraving
 62
   7
 39
0.200
  6
CONTINUOUS
 10
35.75000
 20
24.32000
 30
 0
 40
0.12500
  0
CIRCLE
  8
Engraving
 62
   7
 39
0.200
  6
CONTINUOUS
 10
35.75000
 20
21.57000
 30
 0
 40
0.12500
  0
CIRCLE
  8
Engraving
 62
   7
 39
0.400
  6
CONTINUOUS
 10
38.50000
 20
35.80000
 30
 0
 40
0.50000
  0
CIRCLE
  8
Engraving
 62
   7
 39
0.400
  6
CONTINUOUS
 10
38.50000
 20
33.05000
 30
 0
 40
0.50000
  0
CIRCLE
  8
Engraving
 62
   7
 39
0.400
  6
CONTINUOUS
 10
38.50000
 20
30.30000
 30
 0
 40
0.50000
  0
CIRCLE
  8
Engraving
 62
   7
 39
0.400
  6
CONTINUOUS
 10
36.50000
 20
35.80000
 30
 0
 40
0.25000
  0
CIRCLE
  8
Engraving
 62
   7
 39
0.400
  6
CONTINUOUS
 10
36.50000
 20
33.05000
 30
 0
 40
0.25000
  0
CIRCLE
  8
Engraving
 62
   7
 39
0.400
  6
CONTINUOUS
 10
36.50000
 20
30.30000
 30
 0
 40
0.25000
  0
CIRCLE
  8
Engraving
 62
   7
 39
0.200
  6
CONTINUOUS
 10
35.00000
 20
30.30000
 30
 0
 40
0.12500
  0
CIRCLE
  8
Engraving
 62
   7
 39
0.200
  6
CONTINUOUS
 10
35.00000
 20
33.05000
 30
 0
 40
0.12500
  0
CIRCLE
  8
Engraving
 62
   7
 39
0.200
  6
CONTINUOUS
 10
35.00000
 20
35.80000
 30
 0
 40
0.12500
  0
CIRCLE
  8
Engraving
 62
   7
 39
0.400
  6
CONTINUOUS
 10
37.50000
 20
34.42000
 30
 0
 40
0.25000
  0
CIRCLE
  8
Engraving
 62
   7
 39
0.400
  6
CONTINUOUS
 10
37.50000
 20
31.67000
 30
 0
 40
0.25000
  0
CIRCLE
  8
Engraving
 62
   7
 39
0.200
  6
CONTINUOUS
 10
35.75000
 20
34.42000
 30
 0
 40
0.12500
  0
CIRCLE
  8
Engraving
 62
   7
 39
0.200
  6
CONTINUOUS
 10
35.75000
 20
31.67000
 30
 0
 40
0.12500
  0
ARC
  8
Contour
 62
   7
 39
0.100
  6
CONTINUOUS
 10
25.00000
 20
28.00000
 30
 0
 40
1.50000
 50
0.00000
 51
270.00000
  0
CIRCLE
  8
Contour
 62
   7
 39
0.100
  6
CONTINUOUS
 10
25.00000
 20
28.00000
 30
 0
 40
1.22900
  0
ARC
  8
Contour
 62
   7
 39
0.100
  6
CONTINUOUS
 10
145.00000
 20
28.00000
 30
 0
 40
1.50000
 50
0.00000
 51
270.00000
  0
CIRCLE
  8
Contour
 62
   7
 39
0.100
  6
CONTINUOUS
 10
145.00000
 20
28.00000
 30
 0
 40
1.22900
  0
ARC
  8
Contour
 62
   7
 39
0.100
  6
CONTINUOUS
 10
139.14000
 20
28.44000
 30
 0
 40
0.50000
 50
316.05341
 51
133.94659
  0
LINE
  8
Contour
 62
   7
 39
0.100
  6
CONTINUOUS
 10
139.50000
 20
28.09300
 30
 0
 11
139.50000
 21
27.90700
  0
ARC
  8
Contour
 62
   7
 39
0.100
  6
CONTINUOUS
 10
139.14000
 20
27.56000
 30
 0
 40
0.50000
 50
226.05341
 51
43.94659
  0
LINE
  8
Contour
 62
   7
 39
0.100
  6
CONTINUOUS
 10
138.79300
 20
27.20000
 30
 0
 11
31.20700
 21
27.20000
  0
ARC
  8
Contour
 62
   7
 39
0.100
  6
CONTINUOUS
 10
30.86000
 20
27.56000
 30
 0
 40
0.50000
 50
136.05341
 51
-46.05341
  0
LINE
  8
Contour
 62
   7
 39
0.100
  6
CONTINUOUS
 10
30.50000
 20
27.90700
 30
 0
 11
30.50000
 21
28.09300
  0
ARC
  8
Contour
 62
   7
 39
0.100
  6
CONTINUOUS
 10
30.86000
 20
28.44000
 30
 0
 40
0.50000
 50
46.05341
 51
-136.05341
  0
LINE
  8
Contour
 62
   7
 39
0.100
  6
CONTINUOUS
 10
31.20700
 20
28.80000
 30
 0
 11
138.79300
 21
28.80000
  0
LINE
  8
Contour
 62
   7
 39
0.100
  6
CONTINUOUS
 10
-1.00000
 20
0.00000
 30
 0
 11
1.00000
 21
0.00000
  0
LINE
  8
Contour
 62
   7
 39
0.100
  6
CONTINUOUS
 10
0.00000
 20
-1.00000
 30
 0
 11
0.00000
 21
1.00000
  0
LINE
  8
Contour
 62
   7
 39
0.100
  6
CONTINUOUS
 10
24.00000
 20
28.00000
 30
 0
 11
26.00000
 21
28.00000
  0
LINE
  8
Contour
 62
   7
 39
0.100
  6
CONTINUOUS
 10
25.00000
 20
27.00000
 30
 0
 11
25.00000
 21
29.00000
  0
LINE
  8
Contour
 62
   7
 39
0.100
  6
CONTINUOUS
 10
144.00000
 20
28.00000
 30
 0
 11
146.00000
 21
28.00000
  0
LINE
  8
Contour
 62
   7
 39
0.100
  6
CONTINUOUS
 10
145.00000
 20
27.00000
 30
 0
 11
145.00000
 21
29.00000
  0
LINE
  8
Contour
 62
   7
 39
0.100
  6
CONTINUOUS
 10
84.00000
 20
28.00000
 30
 0
 11
86.00000
 21
28.00000
  0
LINE
  8
Contour
 62
   7
 39
0.100
  6
CONTINUOUS
 10
85.00000
 20
27.00000
 30
 0
 11
85.00000
 21
29.00000
  0
LINE
  8
Contour
 62
   7
 39
0.100
  6
CONTINUOUS
 10
39.47000
 20
28.00000
 30
 0
 11
41.47000
 21
28.00000
  0
LINE
  8
Contour
 62
   7
 39
0.100
  6
CONTINUOUS
 10
40.47000
 20
27.00000
 30
 0
 11
40.47000
 21
29.00000
  0
LINE
  8
Contour
 62
   7
 39
0.100
  6
CONTINUOUS
 10
39.47000
 20
16.85300
 30
 0
 11
41.47000
 21
16.85300
  0
LINE
  8
Contour
 62
   7
 39
0.100
  6
CONTINUOUS
 10
40.47000
 20
15.85300
 30
 0
 11
40.47000
 21
17.85300
  0
LINE
  8
Contour
 62
   7
 39
0.100
  6
CONTINUOUS
 10
51.97000
 20
28.00000
 30
 0
 11
53.97000
 21
28.00000
  0
LINE
  8
Contour
 62
   7
 39
0.100
  6
CONTINUOUS
 10
52.97000
 20
27.00000
 30
 0
 11
52.97000
 21
29.00000
  0
LINE
  8
Contour
 62
   7
 39
0.100
  6
CONTINUOUS
 10
51.97000
 20
16.85300
 30
 0
 11
53.97000
 21
16.85300
  0
LINE
  8
Contour
 62
   7
 39
0.100
  6
CONTINUOUS
 10
52.97000
 20
15.85300
 30
 0
 11
52.97000
 21
17.85300
  0
LINE
  8
Contour
 62
   7
 39
0.100
  6
CONTINUOUS
 10
61.34000
 20
28.00000
 30
 0
 11
63.34000
 21
28.00000
  0
LINE
  8
Contour
 62
   7
 39
0.100
  6
CONTINUOUS
 10
62.34000
 20
27.00000
 30
 0
 11
62.34000
 21
29.00000
  0
LINE
  8
Contour
 62
   7
 39
0.100
  6
CONTINUOUS
 10
61.34000
 20
16.85300
 30
 0
 11
63.34000
 21
16.85300
  0
LINE
  8
Contour
 62
   7
 39
0.100
  6
CONTINUOUS
 10
62.34000
 20
15.85300
 30
 0
 11
62.34000
 21
17.85300
  0
LINE
  8
Contour
 62
   7
 39
0.100
  6
CONTINUOUS
 10
100.41000
 20
28.00000
 30
 0
 11
102.41000
 21
28.00000
  0
LINE
  8
Contour
 62
   7
 39
0.100
  6
CONTINUOUS
 10
101.41000
 20
27.00000
 30
 0
 11
101.41000
 21
29.00000
  0
LINE
  8
Contour
 62
   7
 39
0.100
  6
CONTINUOUS
 10
100.41000
 20
16.85300
 30
 0
 11
102.41000
 21
16.85300
  0
LINE
  8
Contour
 62
   7
 39
0.100
  6
CONTINUOUS
 10
101.41000
 20
15.85300
 30
 0
 11
101.41000
 21
17.85300
  0
LINE
  8
Contour
 62
   7
 39
0.100
  6
CONTINUOUS
 10
128.53200
 20
10.00000
 30
 0
 11
130.53200
 21
10.00000
  0
LINE
  8
Contour
 62
   7
 39
0.100
  6
CONTINUOUS
 10
129.53200
 20
9.00000
 30
 0
 11
129.53200
 21
11.00000
  0
LINE
  8
Contour
 62
   7
 39
0.100
  6
CONTINUOUS
 10
123.84000
 20
28.00000
 30
 0
 11
125.84000
 21
28.00000
  0
LINE
  8
Contour
 62
   7
 39
0.100
  6
CONTINUOUS
 10
124.84000
 20
27.00000
 30
 0
 11
124.84000
 21
29.00000
  0
LINE
  8
Contour
 62
   7
 39
0.100
  6
CONTINUOUS
 10
123.84000
 20
16.85300
 30
 0
 11
125.84000
 21
16.85300
  0
LINE
  8
Contour
 62
   7
 39
0.100
  6
CONTINUOUS
 10
124.84000
 20
15.85300
 30
 0
 11
124.84000
 21
17.85300
  0
LINE
  8
Contour
 62
   7
 39
0.100
  6
CONTINUOUS
 10
36.07000
 20
10.00000
 30
 0
 11
38.07000
 21
10.00000
  0
LINE
  8
Contour
 62
   7
 39
0.100
  6
CONTINUOUS
 10
37.07000
 20
9.00000
 30
 0
 11
37.07000
 21
11.00000
  0
LINE
  8
Contour
 62
   7
 39
0.100
  6
CONTINUOUS
 10
45.72000
 20
22.60000
 30
 0
 11
47.72000
 21
22.60000
  0
LINE
  8
Contour
 62
   7
 39
0.100
  6
CONTINUOUS
 10
46.72000
 20
21.60000
 30
 0
 11
46.72000
 21
23.60000
  0
LINE
  8
Contour
 62
   7
 39
0.100
  6
CONTINUOUS
 10
45.72000
 20
33.40000
 30
 0
 11
47.72000
 21
33.40000
  0
LINE
  8
Contour
 62
   7
 39
0.100
  6
CONTINUOUS
 10
46.72000
 20
32.40000
 30
 0
 11
46.72000
 21
34.40000
  0
LINE
  8
Contour
 62
   7
 39
0.100
  6
CONTINUOUS
 10
39.47000
 20
39.35500
 30
 0
 11
41.47000
 21
39.35500
  0
LINE
  8
Contour
 62
   7
 39
0.100
  6
CONTINUOUS
 10
40.47000
 20
38.35500
 30
 0
 11
40.47000
 21
40.35500
  0
LINE
  8
Contour
 62
   7
 39
0.100
  6
CONTINUOUS
 10
51.97000
 20
39.35500
 30
 0
 11
53.97000
 21
39.35500
  0
LINE
  8
Contour
 62
   7
 39
0.100
  6
CONTINUOUS
 10
52.97000
 20
38.35500
 30
 0
 11
52.97000
 21
40.35500
  0
LINE
  8
Contour
 62
   7
 39
0.100
  6
CONTINUOUS
 10
61.34000
 20
39.35500
 30
 0
 11
63.34000
 21
39.35500
  0
LINE
  8
Contour
 62
   7
 39
0.100
  6
CONTINUOUS
 10
62.34000
 20
38.35500
 30
 0
 11
62.34000
 21
40.35500
  0
LINE
  8
Contour
 62
   7
 39
0.100
  6
CONTINUOUS
 10
100.41000
 20
39.35500
 30
 0
 11
102.41000
 21
39.35500
  0
LINE
  8
Contour
 62
   7
 39
0.100
  6
CONTINUOUS
 10
101.41000
 20
38.35500
 30
 0
 11
101.41000
 21
40.35500
  0
LINE
  8
Contour
 62
   7
 39
0.100
  6
CONTINUOUS
 10
123.84000
 20
39.35500
 30
 0
 11
125.84000
 21
39.35500
  0
LINE
  8
Contour
 62
   7
 39
0.100
  6
CONTINUOUS
 10
124.84000
 20
38.35500
 30
 0
 11
124.84000
 21
40.35500
  0
LINE
  8
Contour
 62
   7
 39
0.100
  6
CONTINUOUS
 10
45.72000
 20
39.35500
 30
 0
 11
47.72000
 21
39.35500
  0
LINE
  8
Contour
 62
   7
 39
0.100
  6
CONTINUOUS
 10
46.72000
 20
38.35500
 30
 0
 11
46.72000
 21
40.35500
  0
LINE
  8
Contour
 62
   7
 39
0.100
  6
CONTINUOUS
 10
69.16000
 20
22.60000
 30
 0
 11
71.16000
 21
22.60000
  0
LINE
  8
Contour
 62
   7
 39
0.100
  6
CONTINUOUS
 10
70.16000
 20
21.60000
 30
 0
 11
70.16000
 21
23.60000
  0
LINE
  8
Contour
 62
   7
 39
0.100
  6
CONTINUOUS
 10
69.16000
 20
33.40000
 30
 0
 11
71.16000
 21
33.40000
  0
LINE
  8
Contour
 62
   7
 39
0.100
  6
CONTINUOUS
 10
70.16000
 20
32.40000
 30
 0
 11
70.16000
 21
34.40000
  0
LINE
  8
Contour
 62
   7
 39
0.100
  6
CONTINUOUS
 10
69.16000
 20
39.35500
 30
 0
 11
71.16000
 21
39.35500
  0
LINE
  8
Contour
 62
   7
 39
0.100
  6
CONTINUOUS
 10
70.16000
 20
38.35500
 30
 0
 11
70.16000
 21
40.35500
  0
LINE
  8
Contour
 62
   7
 39
0.100
  6
CONTINUOUS
 10
76.97000
 20
22.60000
 30
 0
 11
78.97000
 21
22.60000
  0
LINE
  8
Contour
 62
   7
 39
0.100
  6
CONTINUOUS
 10
77.97000
 20
21.60000
 30
 0
 11
77.97000
 21
23.60000
  0
LINE
  8
Contour
 62
   7
 39
0.100
  6
CONTINUOUS
 10
76.97000
 20
33.40000
 30
 0
 11
78.97000
 21
33.40000
  0
LINE
  8
Contour
 62
   7
 39
0.100
  6
CONTINUOUS
 10
77.97000
 20
32.40000
 30
 0
 11
77.97000
 21
34.40000
  0
LINE
  8
Contour
 62
   7
 39
0.100
  6
CONTINUOUS
 10
76.97000
 20
39.35500
 30
 0
 11
78.97000
 21
39.35500
  0
LINE
  8
Contour
 62
   7
 39
0.100
  6
CONTINUOUS
 10
77.97000
 20
38.35500
 30
 0
 11
77.97000
 21
40.35500
  0
LINE
  8
Contour
 62
   7
 39
0.100
  6
CONTINUOUS
 10
84.78000
 20
22.60000
 30
 0
 11
86.78000
 21
22.60000
  0
LINE
  8
Contour
 62
   7
 39
0.100
  6
CONTINUOUS
 10
85.78000
 20
21.60000
 30
 0
 11
85.78000
 21
23.60000
  0
LINE
  8
Contour
 62
   7
 39
0.100
  6
CONTINUOUS
 10
84.78000
 20
33.40000
 30
 0
 11
86.78000
 21
33.40000
  0
LINE
  8
Contour
 62
   7
 39
0.100
  6
CONTINUOUS
 10
85.78000
 20
32.40000
 30
 0
 11
85.78000
 21
34.40000
  0
LINE
  8
Contour
 62
   7
 39
0.100
  6
CONTINUOUS
 10
84.78000
 20
39.35500
 30
 0
 11
86.78000
 21
39.35500
  0
LINE
  8
Contour
 62
   7
 39
0.100
  6
CONTINUOUS
 10
85.78000
 20
38.35500
 30
 0
 11
85.78000
 21
40.35500
  0
LINE
  8
Contour
 62
   7
 39
0.100
  6
CONTINUOUS
 10
92.59000
 20
22.60000
 30
 0
 11
94.59000
 21
22.60000
  0
LINE
  8
Contour
 62
   7
 39
0.100
  6
CONTINUOUS
 10
93.59000
 20
21.60000
 30
 0
 11
93.59000
 21
23.60000
  0
LINE
  8
Contour
 62
   7
 39
0.100
  6
CONTINUOUS
 10
92.59000
 20
33.40000
 30
 0
 11
94.59000
 21
33.40000
  0
LINE
  8
Contour
 62
   7
 39
0.100
  6
CONTINUOUS
 10
93.59000
 20
32.40000
 30
 0
 11
93.59000
 21
34.40000
  0
LINE
  8
Contour
 62
   7
 39
0.100
  6
CONTINUOUS
 10
92.59000
 20
39.35500
 30
 0
 11
94.59000
 21
39.35500
  0
LINE
  8
Contour
 62
   7
 39
0.100
  6
CONTINUOUS
 10
93.59000
 20
38.35500
 30
 0
 11
93.59000
 21
40.35500
  0
LINE
  8
Contour
 62
   7
 39
0.100
  6
CONTINUOUS
 10
94.16000
 20
35.90000
 30
 0
 11
96.16000
 21
35.90000
  0
LINE
  8
Contour
 62
   7
 39
0.100
  6
CONTINUOUS
 10
95.16000
 20
34.90000
 30
 0
 11
95.16000
 21
36.90000
  0
LINE
  8
Contour
 62
   7
 39
0.100
  6
CONTINUOUS
 10
94.16000
 20
20.10000
 30
 0
 11
96.16000
 21
20.10000
  0
LINE
  8
Contour
 62
   7
 39
0.100
  6
CONTINUOUS
 10
95.16000
 20
19.10000
 30
 0
 11
95.16000
 21
21.10000
  0
LINE
  8
Contour
 62
   7
 39
0.100
  6
CONTINUOUS
 10
95.72000
 20
35.90000
 30
 0
 11
97.72000
 21
35.90000
  0
LINE
  8
Contour
 62
   7
 39
0.100
  6
CONTINUOUS
 10
96.72000
 20
34.90000
 30
 0
 11
96.72000
 21
36.90000
  0
LINE
  8
Contour
 62
   7
 39
0.100
  6
CONTINUOUS
 10
95.72000
 20
20.10000
 30
 0
 11
97.72000
 21
20.10000
  0
LINE
  8
Contour
 62
   7
 39
0.100
  6
CONTINUOUS
 10
96.72000
 20
19.10000
 30
 0
 11
96.72000
 21
21.10000
  0
LINE
  8
Contour
 62
   7
 39
0.100
  6
CONTINUOUS
 10
97.28000
 20
35.90000
 30
 0
 11
99.28000
 21
35.90000
  0
LINE
  8
Contour
 62
   7
 39
0.100
  6
CONTINUOUS
 10
98.28000
 20
34.90000
 30
 0
 11
98.28000
 21
36.90000
  0
LINE
  8
Contour
 62
   7
 39
0.100
  6
CONTINUOUS
 10
97.28000
 20
20.10000
 30
 0
 11
99.28000
 21
20.10000
  0
LINE
  8
Contour
 62
   7
 39
0.100
  6
CONTINUOUS
 10
98.28000
 20
19.10000
 30
 0
 11
98.28000
 21
21.10000
  0
LINE
  8
Contour
 62
   7
 39
0.100
  6
CONTINUOUS
 10
98.84000
 20
35.90000
 30
 0
 11
100.84000
 21
35.90000
  0
LINE
  8
Contour
 62
   7
 39
0.100
  6
CONTINUOUS
 10
99.84000
 20
34.90000
 30
 0
 11
99.84000
 21
36.90000
  0
LINE
  8
Contour
 62
   7
 39
0.100
  6
CONTINUOUS
 10
98.84000
 20
20.10000
 30
 0
 11
100.84000
 21
20.10000
  0
LINE
  8
Contour
 62
   7
 39
0.100
  6
CONTINUOUS
 10
99.84000
 20
19.10000
 30
 0
 11
99.84000
 21
21.10000
  0
LINE
  8
Contour
 62
   7
 39
0.100
  6
CONTINUOUS
 10
70.72000
 20
35.90000
 30
 0
 11
72.72000
 21
35.90000
  0
LINE
  8
Contour
 62
   7
 39
0.100
  6
CONTINUOUS
 10
71.72000
 20
34.90000
 30
 0
 11
71.72000
 21
36.90000
  0
LINE
  8
Contour
 62
   7
 39
0.100
  6
CONTINUOUS
 10
70.72000
 20
20.10000
 30
 0
 11
72.72000
 21
20.10000
  0
LINE
  8
Contour
 62
   7
 39
0.100
  6
CONTINUOUS
 10
71.72000
 20
19.10000
 30
 0
 11
71.72000
 21
21.10000
  0
LINE
  8
Contour
 62
   7
 39
0.100
  6
CONTINUOUS
 10
72.28000
 20
35.90000
 30
 0
 11
74.28000
 21
35.90000
  0
LINE
  8
Contour
 62
   7
 39
0.100
  6
CONTINUOUS
 10
73.28000
 20
34.90000
 30
 0
 11
73.28000
 21
36.90000
  0
LINE
  8
Contour
 62
   7
 39
0.100
  6
CONTINUOUS
 10
72.28000
 20
20.10000
 30
 0
 11
74.28000
 21
20.10000
  0
LINE
  8
Contour
 62
   7
 39
0.100
  6
CONTINUOUS
 10
73.28000
 20
19.10000
 30
 0
 11
73.28000
 21
21.10000
  0
LINE
  8
Contour
 62
   7
 39
0.100
  6
CONTINUOUS
 10
73.84000
 20
35.90000
 30
 0
 11
75.84000
 21
35.90000
  0
LINE
  8
Contour
 62
   7
 39
0.100
  6
CONTINUOUS
 10
74.84000
 20
34.90000
 30
 0
 11
74.84000
 21
36.90000
  0
LINE
  8
Contour
 62
   7
 39
0.100
  6
CONTINUOUS
 10
73.84000
 20
20.10000
 30
 0
 11
75.84000
 21
20.10000
  0
LINE
  8
Contour
 62
   7
 39
0.100
  6
CONTINUOUS
 10
74.84000
 20
19.10000
 30
 0
 11
74.84000
 21
21.10000
  0
LINE
  8
Contour
 62
   7
 39
0.100
  6
CONTINUOUS
 10
75.40000
 20
35.90000
 30
 0
 11
77.40000
 21
35.90000
  0
LINE
  8
Contour
 62
   7
 39
0.100
  6
CONTINUOUS
 10
76.40000
 20
34.90000
 30
 0
 11
76.40000
 21
36.90000
  0
LINE
  8
Contour
 62
   7
 39
0.100
  6
CONTINUOUS
 10
75.40000
 20
20.10000
 30
 0
 11
77.40000
 21
20.10000
  0
LINE
  8
Contour
 62
   7
 39
0.100
  6
CONTINUOUS
 10
76.40000
 20
19.10000
 30
 0
 11
76.40000
 21
21.10000
  0
LINE
  8
Contour
 62
   7
 39
0.100
  6
CONTINUOUS
 10
78.53500
 20
35.90000
 30
 0
 11
80.53500
 21
35.90000
  0
LINE
  8
Contour
 62
   7
 39
0.100
  6
CONTINUOUS
 10
79.53500
 20
34.90000
 30
 0
 11
79.53500
 21
36.90000
  0
LINE
  8
Contour
 62
   7
 39
0.100
  6
CONTINUOUS
 10
78.53500
 20
20.10000
 30
 0
 11
80.53500
 21
20.10000
  0
LINE
  8
Contour
 62
   7
 39
0.100
  6
CONTINUOUS
 10
79.53500
 20
19.10000
 30
 0
 11
79.53500
 21
21.10000
  0
LINE
  8
Contour
 62
   7
 39
0.100
  6
CONTINUOUS
 10
80.09500
 20
35.90000
 30
 0
 11
82.09500
 21
35.90000
  0
LINE
  8
Contour
 62
   7
 39
0.100
  6
CONTINUOUS
 10
81.09500
 20
34.90000
 30
 0
 11
81.09500
 21
36.90000
  0
LINE
  8
Contour
 62
   7
 39
0.100
  6
CONTINUOUS
 10
80.09500
 20
20.10000
 30
 0
 11
82.09500
 21
20.10000
  0
LINE
  8
Contour
 62
   7
 39
0.100
  6
CONTINUOUS
 10
81.09500
 20
19.10000
 30
 0
 11
81.09500
 21
21.10000
  0
LINE
  8
Contour
 62
   7
 39
0.100
  6
CONTINUOUS
 10
81.65500
 20
35.90000
 30
 0
 11
83.65500
 21
35.90000
  0
LINE
  8
Contour
 62
   7
 39
0.100
  6
CONTINUOUS
 10
82.65500
 20
34.90000
 30
 0
 11
82.65500
 21
36.90000
  0
LINE
  8
Contour
 62
   7
 39
0.100
  6
CONTINUOUS
 10
81.65500
 20
20.10000
 30
 0
 11
83.65500
 21
20.10000
  0
LINE
  8
Contour
 62
   7
 39
0.100
  6
CONTINUOUS
 10
82.65500
 20
19.10000
 30
 0
 11
82.65500
 21
21.10000
  0
LINE
  8
Contour
 62
   7
 39
0.100
  6
CONTINUOUS
 10
83.21500
 20
35.90000
 30
 0
 11
85.21500
 21
35.90000
  0
LINE
  8
Contour
 62
   7
 39
0.100
  6
CONTINUOUS
 10
84.21500
 20
34.90000
 30
 0
 11
84.21500
 21
36.90000
  0
LINE
  8
Contour
 62
   7
 39
0.100
  6
CONTINUOUS
 10
83.21500
 20
20.10000
 30
 0
 11
85.21500
 21
20.10000
  0
LINE
  8
Contour
 62
   7
 39
0.100
  6
CONTINUOUS
 10
84.21500
 20
19.10000
 30
 0
 11
84.21500
 21
21.10000
  0
LINE
  8
Contour
 62
   7
 39
0.100
  6
CONTINUOUS
 10
86.34500
 20
35.90000
 30
 0
 11
88.34500
 21
35.90000
  0
LINE
  8
Contour
 62
   7
 39
0.100
  6
CONTINUOUS
 10
87.34500
 20
34.90000
 30
 0
 11
87.34500
 21
36.90000
  0
LINE
  8
Contour
 62
   7
 39
0.100
  6
CONTINUOUS
 10
86.34500
 20
20.10000
 30
 0
 11
88.34500
 21
20.10000
  0
LINE
  8
Contour
 62
   7
 39
0.100
  6
CONTINUOUS
 10
87.34500
 20
19.10000
 30
 0
 11
87.34500
 21
21.10000
  0
LINE
  8
Contour
 62
   7
 39
0.100
  6
CONTINUOUS
 10
87.90500
 20
35.90000
 30
 0
 11
89.90500
 21
35.90000
  0
LINE
  8
Contour
 62
   7
 39
0.100
  6
CONTINUOUS
 10
88.90500
 20
34.90000
 30
 0
 11
88.90500
 21
36.90000
  0
LINE
  8
Contour
 62
   7
 39
0.100
  6
CONTINUOUS
 10
87.90500
 20
20.10000
 30
 0
 11
89.90500
 21
20.10000
  0
LINE
  8
Contour
 62
   7
 39
0.100
  6
CONTINUOUS
 10
88.90500
 20
19.10000
 30
 0
 11
88.90500
 21
21.10000
  0
LINE
  8
Contour
 62
   7
 39
0.100
  6
CONTINUOUS
 10
89.46500
 20
35.90000
 30
 0
 11
91.46500
 21
35.90000
  0
LINE
  8
Contour
 62
   7
 39
0.100
  6
CONTINUOUS
 10
90.46500
 20
34.90000
 30
 0
 11
90.46500
 21
36.90000
  0
LINE
  8
Contour
 62
   7
 39
0.100
  6
CONTINUOUS
 10
89.46500
 20
20.10000
 30
 0
 11
91.46500
 21
20.10000
  0
LINE
  8
Contour
 62
   7
 39
0.100
  6
CONTINUOUS
 10
90.46500
 20
19.10000
 30
 0
 11
90.46500
 21
21.10000
  0
LINE
  8
Contour
 62
   7
 39
0.100
  6
CONTINUOUS
 10
91.02500
 20
35.90000
 30
 0
 11
93.02500
 21
35.90000
  0
LINE
  8
Contour
 62
   7
 39
0.100
  6
CONTINUOUS
 10
92.02500
 20
34.90000
 30
 0
 11
92.02500
 21
36.90000
  0
LINE
  8
Contour
 62
   7
 39
0.100
  6
CONTINUOUS
 10
91.02500
 20
20.10000
 30
 0
 11
93.02500
 21
20.10000
  0
LINE
  8
Contour
 62
   7
 39
0.100
  6
CONTINUOUS
 10
92.02500
 20
19.10000
 30
 0
 11
92.02500
 21
21.10000
  0
LINE
  8
Contour
 62
   7
 39
0.100
  6
CONTINUOUS
 10
108.22000
 20
22.60000
 30
 0
 11
110.22000
 21
22.60000
  0
LINE
  8
Contour
 62
   7
 39
0.100
  6
CONTINUOUS
 10
109.22000
 20
21.60000
 30
 0
 11
109.22000
 21
23.60000
  0
LINE
  8
Contour
 62
   7
 39
0.100
  6
CONTINUOUS
 10
108.22000
 20
33.40000
 30
 0
 11
110.22000
 21
33.40000
  0
LINE
  8
Contour
 62
   7
 39
0.100
  6
CONTINUOUS
 10
109.22000
 20
32.40000
 30
 0
 11
109.22000
 21
34.40000
  0
LINE
  8
Contour
 62
   7
 39
0.100
  6
CONTINUOUS
 10
108.22000
 20
39.35500
 30
 0
 11
110.22000
 21
39.35500
  0
LINE
  8
Contour
 62
   7
 39
0.100
  6
CONTINUOUS
 10
109.22000
 20
38.35500
 30
 0
 11
109.22000
 21
40.35500
  0
LINE
  8
Contour
 62
   7
 39
0.100
  6
CONTINUOUS
 10
116.03000
 20
22.60000
 30
 0
 11
118.03000
 21
22.60000
  0
LINE
  8
Contour
 62
   7
 39
0.100
  6
CONTINUOUS
 10
117.03000
 20
21.60000
 30
 0
 11
117.03000
 21
23.60000
  0
LINE
  8
Contour
 62
   7
 39
0.100
  6
CONTINUOUS
 10
116.03000
 20
33.40000
 30
 0
 11
118.03000
 21
33.40000
  0
LINE
  8
Contour
 62
   7
 39
0.100
  6
CONTINUOUS
 10
117.03000
 20
32.40000
 30
 0
 11
117.03000
 21
34.40000
  0
LINE
  8
Contour
 62
   7
 39
0.100
  6
CONTINUOUS
 10
116.03000
 20
39.35500
 30
 0
 11
118.03000
 21
39.35500
  0
LINE
  8
Contour
 62
   7
 39
0.100
  6
CONTINUOUS
 10
117.03000
 20
38.35500
 30
 0
 11
117.03000
 21
40.35500
  0
LINE
  8
Contour
 62
   7
 39
0.100
  6
CONTINUOUS
 10
62.91000
 20
35.90000
 30
 0
 11
64.91000
 21
35.90000
  0
LINE
  8
Contour
 62
   7
 39
0.100
  6
CONTINUOUS
 10
63.91000
 20
34.90000
 30
 0
 11
63.91000
 21
36.90000
  0
LINE
  8
Contour
 62
   7
 39
0.100
  6
CONTINUOUS
 10
62.91000
 20
20.10000
 30
 0
 11
64.91000
 21
20.10000
  0
LINE
  8
Contour
 62
   7
 39
0.100
  6
CONTINUOUS
 10
63.91000
 20
19.10000
 30
 0
 11
63.91000
 21
21.10000
  0
LINE
  8
Contour
 62
   7
 39
0.100
  6
CONTINUOUS
 10
64.47000
 20
35.90000
 30
 0
 11
66.47000
 21
35.90000
  0
LINE
  8
Contour
 62
   7
 39
0.100
  6
CONTINUOUS
 10
65.47000
 20
34.90000
 30
 0
 11
65.47000
 21
36.90000
  0
LINE
  8
Contour
 62
   7
 39
0.100
  6
CONTINUOUS
 10
64.47000
 20
20.10000
 30
 0
 11
66.47000
 21
20.10000
  0
LINE
  8
Contour
 62
   7
 39
0.100
  6
CONTINUOUS
 10
65.47000
 20
19.10000
 30
 0
 11
65.47000
 21
21.10000
  0
LINE
  8
Contour
 62
   7
 39
0.100
  6
CONTINUOUS
 10
66.03000
 20
35.90000
 30
 0
 11
68.03000
 21
35.90000
  0
LINE
  8
Contour
 62
   7
 39
0.100
  6
CONTINUOUS
 10
67.03000
 20
34.90000
 30
 0
 11
67.03000
 21
36.90000
  0
LINE
  8
Contour
 62
   7
 39
0.100
  6
CONTINUOUS
 10
66.03000
 20
20.10000
 30
 0
 11
68.03000
 21
20.10000
  0
LINE
  8
Contour
 62
   7
 39
0.100
  6
CONTINUOUS
 10
67.03000
 20
19.10000
 30
 0
 11
67.03000
 21
21.10000
  0
LINE
  8
Contour
 62
   7
 39
0.100
  6
CONTINUOUS
 10
67.59000
 20
35.90000
 30
 0
 11
69.59000
 21
35.90000
  0
LINE
  8
Contour
 62
   7
 39
0.100
  6
CONTINUOUS
 10
68.59000
 20
34.90000
 30
 0
 11
68.59000
 21
36.90000
  0
LINE
  8
Contour
 62
   7
 39
0.100
  6
CONTINUOUS
 10
67.59000
 20
20.10000
 30
 0
 11
69.59000
 21
20.10000
  0
LINE
  8
Contour
 62
   7
 39
0.100
  6
CONTINUOUS
 10
68.59000
 20
19.10000
 30
 0
 11
68.59000
 21
21.10000
  0
LINE
  8
Contour
 62
   7
 39
0.100
  6
CONTINUOUS
 10
101.97000
 20
34.90000
 30
 0
 11
103.97000
 21
34.90000
  0
LINE
  8
Contour
 62
   7
 39
0.100
  6
CONTINUOUS
 10
102.97000
 20
33.90000
 30
 0
 11
102.97000
 21
35.90000
  0
LINE
  8
Contour
 62
   7
 39
0.100
  6
CONTINUOUS
 10
101.97000
 20
21.10000
 30
 0
 11
103.97000
 21
21.10000
  0
LINE
  8
Contour
 62
   7
 39
0.100
  6
CONTINUOUS
 10
102.97000
 20
20.10000
 30
 0
 11
102.97000
 21
22.10000
  0
LINE
  8
Contour
 62
   7
 39
0.100
  6
CONTINUOUS
 10
103.53000
 20
34.90000
 30
 0
 11
105.53000
 21
34.90000
  0
LINE
  8
Contour
 62
   7
 39
0.100
  6
CONTINUOUS
 10
104.53000
 20
33.90000
 30
 0
 11
104.53000
 21
35.90000
  0
LINE
  8
Contour
 62
   7
 39
0.100
  6
CONTINUOUS
 10
103.53000
 20
21.10000
 30
 0
 11
105.53000
 21
21.10000
  0
LINE
  8
Contour
 62
   7
 39
0.100
  6
CONTINUOUS
 10
104.53000
 20
20.10000
 30
 0
 11
104.53000
 21
22.10000
  0
LINE
  8
Contour
 62
   7
 39
0.100
  6
CONTINUOUS
 10
105.09000
 20
34.90000
 30
 0
 11
107.09000
 21
34.90000
  0
LINE
  8
Contour
 62
   7
 39
0.100
  6
CONTINUOUS
 10
106.09000
 20
33.90000
 30
 0
 11
106.09000
 21
35.90000
  0
LINE
  8
Contour
 62
   7
 39
0.100
  6
CONTINUOUS
 10
105.09000
 20
21.10000
 30
 0
 11
107.09000
 21
21.10000
  0
LINE
  8
Contour
 62
   7
 39
0.100
  6
CONTINUOUS
 10
106.09000
 20
20.10000
 30
 0
 11
106.09000
 21
22.10000
  0
LINE
  8
Contour
 62
   7
 39
0.100
  6
CONTINUOUS
 10
106.65000
 20
34.90000
 30
 0
 11
108.65000
 21
34.90000
  0
LINE
  8
Contour
 62
   7
 39
0.100
  6
CONTINUOUS
 10
107.65000
 20
33.90000
 30
 0
 11
107.65000
 21
35.90000
  0
LINE
  8
Contour
 62
   7
 39
0.100
  6
CONTINUOUS
 10
106.65000
 20
21.10000
 30
 0
 11
108.65000
 21
21.10000
  0
LINE
  8
Contour
 62
   7
 39
0.100
  6
CONTINUOUS
 10
107.65000
 20
20.10000
 30
 0
 11
107.65000
 21
22.10000
  0
LINE
  8
Contour
 62
   7
 39
0.100
  6
CONTINUOUS
 10
109.78000
 20
34.90000
 30
 0
 11
111.78000
 21
34.90000
  0
LINE
  8
Contour
 62
   7
 39
0.100
  6
CONTINUOUS
 10
110.78000
 20
33.90000
 30
 0
 11
110.78000
 21
35.90000
  0
LINE
  8
Contour
 62
   7
 39
0.100
  6
CONTINUOUS
 10
109.78000
 20
21.10000
 30
 0
 11
111.78000
 21
21.10000
  0
LINE
  8
Contour
 62
   7
 39
0.100
  6
CONTINUOUS
 10
110.78000
 20
20.10000
 30
 0
 11
110.78000
 21
22.10000
  0
LINE
  8
Contour
 62
   7
 39
0.100
  6
CONTINUOUS
 10
111.34000
 20
34.90000
 30
 0
 11
113.34000
 21
34.90000
  0
LINE
  8
Contour
 62
   7
 39
0.100
  6
CONTINUOUS
 10
112.34000
 20
33.90000
 30
 0
 11
112.34000
 21
35.90000
  0
LINE
  8
Contour
 62
   7
 39
0.100
  6
CONTINUOUS
 10
111.34000
 20
21.10000
 30
 0
 11
113.34000
 21
21.10000
  0
LINE
  8
Contour
 62
   7
 39
0.100
  6
CONTINUOUS
 10
112.34000
 20
20.10000
 30
 0
 11
112.34000
 21
22.10000
  0
LINE
  8
Contour
 62
   7
 39
0.100
  6
CONTINUOUS
 10
112.91000
 20
34.90000
 30
 0
 11
114.91000
 21
34.90000
  0
LINE
  8
Contour
 62
   7
 39
0.100
  6
CONTINUOUS
 10
113.91000
 20
33.90000
 30
 0
 11
113.91000
 21
35.90000
  0
LINE
  8
Contour
 62
   7
 39
0.100
  6
CONTINUOUS
 10
112.91000
 20
21.10000
 30
 0
 11
114.91000
 21
21.10000
  0
LINE
  8
Contour
 62
   7
 39
0.100
  6
CONTINUOUS
 10
113.91000
 20
20.10000
 30
 0
 11
113.91000
 21
22.10000
  0
LINE
  8
Contour
 62
   7
 39
0.100
  6
CONTINUOUS
 10
114.47000
 20
34.90000
 30
 0
 11
116.47000
 21
34.90000
  0
LINE
  8
Contour
 62
   7
 39
0.100
  6
CONTINUOUS
 10
115.47000
 20
33.90000
 30
 0
 11
115.47000
 21
35.90000
  0
LINE
  8
Contour
 62
   7
 39
0.100
  6
CONTINUOUS
 10
114.47000
 20
21.10000
 30
 0
 11
116.47000
 21
21.10000
  0
LINE
  8
Contour
 62
   7
 39
0.100
  6
CONTINUOUS
 10
115.47000
 20
20.10000
 30
 0
 11
115.47000
 21
22.10000
  0
LINE
  8
Contour
 62
   7
 39
0.100
  6
CONTINUOUS
 10
41.03000
 20
19.35000
 30
 0
 11
43.03000
 21
19.35000
  0
LINE
  8
Contour
 62
   7
 39
0.100
  6
CONTINUOUS
 10
42.03000
 20
18.35000
 30
 0
 11
42.03000
 21
20.35000
  0
LINE
  8
Contour
 62
   7
 39
0.100
  6
CONTINUOUS
 10
41.03000
 20
36.65000
 30
 0
 11
43.03000
 21
36.65000
  0
LINE
  8
Contour
 62
   7
 39
0.100
  6
CONTINUOUS
 10
42.03000
 20
35.65000
 30
 0
 11
42.03000
 21
37.65000
  0
LINE
  8
Contour
 62
   7
 39
0.100
  6
CONTINUOUS
 10
42.59000
 20
36.40000
 30
 0
 11
44.59000
 21
36.40000
  0
LINE
  8
Contour
 62
   7
 39
0.100
  6
CONTINUOUS
 10
43.59000
 20
35.40000
 30
 0
 11
43.59000
 21
37.40000
  0
LINE
  8
Contour
 62
   7
 39
0.100
  6
CONTINUOUS
 10
42.59000
 20
19.60000
 30
 0
 11
44.59000
 21
19.60000
  0
LINE
  8
Contour
 62
   7
 39
0.100
  6
CONTINUOUS
 10
43.59000
 20
18.60000
 30
 0
 11
43.59000
 21
20.60000
  0
LINE
  8
Contour
 62
   7
 39
0.100
  6
CONTINUOUS
 10
44.16000
 20
36.65000
 30
 0
 11
46.16000
 21
36.65000
  0
LINE
  8
Contour
 62
   7
 39
0.100
  6
CONTINUOUS
 10
45.16000
 20
35.65000
 30
 0
 11
45.16000
 21
37.65000
  0
LINE
  8
Contour
 62
   7
 39
0.100
  6
CONTINUOUS
 10
44.16000
 20
19.35000
 30
 0
 11
46.16000
 21
19.35000
  0
LINE
  8
Contour
 62
   7
 39
0.100
  6
CONTINUOUS
 10
45.16000
 20
18.35000
 30
 0
 11
45.16000
 21
20.35000
  0
LINE
  8
Contour
 62
   7
 39
0.100
  6
CONTINUOUS
 10
47.28000
 20
36.65000
 30
 0
 11
49.28000
 21
36.65000
  0
LINE
  8
Contour
 62
   7
 39
0.100
  6
CONTINUOUS
 10
48.28000
 20
35.65000
 30
 0
 11
48.28000
 21
37.65000
  0
LINE
  8
Contour
 62
   7
 39
0.100
  6
CONTINUOUS
 10
47.28000
 20
19.35000
 30
 0
 11
49.28000
 21
19.35000
  0
LINE
  8
Contour
 62
   7
 39
0.100
  6
CONTINUOUS
 10
48.28000
 20
18.35000
 30
 0
 11
48.28000
 21
20.35000
  0
LINE
  8
Contour
 62
   7
 39
0.100
  6
CONTINUOUS
 10
48.84000
 20
36.40000
 30
 0
 11
50.84000
 21
36.40000
  0
LINE
  8
Contour
 62
   7
 39
0.100
  6
CONTINUOUS
 10
49.84000
 20
35.40000
 30
 0
 11
49.84000
 21
37.40000
  0
LINE
  8
Contour
 62
   7
 39
0.100
  6
CONTINUOUS
 10
48.84000
 20
19.60000
 30
 0
 11
50.84000
 21
19.60000
  0
LINE
  8
Contour
 62
   7
 39
0.100
  6
CONTINUOUS
 10
49.84000
 20
18.60000
 30
 0
 11
49.84000
 21
20.60000
  0
LINE
  8
Contour
 62
   7
 39
0.100
  6
CONTINUOUS
 10
50.41000
 20
36.65000
 30
 0
 11
52.41000
 21
36.65000
  0
LINE
  8
Contour
 62
   7
 39
0.100
  6
CONTINUOUS
 10
51.41000
 20
35.65000
 30
 0
 11
51.41000
 21
37.65000
  0
LINE
  8
Contour
 62
   7
 39
0.100
  6
CONTINUOUS
 10
50.41000
 20
19.35000
 30
 0
 11
52.41000
 21
19.35000
  0
LINE
  8
Contour
 62
   7
 39
0.100
  6
CONTINUOUS
 10
51.41000
 20
18.35000
 30
 0
 11
51.41000
 21
20.35000
  0
LINE
  8
Contour
 62
   7
 39
0.100
  6
CONTINUOUS
 10
53.53000
 20
36.40000
 30
 0
 11
55.53000
 21
36.40000
  0
LINE
  8
Contour
 62
   7
 39
0.100
  6
CONTINUOUS
 10
54.53000
 20
35.40000
 30
 0
 11
54.53000
 21
37.40000
  0
LINE
  8
Contour
 62
   7
 39
0.100
  6
CONTINUOUS
 10
53.53000
 20
19.60000
 30
 0
 11
55.53000
 21
19.60000
  0
LINE
  8
Contour
 62
   7
 39
0.100
  6
CONTINUOUS
 10
54.53000
 20
18.60000
 30
 0
 11
54.53000
 21
20.60000
  0
LINE
  8
Contour
 62
   7
 39
0.100
  6
CONTINUOUS
 10
56.66000
 20
19.60000
 30
 0
 11
58.66000
 21
19.60000
  0
LINE
  8
Contour
 62
   7
 39
0.100
  6
CONTINUOUS
 10
57.66000
 20
18.60000
 30
 0
 11
57.66000
 21
20.60000
  0
LINE
  8
Contour
 62
   7
 39
0.100
  6
CONTINUOUS
 10
56.66000
 20
36.40000
 30
 0
 11
58.66000
 21
36.40000
  0
LINE
  8
Contour
 62
   7
 39
0.100
  6
CONTINUOUS
 10
57.66000
 20
35.40000
 30
 0
 11
57.66000
 21
37.40000
  0
LINE
  8
Contour
 62
   7
 39
0.100
  6
CONTINUOUS
 10
59.78000
 20
19.60000
 30
 0
 11
61.78000
 21
19.60000
  0
LINE
  8
Contour
 62
   7
 39
0.100
  6
CONTINUOUS
 10
60.78000
 20
18.60000
 30
 0
 11
60.78000
 21
20.60000
  0
LINE
  8
Contour
 62
   7
 39
0.100
  6
CONTINUOUS
 10
59.78000
 20
36.40000
 30
 0
 11
61.78000
 21
36.40000
  0
LINE
  8
Contour
 62
   7
 39
0.100
  6
CONTINUOUS
 10
60.78000
 20
35.40000
 30
 0
 11
60.78000
 21
37.40000
  0
LINE
  8
Contour
 62
   7
 39
0.100
  6
CONTINUOUS
 10
58.22000
 20
20.10000
 30
 0
 11
60.22000
 21
20.10000
  0
LINE
  8
Contour
 62
   7
 39
0.100
  6
CONTINUOUS
 10
59.22000
 20
19.10000
 30
 0
 11
59.22000
 21
21.10000
  0
LINE
  8
Contour
 62
   7
 39
0.100
  6
CONTINUOUS
 10
58.22000
 20
35.90000
 30
 0
 11
60.22000
 21
35.90000
  0
LINE
  8
Contour
 62
   7
 39
0.100
  6
CONTINUOUS
 10
59.22000
 20
34.90000
 30
 0
 11
59.22000
 21
36.90000
  0
LINE
  8
Contour
 62
   7
 39
0.100
  6
CONTINUOUS
 10
55.09000
 20
20.10000
 30
 0
 11
57.09000
 21
20.10000
  0
LINE
  8
Contour
 62
   7
 39
0.100
  6
CONTINUOUS
 10
56.09000
 20
19.10000
 30
 0
 11
56.09000
 21
21.10000
  0
LINE
  8
Contour
 62
   7
 39
0.100
  6
CONTINUOUS
 10
55.09000
 20
35.90000
 30
 0
 11
57.09000
 21
35.90000
  0
LINE
  8
Contour
 62
   7
 39
0.100
  6
CONTINUOUS
 10
56.09000
 20
34.90000
 30
 0
 11
56.09000
 21
36.90000
  0
LINE
  8
Contour
 62
   7
 39
0.100
  6
CONTINUOUS
 10
117.59500
 20
34.90000
 30
 0
 11
119.59500
 21
34.90000
  0
LINE
  8
Contour
 62
   7
 39
0.100
  6
CONTINUOUS
 10
118.59500
 20
33.90000
 30
 0
 11
118.59500
 21
35.90000
  0
LINE
  8
Contour
 62
   7
 39
0.100
  6
CONTINUOUS
 10
117.59500
 20
21.10000
 30
 0
 11
119.59500
 21
21.10000
  0
LINE
  8
Contour
 62
   7
 39
0.100
  6
CONTINUOUS
 10
118.59500
 20
20.10000
 30
 0
 11
118.59500
 21
22.10000
  0
LINE
  8
Contour
 62
   7
 39
0.100
  6
CONTINUOUS
 10
119.15500
 20
34.90000
 30
 0
 11
121.15500
 21
34.90000
  0
LINE
  8
Contour
 62
   7
 39
0.100
  6
CONTINUOUS
 10
120.15500
 20
33.90000
 30
 0
 11
120.15500
 21
35.90000
  0
LINE
  8
Contour
 62
   7
 39
0.100
  6
CONTINUOUS
 10
119.15500
 20
21.10000
 30
 0
 11
121.15500
 21
21.10000
  0
LINE
  8
Contour
 62
   7
 39
0.100
  6
CONTINUOUS
 10
120.15500
 20
20.10000
 30
 0
 11
120.15500
 21
22.10000
  0
LINE
  8
Contour
 62
   7
 39
0.100
  6
CONTINUOUS
 10
120.72500
 20
34.90000
 30
 0
 11
122.72500
 21
34.90000
  0
LINE
  8
Contour
 62
   7
 39
0.100
  6
CONTINUOUS
 10
121.72500
 20
33.90000
 30
 0
 11
121.72500
 21
35.90000
  0
LINE
  8
Contour
 62
   7
 39
0.100
  6
CONTINUOUS
 10
120.72500
 20
21.10000
 30
 0
 11
122.72500
 21
21.10000
  0
LINE
  8
Contour
 62
   7
 39
0.100
  6
CONTINUOUS
 10
121.72500
 20
20.10000
 30
 0
 11
121.72500
 21
22.10000
  0
LINE
  8
Contour
 62
   7
 39
0.100
  6
CONTINUOUS
 10
122.28500
 20
34.90000
 30
 0
 11
124.28500
 21
34.90000
  0
LINE
  8
Contour
 62
   7
 39
0.100
  6
CONTINUOUS
 10
123.28500
 20
33.90000
 30
 0
 11
123.28500
 21
35.90000
  0
LINE
  8
Contour
 62
   7
 39
0.100
  6
CONTINUOUS
 10
122.28500
 20
21.10000
 30
 0
 11
124.28500
 21
21.10000
  0
LINE
  8
Contour
 62
   7
 39
0.100
  6
CONTINUOUS
 10
123.28500
 20
20.10000
 30
 0
 11
123.28500
 21
22.10000
  0
LINE
  8
Contour
 62
   7
 39
0.100
  6
CONTINUOUS
 10
128.53000
 20
22.60000
 30
 0
 11
130.53000
 21
22.60000
  0
LINE
  8
Contour
 62
   7
 39
0.100
  6
CONTINUOUS
 10
129.53000
 20
21.60000
 30
 0
 11
129.53000
 21
23.60000
  0
LINE
  8
Contour
 62
   7
 39
0.100
  6
CONTINUOUS
 10
128.53000
 20
33.40000
 30
 0
 11
130.53000
 21
33.40000
  0
LINE
  8
Contour
 62
   7
 39
0.100
  6
CONTINUOUS
 10
129.53000
 20
32.40000
 30
 0
 11
129.53000
 21
34.40000
  0
LINE
  8
Contour
 62
   7
 39
0.100
  6
CONTINUOUS
 10
128.53000
 20
39.35500
 30
 0
 11
130.53000
 21
39.35500
  0
LINE
  8
Contour
 62
   7
 39
0.100
  6
CONTINUOUS
 10
129.53000
 20
38.35500
 30
 0
 11
129.53000
 21
40.35500
  0
LINE
  8
Contour
 62
   7
 39
0.100
  6
CONTINUOUS
 10
133.22000
 20
22.60000
 30
 0
 11
135.22000
 21
22.60000
  0
LINE
  8
Contour
 62
   7
 39
0.100
  6
CONTINUOUS
 10
134.22000
 20
21.60000
 30
 0
 11
134.22000
 21
23.60000
  0
LINE
  8
Contour
 62
   7
 39
0.100
  6
CONTINUOUS
 10
133.22000
 20
33.40000
 30
 0
 11
135.22000
 21
33.40000
  0
LINE
  8
Contour
 62
   7
 39
0.100
  6
CONTINUOUS
 10
134.22000
 20
32.40000
 30
 0
 11
134.22000
 21
34.40000
  0
LINE
  8
Contour
 62
   7
 39
0.100
  6
CONTINUOUS
 10
133.22000
 20
39.35500
 30
 0
 11
135.22000
 21
39.35500
  0
LINE
  8
Contour
 62
   7
 39
0.100
  6
CONTINUOUS
 10
134.22000
 20
38.35500
 30
 0
 11
134.22000
 21
40.35500
  0
LINE
  8
Contour
 62
   7
 39
0.100
  6
CONTINUOUS
 10
81.66000
 20
10.00000
 30
 0
 11
83.66000
 21
10.00000
  0
LINE
  8
Contour
 62
   7
 39
0.100
  6
CONTINUOUS
 10
82.66000
 20
9.00000
 30
 0
 11
82.66000
 21
11.00000
  0
LINE
  8
Contour
 62
   7
 39
0.100
  6
CONTINUOUS
 10
125.41000
 20
22.10000
 30
 0
 11
127.41000
 21
22.10000
  0
LINE
  8
Contour
 62
   7
 39
0.100
  6
CONTINUOUS
 10
126.41000
 20
21.10000
 30
 0
 11
126.41000
 21
23.10000
  0
LINE
  8
Contour
 62
   7
 39
0.100
  6
CONTINUOUS
 10
125.41000
 20
33.90000
 30
 0
 11
127.41000
 21
33.90000
  0
LINE
  8
Contour
 62
   7
 39
0.100
  6
CONTINUOUS
 10
126.41000
 20
32.90000
 30
 0
 11
126.41000
 21
34.90000
  0
LINE
  8
Contour
 62
   7
 39
0.100
  6
CONTINUOUS
 10
126.97000
 20
22.10000
 30
 0
 11
128.97000
 21
22.10000
  0
LINE
  8
Contour
 62
   7
 39
0.100
  6
CONTINUOUS
 10
127.97000
 20
21.10000
 30
 0
 11
127.97000
 21
23.10000
  0
LINE
  8
Contour
 62
   7
 39
0.100
  6
CONTINUOUS
 10
126.97000
 20
33.90000
 30
 0
 11
128.97000
 21
33.90000
  0
LINE
  8
Contour
 62
   7
 39
0.100
  6
CONTINUOUS
 10
127.97000
 20
32.90000
 30
 0
 11
127.97000
 21
34.90000
  0
LINE
  8
Contour
 62
   7
 39
0.100
  6
CONTINUOUS
 10
130.09000
 20
22.10000
 30
 0
 11
132.09000
 21
22.10000
  0
LINE
  8
Contour
 62
   7
 39
0.100
  6
CONTINUOUS
 10
131.09000
 20
21.10000
 30
 0
 11
131.09000
 21
23.10000
  0
LINE
  8
Contour
 62
   7
 39
0.100
  6
CONTINUOUS
 10
130.09000
 20
33.90000
 30
 0
 11
132.09000
 21
33.90000
  0
LINE
  8
Contour
 62
   7
 39
0.100
  6
CONTINUOUS
 10
131.09000
 20
32.90000
 30
 0
 11
131.09000
 21
34.90000
  0
LINE
  8
Contour
 62
   7
 39
0.100
  6
CONTINUOUS
 10
131.66000
 20
22.10000
 30
 0
 11
133.66000
 21
22.10000
  0
LINE
  8
Contour
 62
   7
 39
0.100
  6
CONTINUOUS
 10
132.66000
 20
21.10000
 30
 0
 11
132.66000
 21
23.10000
  0
LINE
  8
Contour
 62
   7
 39
0.100
  6
CONTINUOUS
 10
131.66000
 20
33.90000
 30
 0
 11
133.66000
 21
33.90000
  0
LINE
  8
Contour
 62
   7
 39
0.100
  6
CONTINUOUS
 10
132.66000
 20
32.90000
 30
 0
 11
132.66000
 21
34.90000
  0
LINE
  8
Contour
 62
   7
 39
0.100
  6
CONTINUOUS
 10
58.61000
 20
10.00000
 30
 0
 11
60.61000
 21
10.00000
  0
LINE
  8
Contour
 62
   7
 39
0.100
  6
CONTINUOUS
 10
59.61000
 20
9.00000
 30
 0
 11
59.61000
 21
11.00000
  0
LINE
  8
Contour
 62
   7
 39
0.100
  6
CONTINUOUS
 10
41.03000
 20
10.50000
 30
 0
 11
43.03000
 21
10.50000
  0
LINE
  8
Contour
 62
   7
 39
0.100
  6
CONTINUOUS
 10
42.03000
 20
9.50000
 30
 0
 11
42.03000
 21
11.50000
  0
LINE
  8
Contour
 62
   7
 39
0.100
  6
CONTINUOUS
 10
104.71000
 20
10.00000
 30
 0
 11
106.71000
 21
10.00000
  0
LINE
  8
Contour
 62
   7
 39
0.100
  6
CONTINUOUS
 10
105.71000
 20
9.00000
 30
 0
 11
105.71000
 21
11.00000
  0
LINE
  8
Contour
 62
   7
 39
0.100
  6
CONTINUOUS
 10
122.28900
 20
10.50000
 30
 0
 11
124.28900
 21
10.50000
  0
LINE
  8
Contour
 62
   7
 39
0.100
  6
CONTINUOUS
 10
123.28900
 20
9.50000
 30
 0
 11
123.28900
 21
11.50000
  0
LINE
  8
Contour
 62
   7
 39
0.100
  6
CONTINUOUS
 10
37.50000
 20
25.70000
 30
 0
 11
39.50000
 21
25.70000
  0
LINE
  8
Contour
 62
   7
 39
0.100
  6
CONTINUOUS
 10
38.50000
 20
24.70000
 30
 0
 11
38.50000
 21
26.70000
  0
LINE
  8
Contour
 62
   7
 39
0.100
  6
CONTINUOUS
 10
37.50000
 20
22.95000
 30
 0
 11
39.50000
 21
22.95000
  0
LINE
  8
Contour
 62
   7
 39
0.100
  6
CONTINUOUS
 10
38.50000
 20
21.95000
 30
 0
 11
38.50000
 21
23.95000
  0
LINE
  8
Contour
 62
   7
 39
0.100
  6
CONTINUOUS
 10
37.50000
 20
20.20000
 30
 0
 11
39.50000
 21
20.20000
  0
LINE
  8
Contour
 62
   7
 39
0.100
  6
CONTINUOUS
 10
38.50000
 20
19.20000
 30
 0
 11
38.50000
 21
21.20000
  0
LINE
  8
Contour
 62
   7
 39
0.100
  6
CONTINUOUS
 10
35.50000
 20
25.70000
 30
 0
 11
37.50000
 21
25.70000
  0
LINE
  8
Contour
 62
   7
 39
0.100
  6
CONTINUOUS
 10
36.50000
 20
24.70000
 30
 0
 11
36.50000
 21
26.70000
  0
LINE
  8
Contour
 62
   7
 39
0.100
  6
CONTINUOUS
 10
35.50000
 20
22.95000
 30
 0
 11
37.50000
 21
22.95000
  0
LINE
  8
Contour
 62
   7
 39
0.100
  6
CONTINUOUS
 10
36.50000
 20
21.95000
 30
 0
 11
36.50000
 21
23.95000
  0
LINE
  8
Contour
 62
   7
 39
0.100
  6
CONTINUOUS
 10
35.50000
 20
20.20000
 30
 0
 11
37.50000
 21
20.20000
  0
LINE
  8
Contour
 62
   7
 39
0.100
  6
CONTINUOUS
 10
36.50000
 20
19.20000
 30
 0
 11
36.50000
 21
21.20000
  0
LINE
  8
Contour
 62
   7
 39
0.100
  6
CONTINUOUS
 10
34.00000
 20
20.20000
 30
 0
 11
36.00000
 21
20.20000
  0
LINE
  8
Contour
 62
   7
 39
0.100
  6
CONTINUOUS
 10
35.00000
 20
19.20000
 30
 0
 11
35.00000
 21
21.20000
  0
LINE
  8
Contour
 62
   7
 39
0.100
  6
CONTINUOUS
 10
34.00000
 20
22.95000
 30
 0
 11
36.00000
 21
22.95000
  0
LINE
  8
Contour
 62
   7
 39
0.100
  6
CONTINUOUS
 10
35.00000
 20
21.95000
 30
 0
 11
35.00000
 21
23.95000
  0
LINE
  8
Contour
 62
   7
 39
0.100
  6
CONTINUOUS
 10
34.00000
 20
25.70000
 30
 0
 11
36.00000
 21
25.70000
  0
LINE
  8
Contour
 62
   7
 39
0.100
  6
CONTINUOUS
 10
35.00000
 20
24.70000
 30
 0
 11
35.00000
 21
26.70000
  0
LINE
  8
Contour
 62
   7
 39
0.100
  6
CONTINUOUS
 10
36.50000
 20
24.32000
 30
 0
 11
38.50000
 21
24.32000
  0
LINE
  8
Contour
 62
   7
 39
0.100
  6
CONTINUOUS
 10
37.50000
 20
23.32000
 30
 0
 11
37.50000
 21
25.32000
  0
LINE
  8
Contour
 62
   7
 39
0.100
  6
CONTINUOUS
 10
36.50000
 20
21.57000
 30
 0
 11
38.50000
 21
21.57000
  0
LINE
  8
Contour
 62
   7
 39
0.100
  6
CONTINUOUS
 10
37.50000
 20
20.57000
 30
 0
 11
37.50000
 21
22.57000
  0
LINE
  8
Contour
 62
   7
 39
0.100
  6
CONTINUOUS
 10
34.75000
 20
24.32000
 30
 0
 11
36.75000
 21
24.32000
  0
LINE
  8
Contour
 62
   7
 39
0.100
  6
CONTINUOUS
 10
35.75000
 20
23.32000
 30
 0
 11
35.75000
 21
25.32000
  0
LINE
  8
Contour
 62
   7
 39
0.100
  6
CONTINUOUS
 10
34.75000
 20
21.57000
 30
 0
 11
36.75000
 21
21.57000
  0
LINE
  8
Contour
 62
   7
 39
0.100
  6
CONTINUOUS
 10
35.75000
 20
20.57000
 30
 0
 11
35.75000
 21
22.57000
  0
LINE
  8
Contour
 62
   7
 39
0.100
  6
CONTINUOUS
 10
35.98800
 20
22.95000
 30
 0
 11
37.98800
 21
22.95000
  0
LINE
  8
Contour
 62
   7
 39
0.100
  6
CONTINUOUS
 10
36.98800
 20
21.95000
 30
 0
 11
36.98800
 21
23.95000
  0
LINE
  8
Contour
 62
   7
 39
0.100
  6
CONTINUOUS
 10
37.50000
 20
35.80000
 30
 0
 11
39.50000
 21
35.80000
  0
LINE
  8
Contour
 62
   7
 39
0.100
  6
CONTINUOUS
 10
38.50000
 20
34.80000
 30
 0
 11
38.50000
 21
36.80000
  0
LINE
  8
Contour
 62
   7
 39
0.100
  6
CONTINUOUS
 10
37.50000
 20
33.05000
 30
 0
 11
39.50000
 21
33.05000
  0
LINE
  8
Contour
 62
   7
 39
0.100
  6
CONTINUOUS
 10
38.50000
 20
32.05000
 30
 0
 11
38.50000
 21
34.05000
  0
LINE
  8
Contour
 62
   7
 39
0.100
  6
CONTINUOUS
 10
37.50000
 20
30.30000
 30
 0
 11
39.50000
 21
30.30000
  0
LINE
  8
Contour
 62
   7
 39
0.100
  6
CONTINUOUS
 10
38.50000
 20
29.30000
 30
 0
 11
38.50000
 21
31.30000
  0
LINE
  8
Contour
 62
   7
 39
0.100
  6
CONTINUOUS
 10
35.50000
 20
35.80000
 30
 0
 11
37.50000
 21
35.80000
  0
LINE
  8
Contour
 62
   7
 39
0.100
  6
CONTINUOUS
 10
36.50000
 20
34.80000
 30
 0
 11
36.50000
 21
36.80000
  0
LINE
  8
Contour
 62
   7
 39
0.100
  6
CONTINUOUS
 10
35.50000
 20
33.05000
 30
 0
 11
37.50000
 21
33.05000
  0
LINE
  8
Contour
 62
   7
 39
0.100
  6
CONTINUOUS
 10
36.50000
 20
32.05000
 30
 0
 11
36.50000
 21
34.05000
  0
LINE
  8
Contour
 62
   7
 39
0.100
  6
CONTINUOUS
 10
35.50000
 20
30.30000
 30
 0
 11
37.50000
 21
30.30000
  0
LINE
  8
Contour
 62
   7
 39
0.100
  6
CONTINUOUS
 10
36.50000
 20
29.30000
 30
 0
 11
36.50000
 21
31.30000
  0
LINE
  8
Contour
 62
   7
 39
0.100
  6
CONTINUOUS
 10
34.00000
 20
30.30000
 30
 0
 11
36.00000
 21
30.30000
  0
LINE
  8
Contour
 62
   7
 39
0.100
  6
CONTINUOUS
 10
35.00000
 20
29.30000
 30
 0
 11
35.00000
 21
31.30000
  0
LINE
  8
Contour
 62
   7
 39
0.100
  6
CONTINUOUS
 10
34.00000
 20
33.05000
 30
 0
 11
36.00000
 21
33.05000
  0
LINE
  8
Contour
 62
   7
 39
0.100
  6
CONTINUOUS
 10
35.00000
 20
32.05000
 30
 0
 11
35.00000
 21
34.05000
  0
LINE
  8
Contour
 62
   7
 39
0.100
  6
CONTINUOUS
 10
34.00000
 20
35.80000
 30
 0
 11
36.00000
 21
35.80000
  0
LINE
  8
Contour
 62
   7
 39
0.100
  6
CONTINUOUS
 10
35.00000
 20
34.80000
 30
 0
 11
35.00000
 21
36.80000
  0
LINE
  8
Contour
 62
   7
 39
0.100
  6
CONTINUOUS
 10
36.50000
 20
34.42000
 30
 0
 11
38.50000
 21
34.42000
  0
LINE
  8
Contour
 62
   7
 39
0.100
  6
CONTINUOUS
 10
37.50000
 20
33.42000
 30
 0
 11
37.50000
 21
35.42000
  0
LINE
  8
Contour
 62
   7
 39
0.100
  6
CONTINUOUS
 10
36.50000
 20
31.67000
 30
 0
 11
38.50000
 21
31.67000
  0
LINE
  8
Contour
 62
   7
 39
0.100
  6
CONTINUOUS
 10
37.50000
 20
30.67000
 30
 0
 11
37.50000
 21
32.67000
  0
LINE
  8
Contour
 62
   7
 39
0.100
  6
CONTINUOUS
 10
34.75000
 20
34.42000
 30
 0
 11
36.75000
 21
34.42000
  0
LINE
  8
Contour
 62
   7
 39
0.100
  6
CONTINUOUS
 10
35.75000
 20
33.42000
 30
 0
 11
35.75000
 21
35.42000
  0
LINE
  8
Contour
 62
   7
 39
0.100
  6
CONTINUOUS
 10
34.75000
 20
31.67000
 30
 0
 11
36.75000
 21
31.67000
  0
LINE
  8
Contour
 62
   7
 39
0.100
  6
CONTINUOUS
 10
35.75000
 20
30.67000
 30
 0
 11
35.75000
 21
32.67000
  0
LINE
  8
Contour
 62
   7
 39
0.100
  6
CONTINUOUS
 10
35.98800
 20
33.05000
 30
 0
 11
37.98800
 21
33.05000
  0
LINE
  8
Contour
 62
   7
 39
0.100
  6
CONTINUOUS
 10
36.98800
 20
32.05000
 30
 0
 11
36.98800
 21
34.05000
  0
ENDSEC
  0
EOF
