<?xml version="1.0" standalone="no"?>
<!DOCTYPE svg PUBLIC "-//W3C//DTD SVG 1.1//EN" "http://www.w3.org/Graphics/SVG/1.1/DTD/svg11.dtd">
<svg width="170mm" height="52mm" viewBox="-85 -26 170 52" xmlns="http://www.w3.org/2000/svg" version="1.1">
<title>OpenSCAD Model</title>
<path d="
M 85,-26 L -85,-26 L -85,26 L 85,26 z
M -60.0942,1.49704 L -60.2811,1.47342 L -60.4635,1.42657 L -60.6387,1.35724 L -60.8037,1.26648 L -60.9561,1.15576
 L -61.0934,1.02681 L -61.2135,0.881668 L -61.3145,0.722626 L -61.3947,0.552185 L -61.4529,0.373032 L -61.4882,0.187988
 L -61.5,-0 L -61.4882,-0.187988 L -61.4529,-0.373032 L -61.3947,-0.552185 L -61.3145,-0.722626 L -61.2135,-0.881668
 L -61.0934,-1.02681 L -60.9561,-1.15576 L -60.8037,-1.26648 L -60.6387,-1.35724 L -60.4635,-1.42657 L -60.2811,-1.47342
 L -60.0942,-1.49704 L -59.9058,-1.49704 L -59.7189,-1.47342 L -59.5365,-1.42657 L -59.3613,-1.35724 L -59.1963,-1.26648
 L -59.0439,-1.15576 L -58.9065,-1.02681 L -58.7865,-0.881668 L -58.6855,-0.722626 L -58.6053,-0.552185 L -58.5471,-0.373032
 L -58.5118,-0.187988 L -58.5,-0 L -58.5118,0.187988 L -58.5471,0.373032 L -58.6053,0.552185 L -58.6855,0.722626
 L -58.7865,0.881668 L -58.9065,1.02681 L -59.0439,1.15576 L -59.1963,1.26648 L -59.3613,1.35724 L -59.5365,1.42657
 L -59.7189,1.47342 L -59.9058,1.49704 z
M 59.9058,1.49704 L 59.7189,1.47342 L 59.5365,1.42657 L 59.3613,1.35724 L 59.1963,1.26648 L 59.0439,1.15576
 L 58.9065,1.02681 L 58.7865,0.881668 L 58.6855,0.722626 L 58.6053,0.552185 L 58.5471,0.373032 L 58.5118,0.187988
 L 58.5,-0 L 58.5118,-0.187988 L 58.5471,-0.373032 L 58.6053,-0.552185 L 58.6855,-0.722626 L 58.7865,-0.881668
 L 58.9065,-1.02681 L 59.0439,-1.15576 L 59.1963,-1.26648 L 59.3613,-1.35724 L 59.5365,-1.42657 L 59.7189,-1.47342
 L 59.9058,-1.49704 L 60.0942,-1.49704 L 60.2811,-1.47342 L 60.4635,-1.42657 L 60.6387,-1.35724 L 60.8037,-1.26648
 L 60.9561,-1.15576 L 61.0934,-1.02681 L 61.2135,-0.881668 L 61.3145,-0.722626 L 61.3947,-0.552185 L 61.4529,-0.373032
 L 61.4882,-0.187988 L 61.5,-0 L 61.4882,0.187988 L 61.4529,0.373032 L 61.3947,0.552185 L 61.3145,0.722626
 L 61.2135,0.881668 L 61.0934,1.02681 L 60.9561,1.15576 L 60.8037,1.26648 L 60.6387,1.35724 L 60.4635,1.42657
 L 60.2811,1.47342 L 60.0942,1.49704 z
M -50.5942,1.49704 L -50.7811,1.47342 L -50.9635,1.42657 L -51.1387,1.35724 L -51.3037,1.26648 L -51.4561,1.15576
 L -51.5934,1.02681 L -51.7135,0.881668 L -51.8145,0.722626 L -51.8947,0.552185 L -51.9529,0.373032 L -51.9882,0.187988
 L -52,-0 L -51.9882,-0.187988 L -51.9529,-0.373032 L -51.8947,-0.552185 L -51.8145,-0.722626 L -51.7135,-0.881668
 L -51.5934,-1.02681 L -51.4561,-1.15576 L -51.3037,-1.26648 L -51.1387,-1.35724 L -50.9635,-1.42657 L -50.7811,-1.47342
 L -50.5942,-1.49704 L 50.5942,-1.49704 L 50.7811,-1.47342 L 50.9635,-1.42657 L 51.1387,-1.35724 L 51.3037,-1.26648
 L 51.4561,-1.15576 L 51.5934,-1.02681 L 51.7135,-0.881668 L 51.8145,-0.722626 L 51.8947,-0.552185 L 51.9529,-0.373032
 L 51.9882,-0.187988 L 52,-0 L 51.9882,0.187988 L 51.9529,0.373032 L 51.8947,0.552185 L 51.8145,0.722626
 L 51.7135,0.881668 L 51.5934,1.02681 L 51.4561,1.15576 L 51.3037,1.26648 L 51.1387,1.35724 L 50.9635,1.42657
 L 50.7811,1.47342 L 50.5942,1.49704 z
" stroke="blue" fill="none" stroke-width="0.01"/>
<path d="
M -27.1603,-15.6876 L -26.9841,-15.7292 L -26.8221,-15.7973 L -26.6816,-15.8903 L -26.5643,-16.009 L -26.474,-16.1523
 L -26.4155,-16.3199 L -26.396,-16.5094 L -26.4256,-16.7104 L -26.5129,-16.8776 L -26.6499,-17.0032 L -26.8401,-17.079
 L -26.8716,-17.1255 L -26.8716,-17.1335 L -26.8431,-17.1786 L -26.6873,-17.2528 L -26.5821,-17.3662 L -26.5179,-17.515
 L -26.496,-17.6877 L -26.5147,-17.8462 L -26.5707,-17.9842 L -26.6566,-18.1045 L -26.766,-18.2055 L -26.8952,-18.2854
 L -27.0404,-18.3426 L -27.1944,-18.3777 L -27.3484,-18.3893 L -27.5372,-18.3733 L -27.7062,-18.3257 L -27.854,-18.2495
 L -27.9789,-18.1471 L -28.0798,-18.0211 L -28.1559,-17.871 L -28.2057,-17.7001 L -28.2216,-17.5615 L -27.8029,-17.5615
 L -27.785,-17.7076 L -27.78,-17.724 L -27.7022,-17.878 L -27.6882,-17.895 L -27.5567,-17.997 L -27.5353,-18.0066
 L -27.3528,-18.0406 L -27.3354,-18.0408 L -27.1942,-18.0173 L -27.1776,-18.0114 L -27.0539,-17.9409 L -27.0387,-17.9276
 L -26.9525,-17.8131 L -26.9432,-17.7921 L -26.9145,-17.6366 L -26.9141,-17.6209 L -26.9281,-17.5154 L -26.9331,-17.4993
 L -26.9751,-17.4168 L -26.9848,-17.4037 L -27.0483,-17.3419 L -27.0582,-17.3344 L -27.1459,-17.285 L -27.2433,-17.2534
 L -27.3458,-17.2375 L -27.4465,-17.234 L -27.4856,-17.2355 L -27.4856,-16.9528 L -27.3212,-16.9471 L -27.2076,-16.9316
 L -27.1111,-16.9024 L -27.1008,-16.8979 L -27.0163,-16.8497 L -27.0049,-16.8408 L -26.9375,-16.77 L -26.9281,-16.7561
 L -26.8831,-16.6566 L -26.8789,-16.6415 L -26.8639,-16.505 L -26.8644,-16.4907 L -26.8961,-16.3127 L -26.9044,-16.2928
 L -26.9997,-16.1568 L -27.0147,-16.1428 L -27.1554,-16.0573 L -27.1731,-16.0507 L -27.3434,-16.0222 L -27.3563,-16.0217
 L -27.4673,-16.0322 L -27.4784,-16.0345 L -27.5734,-16.0661 L -27.5841,-16.0711 L -27.6631,-16.1203 L -27.6716,-16.1271
 L -27.7366,-16.1908 L -27.7435,-16.1993 L -27.7984,-16.2853 L -27.8383,-16.3841 L -27.8629,-16.4908 L -27.8688,-16.5505
 L -28.2892,-16.5505 L -28.2783,-16.3879 L -28.2287,-16.2036 L -28.1479,-16.0467 L -28.0397,-15.9158 L -27.9038,-15.8123
 L -27.7408,-15.7359 L -27.5529,-15.6893 L -27.3447,-15.6737 z
M 32.5531,-15.6876 L 32.7292,-15.7292 L 32.8913,-15.7973 L 33.0318,-15.8903 L 33.1491,-16.009 L 33.2394,-16.1523
 L 33.2979,-16.3199 L 33.3174,-16.5094 L 33.2878,-16.7104 L 33.2005,-16.8776 L 33.0635,-17.0032 L 32.8732,-17.079
 L 32.8418,-17.1255 L 32.8418,-17.1335 L 32.8703,-17.1786 L 33.0261,-17.2528 L 33.1313,-17.3662 L 33.1955,-17.515
 L 33.2174,-17.6877 L 33.1987,-17.8462 L 33.1427,-17.9842 L 33.0568,-18.1045 L 32.9474,-18.2055 L 32.8182,-18.2854
 L 32.673,-18.3426 L 32.519,-18.3777 L 32.365,-18.3893 L 32.1762,-18.3733 L 32.0072,-18.3257 L 31.8594,-18.2495
 L 31.7345,-18.1471 L 31.6335,-18.0211 L 31.5575,-17.871 L 31.5077,-17.7001 L 31.4918,-17.5615 L 31.9105,-17.5615
 L 31.9284,-17.7076 L 31.9334,-17.724 L 32.0111,-17.878 L 32.0251,-17.895 L 32.1566,-17.997 L 32.1781,-18.0066
 L 32.3606,-18.0406 L 32.378,-18.0408 L 32.5192,-18.0173 L 32.5358,-18.0114 L 32.6595,-17.9409 L 32.6747,-17.9276
 L 32.7609,-17.8131 L 32.7702,-17.7921 L 32.7989,-17.6366 L 32.7993,-17.6209 L 32.7853,-17.5154 L 32.7803,-17.4993
 L 32.7383,-17.4168 L 32.7286,-17.4037 L 32.6651,-17.3419 L 32.6552,-17.3344 L 32.5675,-17.285 L 32.4701,-17.2534
 L 32.3676,-17.2375 L 32.2668,-17.234 L 32.2278,-17.2355 L 32.2278,-16.9528 L 32.3922,-16.9471 L 32.5058,-16.9316
 L 32.6023,-16.9024 L 32.6126,-16.8979 L 32.6971,-16.8497 L 32.7085,-16.8408 L 32.7759,-16.77 L 32.7853,-16.7561
 L 32.8303,-16.6566 L 32.8345,-16.6415 L 32.8495,-16.505 L 32.849,-16.4907 L 32.8172,-16.3127 L 32.809,-16.2928
 L 32.7137,-16.1568 L 32.6987,-16.1428 L 32.558,-16.0573 L 32.5403,-16.0507 L 32.37,-16.0222 L 32.3571,-16.0217
 L 32.246,-16.0322 L 32.235,-16.0345 L 32.14,-16.0661 L 32.1293,-16.0711 L 32.0503,-16.1203 L 32.0418,-16.1271
 L 31.9768,-16.1908 L 31.9698,-16.1993 L 31.915,-16.2853 L 31.8751,-16.3841 L 31.8505,-16.4908 L 31.8445,-16.5505
 L 31.4242,-16.5505 L 31.4351,-16.3879 L 31.4846,-16.2036 L 31.5655,-16.0467 L 31.6736,-15.9158 L 31.8096,-15.8123
 L 31.9725,-15.7359 L 32.1604,-15.6893 L 32.3687,-15.6737 z
M 48.1267,-15.6902 L 48.3009,-15.7391 L 48.4584,-15.8264 L 48.5961,-15.9576 L 48.7124,-16.1386 L 48.8017,-16.3752
 L 48.8595,-16.6741 L 48.8789,-17.0414 L 48.8595,-17.3988 L 48.8018,-17.6916 L 48.7124,-17.9253 L 48.5962,-18.1054
 L 48.4585,-18.2363 L 48.3009,-18.323 L 48.1266,-18.3726 L 47.939,-18.3893 L 47.7534,-18.3726 L 47.5792,-18.323
 L 47.4226,-18.2364 L 47.286,-18.1056 L 47.1716,-17.9254 L 47.0822,-17.6916 L 47.0252,-17.3989 L 47.0061,-17.0414
 L 47.0252,-16.6741 L 47.0823,-16.3751 L 47.1717,-16.1384 L 47.286,-15.9574 L 47.4227,-15.8263 L 47.5792,-15.7391
 L 47.7533,-15.6902 L 47.939,-15.6737 z
M 47.9298,-16.0224 L 47.7838,-16.0496 L 47.7628,-16.0589 L 47.6548,-16.1406 L 47.6428,-16.1537 L 47.5665,-16.2737
 L 47.5619,-16.2831 L 47.507,-16.4325 L 47.4742,-16.5944 L 47.458,-16.7598 L 47.4527,-16.9142 L 47.4515,-17.1216
 L 47.453,-17.2146 L 47.4574,-17.3172 L 47.4666,-17.4239 L 47.483,-17.532 L 47.5075,-17.6402 L 47.5424,-17.7441
 L 47.5897,-17.8381 L 47.6442,-17.9121 L 47.6519,-17.9204 L 47.7194,-17.9784 L 47.7313,-17.986 L 47.8156,-18.0243
 L 47.8301,-18.0284 L 47.9328,-18.0411 L 47.9452,-18.0411 L 48.0477,-18.0284 L 48.0619,-18.0244 L 48.1474,-17.9861
 L 48.1589,-17.979 L 48.2289,-17.921 L 48.2369,-17.9127 L 48.2976,-17.8311 L 48.3443,-17.7372 L 48.3769,-17.6349
 L 48.3994,-17.5286 L 48.4157,-17.4218 L 48.4269,-17.3155 L 48.432,-17.2131 L 48.434,-17.0427 L 48.4319,-16.9126
 L 48.4258,-16.7567 L 48.4095,-16.5891 L 48.3749,-16.4252 L 48.3224,-16.2832 L 48.3175,-16.2734 L 48.24,-16.1534
 L 48.2279,-16.1404 L 48.1181,-16.0587 L 48.0972,-16.0496 L 47.948,-16.0223 z
M 34.6267,-15.6902 L 34.8009,-15.7391 L 34.9584,-15.8264 L 35.0961,-15.9576 L 35.2124,-16.1386 L 35.3017,-16.3752
 L 35.3595,-16.6741 L 35.3789,-17.0414 L 35.3595,-17.3988 L 35.3018,-17.6916 L 35.2124,-17.9253 L 35.0962,-18.1054
 L 34.9585,-18.2363 L 34.8009,-18.323 L 34.6266,-18.3726 L 34.439,-18.3893 L 34.2534,-18.3726 L 34.0792,-18.323
 L 33.9226,-18.2364 L 33.786,-18.1056 L 33.6716,-17.9254 L 33.5822,-17.6916 L 33.5252,-17.3989 L 33.5061,-17.0414
 L 33.5252,-16.6741 L 33.5823,-16.3751 L 33.6717,-16.1384 L 33.786,-15.9574 L 33.9227,-15.8263 L 34.0792,-15.7391
 L 34.2533,-15.6902 L 34.439,-15.6737 z
M 34.4298,-16.0224 L 34.2838,-16.0496 L 34.2628,-16.0589 L 34.1548,-16.1406 L 34.1428,-16.1537 L 34.0665,-16.2737
 L 34.0619,-16.2831 L 34.007,-16.4325 L 33.9742,-16.5944 L 33.958,-16.7598 L 33.9527,-16.9142 L 33.9515,-17.1216
 L 33.953,-17.2146 L 33.9574,-17.3172 L 33.9666,-17.4239 L 33.983,-17.532 L 34.0075,-17.6402 L 34.0424,-17.7441
 L 34.0897,-17.8381 L 34.1442,-17.9121 L 34.1519,-17.9204 L 34.2194,-17.9784 L 34.2313,-17.986 L 34.3156,-18.0243
 L 34.3301,-18.0284 L 34.4328,-18.0411 L 34.4452,-18.0411 L 34.5477,-18.0284 L 34.5619,-18.0244 L 34.6474,-17.9861
 L 34.6589,-17.979 L 34.7289,-17.921 L 34.7369,-17.9127 L 34.7976,-17.8311 L 34.8443,-17.7372 L 34.8769,-17.6349
 L 34.8994,-17.5286 L 34.9157,-17.4218 L 34.9269,-17.3155 L 34.932,-17.2131 L 34.934,-17.0427 L 34.9319,-16.9126
 L 34.9258,-16.7567 L 34.9095,-16.5891 L 34.8749,-16.4252 L 34.8224,-16.2832 L 34.8175,-16.2734 L 34.74,-16.1534
 L 34.7279,-16.1404 L 34.6181,-16.0587 L 34.5972,-16.0496 L 34.448,-16.0223 z
M -40.6599,-15.6902 L -40.4857,-15.7391 L -40.3282,-15.8264 L -40.1905,-15.9576 L -40.0743,-16.1386 L -39.9849,-16.3752
 L -39.9271,-16.6741 L -39.9077,-17.0414 L -39.9271,-17.3988 L -39.9849,-17.6916 L -40.0742,-17.9253 L -40.1904,-18.1054
 L -40.3282,-18.2363 L -40.4858,-18.323 L -40.66,-18.3726 L -40.8476,-18.3893 L -41.0332,-18.3726 L -41.2074,-18.323
 L -41.364,-18.2364 L -41.5006,-18.1056 L -41.615,-17.9254 L -41.7044,-17.6916 L -41.7614,-17.3989 L -41.7805,-17.0414
 L -41.7614,-16.6741 L -41.7043,-16.3751 L -41.6149,-16.1384 L -41.5006,-15.9574 L -41.3639,-15.8263 L -41.2074,-15.7391
 L -41.0333,-15.6902 L -40.8476,-15.6737 z
M -40.8568,-16.0224 L -41.0028,-16.0496 L -41.0238,-16.0589 L -41.1318,-16.1406 L -41.1438,-16.1537 L -41.2201,-16.2737
 L -41.2247,-16.2831 L -41.2796,-16.4325 L -41.3124,-16.5944 L -41.3286,-16.7598 L -41.3339,-16.9142 L -41.3351,-17.1216
 L -41.3336,-17.2146 L -41.3292,-17.3172 L -41.3201,-17.4239 L -41.3036,-17.532 L -41.2791,-17.6402 L -41.2442,-17.7441
 L -41.1969,-17.8381 L -41.1424,-17.9121 L -41.1347,-17.9204 L -41.0672,-17.9784 L -41.0553,-17.986 L -40.971,-18.0243
 L -40.9565,-18.0284 L -40.8538,-18.0411 L -40.8415,-18.0411 L -40.739,-18.0284 L -40.7247,-18.0244 L -40.6392,-17.9861
 L -40.6277,-17.979 L -40.5577,-17.921 L -40.5498,-17.9127 L -40.489,-17.8311 L -40.4423,-17.7372 L -40.4097,-17.6349
 L -40.3872,-17.5286 L -40.3709,-17.4218 L -40.3597,-17.3155 L -40.3546,-17.2131 L -40.3526,-17.0427 L -40.3547,-16.9126
 L -40.3609,-16.7567 L -40.3772,-16.5891 L -40.4117,-16.4252 L -40.4642,-16.2832 L -40.4691,-16.2734 L -40.5466,-16.1534
 L -40.5588,-16.1404 L -40.6685,-16.0587 L -40.6894,-16.0496 L -40.8386,-16.0223 z
M 46.1072,-15.6916 L 46.279,-15.7447 L 46.4311,-15.829 L 46.5603,-15.9401 L 46.6645,-16.0762 L 46.7417,-16.2341
 L 46.7896,-16.4115 L 46.8056,-16.6036 L 46.7937,-16.7558 L 46.7581,-16.9057 L 46.6976,-17.0462 L 46.6112,-17.169
 L 46.4911,-17.2757 L 46.3471,-17.3587 L 46.1899,-17.4116 L 46.0293,-17.4292 L 45.8556,-17.4139 L 45.7054,-17.3685
 L 45.5765,-17.2894 L 45.4604,-17.1645 L 45.3884,-17.1632 L 45.3804,-17.1712 L 45.3659,-17.2104 L 45.3761,-17.3378
 L 45.3981,-17.4812 L 45.4344,-17.6301 L 45.4873,-17.7712 L 45.5553,-17.8909 L 45.5614,-17.8994 L 45.6494,-17.9987
 L 45.6606,-18.0081 L 45.7706,-18.0756 L 45.7885,-18.0823 L 45.9225,-18.1048 L 45.9415,-18.1043 L 46.072,-18.0756
 L 46.0926,-18.0658 L 46.2001,-17.9795 L 46.211,-17.9672 L 46.2898,-17.8424 L 46.2953,-17.8304 L 46.3287,-17.7215
 L 46.7486,-17.7215 L 46.7262,-17.8322 L 46.669,-17.9767 L 46.5908,-18.0999 L 46.4933,-18.2012 L 46.3775,-18.2812
 L 46.2444,-18.34 L 46.0976,-18.377 L 45.9398,-18.3893 L 45.686,-18.3587 L 45.4769,-18.2683 L 45.3056,-18.1294
 L 45.1671,-17.9534 L 45.0614,-17.7463 L 44.9885,-17.5139 L 44.9468,-17.2679 L 44.9328,-17.0212 L 44.9441,-16.7693
 L 44.9779,-16.5225 L 45.0401,-16.293 L 45.1365,-16.091 L 45.2684,-15.9218 L 45.4371,-15.7892 L 45.6501,-15.7029
 L 45.9161,-15.6738 z
M 45.7961,-16.0326 L 45.7841,-16.0354 L 45.6973,-16.0676 L 45.6864,-16.0733 L 45.6046,-16.131 L 45.5363,-16.204
 L 45.4839,-16.2894 L 45.4461,-16.3842 L 45.4232,-16.4852 L 45.4159,-16.5869 L 45.4236,-16.6936 L 45.4461,-16.7964
 L 45.4836,-16.8919 L 45.5302,-16.9677 L 45.5367,-16.9762 L 45.5977,-17.0396 L 45.6066,-17.047 L 45.6816,-17.0955
 L 45.6921,-17.1006 L 45.7814,-17.1321 L 45.7929,-17.1347 L 45.8946,-17.1452 L 45.9056,-17.1451 L 46.0031,-17.1337
 L 46.0162,-17.1303 L 46.1007,-17.0958 L 46.1111,-17.09 L 46.1829,-17.038 L 46.1913,-17.0303 L 46.2543,-16.9561
 L 46.3016,-16.871 L 46.3348,-16.7763 L 46.3544,-16.676 L 46.3606,-16.5719 L 46.3528,-16.4715 L 46.3303,-16.3722
 L 46.2925,-16.2781 L 46.2395,-16.1946 L 46.1737,-16.1246 L 46.1042,-16.0741 L 46.0932,-16.068 L 46.012,-16.0358
 L 45.9992,-16.0326 L 45.9055,-16.0218 L 45.8943,-16.0218 z
M 39.6018,-16.3275 L 39.6518,-16.3775 L 39.9688,-16.3775 L 39.9688,-16.5335 L 39.6518,-16.5335 L 39.6018,-16.5835
 L 39.6018,-18.3255 L 39.4186,-18.3255 L 38.2088,-16.6206 L 38.2088,-16.3775 L 39.3468,-16.3775 L 39.3968,-16.3275
 L 39.3968,-15.7375 L 39.6018,-15.7375 z
M 38.4378,-16.5335 L 38.3902,-16.5681 L 38.3963,-16.6115 L 39.2973,-17.9445 L 39.3388,-17.9665 L 39.3468,-17.9665
 L 39.3968,-17.9165 L 39.3968,-16.5835 L 39.3468,-16.5335 z
M -12.3882,-18.3255 L -12.5489,-18.3255 L -12.5767,-18.222 L -12.581,-18.2112 L -12.6422,-18.0977 L -12.6492,-18.0879
 L -12.7301,-17.9984 L -12.7384,-17.9911 L -12.8442,-17.9177 L -12.9636,-17.8662 L -13.0933,-17.8349 L -13.2285,-17.8188
 L -13.3162,-17.8154 L -13.3162,-17.6575 L -12.6632,-17.6575 L -12.6132,-17.6075 L -12.6132,-15.7375 L -12.3882,-15.7375
 z
M -1.13824,-18.3255 L -1.29889,-18.3255 L -1.32669,-18.222 L -1.33098,-18.2112 L -1.39223,-18.0977 L -1.39915,-18.0879
 L -1.48015,-17.9984 L -1.48839,-17.9911 L -1.59416,-17.9177 L -1.71361,-17.8662 L -1.84328,-17.8349 L -1.97855,-17.8188
 L -2.06624,-17.8154 L -2.06624,-17.6575 L -1.41324,-17.6575 L -1.36324,-17.6075 L -1.36324,-15.7375 L -1.13824,-15.7375
 z
M -36.1016,-18.3255 L -36.2623,-18.3255 L -36.2901,-18.222 L -36.2944,-18.2112 L -36.3556,-18.0977 L -36.3625,-18.0879
 L -36.4435,-17.9984 L -36.4518,-17.9911 L -36.5575,-17.9177 L -36.677,-17.8662 L -36.8067,-17.8349 L -36.9419,-17.8188
 L -37.0296,-17.8154 L -37.0296,-17.6575 L -36.3766,-17.6575 L -36.3266,-17.6075 L -36.3266,-15.7375 L -36.1016,-15.7375
 z
M 10.6118,-15.8935 L 9.27176,-15.8935 L 9.22386,-15.9578 L 9.25961,-16.0773 L 9.26437,-16.0883 L 9.3311,-16.2004
 L 9.41788,-16.2992 L 9.51881,-16.3895 L 9.632,-16.4741 L 9.75407,-16.5524 L 10.0049,-16.7027 L 10.1275,-16.7845
 L 10.2451,-16.869 L 10.3535,-16.9593 L 10.447,-17.0583 L 10.5254,-17.1691 L 10.5859,-17.2924 L 10.6253,-17.4319
 L 10.6386,-17.5923 L 10.6227,-17.763 L 10.5758,-17.91 L 10.5026,-18.034 L 10.4069,-18.1354 L 10.291,-18.2162
 L 10.1546,-18.276 L 10.0033,-18.313 L 9.84087,-18.3253 L 9.6469,-18.3098 L 9.47687,-18.2636 L 9.33231,-18.1898
 L 9.21461,-18.0911 L 9.12405,-17.9667 L 9.05978,-17.8147 L 9.02464,-17.6404 L 9.02104,-17.4975 L 9.24638,-17.4975
 L 9.24944,-17.5772 L 9.27132,-17.7052 L 9.31299,-17.8281 L 9.37473,-17.9379 L 9.44873,-18.0247 L 9.45699,-18.0324
 L 9.54898,-18.1006 L 9.56036,-18.107 L 9.67212,-18.1512 L 9.68494,-18.1544 L 9.82596,-18.1693 L 9.93871,-18.159
 L 10.0449,-18.1298 L 10.1432,-18.0828 L 10.2271,-18.0188 L 10.2967,-17.9392 L 10.3502,-17.8452 L 10.3817,-17.7499
 L 10.384,-17.7392 L 10.3946,-17.6244 L 10.3819,-17.4814 L 10.3489,-17.3649 L 10.345,-17.3551 L 10.2855,-17.2443
 L 10.2051,-17.1431 L 10.104,-17.0482 L 9.98271,-16.956 L 9.84158,-16.861 L 9.6803,-16.7571 L 9.54218,-16.6707
 L 9.41232,-16.5799 L 9.29366,-16.4796 L 9.18793,-16.3652 L 9.09824,-16.2343 L 9.02565,-16.0817 L 8.97356,-15.9012
 L 8.9511,-15.7375 L 10.6118,-15.7375 z
M 12.1257,-15.7515 L 12.2812,-15.7925 L 12.4083,-15.8563 L 12.5117,-15.9393 L 12.5946,-16.0403 L 12.6584,-16.1573
 L 12.7072,-16.2885 L 12.743,-16.4288 L 12.7673,-16.5765 L 12.7801,-16.7285 L 12.786,-16.8802 L 12.788,-17.0275
 L 12.786,-17.1752 L 12.7801,-17.3264 L 12.7673,-17.4782 L 12.743,-17.6254 L 12.7072,-17.7665 L 12.6583,-17.8989
 L 12.5944,-18.0182 L 12.5115,-18.1199 L 12.4078,-18.2037 L 12.2789,-18.2686 L 12.1234,-18.311 L 11.937,-18.3253
 L 11.7496,-18.311 L 11.593,-18.2686 L 11.4648,-18.2038 L 11.3605,-18.1199 L 11.278,-18.0181 L 11.2137,-17.8989
 L 11.1653,-17.7667 L 11.129,-17.6253 L 11.1051,-17.4781 L 11.0919,-17.3266 L 11.0867,-17.1751 L 11.085,-17.0275
 L 11.0867,-16.8801 L 11.0919,-16.7284 L 11.1051,-16.5765 L 11.129,-16.4287 L 11.1653,-16.2885 L 11.2137,-16.1572
 L 11.2778,-16.0404 L 11.3604,-15.9393 L 11.4645,-15.8564 L 11.5926,-15.7926 L 11.7493,-15.7515 L 11.937,-15.7376
 z
M 11.9294,-15.8941 L 11.7453,-15.9226 L 11.7267,-15.9295 L 11.5887,-16.015 L 11.5754,-16.0269 L 11.4769,-16.1544
 L 11.4708,-16.1648 L 11.4003,-16.326 L 11.3586,-16.5035 L 11.338,-16.6896 L 11.3313,-16.8708 L 11.329,-17.034
 L 11.3311,-17.2549 L 11.3371,-17.378 L 11.3507,-17.5011 L 11.3722,-17.6229 L 11.4022,-17.7441 L 11.4466,-17.8597
 L 11.5081,-17.9602 L 11.5791,-18.038 L 11.5872,-18.0451 L 11.6742,-18.1064 L 11.6852,-18.1122 L 11.7917,-18.1527
 L 11.8042,-18.1557 L 11.9317,-18.1692 L 11.9423,-18.1692 L 12.0688,-18.1557 L 12.0814,-18.1527 L 12.1869,-18.1122
 L 12.1976,-18.1065 L 12.2854,-18.0452 L 12.2936,-18.038 L 12.3709,-17.9521 L 12.4301,-17.8513 L 12.4715,-17.7387
 L 12.5012,-17.6197 L 12.5227,-17.498 L 12.5362,-17.3749 L 12.542,-17.2529 L 12.544,-17.0327 L 12.5414,-16.8694
 L 12.5337,-16.6861 L 12.5129,-16.4973 L 12.4688,-16.3174 L 12.4018,-16.1649 L 12.3955,-16.1543 L 12.2965,-16.0268
 L 12.2835,-16.0151 L 12.1465,-15.9296 L 12.1277,-15.9226 L 11.9447,-15.8941 z
M -31.1016,-15.8935 L -32.4416,-15.8935 L -32.4895,-15.9578 L -32.4538,-16.0773 L -32.449,-16.0883 L -32.3823,-16.2004
 L -32.2955,-16.2992 L -32.1946,-16.3895 L -32.0814,-16.4741 L -31.9593,-16.5524 L -31.7085,-16.7027 L -31.5859,-16.7845
 L -31.4683,-16.869 L -31.3599,-16.9593 L -31.2664,-17.0583 L -31.188,-17.1691 L -31.1275,-17.2924 L -31.0881,-17.4319
 L -31.0748,-17.5923 L -31.0907,-17.763 L -31.1376,-17.91 L -31.2108,-18.034 L -31.3065,-18.1354 L -31.4224,-18.2162
 L -31.5587,-18.276 L -31.7101,-18.313 L -31.8725,-18.3253 L -32.0665,-18.3098 L -32.2365,-18.2636 L -32.3811,-18.1898
 L -32.4988,-18.0911 L -32.5893,-17.9667 L -32.6536,-17.8147 L -32.6887,-17.6404 L -32.6923,-17.4975 L -32.467,-17.4975
 L -32.4639,-17.5772 L -32.4421,-17.7052 L -32.4004,-17.8281 L -32.3387,-17.9379 L -32.2646,-18.0247 L -32.2564,-18.0324
 L -32.1644,-18.1006 L -32.153,-18.107 L -32.0413,-18.1512 L -32.0284,-18.1544 L -31.8874,-18.1693 L -31.7747,-18.159
 L -31.6685,-18.1298 L -31.5702,-18.0828 L -31.4863,-18.0188 L -31.4167,-17.9392 L -31.3632,-17.8452 L -31.3317,-17.7499
 L -31.3294,-17.7392 L -31.3188,-17.6244 L -31.3315,-17.4814 L -31.3645,-17.3649 L -31.3684,-17.3551 L -31.4279,-17.2443
 L -31.5083,-17.1431 L -31.6094,-17.0482 L -31.7307,-16.9561 L -31.8718,-16.861 L -32.0331,-16.7571 L -32.1712,-16.6707
 L -32.3011,-16.5799 L -32.4197,-16.4796 L -32.5255,-16.3652 L -32.6151,-16.2343 L -32.6877,-16.0817 L -32.7398,-15.9012
 L -32.7623,-15.7375 L -31.1016,-15.7375 z
M 21.8618,-15.8935 L 20.5218,-15.8935 L 20.4739,-15.9578 L 20.5096,-16.0773 L 20.5144,-16.0883 L 20.5811,-16.2004
 L 20.6679,-16.2992 L 20.7688,-16.3895 L 20.882,-16.4741 L 21.0041,-16.5524 L 21.2549,-16.7027 L 21.3775,-16.7845
 L 21.4951,-16.869 L 21.6035,-16.9593 L 21.697,-17.0583 L 21.7754,-17.1691 L 21.8359,-17.2924 L 21.8753,-17.4319
 L 21.8886,-17.5923 L 21.8727,-17.763 L 21.8258,-17.91 L 21.7526,-18.034 L 21.6569,-18.1354 L 21.541,-18.2162
 L 21.4046,-18.276 L 21.2533,-18.313 L 21.0909,-18.3253 L 20.8969,-18.3098 L 20.7269,-18.2636 L 20.5823,-18.1898
 L 20.4646,-18.0911 L 20.3741,-17.9667 L 20.3098,-17.8147 L 20.2746,-17.6404 L 20.271,-17.4975 L 20.4964,-17.4975
 L 20.4994,-17.5772 L 20.5213,-17.7052 L 20.563,-17.8281 L 20.6247,-17.9379 L 20.6987,-18.0247 L 20.707,-18.0324
 L 20.799,-18.1006 L 20.8104,-18.107 L 20.9221,-18.1512 L 20.9349,-18.1544 L 21.076,-18.1693 L 21.1887,-18.159
 L 21.2949,-18.1298 L 21.3932,-18.0828 L 21.4771,-18.0188 L 21.5467,-17.9392 L 21.6002,-17.8452 L 21.6317,-17.7499
 L 21.634,-17.7392 L 21.6446,-17.6244 L 21.6319,-17.4814 L 21.5989,-17.3649 L 21.595,-17.3551 L 21.5355,-17.2443
 L 21.4551,-17.1431 L 21.354,-17.0482 L 21.2327,-16.956 L 21.0916,-16.861 L 20.9303,-16.7571 L 20.7922,-16.6707
 L 20.6623,-16.5799 L 20.5437,-16.4796 L 20.4379,-16.3652 L 20.3482,-16.2343 L 20.2757,-16.0817 L 20.2236,-15.9012
 L 20.2011,-15.7375 L 21.8618,-15.7375 z
M -10.3743,-15.7515 L -10.2188,-15.7925 L -10.0917,-15.8563 L -9.98834,-15.9393 L -9.9054,-16.0403 L -9.84161,-16.1573
 L -9.79279,-16.2885 L -9.75699,-16.4288 L -9.73267,-16.5765 L -9.71992,-16.7285 L -9.714,-16.8802 L -9.71202,-17.0275
 L -9.714,-17.1752 L -9.71992,-17.3264 L -9.73265,-17.4782 L -9.757,-17.6254 L -9.7928,-17.7665 L -9.84172,-17.8989
 L -9.90558,-18.0182 L -9.98846,-18.1199 L -10.0922,-18.2037 L -10.2211,-18.2686 L -10.3766,-18.311 L -10.563,-18.3253
 L -10.7504,-18.311 L -10.907,-18.2686 L -11.0352,-18.2038 L -11.1395,-18.1199 L -11.222,-18.0181 L -11.2863,-17.8989
 L -11.3347,-17.7667 L -11.371,-17.6253 L -11.3949,-17.4781 L -11.4081,-17.3266 L -11.4133,-17.1751 L -11.415,-17.0275
 L -11.4133,-16.8801 L -11.4081,-16.7284 L -11.3949,-16.5765 L -11.371,-16.4287 L -11.3347,-16.2885 L -11.2863,-16.1572
 L -11.2222,-16.0404 L -11.1396,-15.9393 L -11.0355,-15.8564 L -10.9074,-15.7926 L -10.7507,-15.7515 L -10.563,-15.7376
 z
M -10.5706,-15.8941 L -10.7547,-15.9226 L -10.7733,-15.9295 L -10.9113,-16.015 L -10.9246,-16.0269 L -11.0231,-16.1544
 L -11.0292,-16.1648 L -11.0997,-16.326 L -11.1414,-16.5035 L -11.162,-16.6896 L -11.1687,-16.8708 L -11.171,-17.034
 L -11.1689,-17.2549 L -11.1629,-17.378 L -11.1493,-17.5011 L -11.1278,-17.6229 L -11.0978,-17.7441 L -11.0534,-17.8597
 L -10.9919,-17.9602 L -10.9209,-18.038 L -10.9128,-18.0451 L -10.8258,-18.1064 L -10.8148,-18.1122 L -10.7083,-18.1527
 L -10.6958,-18.1557 L -10.5683,-18.1692 L -10.5577,-18.1692 L -10.4312,-18.1557 L -10.4186,-18.1527 L -10.3131,-18.1122
 L -10.3024,-18.1065 L -10.2146,-18.0452 L -10.2064,-18.038 L -10.1291,-17.9521 L -10.0699,-17.8513 L -10.0285,-17.7387
 L -9.99876,-17.6197 L -9.97731,-17.498 L -9.96382,-17.3749 L -9.95801,-17.2529 L -9.95602,-17.0327 L -9.95856,-16.8694
 L -9.96629,-16.6861 L -9.98714,-16.4973 L -10.0312,-16.3174 L -10.0982,-16.1649 L -10.1045,-16.1543 L -10.2035,-16.0268
 L -10.2165,-16.0151 L -10.3535,-15.9296 L -10.3723,-15.9226 L -10.5553,-15.8941 z
M -22.7016,-15.7865 L -22.5193,-15.8384 L -22.3656,-15.9193 L -22.2408,-16.0237 L -22.1432,-16.1482 L -22.0736,-16.2896
 L -22.0318,-16.4421 L -22.0178,-16.6 L -22.0343,-16.8052 L -22.0834,-16.9803 L -22.1594,-17.1278 L -22.2587,-17.2476
 L -22.3786,-17.3411 L -22.5196,-17.4075 L -22.6756,-17.4473 L -22.8417,-17.4606 L -22.9725,-17.4504 L -23.1041,-17.42
 L -23.2201,-17.3705 L -23.315,-17.2972 L -23.3786,-17.2991 L -23.3866,-17.3061 L -23.4027,-17.3533 L -23.2577,-18.0963
 L -23.2086,-18.1367 L -22.1666,-18.1367 L -22.1666,-18.2927 L -23.4122,-18.2927 L -23.6458,-17.0606 L -23.4464,-17.0499
 L -23.3529,-17.1435 L -23.2362,-17.2248 L -23.2261,-17.2302 L -23.0924,-17.2834 L -23.0797,-17.2867 L -22.9182,-17.3046
 L -22.7769,-17.2909 L -22.6492,-17.2519 L -22.5445,-17.1964 L -22.5356,-17.1904 L -22.4474,-17.116 L -22.4401,-17.1084
 L -22.3638,-17.0082 L -22.3074,-16.8921 L -22.2728,-16.7635 L -22.2618,-16.625 L -22.2747,-16.4625 L -22.3126,-16.32
 L -22.3718,-16.1995 L -22.4418,-16.1075 L -22.4495,-16.0994 L -22.5343,-16.0284 L -22.5433,-16.0224 L -22.6509,-15.9677
 L -22.7676,-15.9352 L -22.8884,-15.9249 L -23.0139,-15.9353 L -23.1296,-15.9654 L -23.2325,-16.0141 L -23.3215,-16.08
 L -23.3937,-16.16 L -23.4496,-16.2525 L -23.4862,-16.3547 L -23.4959,-16.4128 L -23.7215,-16.4128 L -23.7086,-16.3003
 L -23.6601,-16.1562 L -23.5851,-16.0353 L -23.4877,-15.9405 L -23.3684,-15.8671 L -23.231,-15.8127 L -23.0784,-15.7799
 L -22.9151,-15.7689 z
M 41.335,-15.7552 L 41.5173,-15.8072 L 41.671,-15.888 L 41.7959,-15.9925 L 41.8934,-16.117 L 41.9631,-16.2584
 L 42.0048,-16.4109 L 42.0188,-16.5687 L 42.0023,-16.7739 L 41.9532,-16.9491 L 41.8772,-17.0966 L 41.778,-17.2164
 L 41.658,-17.3098 L 41.517,-17.3762 L 41.361,-17.416 L 41.1949,-17.4293 L 41.0641,-17.4192 L 40.9325,-17.3888
 L 40.8165,-17.3392 L 40.7216,-17.2659 L 40.6581,-17.2679 L 40.6501,-17.2749 L 40.6339,-17.3221 L 40.7789,-18.0651
 L 40.828,-18.1055 L 41.87,-18.1055 L 41.87,-18.2615 L 40.6244,-18.2615 L 40.3908,-17.0294 L 40.5902,-17.0186
 L 40.6837,-17.1123 L 40.8004,-17.1935 L 40.8105,-17.1989 L 40.9442,-17.2522 L 40.9569,-17.2554 L 41.1185,-17.2733
 L 41.2598,-17.2597 L 41.3874,-17.2207 L 41.4922,-17.1652 L 41.501,-17.1592 L 41.5892,-17.0847 L 41.5965,-17.0771
 L 41.6728,-16.9769 L 41.7292,-16.8608 L 41.7638,-16.7322 L 41.7749,-16.5938 L 41.7619,-16.4312 L 41.724,-16.2888
 L 41.6648,-16.1682 L 41.5948,-16.0762 L 41.5871,-16.0682 L 41.5023,-15.9972 L 41.4933,-15.9911 L 41.3858,-15.9364
 L 41.269,-15.904 L 41.1482,-15.8937 L 41.0228,-15.904 L 40.907,-15.9341 L 40.8041,-15.9828 L 40.7151,-16.0487
 L 40.6429,-16.1288 L 40.5871,-16.2213 L 40.5504,-16.3235 L 40.5407,-16.3815 L 40.3151,-16.3815 L 40.328,-16.269
 L 40.3765,-16.1249 L 40.4515,-16.004 L 40.5489,-15.9092 L 40.6682,-15.8359 L 40.8056,-15.7815 L 40.9582,-15.7486
 L 41.1216,-15.7376 z
M 23.335,-15.7552 L 23.5173,-15.8072 L 23.671,-15.888 L 23.7959,-15.9925 L 23.8934,-16.117 L 23.9631,-16.2584
 L 24.0048,-16.4109 L 24.0188,-16.5687 L 24.0023,-16.7739 L 23.9532,-16.9491 L 23.8772,-17.0966 L 23.778,-17.2164
 L 23.658,-17.3098 L 23.517,-17.3762 L 23.361,-17.416 L 23.1949,-17.4293 L 23.0641,-17.4192 L 22.9325,-17.3888
 L 22.8165,-17.3392 L 22.7216,-17.2659 L 22.6581,-17.2679 L 22.6501,-17.2749 L 22.6339,-17.3221 L 22.7789,-18.0651
 L 22.828,-18.1055 L 23.87,-18.1055 L 23.87,-18.2615 L 22.6244,-18.2615 L 22.3908,-17.0294 L 22.5902,-17.0186
 L 22.6837,-17.1123 L 22.8004,-17.1935 L 22.8105,-17.1989 L 22.9442,-17.2522 L 22.9569,-17.2554 L 23.1185,-17.2733
 L 23.2598,-17.2597 L 23.3874,-17.2207 L 23.4922,-17.1652 L 23.501,-17.1592 L 23.5892,-17.0847 L 23.5965,-17.0771
 L 23.6728,-16.9769 L 23.7292,-16.8608 L 23.7638,-16.7322 L 23.7749,-16.5938 L 23.7619,-16.4312 L 23.724,-16.2888
 L 23.6648,-16.1682 L 23.5948,-16.0762 L 23.5871,-16.0682 L 23.5023,-15.9972 L 23.4933,-15.9911 L 23.3858,-15.9364
 L 23.269,-15.904 L 23.1482,-15.8937 L 23.0228,-15.904 L 22.907,-15.9341 L 22.8041,-15.9828 L 22.7151,-16.0487
 L 22.6429,-16.1288 L 22.5871,-16.2213 L 22.5504,-16.3235 L 22.5407,-16.3815 L 22.3151,-16.3815 L 22.328,-16.269
 L 22.3765,-16.1249 L 22.4515,-16.004 L 22.5489,-15.9092 L 22.6682,-15.8359 L 22.8056,-15.7815 L 22.9582,-15.7486
 L 23.1216,-15.7376 z
M 0.835022,-15.7552 L 1.01732,-15.8072 L 1.17102,-15.888 L 1.29585,-15.9925 L 1.3934,-16.117 L 1.46306,-16.2584
 L 1.50484,-16.4109 L 1.51881,-16.5687 L 1.50229,-16.7739 L 1.45323,-16.9491 L 1.37724,-17.0966 L 1.27797,-17.2164
 L 1.15797,-17.3098 L 1.01698,-17.3762 L 0.860992,-17.416 L 0.694946,-17.4293 L 0.564133,-17.4192 L 0.432526,-17.3888
 L 0.316467,-17.3392 L 0.221558,-17.2659 L 0.158051,-17.2679 L 0.150055,-17.2749 L 0.133926,-17.3221 L 0.278915,-18.0651
 L 0.327988,-18.1055 L 1.37,-18.1055 L 1.37,-18.2615 L 0.12439,-18.2615 L -0.109238,-17.0294 L 0.0901794,-17.0186
 L 0.183685,-17.1123 L 0.30043,-17.1935 L 0.310501,-17.1989 L 0.444244,-17.2522 L 0.456909,-17.2554 L 0.618454,-17.2733
 L 0.75975,-17.2597 L 0.887405,-17.2207 L 0.992157,-17.1652 L 1.00101,-17.1592 L 1.08925,-17.0847 L 1.09653,-17.0771
 L 1.17282,-16.9769 L 1.2292,-16.8608 L 1.26381,-16.7322 L 1.27486,-16.5938 L 1.26189,-16.4312 L 1.22403,-16.2888
 L 1.16479,-16.1682 L 1.09479,-16.0762 L 1.0871,-16.0682 L 1.00235,-15.9972 L 0.993286,-15.9911 L 0.885757,-15.9364
 L 0.769028,-15.904 L 0.648163,-15.8937 L 0.522751,-15.904 L 0.406982,-15.9341 L 0.304092,-15.9828 L 0.215149,-16.0487
 L 0.142929,-16.1288 L 0.0870514,-16.2213 L 0.0504303,-16.3235 L 0.0406799,-16.3815 L -0.184921,-16.3815 L -0.171951,-16.269
 L -0.123459,-16.1249 L -0.0484619,-16.004 L 0.0488586,-15.9092 L 0.168213,-15.8359 L 0.305588,-15.7815 L 0.458237,-15.7486
 L 0.621552,-15.7376 z
M -49.171,-15.9122 L -49.0084,-15.9697 L -48.8875,-16.0626 L -48.7977,-16.1899 L -48.7358,-16.3519 L -48.6999,-16.5466
 L -48.6822,-16.7721 L -48.6763,-17.0212 L -48.6822,-17.2684 L -48.6999,-17.4938 L -48.7359,-17.6911 L -48.7978,-17.8537
 L -48.8877,-17.9823 L -49.0091,-18.0782 L -49.1716,-18.1391 L -49.3883,-18.16 L -49.6052,-18.1391 L -49.7683,-18.0782
 L -49.8889,-17.9824 L -49.9787,-17.8536 L -50.0409,-17.6909 L -50.0776,-17.4938 L -50.0945,-17.2684 L -50.1002,-17.0212
 L -50.0945,-16.7721 L -50.0776,-16.5467 L -50.041,-16.3519 L -49.9788,-16.19 L -49.8892,-16.0625 L -49.7691,-15.9698
 L -49.6057,-15.9122 L -49.3882,-15.8925 z
M -49.4857,-16.1244 L -49.5015,-16.1292 L -49.5725,-16.1645 L -49.5878,-16.1763 L -49.6418,-16.2378 L -49.6498,-16.2502
 L -49.6929,-16.3479 L -49.7215,-16.472 L -49.7382,-16.624 L -49.7465,-16.8081 L -49.7493,-17.0269 L -49.7464,-17.2455
 L -49.7379,-17.4298 L -49.7205,-17.5838 L -49.6899,-17.7116 L -49.6499,-17.8013 L -49.6418,-17.8141 L -49.5878,-17.8753
 L -49.5729,-17.8868 L -49.5019,-17.9228 L -49.4858,-17.9278 L -49.3948,-17.9398 L -49.3817,-17.9398 L -49.2914,-17.9278
 L -49.2753,-17.9228 L -49.2046,-17.8868 L -49.1897,-17.8753 L -49.1357,-17.8141 L -49.1276,-17.8013 L -49.0845,-17.7025
 L -49.056,-17.578 L -49.0393,-17.4265 L -49.031,-17.2439 L -49.0282,-17.0256 L -49.0311,-16.8065 L -49.0396,-16.6207
 L -49.057,-16.4662 L -49.0877,-16.3387 L -49.1277,-16.2502 L -49.1357,-16.2378 L -49.1897,-16.1763 L -49.205,-16.1645
 L -49.2757,-16.1293 L -49.2915,-16.1244 L -49.3818,-16.1127 L -49.3947,-16.1127 z
M -48.006,-16.8663 L -47.956,-16.9163 L -47.253,-16.9163 L -47.253,-17.2002 L -47.956,-17.2002 L -48.006,-17.2502
 L -48.006,-17.7622 L -47.956,-17.8122 L -47.206,-17.8122 L -47.206,-18.0962 L -48.3569,-18.0962 L -48.3569,-15.9563
 L -48.006,-15.9563 z
M -46.5939,-16.8663 L -46.5439,-16.9163 L -45.8409,-16.9163 L -45.8409,-17.2002 L -46.5439,-17.2002 L -46.5939,-17.2502
 L -46.5939,-17.7622 L -46.5439,-17.8122 L -45.7939,-17.8122 L -45.7939,-18.0962 L -46.9449,-18.0962 L -46.9449,-15.9563
 L -46.5939,-15.9563 z
M 47.125,-13 L 46.625,-13 L 46.625,-5 L 47.125,-5 z
M 33.625,-13 L 33.125,-13 L 33.125,-5 L 33.625,-5 z
M -27.125,-13 L -27.625,-13 L -27.625,-5 L -27.125,-5 z
M -40.625,-13 L -41.125,-13 L -41.125,-5 L -40.625,-5 z
M -47.75,-13 L -48.25,-13 L -48.25,-5 L -47.75,-5 z
M -46.1485,-12.0691 L -46.1029,-12.0808 L -46.0591,-12.0982 L -46.0178,-12.1209 L -45.9797,-12.1485 L -45.9454,-12.1808
 L -45.9154,-12.2171 L -45.8901,-12.2568 L -45.8701,-12.2994 L -45.8555,-12.3442 L -45.8467,-12.3905 L -45.8438,-12.4375
 L -45.8467,-12.4845 L -45.8555,-12.5307 L -45.8701,-12.5755 L -45.8901,-12.6181 L -45.9154,-12.6579 L -45.9454,-12.6942
 L -45.9797,-12.7264 L -46.0178,-12.7541 L -46.0591,-12.7768 L -46.1029,-12.7941 L -46.1485,-12.8058 L -46.1952,-12.8118
 L -46.2423,-12.8118 L -46.289,-12.8058 L -46.3346,-12.7941 L -46.3784,-12.7768 L -46.4197,-12.7541 L -46.4578,-12.7264
 L -46.4921,-12.6942 L -46.5221,-12.6579 L -46.5474,-12.6181 L -46.5674,-12.5755 L -46.582,-12.5307 L -46.5908,-12.4845
 L -46.5938,-12.4375 L -46.5908,-12.3905 L -46.582,-12.3442 L -46.5674,-12.2994 L -46.5474,-12.2568 L -46.5221,-12.2171
 L -46.4921,-12.1808 L -46.4578,-12.1485 L -46.4197,-12.1209 L -46.3784,-12.0982 L -46.3346,-12.0808 L -46.289,-12.0691
 L -46.2423,-12.0632 L -46.1952,-12.0632 z
M -44.3672,-12.0691 L -44.3216,-12.0808 L -44.2778,-12.0982 L -44.2366,-12.1209 L -44.1985,-12.1485 L -44.1641,-12.1808
 L -44.1341,-12.2171 L -44.1089,-12.2568 L -44.0888,-12.2994 L -44.0743,-12.3442 L -44.0655,-12.3905 L -44.0625,-12.4375
 L -44.0655,-12.4845 L -44.0743,-12.5307 L -44.0888,-12.5755 L -44.1089,-12.6181 L -44.1341,-12.6579 L -44.1641,-12.6942
 L -44.1985,-12.7264 L -44.2366,-12.7541 L -44.2778,-12.7768 L -44.3216,-12.7941 L -44.3672,-12.8058 L -44.414,-12.8118
 L -44.4611,-12.8118 L -44.5078,-12.8058 L -44.5534,-12.7941 L -44.5972,-12.7768 L -44.6384,-12.7541 L -44.6765,-12.7264
 L -44.7109,-12.6942 L -44.7409,-12.6579 L -44.7661,-12.6181 L -44.7862,-12.5755 L -44.8007,-12.5307 L -44.8096,-12.4845
 L -44.8125,-12.4375 L -44.8096,-12.3905 L -44.8007,-12.3442 L -44.7862,-12.2994 L -44.7661,-12.2568 L -44.7409,-12.2171
 L -44.7109,-12.1808 L -44.6765,-12.1485 L -44.6384,-12.1209 L -44.5972,-12.0982 L -44.5534,-12.0808 L -44.5078,-12.0691
 L -44.4611,-12.0632 L -44.414,-12.0632 z
M -42.586,-12.0691 L -42.5404,-12.0808 L -42.4966,-12.0982 L -42.4553,-12.1209 L -42.4172,-12.1485 L -42.3829,-12.1808
 L -42.3529,-12.2171 L -42.3276,-12.2568 L -42.3076,-12.2994 L -42.293,-12.3442 L -42.2842,-12.3905 L -42.2812,-12.4375
 L -42.2842,-12.4845 L -42.293,-12.5307 L -42.3076,-12.5755 L -42.3276,-12.6181 L -42.3529,-12.6579 L -42.3829,-12.6942
 L -42.4172,-12.7264 L -42.4553,-12.7541 L -42.4966,-12.7768 L -42.5404,-12.7941 L -42.586,-12.8058 L -42.6327,-12.8118
 L -42.6798,-12.8118 L -42.7265,-12.8058 L -42.7721,-12.7941 L -42.8159,-12.7768 L -42.8572,-12.7541 L -42.8953,-12.7264
 L -42.9296,-12.6942 L -42.9596,-12.6579 L -42.9849,-12.6181 L -43.0049,-12.5755 L -43.0195,-12.5307 L -43.0283,-12.4845
 L -43.0312,-12.4375 L -43.0283,-12.3905 L -43.0195,-12.3442 L -43.0049,-12.2994 L -42.9849,-12.2568 L -42.9596,-12.2171
 L -42.9296,-12.1808 L -42.8953,-12.1485 L -42.8572,-12.1209 L -42.8159,-12.0982 L -42.7721,-12.0808 L -42.7265,-12.0691
 L -42.6798,-12.0632 L -42.6327,-12.0632 z
M 11,-12 L 10.75,-12 L 10.75,-5 L 11,-5 z
M 22.25,-12 L 22,-12 L 22,-5 L 22.25,-5 z
M -0.25,-12 L -0.5,-12 L -0.5,-5 L -0.25,-5 z
M -11.5,-12 L -11.75,-12 L -11.75,-5 L -11.5,-5 z
M -22.75,-12 L -23,-12 L -23,-5 L -22.75,-5 z
M -31.75,-12 L -32,-12 L -32,-5 L -31.75,-5 z
M -36.25,-12 L -36.5,-12 L -36.5,-5 L -36.25,-5 z
M 40.25,-12 L 40,-12 L 40,-5 L 40.25,-5 z
M -46.1485,-10.3191 L -46.1029,-10.3308 L -46.0591,-10.3482 L -46.0178,-10.3709 L -45.9797,-10.3985 L -45.9454,-10.4308
 L -45.9154,-10.4671 L -45.8901,-10.5068 L -45.8701,-10.5494 L -45.8555,-10.5942 L -45.8467,-10.6405 L -45.8438,-10.6875
 L -45.8467,-10.7345 L -45.8555,-10.7807 L -45.8701,-10.8255 L -45.8901,-10.8681 L -45.9154,-10.9079 L -45.9454,-10.9442
 L -45.9797,-10.9764 L -46.0178,-11.0041 L -46.0591,-11.0268 L -46.1029,-11.0441 L -46.1485,-11.0558 L -46.1952,-11.0618
 L -46.2423,-11.0618 L -46.289,-11.0558 L -46.3346,-11.0441 L -46.3784,-11.0268 L -46.4197,-11.0041 L -46.4578,-10.9764
 L -46.4921,-10.9442 L -46.5221,-10.9079 L -46.5474,-10.8681 L -46.5674,-10.8255 L -46.582,-10.7807 L -46.5908,-10.7345
 L -46.5938,-10.6875 L -46.5908,-10.6405 L -46.582,-10.5942 L -46.5674,-10.5494 L -46.5474,-10.5068 L -46.5221,-10.4671
 L -46.4921,-10.4308 L -46.4578,-10.3985 L -46.4197,-10.3709 L -46.3784,-10.3482 L -46.3346,-10.3308 L -46.289,-10.3191
 L -46.2423,-10.3132 L -46.1952,-10.3132 z
M -44.3672,-10.3191 L -44.3216,-10.3308 L -44.2778,-10.3482 L -44.2366,-10.3709 L -44.1985,-10.3985 L -44.1641,-10.4308
 L -44.1341,-10.4671 L -44.1089,-10.5068 L -44.0888,-10.5494 L -44.0743,-10.5942 L -44.0655,-10.6405 L -44.0625,-10.6875
 L -44.0655,-10.7345 L -44.0743,-10.7807 L -44.0888,-10.8255 L -44.1089,-10.8681 L -44.1341,-10.9079 L -44.1641,-10.9442
 L -44.1985,-10.9764 L -44.2366,-11.0041 L -44.2778,-11.0268 L -44.3216,-11.0441 L -44.3672,-11.0558 L -44.414,-11.0618
 L -44.4611,-11.0618 L -44.5078,-11.0558 L -44.5534,-11.0441 L -44.5972,-11.0268 L -44.6384,-11.0041 L -44.6765,-10.9764
 L -44.7109,-10.9442 L -44.7409,-10.9079 L -44.7661,-10.8681 L -44.7862,-10.8255 L -44.8007,-10.7807 L -44.8096,-10.7345
 L -44.8125,-10.6875 L -44.8096,-10.6405 L -44.8007,-10.5942 L -44.7862,-10.5494 L -44.7661,-10.5068 L -44.7409,-10.4671
 L -44.7109,-10.4308 L -44.6765,-10.3985 L -44.6384,-10.3709 L -44.5972,-10.3482 L -44.5534,-10.3308 L -44.5078,-10.3191
 L -44.4611,-10.3132 L -44.414,-10.3132 z
M -42.586,-10.3191 L -42.5404,-10.3308 L -42.4966,-10.3482 L -42.4553,-10.3709 L -42.4172,-10.3985 L -42.3829,-10.4308
 L -42.3529,-10.4671 L -42.3276,-10.5068 L -42.3076,-10.5494 L -42.293,-10.5942 L -42.2842,-10.6405 L -42.2812,-10.6875
 L -42.2842,-10.7345 L -42.293,-10.7807 L -42.3076,-10.8255 L -42.3276,-10.8681 L -42.3529,-10.9079 L -42.3829,-10.9442
 L -42.4172,-10.9764 L -42.4553,-11.0041 L -42.4966,-11.0268 L -42.5404,-11.0441 L -42.586,-11.0558 L -42.6327,-11.0618
 L -42.6798,-11.0618 L -42.7265,-11.0558 L -42.7721,-11.0441 L -42.8159,-11.0268 L -42.8572,-11.0041 L -42.8953,-10.9764
 L -42.9296,-10.9442 L -42.9596,-10.9079 L -42.9849,-10.8681 L -43.0049,-10.8255 L -43.0195,-10.7807 L -43.0283,-10.7345
 L -43.0312,-10.6875 L -43.0283,-10.6405 L -43.0195,-10.5942 L -43.0049,-10.5494 L -42.9849,-10.5068 L -42.9596,-10.4671
 L -42.9296,-10.4308 L -42.8953,-10.3985 L -42.8572,-10.3709 L -42.8159,-10.3482 L -42.7721,-10.3308 L -42.7265,-10.3191
 L -42.6798,-10.3132 L -42.6327,-10.3132 z
M 38,-10 L 37.75,-10 L 37.75,-5 L 38,-5 z
M 42.5,-10 L 42.25,-10 L 42.25,-5 L 42.5,-5 z
M 44.75,-10 L 44.5,-10 L 44.5,-5 L 44.75,-5 z
M 35.75,-10 L 35.5,-10 L 35.5,-5 L 35.75,-5 z
M -46.1485,-8.56914 L -46.1029,-8.58084 L -46.0591,-8.59818 L -46.0178,-8.62086 L -45.9797,-8.64854 L -45.9454,-8.68079
 L -45.9154,-8.71707 L -45.8901,-8.75684 L -45.8701,-8.79944 L -45.8555,-8.84424 L -45.8467,-8.89049 L -45.8438,-8.9375
 L -45.8467,-8.9845 L -45.8555,-9.03075 L -45.8701,-9.07555 L -45.8901,-9.11815 L -45.9154,-9.15791 L -45.9454,-9.1942
 L -45.9797,-9.22644 L -46.0178,-9.25412 L -46.0591,-9.27681 L -46.1029,-9.29414 L -46.1485,-9.30585 L -46.1952,-9.31175
 L -46.2423,-9.31175 L -46.289,-9.30585 L -46.3346,-9.29414 L -46.3784,-9.27681 L -46.4197,-9.25412 L -46.4578,-9.22644
 L -46.4921,-9.1942 L -46.5221,-9.15791 L -46.5474,-9.11815 L -46.5674,-9.07555 L -46.582,-9.03075 L -46.5908,-8.9845
 L -46.5938,-8.9375 L -46.5908,-8.89049 L -46.582,-8.84424 L -46.5674,-8.79944 L -46.5474,-8.75684 L -46.5221,-8.71707
 L -46.4921,-8.68079 L -46.4578,-8.64854 L -46.4197,-8.62086 L -46.3784,-8.59818 L -46.3346,-8.58084 L -46.289,-8.56914
 L -46.2423,-8.56323 L -46.1952,-8.56323 z
M -44.3672,-8.56914 L -44.3216,-8.58084 L -44.2778,-8.59818 L -44.2366,-8.62086 L -44.1985,-8.64854 L -44.1641,-8.68079
 L -44.1341,-8.71707 L -44.1089,-8.75684 L -44.0888,-8.79944 L -44.0743,-8.84424 L -44.0655,-8.89049 L -44.0625,-8.9375
 L -44.0655,-8.9845 L -44.0743,-9.03075 L -44.0888,-9.07555 L -44.1089,-9.11815 L -44.1341,-9.15791 L -44.1641,-9.1942
 L -44.1985,-9.22644 L -44.2366,-9.25412 L -44.2778,-9.27681 L -44.3216,-9.29414 L -44.3672,-9.30585 L -44.414,-9.31175
 L -44.4611,-9.31175 L -44.5078,-9.30585 L -44.5534,-9.29414 L -44.5972,-9.27681 L -44.6384,-9.25412 L -44.6765,-9.22644
 L -44.7109,-9.1942 L -44.7409,-9.15791 L -44.7661,-9.11815 L -44.7862,-9.07555 L -44.8007,-9.03075 L -44.8096,-8.9845
 L -44.8125,-8.9375 L -44.8096,-8.89049 L -44.8007,-8.84424 L -44.7862,-8.79944 L -44.7661,-8.75684 L -44.7409,-8.71707
 L -44.7109,-8.68079 L -44.6765,-8.64854 L -44.6384,-8.62086 L -44.5972,-8.59818 L -44.5534,-8.58084 L -44.5078,-8.56914
 L -44.4611,-8.56323 L -44.414,-8.56323 z
M -42.586,-8.56914 L -42.5404,-8.58084 L -42.4966,-8.59818 L -42.4553,-8.62086 L -42.4172,-8.64854 L -42.3829,-8.68079
 L -42.3529,-8.71707 L -42.3276,-8.75684 L -42.3076,-8.79944 L -42.293,-8.84424 L -42.2842,-8.89049 L -42.2812,-8.9375
 L -42.2842,-8.9845 L -42.293,-9.03075 L -42.3076,-9.07555 L -42.3276,-9.11815 L -42.3529,-9.15791 L -42.3829,-9.1942
 L -42.4172,-9.22644 L -42.4553,-9.25412 L -42.4966,-9.27681 L -42.5404,-9.29414 L -42.586,-9.30585 L -42.6327,-9.31175
 L -42.6798,-9.31175 L -42.7265,-9.30585 L -42.7721,-9.29414 L -42.8159,-9.27681 L -42.8572,-9.25412 L -42.8953,-9.22644
 L -42.9296,-9.1942 L -42.9596,-9.15791 L -42.9849,-9.11815 L -43.0049,-9.07555 L -43.0195,-9.03075 L -43.0283,-8.9845
 L -43.0312,-8.9375 L -43.0283,-8.89049 L -43.0195,-8.84424 L -43.0049,-8.79944 L -42.9849,-8.75684 L -42.9596,-8.71707
 L -42.9296,-8.68079 L -42.8953,-8.64854 L -42.8572,-8.62086 L -42.8159,-8.59818 L -42.7721,-8.58084 L -42.7265,-8.56914
 L -42.6798,-8.56323 L -42.6327,-8.56323 z
M 15.5,-8.5 L 15.25,-8.5 L 15.25,-5 L 15.5,-5 z
M 17.75,-8.5 L 17.5,-8.5 L 17.5,-5 L 17.75,-5 z
M 20,-8.5 L 19.75,-8.5 L 19.75,-5 L 20,-5 z
M 24.5,-8.5 L 24.25,-8.5 L 24.25,-5 L 24.5,-5 z
M 26.75,-8.5 L 26.5,-8.5 L 26.5,-5 L 26.75,-5 z
M 29,-8.5 L 28.75,-8.5 L 28.75,-5 L 29,-5 z
M 31.25,-8.5 L 31,-8.5 L 31,-5 L 31.25,-5 z
M 13.25,-8.5 L 13,-8.5 L 13,-5 L 13.25,-5 z
M 8.75,-8.5 L 8.5,-8.5 L 8.5,-5 L 8.75,-5 z
M 6.5,-8.5 L 6.25,-8.5 L 6.25,-5 L 6.5,-5 z
M 4.25,-8.5 L 4,-8.5 L 4,-5 L 4.25,-5 z
M 2,-8.5 L 1.75,-8.5 L 1.75,-5 L 2,-5 z
M -2.5,-8.5 L -2.75,-8.5 L -2.75,-5 L -2.5,-5 z
M -4.75,-8.5 L -5,-8.5 L -5,-5 L -4.75,-5 z
M -7,-8.5 L -7.25,-8.5 L -7.25,-5 L -7,-5 z
M -9.25,-8.5 L -9.5,-8.5 L -9.5,-5 L -9.25,-5 z
M -13.75,-8.5 L -14,-8.5 L -14,-5 L -13.75,-5 z
M -16,-8.5 L -16.25,-8.5 L -16.25,-5 L -16,-5 z
M -20.5,-8.5 L -20.75,-8.5 L -20.75,-5 L -20.5,-5 z
M -25,-8.5 L -25.25,-8.5 L -25.25,-5 L -25,-5 z
M -18.25,-8.5 L -18.5,-8.5 L -18.5,-5 L -18.25,-5 z
M -42.586,-6.81914 L -42.5404,-6.83084 L -42.4966,-6.84818 L -42.4553,-6.87086 L -42.4172,-6.89854 L -42.3829,-6.93079
 L -42.3529,-6.96707 L -42.3276,-7.00684 L -42.3076,-7.04944 L -42.293,-7.09424 L -42.2842,-7.14049 L -42.2812,-7.1875
 L -42.2842,-7.2345 L -42.293,-7.28075 L -42.3076,-7.32555 L -42.3276,-7.36815 L -42.3529,-7.40791 L -42.3829,-7.4442
 L -42.4172,-7.47644 L -42.4553,-7.50412 L -42.4966,-7.52681 L -42.5404,-7.54414 L -42.586,-7.55585 L -42.6327,-7.56175
 L -42.6798,-7.56175 L -42.7265,-7.55585 L -42.7721,-7.54414 L -42.8159,-7.52681 L -42.8572,-7.50412 L -42.8953,-7.47644
 L -42.9296,-7.4442 L -42.9596,-7.40791 L -42.9849,-7.36815 L -43.0049,-7.32555 L -43.0195,-7.28075 L -43.0283,-7.2345
 L -43.0312,-7.1875 L -43.0283,-7.14049 L -43.0195,-7.09424 L -43.0049,-7.04944 L -42.9849,-7.00684 L -42.9596,-6.96707
 L -42.9296,-6.93079 L -42.8953,-6.89854 L -42.8572,-6.87086 L -42.8159,-6.84818 L -42.7721,-6.83084 L -42.7265,-6.81914
 L -42.6798,-6.81323 L -42.6327,-6.81323 z
M -44.3672,-6.81914 L -44.3216,-6.83084 L -44.2778,-6.84818 L -44.2366,-6.87086 L -44.1985,-6.89854 L -44.1641,-6.93079
 L -44.1341,-6.96707 L -44.1089,-7.00684 L -44.0888,-7.04944 L -44.0743,-7.09424 L -44.0655,-7.14049 L -44.0625,-7.1875
 L -44.0655,-7.2345 L -44.0743,-7.28075 L -44.0888,-7.32555 L -44.1089,-7.36815 L -44.1341,-7.40791 L -44.1641,-7.4442
 L -44.1985,-7.47644 L -44.2366,-7.50412 L -44.2778,-7.52681 L -44.3216,-7.54414 L -44.3672,-7.55585 L -44.414,-7.56175
 L -44.4611,-7.56175 L -44.5078,-7.55585 L -44.5534,-7.54414 L -44.5972,-7.52681 L -44.6384,-7.50412 L -44.6765,-7.47644
 L -44.7109,-7.4442 L -44.7409,-7.40791 L -44.7661,-7.36815 L -44.7862,-7.32555 L -44.8007,-7.28075 L -44.8096,-7.2345
 L -44.8125,-7.1875 L -44.8096,-7.14049 L -44.8007,-7.09424 L -44.7862,-7.04944 L -44.7661,-7.00684 L -44.7409,-6.96707
 L -44.7109,-6.93079 L -44.6765,-6.89854 L -44.6384,-6.87086 L -44.5972,-6.84818 L -44.5534,-6.83084 L -44.5078,-6.81914
 L -44.4611,-6.81323 L -44.414,-6.81323 z
M -46.1485,-6.81914 L -46.1029,-6.83084 L -46.0591,-6.84818 L -46.0178,-6.87086 L -45.9797,-6.89854 L -45.9454,-6.93079
 L -45.9154,-6.96707 L -45.8901,-7.00684 L -45.8701,-7.04944 L -45.8555,-7.09424 L -45.8467,-7.14049 L -45.8438,-7.1875
 L -45.8467,-7.2345 L -45.8555,-7.28075 L -45.8701,-7.32555 L -45.8901,-7.36815 L -45.9154,-7.40791 L -45.9454,-7.4442
 L -45.9797,-7.47644 L -46.0178,-7.50412 L -46.0591,-7.52681 L -46.1029,-7.54414 L -46.1485,-7.55585 L -46.1952,-7.56175
 L -46.2423,-7.56175 L -46.289,-7.55585 L -46.3346,-7.54414 L -46.3784,-7.52681 L -46.4197,-7.50412 L -46.4578,-7.47644
 L -46.4921,-7.4442 L -46.5221,-7.40791 L -46.5474,-7.36815 L -46.5674,-7.32555 L -46.582,-7.28075 L -46.5908,-7.2345
 L -46.5938,-7.1875 L -46.5908,-7.14049 L -46.582,-7.09424 L -46.5674,-7.04944 L -46.5474,-7.00684 L -46.5221,-6.96707
 L -46.4921,-6.93079 L -46.4578,-6.89854 L -46.4197,-6.87086 L -46.3784,-6.84818 L -46.3346,-6.83084 L -46.289,-6.81914
 L -46.2423,-6.81323 L -46.1952,-6.81323 z
M -38.5,-7 L -38.75,-7 L -38.75,-5 L -38.5,-5 z
M -34,-7 L -34.25,-7 L -34.25,-5 L -34,-5 z
M -29.5,-7 L -29.75,-7 L -29.75,-5 L -29.5,-5 z
M -42.586,-5.06914 L -42.5404,-5.08084 L -42.4966,-5.09818 L -42.4553,-5.12086 L -42.4172,-5.14854 L -42.3829,-5.18079
 L -42.3529,-5.21707 L -42.3276,-5.25684 L -42.3076,-5.29944 L -42.293,-5.34424 L -42.2842,-5.39049 L -42.2812,-5.4375
 L -42.2842,-5.4845 L -42.293,-5.53075 L -42.3076,-5.57555 L -42.3276,-5.61815 L -42.3529,-5.65791 L -42.3829,-5.6942
 L -42.4172,-5.72644 L -42.4553,-5.75412 L -42.4966,-5.77681 L -42.5404,-5.79414 L -42.586,-5.80585 L -42.6327,-5.81175
 L -42.6798,-5.81175 L -42.7265,-5.80585 L -42.7721,-5.79414 L -42.8159,-5.77681 L -42.8572,-5.75412 L -42.8953,-5.72644
 L -42.9296,-5.6942 L -42.9596,-5.65791 L -42.9849,-5.61815 L -43.0049,-5.57555 L -43.0195,-5.53075 L -43.0283,-5.4845
 L -43.0312,-5.4375 L -43.0283,-5.39049 L -43.0195,-5.34424 L -43.0049,-5.29944 L -42.9849,-5.25684 L -42.9596,-5.21707
 L -42.9296,-5.18079 L -42.8953,-5.14854 L -42.8572,-5.12086 L -42.8159,-5.09818 L -42.7721,-5.08084 L -42.7265,-5.06914
 L -42.6798,-5.06323 L -42.6327,-5.06323 z
M -44.3672,-5.06914 L -44.3216,-5.08084 L -44.2778,-5.09818 L -44.2366,-5.12086 L -44.1985,-5.14854 L -44.1641,-5.18079
 L -44.1341,-5.21707 L -44.1089,-5.25684 L -44.0888,-5.29944 L -44.0743,-5.34424 L -44.0655,-5.39049 L -44.0625,-5.4375
 L -44.0655,-5.4845 L -44.0743,-5.53075 L -44.0888,-5.57555 L -44.1089,-5.61815 L -44.1341,-5.65791 L -44.1641,-5.6942
 L -44.1985,-5.72644 L -44.2366,-5.75412 L -44.2778,-5.77681 L -44.3216,-5.79414 L -44.3672,-5.80585 L -44.414,-5.81175
 L -44.4611,-5.81175 L -44.5078,-5.80585 L -44.5534,-5.79414 L -44.5972,-5.77681 L -44.6384,-5.75412 L -44.6765,-5.72644
 L -44.7109,-5.6942 L -44.7409,-5.65791 L -44.7661,-5.61815 L -44.7862,-5.57555 L -44.8007,-5.53075 L -44.8096,-5.4845
 L -44.8125,-5.4375 L -44.8096,-5.39049 L -44.8007,-5.34424 L -44.7862,-5.29944 L -44.7661,-5.25684 L -44.7409,-5.21707
 L -44.7109,-5.18079 L -44.6765,-5.14854 L -44.6384,-5.12086 L -44.5972,-5.09818 L -44.5534,-5.08084 L -44.5078,-5.06914
 L -44.4611,-5.06323 L -44.414,-5.06323 z
M -46.1485,-5.06914 L -46.1029,-5.08084 L -46.0591,-5.09818 L -46.0178,-5.12086 L -45.9797,-5.14854 L -45.9454,-5.18079
 L -45.9154,-5.21707 L -45.8901,-5.25684 L -45.8701,-5.29944 L -45.8555,-5.34424 L -45.8467,-5.39049 L -45.8438,-5.4375
 L -45.8467,-5.4845 L -45.8555,-5.53075 L -45.8701,-5.57555 L -45.8901,-5.61815 L -45.9154,-5.65791 L -45.9454,-5.6942
 L -45.9797,-5.72644 L -46.0178,-5.75412 L -46.0591,-5.77681 L -46.1029,-5.79414 L -46.1485,-5.80585 L -46.1952,-5.81175
 L -46.2423,-5.81175 L -46.289,-5.80585 L -46.3346,-5.79414 L -46.3784,-5.77681 L -46.4197,-5.75412 L -46.4578,-5.72644
 L -46.4921,-5.6942 L -46.5221,-5.65791 L -46.5474,-5.61815 L -46.5674,-5.57555 L -46.582,-5.53075 L -46.5908,-5.4845
 L -46.5938,-5.4375 L -46.5908,-5.39049 L -46.582,-5.34424 L -46.5674,-5.29944 L -46.5474,-5.25684 L -46.5221,-5.21707
 L -46.4921,-5.18079 L -46.4578,-5.14854 L -46.4197,-5.12086 L -46.3784,-5.09818 L -46.3346,-5.08084 L -46.289,-5.06914
 L -46.2423,-5.06323 L -46.1952,-5.06323 z
M -2.5,5 L -2.75,5 L -2.75,8.5 L -2.5,8.5 z
M -4.75,5 L -5,5 L -5,8.5 L -4.75,8.5 z
M -36.25,5 L -36.5,5 L -36.5,12 L -36.25,12 z
M -31.75,5 L -32,5 L -32,12 L -31.75,12 z
M -22.75,5 L -23,5 L -23,12 L -22.75,12 z
M -11.5,5 L -11.75,5 L -11.75,12 L -11.5,12 z
M -0.25,5 L -0.5,5 L -0.5,12 L -0.25,12 z
M 11,5 L 10.75,5 L 10.75,12 L 11,12 z
M 22.25,5 L 22,5 L 22,12 L 22.25,12 z
M 40.25,5 L 40,5 L 40,12 L 40.25,12 z
M -38.5,5 L -38.75,5 L -38.75,7 L -38.5,7 z
M -34,5 L -34.25,5 L -34.25,7 L -34,7 z
M -29.5,5 L -29.75,5 L -29.75,7 L -29.5,7 z
M -25,5 L -25.25,5 L -25.25,8.5 L -25,8.5 z
M -20.5,5 L -20.75,5 L -20.75,8.5 L -20.5,8.5 z
M -18.25,5 L -18.5,5 L -18.5,8.5 L -18.25,8.5 z
M -16,5 L -16.25,5 L -16.25,8.5 L -16,8.5 z
M -13.75,5 L -14,5 L -14,8.5 L -13.75,8.5 z
M -9.25,5 L -9.5,5 L -9.5,8.5 L -9.25,8.5 z
M -7,5 L -7.25,5 L -7.25,8.5 L -7,8.5 z
M -47.75,5 L -48.25,5 L -48.25,13 L -47.75,13 z
M -40.625,5 L -41.125,5 L -41.125,13 L -40.625,13 z
M -27.125,5 L -27.625,5 L -27.625,13 L -27.125,13 z
M 33.625,5 L 33.125,5 L 33.125,13 L 33.625,13 z
M 47.125,5 L 46.625,5 L 46.625,13 L 47.125,13 z
M 44.75,5 L 44.5,5 L 44.5,10 L 44.75,10 z
M 42.5,5 L 42.25,5 L 42.25,10 L 42.5,10 z
M 38,5 L 37.75,5 L 37.75,10 L 38,10 z
M 35.75,5 L 35.5,5 L 35.5,10 L 35.75,10 z
M 31.25,5 L 31,5 L 31,8.5 L 31.25,8.5 z
M 29,5 L 28.75,5 L 28.75,8.5 L 29,8.5 z
M 26.75,5 L 26.5,5 L 26.5,8.5 L 26.75,8.5 z
M 24.5,5 L 24.25,5 L 24.25,8.5 L 24.5,8.5 z
M 20,5 L 19.75,5 L 19.75,8.5 L 20,8.5 z
M 17.75,5 L 17.5,5 L 17.5,8.5 L 17.75,8.5 z
M 15.5,5 L 15.25,5 L 15.25,8.5 L 15.5,8.5 z
M 13.25,5 L 13,5 L 13,8.5 L 13.25,8.5 z
M 8.75,5 L 8.5,5 L 8.5,8.5 L 8.75,8.5 z
M 2,5 L 1.75,5 L 1.75,8.5 L 2,8.5 z
M 4.25,5 L 4,5 L 4,8.5 L 4.25,8.5 z
M 6.5,5 L 6.25,5 L 6.25,8.5 L 6.5,8.5 z
M -46.1485,5.80585 L -46.1029,5.79414 L -46.0591,5.77681 L -46.0178,5.75412 L -45.9797,5.72644 L -45.9454,5.6942
 L -45.9154,5.65791 L -45.8901,5.61815 L -45.8701,5.57555 L -45.8555,5.53075 L -45.8467,5.4845 L -45.8438,5.4375
 L -45.8467,5.39049 L -45.8555,5.34424 L -45.8701,5.29944 L -45.8901,5.25684 L -45.9154,5.21707 L -45.9454,5.18079
 L -45.9797,5.14854 L -46.0178,5.12086 L -46.0591,5.09818 L -46.1029,5.08084 L -46.1485,5.06914 L -46.1952,5.06323
 L -46.2423,5.06323 L -46.289,5.06914 L -46.3346,5.08084 L -46.3784,5.09818 L -46.4197,5.12086 L -46.4578,5.14854
 L -46.4921,5.18079 L -46.5221,5.21707 L -46.5474,5.25684 L -46.5674,5.29944 L -46.582,5.34424 L -46.5908,5.39049
 L -46.5938,5.43748 L -46.5908,5.4845 L -46.582,5.53075 L -46.5674,5.57555 L -46.5474,5.61815 L -46.5221,5.65791
 L -46.4921,5.6942 L -46.4578,5.72644 L -46.4197,5.75412 L -46.3784,5.77681 L -46.3346,5.79414 L -46.289,5.80585
 L -46.2423,5.81175 L -46.1952,5.81175 z
M -44.3672,5.80585 L -44.3216,5.79414 L -44.2778,5.77681 L -44.2366,5.75412 L -44.1985,5.72644 L -44.1641,5.6942
 L -44.1341,5.65791 L -44.1089,5.61815 L -44.0888,5.57555 L -44.0743,5.53075 L -44.0655,5.4845 L -44.0625,5.4375
 L -44.0655,5.39049 L -44.0743,5.34424 L -44.0888,5.29944 L -44.1089,5.25684 L -44.1341,5.21707 L -44.1641,5.18079
 L -44.1985,5.14854 L -44.2366,5.12086 L -44.2778,5.09818 L -44.3216,5.08084 L -44.3672,5.06914 L -44.414,5.06323
 L -44.4611,5.06323 L -44.5078,5.06914 L -44.5534,5.08084 L -44.5972,5.09818 L -44.6384,5.12086 L -44.6765,5.14854
 L -44.7109,5.18079 L -44.7409,5.21707 L -44.7661,5.25684 L -44.7862,5.29944 L -44.8007,5.34424 L -44.8096,5.39049
 L -44.8125,5.43748 L -44.8096,5.4845 L -44.8007,5.53075 L -44.7862,5.57555 L -44.7661,5.61815 L -44.7409,5.65791
 L -44.7109,5.6942 L -44.6765,5.72644 L -44.6384,5.75412 L -44.5972,5.77681 L -44.5534,5.79414 L -44.5078,5.80585
 L -44.4611,5.81175 L -44.414,5.81175 z
M -42.586,5.80585 L -42.5404,5.79414 L -42.4966,5.77681 L -42.4553,5.75412 L -42.4172,5.72644 L -42.3829,5.6942
 L -42.3529,5.65791 L -42.3276,5.61815 L -42.3076,5.57555 L -42.293,5.53075 L -42.2842,5.4845 L -42.2812,5.4375
 L -42.2842,5.39049 L -42.293,5.34424 L -42.3076,5.29944 L -42.3276,5.25684 L -42.3529,5.21707 L -42.3829,5.18079
 L -42.4172,5.14854 L -42.4553,5.12086 L -42.4966,5.09818 L -42.5404,5.08084 L -42.586,5.06914 L -42.6327,5.06323
 L -42.6798,5.06323 L -42.7265,5.06914 L -42.7721,5.08084 L -42.8159,5.09818 L -42.8572,5.12086 L -42.8953,5.14854
 L -42.9296,5.18079 L -42.9596,5.21707 L -42.9849,5.25684 L -43.0049,5.29944 L -43.0195,5.34424 L -43.0283,5.39049
 L -43.0312,5.43748 L -43.0283,5.4845 L -43.0195,5.53075 L -43.0049,5.57555 L -42.9849,5.61815 L -42.9596,5.65791
 L -42.9296,5.6942 L -42.8953,5.72644 L -42.8572,5.75412 L -42.8159,5.77681 L -42.7721,5.79414 L -42.7265,5.80585
 L -42.6798,5.81175 L -42.6327,5.81175 z
M -42.586,7.55585 L -42.5404,7.54414 L -42.4966,7.52681 L -42.4553,7.50412 L -42.4172,7.47644 L -42.3829,7.4442
 L -42.3529,7.40791 L -42.3276,7.36815 L -42.3076,7.32555 L -42.293,7.28075 L -42.2842,7.2345 L -42.2812,7.1875
 L -42.2842,7.14049 L -42.293,7.09424 L -42.3076,7.04944 L -42.3276,7.00684 L -42.3529,6.96707 L -42.3829,6.93079
 L -42.4172,6.89854 L -42.4553,6.87086 L -42.4966,6.84818 L -42.5404,6.83084 L -42.586,6.81914 L -42.6327,6.81323
 L -42.6798,6.81323 L -42.7265,6.81914 L -42.7721,6.83084 L -42.8159,6.84818 L -42.8572,6.87086 L -42.8953,6.89854
 L -42.9296,6.93079 L -42.9596,6.96707 L -42.9849,7.00684 L -43.0049,7.04944 L -43.0195,7.09424 L -43.0283,7.14049
 L -43.0312,7.1875 L -43.0283,7.2345 L -43.0195,7.28075 L -43.0049,7.32555 L -42.9849,7.36815 L -42.9596,7.40791
 L -42.9296,7.4442 L -42.8953,7.47644 L -42.8572,7.50412 L -42.8159,7.52681 L -42.7721,7.54414 L -42.7265,7.55585
 L -42.6798,7.56175 L -42.6327,7.56175 z
M -46.1485,7.55585 L -46.1029,7.54414 L -46.0591,7.52681 L -46.0178,7.50412 L -45.9797,7.47644 L -45.9454,7.4442
 L -45.9154,7.40791 L -45.8901,7.36815 L -45.8701,7.32555 L -45.8555,7.28075 L -45.8467,7.2345 L -45.8438,7.1875
 L -45.8467,7.14049 L -45.8555,7.09424 L -45.8701,7.04944 L -45.8901,7.00684 L -45.9154,6.96707 L -45.9454,6.93079
 L -45.9797,6.89854 L -46.0178,6.87086 L -46.0591,6.84818 L -46.1029,6.83084 L -46.1485,6.81914 L -46.1952,6.81323
 L -46.2423,6.81323 L -46.289,6.81914 L -46.3346,6.83084 L -46.3784,6.84818 L -46.4197,6.87086 L -46.4578,6.89854
 L -46.4921,6.93079 L -46.5221,6.96707 L -46.5474,7.00684 L -46.5674,7.04944 L -46.582,7.09424 L -46.5908,7.14049
 L -46.5938,7.1875 L -46.5908,7.2345 L -46.582,7.28075 L -46.5674,7.32555 L -46.5474,7.36815 L -46.5221,7.40791
 L -46.4921,7.4442 L -46.4578,7.47644 L -46.4197,7.50412 L -46.3784,7.52681 L -46.3346,7.54414 L -46.289,7.55585
 L -46.2423,7.56175 L -46.1952,7.56175 z
M -44.3672,7.55585 L -44.3216,7.54414 L -44.2778,7.52681 L -44.2366,7.50412 L -44.1985,7.47644 L -44.1641,7.4442
 L -44.1341,7.40791 L -44.1089,7.36815 L -44.0888,7.32555 L -44.0743,7.28075 L -44.0655,7.2345 L -44.0625,7.1875
 L -44.0655,7.14049 L -44.0743,7.09424 L -44.0888,7.04944 L -44.1089,7.00684 L -44.1341,6.96707 L -44.1641,6.93079
 L -44.1985,6.89854 L -44.2366,6.87086 L -44.2778,6.84818 L -44.3216,6.83084 L -44.3672,6.81914 L -44.414,6.81323
 L -44.4611,6.81323 L -44.5078,6.81914 L -44.5534,6.83084 L -44.5972,6.84818 L -44.6384,6.87086 L -44.6765,6.89854
 L -44.7109,6.93079 L -44.7409,6.96707 L -44.7661,7.00684 L -44.7862,7.04944 L -44.8007,7.09424 L -44.8096,7.14049
 L -44.8125,7.1875 L -44.8096,7.2345 L -44.8007,7.28075 L -44.7862,7.32555 L -44.7661,7.36815 L -44.7409,7.40791
 L -44.7109,7.4442 L -44.6765,7.47644 L -44.6384,7.50412 L -44.5972,7.52681 L -44.5534,7.54414 L -44.5078,7.55585
 L -44.4611,7.56175 L -44.414,7.56175 z
M -42.586,9.30585 L -42.5404,9.29414 L -42.4966,9.27681 L -42.4553,9.25412 L -42.4172,9.22644 L -42.3829,9.1942
 L -42.3529,9.15791 L -42.3276,9.11815 L -42.3076,9.07555 L -42.293,9.03075 L -42.2842,8.9845 L -42.2812,8.9375
 L -42.2842,8.89049 L -42.293,8.84424 L -42.3076,8.79944 L -42.3276,8.75684 L -42.3529,8.71707 L -42.3829,8.68079
 L -42.4172,8.64854 L -42.4553,8.62086 L -42.4966,8.59818 L -42.5404,8.58084 L -42.586,8.56914 L -42.6327,8.56323
 L -42.6798,8.56323 L -42.7265,8.56914 L -42.7721,8.58084 L -42.8159,8.59818 L -42.8572,8.62086 L -42.8953,8.64854
 L -42.9296,8.68079 L -42.9596,8.71707 L -42.9849,8.75684 L -43.0049,8.79944 L -43.0195,8.84424 L -43.0283,8.89049
 L -43.0312,8.9375 L -43.0283,8.9845 L -43.0195,9.03075 L -43.0049,9.07555 L -42.9849,9.11815 L -42.9596,9.15791
 L -42.9296,9.1942 L -42.8953,9.22644 L -42.8572,9.25412 L -42.8159,9.27681 L -42.7721,9.29414 L -42.7265,9.30585
 L -42.6798,9.31175 L -42.6327,9.31175 z
M -44.3672,9.30585 L -44.3216,9.29414 L -44.2778,9.27681 L -44.2366,9.25412 L -44.1985,9.22644 L -44.1641,9.1942
 L -44.1341,9.15791 L -44.1089,9.11815 L -44.0888,9.07555 L -44.0743,9.03075 L -44.0655,8.9845 L -44.0625,8.9375
 L -44.0655,8.89049 L -44.0743,8.84424 L -44.0888,8.79944 L -44.1089,8.75684 L -44.1341,8.71707 L -44.1641,8.68079
 L -44.1985,8.64854 L -44.2366,8.62086 L -44.2778,8.59818 L -44.3216,8.58084 L -44.3672,8.56914 L -44.414,8.56323
 L -44.4611,8.56323 L -44.5078,8.56914 L -44.5534,8.58084 L -44.5972,8.59818 L -44.6384,8.62086 L -44.6765,8.64854
 L -44.7109,8.68079 L -44.7409,8.71707 L -44.7661,8.75684 L -44.7862,8.79944 L -44.8007,8.84424 L -44.8096,8.89049
 L -44.8125,8.9375 L -44.8096,8.9845 L -44.8007,9.03075 L -44.7862,9.07555 L -44.7661,9.11815 L -44.7409,9.15791
 L -44.7109,9.1942 L -44.6765,9.22644 L -44.6384,9.25412 L -44.5972,9.27681 L -44.5534,9.29414 L -44.5078,9.30585
 L -44.4611,9.31175 L -44.414,9.31175 z
M -46.1485,9.30585 L -46.1029,9.29414 L -46.0591,9.27681 L -46.0178,9.25412 L -45.9797,9.22644 L -45.9454,9.1942
 L -45.9154,9.15791 L -45.8901,9.11815 L -45.8701,9.07555 L -45.8555,9.03075 L -45.8467,8.9845 L -45.8438,8.9375
 L -45.8467,8.89049 L -45.8555,8.84424 L -45.8701,8.79944 L -45.8901,8.75684 L -45.9154,8.71707 L -45.9454,8.68079
 L -45.9797,8.64854 L -46.0178,8.62086 L -46.0591,8.59818 L -46.1029,8.58084 L -46.1485,8.56914 L -46.1952,8.56323
 L -46.2423,8.56323 L -46.289,8.56914 L -46.3346,8.58084 L -46.3784,8.59818 L -46.4197,8.62086 L -46.4578,8.64854
 L -46.4921,8.68079 L -46.5221,8.71707 L -46.5474,8.75684 L -46.5674,8.79944 L -46.582,8.84424 L -46.5908,8.89049
 L -46.5938,8.9375 L -46.5908,8.9845 L -46.582,9.03075 L -46.5674,9.07555 L -46.5474,9.11815 L -46.5221,9.15791
 L -46.4921,9.1942 L -46.4578,9.22644 L -46.4197,9.25412 L -46.3784,9.27681 L -46.3346,9.29414 L -46.289,9.30585
 L -46.2423,9.31175 L -46.1952,9.31175 z
M -42.586,11.0558 L -42.5404,11.0441 L -42.4966,11.0268 L -42.4553,11.0041 L -42.4172,10.9764 L -42.3829,10.9442
 L -42.3529,10.9079 L -42.3276,10.8681 L -42.3076,10.8255 L -42.293,10.7807 L -42.2842,10.7345 L -42.2812,10.6875
 L -42.2842,10.6405 L -42.293,10.5942 L -42.3076,10.5494 L -42.3276,10.5068 L -42.3529,10.4671 L -42.3829,10.4308
 L -42.4172,10.3985 L -42.4553,10.3709 L -42.4966,10.3482 L -42.5404,10.3308 L -42.586,10.3191 L -42.6327,10.3132
 L -42.6798,10.3132 L -42.7265,10.3191 L -42.7721,10.3308 L -42.8159,10.3482 L -42.8572,10.3709 L -42.8953,10.3985
 L -42.9296,10.4308 L -42.9596,10.4671 L -42.9849,10.5068 L -43.0049,10.5494 L -43.0195,10.5942 L -43.0283,10.6405
 L -43.0312,10.6875 L -43.0283,10.7345 L -43.0195,10.7807 L -43.0049,10.8255 L -42.9849,10.8681 L -42.9596,10.9079
 L -42.9296,10.9442 L -42.8953,10.9764 L -42.8572,11.0041 L -42.8159,11.0268 L -42.7721,11.0441 L -42.7265,11.0558
 L -42.6798,11.0618 L -42.6327,11.0618 z
M -44.3672,11.0558 L -44.3216,11.0441 L -44.2778,11.0268 L -44.2366,11.0041 L -44.1985,10.9764 L -44.1641,10.9442
 L -44.1341,10.9079 L -44.1089,10.8681 L -44.0888,10.8255 L -44.0743,10.7807 L -44.0655,10.7345 L -44.0625,10.6875
 L -44.0655,10.6405 L -44.0743,10.5942 L -44.0888,10.5494 L -44.1089,10.5068 L -44.1341,10.4671 L -44.1641,10.4308
 L -44.1985,10.3985 L -44.2366,10.3709 L -44.2778,10.3482 L -44.3216,10.3308 L -44.3672,10.3191 L -44.414,10.3132
 L -44.4611,10.3132 L -44.5078,10.3191 L -44.5534,10.3308 L -44.5972,10.3482 L -44.6384,10.3709 L -44.6765,10.3985
 L -44.7109,10.4308 L -44.7409,10.4671 L -44.7661,10.5068 L -44.7862,10.5494 L -44.8007,10.5942 L -44.8096,10.6405
 L -44.8125,10.6875 L -44.8096,10.7345 L -44.8007,10.7807 L -44.7862,10.8255 L -44.7661,10.8681 L -44.7409,10.9079
 L -44.7109,10.9442 L -44.6765,10.9764 L -44.6384,11.0041 L -44.5972,11.0268 L -44.5534,11.0441 L -44.5078,11.0558
 L -44.4611,11.0618 L -44.414,11.0618 z
M -46.1485,11.0558 L -46.1029,11.0441 L -46.0591,11.0268 L -46.0178,11.0041 L -45.9797,10.9764 L -45.9454,10.9442
 L -45.9154,10.9079 L -45.8901,10.8681 L -45.8701,10.8255 L -45.8555,10.7807 L -45.8467,10.7345 L -45.8438,10.6875
 L -45.8467,10.6405 L -45.8555,10.5942 L -45.8701,10.5494 L -45.8901,10.5068 L -45.9154,10.4671 L -45.9454,10.4308
 L -45.9797,10.3985 L -46.0178,10.3709 L -46.0591,10.3482 L -46.1029,10.3308 L -46.1485,10.3191 L -46.1952,10.3132
 L -46.2423,10.3132 L -46.289,10.3191 L -46.3346,10.3308 L -46.3784,10.3482 L -46.4197,10.3709 L -46.4578,10.3985
 L -46.4921,10.4308 L -46.5221,10.4671 L -46.5474,10.5068 L -46.5674,10.5494 L -46.582,10.5942 L -46.5908,10.6405
 L -46.5938,10.6875 L -46.5908,10.7345 L -46.582,10.7807 L -46.5674,10.8255 L -46.5474,10.8681 L -46.5221,10.9079
 L -46.4921,10.9442 L -46.4578,10.9764 L -46.4197,11.0041 L -46.3784,11.0268 L -46.3346,11.0441 L -46.289,11.0558
 L -46.2423,11.0618 L -46.1952,11.0618 z
M -42.586,12.8058 L -42.5404,12.7941 L -42.4966,12.7768 L -42.4553,12.7541 L -42.4172,12.7264 L -42.3829,12.6942
 L -42.3529,12.6579 L -42.3276,12.6181 L -42.3076,12.5755 L -42.293,12.5307 L -42.2842,12.4845 L -42.2812,12.4375
 L -42.2842,12.3905 L -42.293,12.3442 L -42.3076,12.2994 L -42.3276,12.2568 L -42.3529,12.2171 L -42.3829,12.1808
 L -42.4172,12.1485 L -42.4553,12.1209 L -42.4966,12.0982 L -42.5404,12.0808 L -42.586,12.0691 L -42.6327,12.0632
 L -42.6798,12.0632 L -42.7265,12.0691 L -42.7721,12.0808 L -42.8159,12.0982 L -42.8572,12.1209 L -42.8953,12.1485
 L -42.9296,12.1808 L -42.9596,12.2171 L -42.9849,12.2568 L -43.0049,12.2994 L -43.0195,12.3442 L -43.0283,12.3905
 L -43.0312,12.4375 L -43.0283,12.4845 L -43.0195,12.5307 L -43.0049,12.5755 L -42.9849,12.6181 L -42.9596,12.6579
 L -42.9296,12.6942 L -42.8953,12.7264 L -42.8572,12.7541 L -42.8159,12.7768 L -42.7721,12.7941 L -42.7265,12.8058
 L -42.6798,12.8118 L -42.6327,12.8118 z
M -44.3672,12.8058 L -44.3216,12.7941 L -44.2778,12.7768 L -44.2366,12.7541 L -44.1985,12.7264 L -44.1641,12.6942
 L -44.1341,12.6579 L -44.1089,12.6181 L -44.0888,12.5755 L -44.0743,12.5307 L -44.0655,12.4845 L -44.0625,12.4375
 L -44.0655,12.3905 L -44.0743,12.3442 L -44.0888,12.2994 L -44.1089,12.2568 L -44.1341,12.2171 L -44.1641,12.1808
 L -44.1985,12.1485 L -44.2366,12.1209 L -44.2778,12.0982 L -44.3216,12.0808 L -44.3672,12.0691 L -44.414,12.0632
 L -44.4611,12.0632 L -44.5078,12.0691 L -44.5534,12.0808 L -44.5972,12.0982 L -44.6384,12.1209 L -44.6765,12.1485
 L -44.7109,12.1808 L -44.7409,12.2171 L -44.7661,12.2568 L -44.7862,12.2994 L -44.8007,12.3442 L -44.8096,12.3905
 L -44.8125,12.4375 L -44.8096,12.4845 L -44.8007,12.5307 L -44.7862,12.5755 L -44.7661,12.6181 L -44.7409,12.6579
 L -44.7109,12.6942 L -44.6765,12.7264 L -44.6384,12.7541 L -44.5972,12.7768 L -44.5534,12.7941 L -44.5078,12.8058
 L -44.4611,12.8118 L -44.414,12.8118 z
M -46.1485,12.8058 L -46.1029,12.7941 L -46.0591,12.7768 L -46.0178,12.7541 L -45.9797,12.7264 L -45.9454,12.6942
 L -45.9154,12.6579 L -45.8901,12.6181 L -45.8701,12.5755 L -45.8555,12.5307 L -45.8467,12.4845 L -45.8438,12.4375
 L -45.8467,12.3905 L -45.8555,12.3442 L -45.8701,12.2994 L -45.8901,12.2568 L -45.9154,12.2171 L -45.9454,12.1808
 L -45.9797,12.1485 L -46.0178,12.1209 L -46.0591,12.0982 L -46.1029,12.0808 L -46.1485,12.0691 L -46.1952,12.0632
 L -46.2423,12.0632 L -46.289,12.0691 L -46.3346,12.0808 L -46.3784,12.0982 L -46.4197,12.1209 L -46.4578,12.1485
 L -46.4921,12.1808 L -46.5221,12.2171 L -46.5474,12.2568 L -46.5674,12.2994 L -46.582,12.3442 L -46.5908,12.3905
 L -46.5938,12.4375 L -46.5908,12.4845 L -46.582,12.5307 L -46.5674,12.5755 L -46.5474,12.6181 L -46.5221,12.6579
 L -46.4921,12.6942 L -46.4578,12.7264 L -46.4197,12.7541 L -46.3784,12.7768 L -46.3346,12.7941 L -46.289,12.8058
 L -46.2423,12.8118 L -46.1952,12.8118 z
M -27.1603,18.3124 L -26.9841,18.2708 L -26.8221,18.2027 L -26.6816,18.1097 L -26.5643,17.991 L -26.474,17.8477
 L -26.4155,17.6801 L -26.396,17.4906 L -26.4256,17.2896 L -26.5129,17.1224 L -26.6499,16.9968 L -26.8401,16.921
 L -26.8716,16.8745 L -26.8716,16.8665 L -26.8431,16.8214 L -26.6873,16.7472 L -26.5821,16.6338 L -26.5179,16.485
 L -26.496,16.3123 L -26.5147,16.1538 L -26.5707,16.0158 L -26.6566,15.8955 L -26.766,15.7945 L -26.8952,15.7146
 L -27.0404,15.6574 L -27.1944,15.6223 L -27.3484,15.6107 L -27.5372,15.6267 L -27.7062,15.6743 L -27.854,15.7505
 L -27.9789,15.8529 L -28.0798,15.9789 L -28.1559,16.129 L -28.2057,16.2999 L -28.2216,16.4385 L -27.8029,16.4385
 L -27.785,16.2924 L -27.78,16.276 L -27.7022,16.122 L -27.6882,16.105 L -27.5567,16.003 L -27.5353,15.9934
 L -27.3528,15.9594 L -27.3354,15.9592 L -27.1942,15.9827 L -27.1776,15.9886 L -27.0539,16.0591 L -27.0387,16.0724
 L -26.9525,16.1869 L -26.9432,16.2079 L -26.9145,16.3634 L -26.9141,16.3791 L -26.9281,16.4846 L -26.9331,16.5007
 L -26.9751,16.5832 L -26.9848,16.5963 L -27.0483,16.6581 L -27.0582,16.6656 L -27.1459,16.715 L -27.2433,16.7466
 L -27.3458,16.7625 L -27.4465,16.766 L -27.4856,16.7645 L -27.4856,17.0472 L -27.3212,17.0529 L -27.2076,17.0684
 L -27.1111,17.0976 L -27.1008,17.1021 L -27.0163,17.1503 L -27.0049,17.1592 L -26.9375,17.23 L -26.9281,17.2439
 L -26.8831,17.3434 L -26.8789,17.3585 L -26.8639,17.495 L -26.8644,17.5093 L -26.8961,17.6873 L -26.9044,17.7072
 L -26.9997,17.8432 L -27.0147,17.8572 L -27.1554,17.9427 L -27.1731,17.9493 L -27.3434,17.9778 L -27.3563,17.9783
 L -27.4673,17.9678 L -27.4784,17.9655 L -27.5734,17.9339 L -27.5841,17.9289 L -27.6631,17.8797 L -27.6716,17.8729
 L -27.7366,17.8092 L -27.7435,17.8007 L -27.7984,17.7147 L -27.8383,17.6159 L -27.8629,17.5092 L -27.8688,17.4495
 L -28.2892,17.4495 L -28.2783,17.6121 L -28.2287,17.7964 L -28.1479,17.9533 L -28.0397,18.0842 L -27.9038,18.1877
 L -27.7408,18.2641 L -27.5529,18.3107 L -27.3447,18.3263 z
M 32.5531,18.3124 L 32.7292,18.2708 L 32.8913,18.2027 L 33.0318,18.1097 L 33.1491,17.991 L 33.2394,17.8477
 L 33.2979,17.6801 L 33.3174,17.4906 L 33.2878,17.2896 L 33.2005,17.1224 L 33.0635,16.9968 L 32.8732,16.921
 L 32.8418,16.8745 L 32.8418,16.8665 L 32.8703,16.8214 L 33.0261,16.7472 L 33.1313,16.6338 L 33.1955,16.485
 L 33.2174,16.3123 L 33.1987,16.1538 L 33.1427,16.0158 L 33.0568,15.8955 L 32.9474,15.7945 L 32.8182,15.7146
 L 32.673,15.6574 L 32.519,15.6223 L 32.365,15.6107 L 32.1762,15.6267 L 32.0072,15.6743 L 31.8594,15.7505
 L 31.7345,15.8529 L 31.6335,15.9789 L 31.5575,16.129 L 31.5077,16.2999 L 31.4918,16.4385 L 31.9105,16.4385
 L 31.9284,16.2924 L 31.9334,16.276 L 32.0111,16.122 L 32.0251,16.105 L 32.1566,16.003 L 32.1781,15.9934
 L 32.3606,15.9594 L 32.378,15.9592 L 32.5192,15.9827 L 32.5358,15.9886 L 32.6595,16.0591 L 32.6747,16.0724
 L 32.7609,16.1869 L 32.7702,16.2079 L 32.7989,16.3634 L 32.7993,16.3791 L 32.7853,16.4846 L 32.7803,16.5007
 L 32.7383,16.5832 L 32.7286,16.5963 L 32.6651,16.6581 L 32.6552,16.6656 L 32.5675,16.715 L 32.4701,16.7466
 L 32.3676,16.7625 L 32.2668,16.766 L 32.2278,16.7645 L 32.2278,17.0472 L 32.3922,17.0529 L 32.5058,17.0684
 L 32.6023,17.0976 L 32.6126,17.1021 L 32.6971,17.1503 L 32.7085,17.1592 L 32.7759,17.23 L 32.7853,17.2439
 L 32.8303,17.3434 L 32.8345,17.3585 L 32.8495,17.495 L 32.849,17.5093 L 32.8172,17.6873 L 32.809,17.7072
 L 32.7137,17.8432 L 32.6987,17.8572 L 32.558,17.9427 L 32.5403,17.9493 L 32.37,17.9778 L 32.3571,17.9783
 L 32.246,17.9678 L 32.235,17.9655 L 32.14,17.9339 L 32.1293,17.9289 L 32.0503,17.8797 L 32.0418,17.8729
 L 31.9768,17.8092 L 31.9698,17.8007 L 31.915,17.7147 L 31.8751,17.6159 L 31.8505,17.5092 L 31.8445,17.4495
 L 31.4242,17.4495 L 31.4351,17.6121 L 31.4846,17.7964 L 31.5655,17.9533 L 31.6736,18.0842 L 31.8096,18.1877
 L 31.9725,18.2641 L 32.1604,18.3107 L 32.3687,18.3263 z
M -40.6599,18.3098 L -40.4857,18.2609 L -40.3282,18.1736 L -40.1905,18.0424 L -40.0743,17.8614 L -39.9849,17.6248
 L -39.9271,17.3259 L -39.9077,16.9586 L -39.9271,16.6012 L -39.9849,16.3084 L -40.0742,16.0747 L -40.1904,15.8946
 L -40.3282,15.7637 L -40.4858,15.677 L -40.66,15.6274 L -40.8476,15.6107 L -41.0332,15.6274 L -41.2074,15.677
 L -41.364,15.7636 L -41.5006,15.8944 L -41.615,16.0746 L -41.7044,16.3084 L -41.7614,16.6011 L -41.7805,16.9586
 L -41.7614,17.3259 L -41.7043,17.6249 L -41.6149,17.8616 L -41.5006,18.0426 L -41.3639,18.1737 L -41.2074,18.2609
 L -41.0333,18.3098 L -40.8476,18.3263 z
M -40.8568,17.9776 L -41.0028,17.9504 L -41.0238,17.9411 L -41.1318,17.8594 L -41.1438,17.8463 L -41.2201,17.7263
 L -41.2247,17.7169 L -41.2796,17.5675 L -41.3124,17.4056 L -41.3286,17.2402 L -41.3339,17.0858 L -41.3351,16.8784
 L -41.3336,16.7854 L -41.3292,16.6828 L -41.3201,16.5761 L -41.3036,16.468 L -41.2791,16.3598 L -41.2442,16.2559
 L -41.1969,16.1619 L -41.1424,16.0879 L -41.1347,16.0796 L -41.0672,16.0216 L -41.0553,16.014 L -40.971,15.9757
 L -40.9565,15.9716 L -40.8538,15.9589 L -40.8415,15.9589 L -40.739,15.9716 L -40.7247,15.9756 L -40.6392,16.0139
 L -40.6277,16.021 L -40.5577,16.079 L -40.5498,16.0873 L -40.489,16.1689 L -40.4423,16.2628 L -40.4097,16.3651
 L -40.3872,16.4714 L -40.3709,16.5782 L -40.3597,16.6845 L -40.3546,16.7869 L -40.3526,16.9573 L -40.3547,17.0874
 L -40.3609,17.2433 L -40.3772,17.4109 L -40.4117,17.5748 L -40.4642,17.7168 L -40.4691,17.7266 L -40.5466,17.8466
 L -40.5588,17.8596 L -40.6685,17.9413 L -40.6894,17.9504 L -40.8386,17.9777 z
M 34.6267,18.3098 L 34.8009,18.2609 L 34.9584,18.1736 L 35.0961,18.0424 L 35.2124,17.8614 L 35.3017,17.6248
 L 35.3595,17.3259 L 35.3789,16.9586 L 35.3595,16.6012 L 35.3018,16.3084 L 35.2124,16.0747 L 35.0962,15.8946
 L 34.9585,15.7637 L 34.8009,15.677 L 34.6266,15.6274 L 34.439,15.6107 L 34.2534,15.6274 L 34.0792,15.677
 L 33.9226,15.7636 L 33.786,15.8944 L 33.6716,16.0746 L 33.5822,16.3084 L 33.5252,16.6011 L 33.5061,16.9586
 L 33.5252,17.3259 L 33.5823,17.6249 L 33.6717,17.8616 L 33.786,18.0426 L 33.9227,18.1737 L 34.0792,18.2609
 L 34.2533,18.3098 L 34.439,18.3263 z
M 34.4298,17.9776 L 34.2838,17.9504 L 34.2628,17.9411 L 34.1548,17.8594 L 34.1428,17.8463 L 34.0665,17.7263
 L 34.0619,17.7169 L 34.007,17.5675 L 33.9742,17.4056 L 33.958,17.2402 L 33.9527,17.0858 L 33.9515,16.8784
 L 33.953,16.7854 L 33.9574,16.6828 L 33.9666,16.5761 L 33.983,16.468 L 34.0075,16.3598 L 34.0424,16.2559
 L 34.0897,16.1619 L 34.1442,16.0879 L 34.1519,16.0796 L 34.2194,16.0216 L 34.2313,16.014 L 34.3156,15.9757
 L 34.3301,15.9716 L 34.4328,15.9589 L 34.4452,15.9589 L 34.5477,15.9716 L 34.5619,15.9756 L 34.6474,16.0139
 L 34.6589,16.021 L 34.7289,16.079 L 34.7369,16.0873 L 34.7976,16.1689 L 34.8443,16.2628 L 34.8769,16.3651
 L 34.8994,16.4714 L 34.9157,16.5782 L 34.9269,16.6845 L 34.932,16.7869 L 34.934,16.9573 L 34.9319,17.0874
 L 34.9258,17.2433 L 34.9095,17.4109 L 34.8749,17.5748 L 34.8224,17.7168 L 34.8175,17.7266 L 34.74,17.8466
 L 34.7279,17.8596 L 34.6181,17.9413 L 34.5972,17.9504 L 34.448,17.9777 z
M 48.1267,18.3098 L 48.3009,18.2609 L 48.4584,18.1736 L 48.5961,18.0424 L 48.7124,17.8614 L 48.8017,17.6248
 L 48.8595,17.3259 L 48.8789,16.9586 L 48.8595,16.6012 L 48.8018,16.3084 L 48.7124,16.0747 L 48.5962,15.8946
 L 48.4585,15.7637 L 48.3009,15.677 L 48.1266,15.6274 L 47.939,15.6107 L 47.7534,15.6274 L 47.5792,15.677
 L 47.4226,15.7636 L 47.286,15.8944 L 47.1716,16.0746 L 47.0822,16.3084 L 47.0252,16.6011 L 47.0061,16.9586
 L 47.0252,17.3259 L 47.0823,17.6249 L 47.1717,17.8616 L 47.286,18.0426 L 47.4227,18.1737 L 47.5792,18.2609
 L 47.7533,18.3098 L 47.939,18.3263 z
M 47.9298,17.9776 L 47.7838,17.9504 L 47.7628,17.9411 L 47.6548,17.8594 L 47.6428,17.8463 L 47.5665,17.7263
 L 47.5619,17.7169 L 47.507,17.5675 L 47.4742,17.4056 L 47.458,17.2402 L 47.4527,17.0858 L 47.4515,16.8784
 L 47.453,16.7854 L 47.4574,16.6828 L 47.4666,16.5761 L 47.483,16.468 L 47.5075,16.3598 L 47.5424,16.2559
 L 47.5897,16.1619 L 47.6442,16.0879 L 47.6519,16.0796 L 47.7194,16.0216 L 47.7313,16.014 L 47.8156,15.9757
 L 47.8301,15.9716 L 47.9328,15.9589 L 47.9452,15.9589 L 48.0477,15.9716 L 48.0619,15.9756 L 48.1474,16.0139
 L 48.1589,16.021 L 48.2289,16.079 L 48.2369,16.0873 L 48.2976,16.1689 L 48.3443,16.2628 L 48.3769,16.3651
 L 48.3994,16.4714 L 48.4157,16.5782 L 48.4269,16.6845 L 48.432,16.7869 L 48.434,16.9573 L 48.4319,17.0874
 L 48.4258,17.2433 L 48.4095,17.4109 L 48.3749,17.5748 L 48.3224,17.7168 L 48.3175,17.7266 L 48.24,17.8466
 L 48.2279,17.8596 L 48.1181,17.9413 L 48.0972,17.9504 L 47.948,17.9777 z
M 46.1072,18.3084 L 46.279,18.2553 L 46.4311,18.171 L 46.5603,18.0599 L 46.6645,17.9238 L 46.7417,17.7659
 L 46.7896,17.5885 L 46.8056,17.3964 L 46.7937,17.2442 L 46.7581,17.0943 L 46.6976,16.9538 L 46.6112,16.831
 L 46.4911,16.7243 L 46.3471,16.6413 L 46.1899,16.5884 L 46.0293,16.5708 L 45.8556,16.5861 L 45.7054,16.6315
 L 45.5765,16.7106 L 45.4604,16.8355 L 45.3884,16.8368 L 45.3804,16.8288 L 45.3659,16.7896 L 45.3761,16.6622
 L 45.3981,16.5188 L 45.4344,16.3699 L 45.4873,16.2288 L 45.5553,16.1091 L 45.5614,16.1006 L 45.6494,16.0013
 L 45.6606,15.9919 L 45.7706,15.9244 L 45.7885,15.9177 L 45.9225,15.8952 L 45.9415,15.8957 L 46.072,15.9244
 L 46.0926,15.9342 L 46.2001,16.0205 L 46.211,16.0328 L 46.2898,16.1576 L 46.2953,16.1696 L 46.3287,16.2785
 L 46.7486,16.2785 L 46.7262,16.1678 L 46.669,16.0233 L 46.5908,15.9001 L 46.4933,15.7988 L 46.3775,15.7188
 L 46.2444,15.66 L 46.0976,15.623 L 45.9398,15.6107 L 45.686,15.6413 L 45.4769,15.7317 L 45.3056,15.8706
 L 45.1671,16.0466 L 45.0614,16.2537 L 44.9885,16.4861 L 44.9468,16.7321 L 44.9328,16.9788 L 44.9441,17.2307
 L 44.9779,17.4775 L 45.0401,17.707 L 45.1365,17.909 L 45.2684,18.0782 L 45.4371,18.2108 L 45.6501,18.2971
 L 45.9161,18.3262 z
M 45.7961,17.9674 L 45.7841,17.9646 L 45.6973,17.9324 L 45.6864,17.9267 L 45.6046,17.869 L 45.5363,17.796
 L 45.4839,17.7106 L 45.4461,17.6158 L 45.4232,17.5148 L 45.4159,17.4131 L 45.4236,17.3064 L 45.4461,17.2036
 L 45.4836,17.1081 L 45.5302,17.0323 L 45.5367,17.0238 L 45.5977,16.9604 L 45.6066,16.953 L 45.6816,16.9045
 L 45.6921,16.8994 L 45.7814,16.8679 L 45.7929,16.8653 L 45.8946,16.8548 L 45.9056,16.8549 L 46.0031,16.8663
 L 46.0162,16.8697 L 46.1007,16.9042 L 46.1111,16.91 L 46.1829,16.962 L 46.1913,16.9697 L 46.2543,17.0439
 L 46.3016,17.129 L 46.3348,17.2237 L 46.3544,17.324 L 46.3606,17.4281 L 46.3528,17.5285 L 46.3303,17.6278
 L 46.2925,17.7219 L 46.2395,17.8054 L 46.1737,17.8754 L 46.1042,17.9259 L 46.0932,17.932 L 46.012,17.9642
 L 45.9992,17.9674 L 45.9055,17.9782 L 45.8943,17.9782 z
M -49.171,18.0878 L -49.0084,18.0303 L -48.8875,17.9374 L -48.7977,17.8101 L -48.7358,17.6481 L -48.6999,17.4534
 L -48.6822,17.2279 L -48.6763,16.9788 L -48.6822,16.7316 L -48.6999,16.5062 L -48.7359,16.3089 L -48.7978,16.1463
 L -48.8877,16.0177 L -49.0091,15.9218 L -49.1716,15.8609 L -49.3883,15.84 L -49.6052,15.8609 L -49.7683,15.9218
 L -49.8889,16.0176 L -49.9787,16.1464 L -50.0409,16.3091 L -50.0776,16.5062 L -50.0945,16.7316 L -50.1002,16.9788
 L -50.0945,17.2279 L -50.0776,17.4533 L -50.041,17.6481 L -49.9788,17.81 L -49.8892,17.9375 L -49.7691,18.0302
 L -49.6057,18.0878 L -49.3882,18.1075 z
M -49.4857,17.8756 L -49.5015,17.8708 L -49.5725,17.8355 L -49.5878,17.8237 L -49.6418,17.7622 L -49.6498,17.7498
 L -49.6929,17.6521 L -49.7215,17.528 L -49.7382,17.376 L -49.7465,17.1919 L -49.7493,16.9731 L -49.7464,16.7545
 L -49.7379,16.5702 L -49.7205,16.4162 L -49.6899,16.2884 L -49.6499,16.1987 L -49.6418,16.1859 L -49.5878,16.1247
 L -49.5729,16.1132 L -49.5019,16.0772 L -49.4858,16.0722 L -49.3948,16.0602 L -49.3817,16.0602 L -49.2914,16.0722
 L -49.2753,16.0772 L -49.2046,16.1132 L -49.1897,16.1247 L -49.1357,16.1859 L -49.1276,16.1987 L -49.0845,16.2975
 L -49.056,16.422 L -49.0393,16.5735 L -49.031,16.7561 L -49.0282,16.9744 L -49.0311,17.1935 L -49.0396,17.3793
 L -49.057,17.5338 L -49.0877,17.6613 L -49.1277,17.7498 L -49.1357,17.7622 L -49.1897,17.8237 L -49.205,17.8355
 L -49.2757,17.8707 L -49.2915,17.8756 L -49.3818,17.8873 L -49.3947,17.8873 z
M -48.006,17.1337 L -47.956,17.0837 L -47.253,17.0837 L -47.253,16.7998 L -47.956,16.7998 L -48.006,16.7498
 L -48.006,16.2378 L -47.956,16.1878 L -47.206,16.1878 L -47.206,15.9038 L -48.3569,15.9038 L -48.3569,18.0437
 L -48.006,18.0437 z
M -46.5939,17.1337 L -46.5439,17.0837 L -45.8409,17.0837 L -45.8409,16.7998 L -46.5439,16.7998 L -46.5939,16.7498
 L -46.5939,16.2378 L -46.5439,16.1878 L -45.7939,16.1878 L -45.7939,15.9038 L -46.9449,15.9038 L -46.9449,18.0437
 L -46.5939,18.0437 z
" stroke="red" fill="black" stroke-width="0.01"/>
</svg>
