M48
;DRILL file {KiCad 4.0.7} date Wednesday, September 20, 2017 'AMt' 09:11:50 AM
;FORMAT={-:-/ absolute / metric / decimal}
FMAT,2
METRIC,TZ
T1C0.400
T2C0.500
T3C0.600
T4C0.800
T5C1.000
%
G90
G05
M71
T1
X135.89Y-104.775
X144.145Y-101.6
X144.78Y-111.125
X146.05Y-85.09
X149.225Y-88.265
T2
X149.2Y-100.
X149.2Y-101.9
T3
X126.365Y-94.615
X126.365Y-100.33
X126.365Y-106.045
X127.635Y-94.615
X127.635Y-100.33
X127.635Y-106.045
X128.905Y-94.615
X128.905Y-100.33
X128.905Y-106.045
T4
X129.54Y-79.375
X129.54Y-81.915
X129.54Y-84.455
X129.54Y-86.995
X132.08Y-113.665
X133.35Y-92.075
X133.35Y-94.615
X133.35Y-97.155
X133.35Y-99.695
X133.35Y-102.235
X133.35Y-104.775
X133.35Y-107.315
X133.35Y-109.855
X137.16Y-79.375
X137.16Y-81.915
X137.16Y-84.455
X137.16Y-86.995
X140.97Y-92.075
X140.97Y-94.615
X140.97Y-97.155
X140.97Y-99.695
X140.97Y-102.235
X140.97Y-104.775
X140.97Y-107.315
X140.97Y-109.855
X142.24Y-78.105
X142.24Y-88.265
X142.24Y-113.665
X146.05Y-78.105
X146.05Y-88.265
X146.725Y-97.155
X146.725Y-104.775
X149.225Y-97.155
X149.225Y-104.775
X152.4Y-79.375
X152.4Y-81.915
X152.4Y-84.455
X152.4Y-86.995
X152.4Y-89.535
X152.4Y-92.075
X152.4Y-94.615
X152.4Y-97.155
X152.4Y-99.695
X152.4Y-102.235
X152.4Y-104.775
X152.4Y-107.315
X152.4Y-109.855
X152.4Y-112.395
X160.02Y-79.375
X160.02Y-81.915
X160.02Y-84.455
X160.02Y-86.995
X160.02Y-89.535
X160.02Y-92.075
X160.02Y-94.615
X160.02Y-97.155
X160.02Y-99.695
X160.02Y-102.235
X160.02Y-104.775
X160.02Y-107.315
X160.02Y-109.855
X160.02Y-112.395
X163.83Y-94.655
X163.83Y-97.155
T5
X125.73Y-79.375
X125.73Y-81.915
X125.73Y-85.725
X125.73Y-88.265
X134.62Y-73.025
X137.16Y-73.025
X139.7Y-73.025
X154.94Y-73.025
X157.48Y-73.025
X165.1Y-81.28
X165.1Y-83.82
X165.1Y-86.36
T0
M30
