G04 #@! TF.GenerationSoftware,KiCad,Pcbnew,(6.0.10-0)*
G04 #@! TF.CreationDate,2023-01-21T10:55:34-08:00*
G04 #@! TF.ProjectId,timer,74696d65-722e-46b6-9963-61645f706362,rev?*
G04 #@! TF.SameCoordinates,Original*
G04 #@! TF.FileFunction,Copper,L1,Top*
G04 #@! TF.FilePolarity,Positive*
%FSLAX46Y46*%
G04 Gerber Fmt 4.6, Leading zero omitted, Abs format (unit mm)*
G04 Created by KiCad (PCBNEW (6.0.10-0)) date 2023-01-21 10:55:34*
%MOMM*%
%LPD*%
G01*
G04 APERTURE LIST*
G04 #@! TA.AperFunction,ComponentPad*
%ADD10O,1.600000X1.600000*%
G04 #@! TD*
G04 #@! TA.AperFunction,ComponentPad*
%ADD11R,1.600000X1.600000*%
G04 #@! TD*
G04 #@! TA.AperFunction,ComponentPad*
%ADD12C,1.000000*%
G04 #@! TD*
G04 #@! TA.AperFunction,ComponentPad*
%ADD13C,1.600000*%
G04 #@! TD*
G04 #@! TA.AperFunction,ComponentPad*
%ADD14O,2.200000X2.200000*%
G04 #@! TD*
G04 #@! TA.AperFunction,ComponentPad*
%ADD15R,2.200000X2.200000*%
G04 #@! TD*
G04 #@! TA.AperFunction,ComponentPad*
%ADD16O,1.700000X1.700000*%
G04 #@! TD*
G04 #@! TA.AperFunction,ComponentPad*
%ADD17R,1.700000X1.700000*%
G04 #@! TD*
G04 #@! TA.AperFunction,ComponentPad*
%ADD18C,2.000000*%
G04 #@! TD*
G04 #@! TA.AperFunction,ComponentPad*
%ADD19R,2.000000X2.000000*%
G04 #@! TD*
G04 #@! TA.AperFunction,ComponentPad*
%ADD20C,1.500000*%
G04 #@! TD*
G04 #@! TA.AperFunction,ComponentPad*
%ADD21R,1.500000X1.500000*%
G04 #@! TD*
G04 #@! TA.AperFunction,Conductor*
%ADD22C,0.508000*%
G04 #@! TD*
G04 #@! TA.AperFunction,Conductor*
%ADD23C,0.254000*%
G04 #@! TD*
G04 APERTURE END LIST*
D10*
X159004000Y-79502000D03*
X159004000Y-82042000D03*
X159004000Y-84582000D03*
X159004000Y-87122000D03*
X159004000Y-89662000D03*
X159004000Y-92202000D03*
X159004000Y-94742000D03*
X159004000Y-97282000D03*
X159004000Y-99822000D03*
X159004000Y-102362000D03*
X159004000Y-104902000D03*
X159004000Y-107442000D03*
X159004000Y-109982000D03*
X159004000Y-112522000D03*
X151384000Y-112522000D03*
X151384000Y-109982000D03*
X151384000Y-107442000D03*
X151384000Y-104902000D03*
X151384000Y-102362000D03*
X151384000Y-99822000D03*
X151384000Y-97282000D03*
X151384000Y-94742000D03*
X151384000Y-92202000D03*
X151384000Y-89662000D03*
X151384000Y-87122000D03*
X151384000Y-84582000D03*
X151384000Y-82042000D03*
D11*
X151384000Y-79502000D03*
D12*
X147828000Y-100208000D03*
X147828000Y-102108000D03*
D13*
X148082000Y-94702000D03*
X148082000Y-89702000D03*
X162306000Y-104822000D03*
X162306000Y-99822000D03*
X130810000Y-81962000D03*
X130810000Y-76962000D03*
X137842000Y-104902000D03*
X132842000Y-104902000D03*
X162306000Y-94528000D03*
X162306000Y-97028000D03*
X141772000Y-102870000D03*
X144272000Y-102870000D03*
X141772000Y-99568000D03*
X144272000Y-99568000D03*
D14*
X136398000Y-76962000D03*
D15*
X133858000Y-76962000D03*
D14*
X135382000Y-108458000D03*
D15*
X132842000Y-108458000D03*
D16*
X136398000Y-72390000D03*
D17*
X133858000Y-72390000D03*
D16*
X141986000Y-72390000D03*
X144526000Y-72390000D03*
D17*
X147066000Y-72390000D03*
D10*
X145288000Y-86106000D03*
D13*
X145288000Y-83566000D03*
D10*
X147828000Y-110998000D03*
D13*
X145288000Y-110998000D03*
D16*
X135382000Y-113030000D03*
D17*
X132842000Y-113030000D03*
D16*
X157734000Y-72390000D03*
X155194000Y-72390000D03*
D17*
X152654000Y-72390000D03*
X125730000Y-104140000D03*
D16*
X125730000Y-106680000D03*
D18*
X135890000Y-87964000D03*
D19*
X135890000Y-92964000D03*
D20*
X133604000Y-81026000D03*
X136144000Y-81026000D03*
D21*
X138684000Y-81026000D03*
D20*
X140462000Y-113538000D03*
X140462000Y-110998000D03*
D21*
X140462000Y-108458000D03*
D10*
X147828000Y-107442000D03*
D13*
X145288000Y-107442000D03*
X157654000Y-75946000D03*
X152654000Y-75946000D03*
D10*
X132842000Y-101346000D03*
D13*
X135382000Y-101346000D03*
D10*
X141732000Y-81026000D03*
D13*
X141732000Y-83566000D03*
D14*
X125730000Y-99314000D03*
D15*
X125730000Y-96774000D03*
D22*
X148082000Y-94702000D02*
X137628000Y-94702000D01*
X137628000Y-94702000D02*
X135890000Y-92964000D01*
D23*
X141732000Y-83566000D02*
X138684000Y-83566000D01*
X138684000Y-83566000D02*
X136144000Y-81026000D01*
X145288000Y-83566000D02*
X141732000Y-83566000D01*
X151384000Y-87122000D02*
X146304000Y-87122000D01*
X146304000Y-87122000D02*
X145288000Y-86106000D01*
X147828000Y-102108000D02*
X145034000Y-102108000D01*
X145034000Y-102108000D02*
X144272000Y-102870000D01*
X147828000Y-100208000D02*
X144912000Y-100208000D01*
X144912000Y-100208000D02*
X144272000Y-99568000D01*
X147828000Y-102108000D02*
X151130000Y-102108000D01*
X147828000Y-100208000D02*
X150998000Y-100208000D01*
X141986000Y-72390000D02*
X141986000Y-75184000D01*
X141986000Y-75184000D02*
X151384000Y-84582000D01*
X144526000Y-72390000D02*
X144526000Y-75184000D01*
X144526000Y-75184000D02*
X151384000Y-82042000D01*
X147066000Y-72390000D02*
X147066000Y-75184000D01*
X147066000Y-75184000D02*
X151384000Y-79502000D01*
D22*
X152654000Y-75946000D02*
X152654000Y-96012000D01*
X152654000Y-96012000D02*
X151384000Y-94742000D01*
D23*
X159004000Y-97282000D02*
X162052000Y-97282000D01*
D22*
X157654000Y-75946000D02*
X157654000Y-88312000D01*
X157654000Y-88312000D02*
X159004000Y-89662000D01*
X157734000Y-72390000D02*
X157734000Y-75866000D01*
D23*
X155194000Y-72390000D02*
X155194000Y-88392000D01*
X155194000Y-88392000D02*
X159004000Y-92202000D01*
D22*
X138684000Y-81026000D02*
X138684000Y-79248000D01*
X138684000Y-79248000D02*
X136398000Y-76962000D01*
X136398000Y-72390000D02*
X136398000Y-76962000D01*
X125730000Y-104140000D02*
X125730000Y-99314000D01*
X132842000Y-104902000D02*
X132842000Y-101346000D01*
X132842000Y-108458000D02*
X132842000Y-104902000D01*
X132842000Y-113030000D02*
X132842000Y-108458000D01*
X135382000Y-108458000D02*
X135382000Y-113030000D01*
X140462000Y-108458000D02*
X135382000Y-108458000D01*
D23*
X145288000Y-107442000D02*
X145288000Y-110998000D01*
X145288000Y-110998000D02*
X140462000Y-110998000D01*
X151384000Y-107442000D02*
X147828000Y-110998000D01*
D22*
X135890000Y-92964000D02*
X135890000Y-100838000D01*
X135890000Y-100838000D02*
X135382000Y-101346000D01*
X132396800Y-78548800D02*
X130810000Y-76962000D01*
X135890000Y-92964000D02*
X132396800Y-89470800D01*
X133858000Y-76962000D02*
X132396800Y-78423200D01*
X132396800Y-89470800D02*
X132396800Y-78548800D01*
X132396800Y-78423200D02*
X132396800Y-78548800D01*
X152654000Y-72390000D02*
X152654000Y-75946000D01*
X156464000Y-99822000D02*
X152654000Y-96012000D01*
X133858000Y-76962000D02*
X133858000Y-72390000D01*
X129540000Y-92964000D02*
X125730000Y-96774000D01*
X135890000Y-92964000D02*
X129540000Y-92964000D01*
X162306000Y-99822000D02*
X156464000Y-99822000D01*
X148082000Y-94702000D02*
X151344000Y-94702000D01*
M02*
