G04 #@! TF.FileFunction,Legend,Top*
%FSLAX46Y46*%
G04 Gerber Fmt 4.6, Leading zero omitted, Abs format (unit mm)*
G04 Created by KiCad (PCBNEW 4.0.7) date Wednesday, September 20, 2017 'AMt' 09:11:25 AM*
%MOMM*%
%LPD*%
G01*
G04 APERTURE LIST*
%ADD10C,0.100000*%
%ADD11C,0.120000*%
%ADD12C,0.150000*%
G04 APERTURE END LIST*
D10*
D11*
X136160000Y-90685000D02*
X134390000Y-90685000D01*
X134390000Y-90685000D02*
X134390000Y-111245000D01*
X134390000Y-111245000D02*
X139930000Y-111245000D01*
X139930000Y-111245000D02*
X139930000Y-90685000D01*
X139930000Y-90685000D02*
X138160000Y-90685000D01*
X138160000Y-90685000D02*
G75*
G02X136160000Y-90685000I-1000000J0D01*
G01*
X162520000Y-98465000D02*
X162520000Y-93345000D01*
X165140000Y-98465000D02*
X165140000Y-93345000D01*
X162520000Y-98465000D02*
X165140000Y-98465000D01*
X162520000Y-93345000D02*
X165140000Y-93345000D01*
X150535000Y-106085000D02*
X145415000Y-106085000D01*
X150535000Y-103465000D02*
X145415000Y-103465000D01*
X150535000Y-106085000D02*
X150535000Y-103465000D01*
X145415000Y-106085000D02*
X145415000Y-103465000D01*
X150535000Y-98465000D02*
X145415000Y-98465000D01*
X150535000Y-95845000D02*
X145415000Y-95845000D01*
X150535000Y-98465000D02*
X150535000Y-95845000D01*
X145415000Y-98465000D02*
X145415000Y-95845000D01*
X143550000Y-79975000D02*
X140930000Y-79975000D01*
X140930000Y-79975000D02*
X140930000Y-86395000D01*
X140930000Y-86395000D02*
X143550000Y-86395000D01*
X143550000Y-86395000D02*
X143550000Y-79975000D01*
X142240000Y-79085000D02*
X142240000Y-79975000D01*
X142240000Y-87285000D02*
X142240000Y-86395000D01*
X147360000Y-79975000D02*
X144740000Y-79975000D01*
X144740000Y-79975000D02*
X144740000Y-86395000D01*
X144740000Y-86395000D02*
X147360000Y-86395000D01*
X147360000Y-86395000D02*
X147360000Y-79975000D01*
X146050000Y-79085000D02*
X146050000Y-79975000D01*
X146050000Y-87285000D02*
X146050000Y-86395000D01*
X133950000Y-112355000D02*
X133950000Y-114975000D01*
X133950000Y-114975000D02*
X140370000Y-114975000D01*
X140370000Y-114975000D02*
X140370000Y-112355000D01*
X140370000Y-112355000D02*
X133950000Y-112355000D01*
X133060000Y-113665000D02*
X133950000Y-113665000D01*
X141260000Y-113665000D02*
X140370000Y-113665000D01*
X155210000Y-77985000D02*
X153440000Y-77985000D01*
X153440000Y-77985000D02*
X153440000Y-113785000D01*
X153440000Y-113785000D02*
X158980000Y-113785000D01*
X158980000Y-113785000D02*
X158980000Y-77985000D01*
X158980000Y-77985000D02*
X157210000Y-77985000D01*
X157210000Y-77985000D02*
G75*
G02X155210000Y-77985000I-1000000J0D01*
G01*
X134350000Y-88385000D02*
X136120000Y-88385000D01*
X136120000Y-88385000D02*
X136120000Y-77985000D01*
X136120000Y-77985000D02*
X130580000Y-77985000D01*
X130580000Y-77985000D02*
X130580000Y-88385000D01*
X130580000Y-88385000D02*
X132350000Y-88385000D01*
X132350000Y-88385000D02*
G75*
G02X134350000Y-88385000I1000000J0D01*
G01*
X149199600Y-99249720D02*
G75*
G03X149199600Y-102649720I0J-1700000D01*
G01*
X149199600Y-99249720D02*
G75*
G02X149199600Y-102649720I0J-1700000D01*
G01*
X158810000Y-74355000D02*
X158810000Y-71695000D01*
X156210000Y-74355000D02*
X158810000Y-74355000D01*
X156210000Y-71695000D02*
X158810000Y-71695000D01*
X156210000Y-74355000D02*
X156210000Y-71695000D01*
X154940000Y-74355000D02*
X153610000Y-74355000D01*
X153610000Y-74355000D02*
X153610000Y-73025000D01*
X124400000Y-83245000D02*
X127060000Y-83245000D01*
X124400000Y-80645000D02*
X124400000Y-83245000D01*
X127060000Y-80645000D02*
X127060000Y-83245000D01*
X124400000Y-80645000D02*
X127060000Y-80645000D01*
X124400000Y-79375000D02*
X124400000Y-78045000D01*
X124400000Y-78045000D02*
X125730000Y-78045000D01*
X141030000Y-74355000D02*
X141030000Y-71695000D01*
X135890000Y-74355000D02*
X141030000Y-74355000D01*
X135890000Y-71695000D02*
X141030000Y-71695000D01*
X135890000Y-74355000D02*
X135890000Y-71695000D01*
X134620000Y-74355000D02*
X133290000Y-74355000D01*
X133290000Y-74355000D02*
X133290000Y-73025000D01*
X163770000Y-87690000D02*
X166430000Y-87690000D01*
X163770000Y-82550000D02*
X163770000Y-87690000D01*
X166430000Y-82550000D02*
X166430000Y-87690000D01*
X163770000Y-82550000D02*
X166430000Y-82550000D01*
X163770000Y-81280000D02*
X163770000Y-79950000D01*
X163770000Y-79950000D02*
X165100000Y-79950000D01*
X124400000Y-89595000D02*
X127060000Y-89595000D01*
X124400000Y-86995000D02*
X124400000Y-89595000D01*
X127060000Y-86995000D02*
X127060000Y-89595000D01*
X124400000Y-86995000D02*
X127060000Y-86995000D01*
X124400000Y-85725000D02*
X124400000Y-84395000D01*
X124400000Y-84395000D02*
X125730000Y-84395000D01*
X125835000Y-107895000D02*
X129435000Y-107895000D01*
X125796522Y-107883478D02*
G75*
G02X127635000Y-103445000I1838478J1838478D01*
G01*
X129473478Y-107883478D02*
G75*
G03X127635000Y-103445000I-1838478J1838478D01*
G01*
X129435000Y-92765000D02*
X125835000Y-92765000D01*
X129473478Y-92776522D02*
G75*
G02X127635000Y-97215000I-1838478J-1838478D01*
G01*
X125796522Y-92776522D02*
G75*
G03X127635000Y-97215000I1838478J-1838478D01*
G01*
X125835000Y-102180000D02*
X129435000Y-102180000D01*
X125796522Y-102168478D02*
G75*
G02X127635000Y-97730000I1838478J1838478D01*
G01*
X129473478Y-102168478D02*
G75*
G03X127635000Y-97730000I-1838478J1838478D01*
G01*
D12*
X136398095Y-89622381D02*
X136398095Y-90431905D01*
X136445714Y-90527143D01*
X136493333Y-90574762D01*
X136588571Y-90622381D01*
X136779048Y-90622381D01*
X136874286Y-90574762D01*
X136921905Y-90527143D01*
X136969524Y-90431905D01*
X136969524Y-89622381D01*
X137350476Y-89622381D02*
X137969524Y-89622381D01*
X137636190Y-90003333D01*
X137779048Y-90003333D01*
X137874286Y-90050952D01*
X137921905Y-90098571D01*
X137969524Y-90193810D01*
X137969524Y-90431905D01*
X137921905Y-90527143D01*
X137874286Y-90574762D01*
X137779048Y-90622381D01*
X137493333Y-90622381D01*
X137398095Y-90574762D01*
X137350476Y-90527143D01*
X166727143Y-96051666D02*
X166774762Y-96099285D01*
X166822381Y-96242142D01*
X166822381Y-96337380D01*
X166774762Y-96480238D01*
X166679524Y-96575476D01*
X166584286Y-96623095D01*
X166393810Y-96670714D01*
X166250952Y-96670714D01*
X166060476Y-96623095D01*
X165965238Y-96575476D01*
X165870000Y-96480238D01*
X165822381Y-96337380D01*
X165822381Y-96242142D01*
X165870000Y-96099285D01*
X165917619Y-96051666D01*
X166822381Y-95099285D02*
X166822381Y-95670714D01*
X166822381Y-95385000D02*
X165822381Y-95385000D01*
X165965238Y-95480238D01*
X166060476Y-95575476D01*
X166108095Y-95670714D01*
X147788334Y-107672143D02*
X147740715Y-107719762D01*
X147597858Y-107767381D01*
X147502620Y-107767381D01*
X147359762Y-107719762D01*
X147264524Y-107624524D01*
X147216905Y-107529286D01*
X147169286Y-107338810D01*
X147169286Y-107195952D01*
X147216905Y-107005476D01*
X147264524Y-106910238D01*
X147359762Y-106815000D01*
X147502620Y-106767381D01*
X147597858Y-106767381D01*
X147740715Y-106815000D01*
X147788334Y-106862619D01*
X148169286Y-106862619D02*
X148216905Y-106815000D01*
X148312143Y-106767381D01*
X148550239Y-106767381D01*
X148645477Y-106815000D01*
X148693096Y-106862619D01*
X148740715Y-106957857D01*
X148740715Y-107053095D01*
X148693096Y-107195952D01*
X148121667Y-107767381D01*
X148740715Y-107767381D01*
X147788334Y-94972143D02*
X147740715Y-95019762D01*
X147597858Y-95067381D01*
X147502620Y-95067381D01*
X147359762Y-95019762D01*
X147264524Y-94924524D01*
X147216905Y-94829286D01*
X147169286Y-94638810D01*
X147169286Y-94495952D01*
X147216905Y-94305476D01*
X147264524Y-94210238D01*
X147359762Y-94115000D01*
X147502620Y-94067381D01*
X147597858Y-94067381D01*
X147740715Y-94115000D01*
X147788334Y-94162619D01*
X148121667Y-94067381D02*
X148740715Y-94067381D01*
X148407381Y-94448333D01*
X148550239Y-94448333D01*
X148645477Y-94495952D01*
X148693096Y-94543571D01*
X148740715Y-94638810D01*
X148740715Y-94876905D01*
X148693096Y-94972143D01*
X148645477Y-95019762D01*
X148550239Y-95067381D01*
X148264524Y-95067381D01*
X148169286Y-95019762D01*
X148121667Y-94972143D01*
X140152381Y-83351666D02*
X139676190Y-83685000D01*
X140152381Y-83923095D02*
X139152381Y-83923095D01*
X139152381Y-83542142D01*
X139200000Y-83446904D01*
X139247619Y-83399285D01*
X139342857Y-83351666D01*
X139485714Y-83351666D01*
X139580952Y-83399285D01*
X139628571Y-83446904D01*
X139676190Y-83542142D01*
X139676190Y-83923095D01*
X140152381Y-82399285D02*
X140152381Y-82970714D01*
X140152381Y-82685000D02*
X139152381Y-82685000D01*
X139295238Y-82780238D01*
X139390476Y-82875476D01*
X139438095Y-82970714D01*
X149042381Y-83351666D02*
X148566190Y-83685000D01*
X149042381Y-83923095D02*
X148042381Y-83923095D01*
X148042381Y-83542142D01*
X148090000Y-83446904D01*
X148137619Y-83399285D01*
X148232857Y-83351666D01*
X148375714Y-83351666D01*
X148470952Y-83399285D01*
X148518571Y-83446904D01*
X148566190Y-83542142D01*
X148566190Y-83923095D01*
X148137619Y-82970714D02*
X148090000Y-82923095D01*
X148042381Y-82827857D01*
X148042381Y-82589761D01*
X148090000Y-82494523D01*
X148137619Y-82446904D01*
X148232857Y-82399285D01*
X148328095Y-82399285D01*
X148470952Y-82446904D01*
X149042381Y-83018333D01*
X149042381Y-82399285D01*
X144613334Y-114117381D02*
X144280000Y-113641190D01*
X144041905Y-114117381D02*
X144041905Y-113117381D01*
X144422858Y-113117381D01*
X144518096Y-113165000D01*
X144565715Y-113212619D01*
X144613334Y-113307857D01*
X144613334Y-113450714D01*
X144565715Y-113545952D01*
X144518096Y-113593571D01*
X144422858Y-113641190D01*
X144041905Y-113641190D01*
X144946667Y-113117381D02*
X145565715Y-113117381D01*
X145232381Y-113498333D01*
X145375239Y-113498333D01*
X145470477Y-113545952D01*
X145518096Y-113593571D01*
X145565715Y-113688810D01*
X145565715Y-113926905D01*
X145518096Y-114022143D01*
X145470477Y-114069762D01*
X145375239Y-114117381D01*
X145089524Y-114117381D01*
X144994286Y-114069762D01*
X144946667Y-114022143D01*
X155448095Y-76922381D02*
X155448095Y-77731905D01*
X155495714Y-77827143D01*
X155543333Y-77874762D01*
X155638571Y-77922381D01*
X155829048Y-77922381D01*
X155924286Y-77874762D01*
X155971905Y-77827143D01*
X156019524Y-77731905D01*
X156019524Y-76922381D01*
X157019524Y-77922381D02*
X156448095Y-77922381D01*
X156733809Y-77922381D02*
X156733809Y-76922381D01*
X156638571Y-77065238D01*
X156543333Y-77160476D01*
X156448095Y-77208095D01*
X132588095Y-76287381D02*
X132588095Y-77096905D01*
X132635714Y-77192143D01*
X132683333Y-77239762D01*
X132778571Y-77287381D01*
X132969048Y-77287381D01*
X133064286Y-77239762D01*
X133111905Y-77192143D01*
X133159524Y-77096905D01*
X133159524Y-76287381D01*
X133588095Y-76382619D02*
X133635714Y-76335000D01*
X133730952Y-76287381D01*
X133969048Y-76287381D01*
X134064286Y-76335000D01*
X134111905Y-76382619D01*
X134159524Y-76477857D01*
X134159524Y-76573095D01*
X134111905Y-76715952D01*
X133540476Y-77287381D01*
X134159524Y-77287381D01*
X146661190Y-101441191D02*
X147137381Y-101441191D01*
X146137381Y-101774524D02*
X146661190Y-101441191D01*
X146137381Y-101107857D01*
X147137381Y-100250714D02*
X147137381Y-100822143D01*
X147137381Y-100536429D02*
X146137381Y-100536429D01*
X146280238Y-100631667D01*
X146375476Y-100726905D01*
X146423095Y-100822143D01*
X155424286Y-75493571D02*
X155567143Y-75541190D01*
X155614762Y-75588810D01*
X155662381Y-75684048D01*
X155662381Y-75826905D01*
X155614762Y-75922143D01*
X155567143Y-75969762D01*
X155471905Y-76017381D01*
X155090952Y-76017381D01*
X155090952Y-75017381D01*
X155424286Y-75017381D01*
X155519524Y-75065000D01*
X155567143Y-75112619D01*
X155614762Y-75207857D01*
X155614762Y-75303095D01*
X155567143Y-75398333D01*
X155519524Y-75445952D01*
X155424286Y-75493571D01*
X155090952Y-75493571D01*
X155948095Y-75017381D02*
X156519524Y-75017381D01*
X156233809Y-76017381D02*
X156233809Y-75017381D01*
X157376667Y-76017381D02*
X156805238Y-76017381D01*
X157090952Y-76017381D02*
X157090952Y-75017381D01*
X156995714Y-75160238D01*
X156900476Y-75255476D01*
X156805238Y-75303095D01*
X122642381Y-80978333D02*
X123356667Y-80978333D01*
X123499524Y-81025953D01*
X123594762Y-81121191D01*
X123642381Y-81264048D01*
X123642381Y-81359286D01*
X123642381Y-79978333D02*
X123642381Y-80549762D01*
X123642381Y-80264048D02*
X122642381Y-80264048D01*
X122785238Y-80359286D01*
X122880476Y-80454524D01*
X122928095Y-80549762D01*
X136826667Y-75017381D02*
X136826667Y-75731667D01*
X136779047Y-75874524D01*
X136683809Y-75969762D01*
X136540952Y-76017381D01*
X136445714Y-76017381D01*
X137255238Y-75112619D02*
X137302857Y-75065000D01*
X137398095Y-75017381D01*
X137636191Y-75017381D01*
X137731429Y-75065000D01*
X137779048Y-75112619D01*
X137826667Y-75207857D01*
X137826667Y-75303095D01*
X137779048Y-75445952D01*
X137207619Y-76017381D01*
X137826667Y-76017381D01*
X162012381Y-84153333D02*
X162726667Y-84153333D01*
X162869524Y-84200953D01*
X162964762Y-84296191D01*
X163012381Y-84439048D01*
X163012381Y-84534286D01*
X162345714Y-83248571D02*
X163012381Y-83248571D01*
X161964762Y-83486667D02*
X162679048Y-83724762D01*
X162679048Y-83105714D01*
X123642381Y-87637857D02*
X123642381Y-88114048D01*
X122642381Y-88114048D01*
X123594762Y-87352143D02*
X123642381Y-87209286D01*
X123642381Y-86971190D01*
X123594762Y-86875952D01*
X123547143Y-86828333D01*
X123451905Y-86780714D01*
X123356667Y-86780714D01*
X123261429Y-86828333D01*
X123213810Y-86875952D01*
X123166190Y-86971190D01*
X123118571Y-87161667D01*
X123070952Y-87256905D01*
X123023333Y-87304524D01*
X122928095Y-87352143D01*
X122832857Y-87352143D01*
X122737619Y-87304524D01*
X122690000Y-87256905D01*
X122642381Y-87161667D01*
X122642381Y-86923571D01*
X122690000Y-86780714D01*
X123642381Y-85828333D02*
X123642381Y-86399762D01*
X123642381Y-86114048D02*
X122642381Y-86114048D01*
X122785238Y-86209286D01*
X122880476Y-86304524D01*
X122928095Y-86399762D01*
X123729762Y-106592619D02*
X123634524Y-106545000D01*
X123539286Y-106449762D01*
X123396429Y-106306905D01*
X123301190Y-106259286D01*
X123205952Y-106259286D01*
X123253571Y-106497381D02*
X123158333Y-106449762D01*
X123063095Y-106354524D01*
X123015476Y-106164048D01*
X123015476Y-105830714D01*
X123063095Y-105640238D01*
X123158333Y-105545000D01*
X123253571Y-105497381D01*
X123444048Y-105497381D01*
X123539286Y-105545000D01*
X123634524Y-105640238D01*
X123682143Y-105830714D01*
X123682143Y-106164048D01*
X123634524Y-106354524D01*
X123539286Y-106449762D01*
X123444048Y-106497381D01*
X123253571Y-106497381D01*
X124634524Y-106497381D02*
X124063095Y-106497381D01*
X124348809Y-106497381D02*
X124348809Y-105497381D01*
X124253571Y-105640238D01*
X124158333Y-105735476D01*
X124063095Y-105783095D01*
X123729762Y-100877619D02*
X123634524Y-100830000D01*
X123539286Y-100734762D01*
X123396429Y-100591905D01*
X123301190Y-100544286D01*
X123205952Y-100544286D01*
X123253571Y-100782381D02*
X123158333Y-100734762D01*
X123063095Y-100639524D01*
X123015476Y-100449048D01*
X123015476Y-100115714D01*
X123063095Y-99925238D01*
X123158333Y-99830000D01*
X123253571Y-99782381D01*
X123444048Y-99782381D01*
X123539286Y-99830000D01*
X123634524Y-99925238D01*
X123682143Y-100115714D01*
X123682143Y-100449048D01*
X123634524Y-100639524D01*
X123539286Y-100734762D01*
X123444048Y-100782381D01*
X123253571Y-100782381D01*
X124063095Y-99877619D02*
X124110714Y-99830000D01*
X124205952Y-99782381D01*
X124444048Y-99782381D01*
X124539286Y-99830000D01*
X124586905Y-99877619D01*
X124634524Y-99972857D01*
X124634524Y-100068095D01*
X124586905Y-100210952D01*
X124015476Y-100782381D01*
X124634524Y-100782381D01*
X123729762Y-95162619D02*
X123634524Y-95115000D01*
X123539286Y-95019762D01*
X123396429Y-94876905D01*
X123301190Y-94829286D01*
X123205952Y-94829286D01*
X123253571Y-95067381D02*
X123158333Y-95019762D01*
X123063095Y-94924524D01*
X123015476Y-94734048D01*
X123015476Y-94400714D01*
X123063095Y-94210238D01*
X123158333Y-94115000D01*
X123253571Y-94067381D01*
X123444048Y-94067381D01*
X123539286Y-94115000D01*
X123634524Y-94210238D01*
X123682143Y-94400714D01*
X123682143Y-94734048D01*
X123634524Y-94924524D01*
X123539286Y-95019762D01*
X123444048Y-95067381D01*
X123253571Y-95067381D01*
X124015476Y-94067381D02*
X124634524Y-94067381D01*
X124301190Y-94448333D01*
X124444048Y-94448333D01*
X124539286Y-94495952D01*
X124586905Y-94543571D01*
X124634524Y-94638810D01*
X124634524Y-94876905D01*
X124586905Y-94972143D01*
X124539286Y-95019762D01*
X124444048Y-95067381D01*
X124158333Y-95067381D01*
X124063095Y-95019762D01*
X124015476Y-94972143D01*
M02*
