G04 #@! TF.FileFunction,Copper,L2,Bot,Signal*
%FSLAX46Y46*%
G04 Gerber Fmt 4.6, Leading zero omitted, Abs format (unit mm)*
G04 Created by KiCad (PCBNEW 4.0.7) date Wednesday, September 20, 2017 'AMt' 09:11:25 AM*
%MOMM*%
%LPD*%
G01*
G04 APERTURE LIST*
%ADD10C,0.100000*%
%ADD11R,1.600000X1.600000*%
%ADD12O,1.600000X1.600000*%
%ADD13C,1.600000*%
%ADD14C,1.000000*%
%ADD15R,1.700000X1.700000*%
%ADD16O,1.700000X1.700000*%
%ADD17O,0.900000X1.500000*%
%ADD18R,0.900000X1.500000*%
%ADD19C,0.600000*%
%ADD20C,0.250000*%
G04 APERTURE END LIST*
D10*
D11*
X133350000Y-92075000D03*
D12*
X140970000Y-109855000D03*
X133350000Y-94615000D03*
X140970000Y-107315000D03*
X133350000Y-97155000D03*
X140970000Y-104775000D03*
X133350000Y-99695000D03*
X140970000Y-102235000D03*
X133350000Y-102235000D03*
X140970000Y-99695000D03*
X133350000Y-104775000D03*
X140970000Y-97155000D03*
X133350000Y-107315000D03*
X140970000Y-94615000D03*
X133350000Y-109855000D03*
X140970000Y-92075000D03*
D13*
X163830000Y-97155000D03*
X163830000Y-94655000D03*
X149225000Y-104775000D03*
X146725000Y-104775000D03*
X149225000Y-97155000D03*
X146725000Y-97155000D03*
X142240000Y-78105000D03*
D12*
X142240000Y-88265000D03*
D13*
X146050000Y-78105000D03*
D12*
X146050000Y-88265000D03*
D13*
X132080000Y-113665000D03*
D12*
X142240000Y-113665000D03*
D11*
X152400000Y-79375000D03*
D12*
X160020000Y-112395000D03*
X152400000Y-81915000D03*
X160020000Y-109855000D03*
X152400000Y-84455000D03*
X160020000Y-107315000D03*
X152400000Y-86995000D03*
X160020000Y-104775000D03*
X152400000Y-89535000D03*
X160020000Y-102235000D03*
X152400000Y-92075000D03*
X160020000Y-99695000D03*
X152400000Y-94615000D03*
X160020000Y-97155000D03*
X152400000Y-97155000D03*
X160020000Y-94615000D03*
X152400000Y-99695000D03*
X160020000Y-92075000D03*
X152400000Y-102235000D03*
X160020000Y-89535000D03*
X152400000Y-104775000D03*
X160020000Y-86995000D03*
X152400000Y-107315000D03*
X160020000Y-84455000D03*
X152400000Y-109855000D03*
X160020000Y-81915000D03*
X152400000Y-112395000D03*
X160020000Y-79375000D03*
D11*
X137160000Y-86995000D03*
D12*
X129540000Y-79375000D03*
X137160000Y-84455000D03*
X129540000Y-81915000D03*
X137160000Y-81915000D03*
X129540000Y-84455000D03*
X137160000Y-79375000D03*
X129540000Y-86995000D03*
D14*
X149199600Y-101899720D03*
X149199600Y-99999720D03*
D15*
X154940000Y-73025000D03*
D16*
X157480000Y-73025000D03*
D15*
X125730000Y-79375000D03*
D16*
X125730000Y-81915000D03*
D15*
X134620000Y-73025000D03*
D16*
X137160000Y-73025000D03*
X139700000Y-73025000D03*
D15*
X165100000Y-81280000D03*
D16*
X165100000Y-83820000D03*
X165100000Y-86360000D03*
D15*
X125730000Y-85725000D03*
D16*
X125730000Y-88265000D03*
D17*
X127635000Y-106045000D03*
X128905000Y-106045000D03*
D18*
X126365000Y-106045000D03*
D17*
X127635000Y-94615000D03*
X126365000Y-94615000D03*
D18*
X128905000Y-94615000D03*
D17*
X127635000Y-100330000D03*
X128905000Y-100330000D03*
D18*
X126365000Y-100330000D03*
D19*
X146050000Y-85090000D03*
X149225000Y-88265000D03*
X135890000Y-104775000D03*
X144780000Y-111125000D03*
X144145000Y-101600000D03*
D20*
X126365000Y-106045000D02*
X126365000Y-107315000D01*
X126365000Y-107315000D02*
X128905000Y-109855000D01*
X128905000Y-109855000D02*
X133350000Y-109855000D01*
X160020000Y-97155000D02*
X163830000Y-97155000D01*
X149199600Y-101899720D02*
X149225000Y-101600000D01*
X149225000Y-101600000D02*
X149860000Y-102235000D01*
X149860000Y-102235000D02*
X152400000Y-102235000D01*
X149199600Y-99999720D02*
X149225000Y-99695000D01*
X149225000Y-99695000D02*
X152400000Y-99695000D01*
X137160000Y-84455000D02*
X137795000Y-85090000D01*
X137795000Y-85090000D02*
X146050000Y-85090000D01*
X149225000Y-88265000D02*
X153670000Y-88265000D01*
X153670000Y-88265000D02*
X157480000Y-92075000D01*
X157480000Y-92075000D02*
X160020000Y-92075000D01*
X128905000Y-106045000D02*
X134620000Y-106045000D01*
X134620000Y-106045000D02*
X135890000Y-104775000D01*
X152400000Y-107315000D02*
X151130000Y-106045000D01*
X151130000Y-106045000D02*
X145415000Y-106045000D01*
X145415000Y-106045000D02*
X142875000Y-103505000D01*
X142875000Y-103505000D02*
X132080000Y-103505000D01*
X132080000Y-103505000D02*
X130175000Y-101600000D01*
X130175000Y-101600000D02*
X127635000Y-101600000D01*
X127635000Y-101600000D02*
X127635000Y-100330000D01*
X142240000Y-78105000D02*
X138430000Y-81915000D01*
X138430000Y-81915000D02*
X137160000Y-81915000D01*
X146050000Y-78105000D02*
X142240000Y-78105000D01*
X160020000Y-104775000D02*
X153670000Y-111125000D01*
X153670000Y-111125000D02*
X144780000Y-111125000D01*
X152400000Y-86995000D02*
X137160000Y-86995000D01*
X152400000Y-104775000D02*
X150495000Y-102870000D01*
X150495000Y-102870000D02*
X147955000Y-102870000D01*
X147955000Y-102870000D02*
X143510000Y-98425000D01*
X143510000Y-98425000D02*
X139700000Y-98425000D01*
X139700000Y-98425000D02*
X133350000Y-92075000D01*
X144145000Y-101600000D02*
X143510000Y-100965000D01*
X143510000Y-100965000D02*
X139700000Y-100965000D01*
X139700000Y-100965000D02*
X133350000Y-94615000D01*
X133350000Y-107315000D02*
X138430000Y-112395000D01*
X138430000Y-112395000D02*
X152400000Y-112395000D01*
X152400000Y-79375000D02*
X153670000Y-80645000D01*
X153670000Y-80645000D02*
X161290000Y-80645000D01*
X161290000Y-80645000D02*
X161925000Y-81280000D01*
X161925000Y-81280000D02*
X165100000Y-81280000D01*
X152400000Y-81915000D02*
X153670000Y-83185000D01*
X153670000Y-83185000D02*
X161290000Y-83185000D01*
X161290000Y-83185000D02*
X161925000Y-83820000D01*
X161925000Y-83820000D02*
X165100000Y-83820000D01*
X152400000Y-84455000D02*
X153670000Y-85725000D01*
X153670000Y-85725000D02*
X161290000Y-85725000D01*
X161290000Y-85725000D02*
X161925000Y-86360000D01*
X161925000Y-86360000D02*
X165100000Y-86360000D01*
G36*
X168235000Y-115530000D02*
X122595000Y-115530000D01*
X122595000Y-112766324D01*
X123854676Y-112766324D01*
X124139526Y-113455714D01*
X124666511Y-113983620D01*
X125355403Y-114269673D01*
X126101324Y-114270324D01*
X126790714Y-113985474D01*
X126829048Y-113947206D01*
X130654754Y-113947206D01*
X130871240Y-114471143D01*
X131271749Y-114872351D01*
X131795307Y-115089752D01*
X132362206Y-115090246D01*
X132886143Y-114873760D01*
X133287351Y-114473251D01*
X133504752Y-113949693D01*
X133505246Y-113382794D01*
X133288760Y-112858857D01*
X132888251Y-112457649D01*
X132364693Y-112240248D01*
X131797794Y-112239754D01*
X131273857Y-112456240D01*
X130872649Y-112856749D01*
X130655248Y-113380307D01*
X130654754Y-113947206D01*
X126829048Y-113947206D01*
X127318620Y-113458489D01*
X127604673Y-112769597D01*
X127605324Y-112023676D01*
X127320474Y-111334286D01*
X126793489Y-110806380D01*
X126104597Y-110520327D01*
X125358676Y-110519676D01*
X124669286Y-110804526D01*
X124141380Y-111331511D01*
X123855327Y-112020403D01*
X123854676Y-112766324D01*
X122595000Y-112766324D01*
X122595000Y-99580000D01*
X125277756Y-99580000D01*
X125277756Y-101080000D01*
X125321337Y-101311611D01*
X125458219Y-101524332D01*
X125667076Y-101667038D01*
X125915000Y-101717244D01*
X126815000Y-101717244D01*
X126904954Y-101700318D01*
X126942090Y-101887013D01*
X127104670Y-102130330D01*
X127347987Y-102292910D01*
X127635000Y-102350000D01*
X129864340Y-102350000D01*
X131549670Y-104035330D01*
X131792987Y-104197910D01*
X132003543Y-104239792D01*
X131897083Y-104775000D01*
X132000518Y-105295000D01*
X129890368Y-105295000D01*
X129665140Y-104957922D01*
X129316385Y-104724892D01*
X128905000Y-104643062D01*
X128493615Y-104724892D01*
X128270000Y-104874306D01*
X128046385Y-104724892D01*
X127635000Y-104643062D01*
X127223615Y-104724892D01*
X127154899Y-104770806D01*
X127062924Y-104707962D01*
X126815000Y-104657756D01*
X125915000Y-104657756D01*
X125683389Y-104701337D01*
X125470668Y-104838219D01*
X125327962Y-105047076D01*
X125277756Y-105295000D01*
X125277756Y-106795000D01*
X125321337Y-107026611D01*
X125458219Y-107239332D01*
X125622241Y-107351404D01*
X125672090Y-107602013D01*
X125834670Y-107845330D01*
X128374670Y-110385330D01*
X128617987Y-110547910D01*
X128905000Y-110605000D01*
X132142315Y-110605000D01*
X132314456Y-110862627D01*
X132776759Y-111171528D01*
X133322083Y-111280000D01*
X133377917Y-111280000D01*
X133923241Y-111171528D01*
X134385544Y-110862627D01*
X134694445Y-110400324D01*
X134802917Y-109855000D01*
X134796356Y-109822016D01*
X137899670Y-112925330D01*
X138142987Y-113087910D01*
X138430000Y-113145000D01*
X140890518Y-113145000D01*
X140787083Y-113665000D01*
X140895555Y-114210324D01*
X141204456Y-114672627D01*
X141666759Y-114981528D01*
X142212083Y-115090000D01*
X142267917Y-115090000D01*
X142813241Y-114981528D01*
X143275544Y-114672627D01*
X143584445Y-114210324D01*
X143692917Y-113665000D01*
X143589482Y-113145000D01*
X151192315Y-113145000D01*
X151364456Y-113402627D01*
X151826759Y-113711528D01*
X152372083Y-113820000D01*
X152427917Y-113820000D01*
X152973241Y-113711528D01*
X153435544Y-113402627D01*
X153744445Y-112940324D01*
X153852917Y-112395000D01*
X153746457Y-111859792D01*
X153957013Y-111817910D01*
X154200330Y-111655330D01*
X158573644Y-107282016D01*
X158567083Y-107315000D01*
X158675555Y-107860324D01*
X158984456Y-108322627D01*
X159377125Y-108585000D01*
X158984456Y-108847373D01*
X158675555Y-109309676D01*
X158567083Y-109855000D01*
X158675555Y-110400324D01*
X158984456Y-110862627D01*
X159377125Y-111125000D01*
X158984456Y-111387373D01*
X158675555Y-111849676D01*
X158567083Y-112395000D01*
X158675555Y-112940324D01*
X158984456Y-113402627D01*
X159446759Y-113711528D01*
X159992083Y-113820000D01*
X160047917Y-113820000D01*
X160593241Y-113711528D01*
X161055544Y-113402627D01*
X161364445Y-112940324D01*
X161399055Y-112766324D01*
X163224676Y-112766324D01*
X163509526Y-113455714D01*
X164036511Y-113983620D01*
X164725403Y-114269673D01*
X165471324Y-114270324D01*
X166160714Y-113985474D01*
X166688620Y-113458489D01*
X166974673Y-112769597D01*
X166975324Y-112023676D01*
X166690474Y-111334286D01*
X166163489Y-110806380D01*
X165474597Y-110520327D01*
X164728676Y-110519676D01*
X164039286Y-110804526D01*
X163511380Y-111331511D01*
X163225327Y-112020403D01*
X163224676Y-112766324D01*
X161399055Y-112766324D01*
X161472917Y-112395000D01*
X161364445Y-111849676D01*
X161055544Y-111387373D01*
X160662875Y-111125000D01*
X161055544Y-110862627D01*
X161364445Y-110400324D01*
X161472917Y-109855000D01*
X161364445Y-109309676D01*
X161055544Y-108847373D01*
X160662875Y-108585000D01*
X161055544Y-108322627D01*
X161364445Y-107860324D01*
X161472917Y-107315000D01*
X161364445Y-106769676D01*
X161055544Y-106307373D01*
X160662875Y-106045000D01*
X161055544Y-105782627D01*
X161364445Y-105320324D01*
X161472917Y-104775000D01*
X161364445Y-104229676D01*
X161055544Y-103767373D01*
X160662875Y-103505000D01*
X161055544Y-103242627D01*
X161364445Y-102780324D01*
X161472917Y-102235000D01*
X161364445Y-101689676D01*
X161055544Y-101227373D01*
X160662875Y-100965000D01*
X161055544Y-100702627D01*
X161364445Y-100240324D01*
X161472917Y-99695000D01*
X161364445Y-99149676D01*
X161055544Y-98687373D01*
X160662875Y-98425000D01*
X161055544Y-98162627D01*
X161227685Y-97905000D01*
X162598042Y-97905000D01*
X162621240Y-97961143D01*
X163021749Y-98362351D01*
X163545307Y-98579752D01*
X164112206Y-98580246D01*
X164636143Y-98363760D01*
X165037351Y-97963251D01*
X165254752Y-97439693D01*
X165255246Y-96872794D01*
X165038760Y-96348857D01*
X164638251Y-95947649D01*
X164551027Y-95911430D01*
X164579709Y-95899550D01*
X164654223Y-95656000D01*
X163830000Y-94831777D01*
X163005777Y-95656000D01*
X163080291Y-95899550D01*
X163110507Y-95910437D01*
X163023857Y-95946240D01*
X162622649Y-96346749D01*
X162598461Y-96405000D01*
X161227685Y-96405000D01*
X161055544Y-96147373D01*
X160638359Y-95868619D01*
X160868275Y-95760025D01*
X161241886Y-95348244D01*
X161402476Y-94960521D01*
X161282577Y-94740000D01*
X160145000Y-94740000D01*
X160145000Y-94760000D01*
X159895000Y-94760000D01*
X159895000Y-94740000D01*
X158757423Y-94740000D01*
X158637524Y-94960521D01*
X158798114Y-95348244D01*
X159171725Y-95760025D01*
X159401641Y-95868619D01*
X158984456Y-96147373D01*
X158675555Y-96609676D01*
X158567083Y-97155000D01*
X158675555Y-97700324D01*
X158984456Y-98162627D01*
X159377125Y-98425000D01*
X158984456Y-98687373D01*
X158675555Y-99149676D01*
X158567083Y-99695000D01*
X158675555Y-100240324D01*
X158984456Y-100702627D01*
X159377125Y-100965000D01*
X158984456Y-101227373D01*
X158675555Y-101689676D01*
X158567083Y-102235000D01*
X158675555Y-102780324D01*
X158984456Y-103242627D01*
X159377125Y-103505000D01*
X158984456Y-103767373D01*
X158675555Y-104229676D01*
X158567083Y-104775000D01*
X158632163Y-105102177D01*
X153846356Y-109887984D01*
X153852917Y-109855000D01*
X153744445Y-109309676D01*
X153435544Y-108847373D01*
X153042875Y-108585000D01*
X153435544Y-108322627D01*
X153744445Y-107860324D01*
X153852917Y-107315000D01*
X153744445Y-106769676D01*
X153435544Y-106307373D01*
X153042875Y-106045000D01*
X153435544Y-105782627D01*
X153744445Y-105320324D01*
X153852917Y-104775000D01*
X153744445Y-104229676D01*
X153435544Y-103767373D01*
X153042875Y-103505000D01*
X153435544Y-103242627D01*
X153744445Y-102780324D01*
X153852917Y-102235000D01*
X153744445Y-101689676D01*
X153435544Y-101227373D01*
X153042875Y-100965000D01*
X153435544Y-100702627D01*
X153744445Y-100240324D01*
X153852917Y-99695000D01*
X153744445Y-99149676D01*
X153435544Y-98687373D01*
X153018359Y-98408619D01*
X153248275Y-98300025D01*
X153621886Y-97888244D01*
X153782476Y-97500521D01*
X153662577Y-97280000D01*
X152525000Y-97280000D01*
X152525000Y-97300000D01*
X152275000Y-97300000D01*
X152275000Y-97280000D01*
X151137423Y-97280000D01*
X151017524Y-97500521D01*
X151178114Y-97888244D01*
X151551725Y-98300025D01*
X151781641Y-98408619D01*
X151364456Y-98687373D01*
X151192315Y-98945000D01*
X149593139Y-98945000D01*
X149424358Y-98874916D01*
X148976805Y-98874525D01*
X148563171Y-99045435D01*
X148246428Y-99361627D01*
X148074796Y-99774962D01*
X148074405Y-100222515D01*
X148245315Y-100636149D01*
X148558609Y-100949989D01*
X148246428Y-101261627D01*
X148074796Y-101674962D01*
X148074574Y-101928914D01*
X144301660Y-98156000D01*
X145900777Y-98156000D01*
X145975291Y-98399550D01*
X146508627Y-98591716D01*
X147074905Y-98565155D01*
X147474709Y-98399550D01*
X147549223Y-98156000D01*
X146725000Y-97331777D01*
X145900777Y-98156000D01*
X144301660Y-98156000D01*
X144040330Y-97894670D01*
X143797013Y-97732090D01*
X143510000Y-97675000D01*
X142319482Y-97675000D01*
X142422917Y-97155000D01*
X142379878Y-96938627D01*
X145288284Y-96938627D01*
X145314845Y-97504905D01*
X145480450Y-97904709D01*
X145724000Y-97979223D01*
X146548223Y-97155000D01*
X146901777Y-97155000D01*
X147726000Y-97979223D01*
X147969550Y-97904709D01*
X147980437Y-97874493D01*
X148016240Y-97961143D01*
X148416749Y-98362351D01*
X148940307Y-98579752D01*
X149507206Y-98580246D01*
X150031143Y-98363760D01*
X150432351Y-97963251D01*
X150649752Y-97439693D01*
X150650246Y-96872794D01*
X150433760Y-96348857D01*
X150033251Y-95947649D01*
X149509693Y-95730248D01*
X148942794Y-95729754D01*
X148418857Y-95946240D01*
X148017649Y-96346749D01*
X147981430Y-96433973D01*
X147969550Y-96405291D01*
X147726000Y-96330777D01*
X146901777Y-97155000D01*
X146548223Y-97155000D01*
X145724000Y-96330777D01*
X145480450Y-96405291D01*
X145288284Y-96938627D01*
X142379878Y-96938627D01*
X142314445Y-96609676D01*
X142009973Y-96154000D01*
X145900777Y-96154000D01*
X146725000Y-96978223D01*
X147549223Y-96154000D01*
X147474709Y-95910450D01*
X146941373Y-95718284D01*
X146375095Y-95744845D01*
X145975291Y-95910450D01*
X145900777Y-96154000D01*
X142009973Y-96154000D01*
X142005544Y-96147373D01*
X141612875Y-95885000D01*
X142005544Y-95622627D01*
X142314445Y-95160324D01*
X142422917Y-94615000D01*
X142314445Y-94069676D01*
X142005544Y-93607373D01*
X141612875Y-93345000D01*
X142005544Y-93082627D01*
X142314445Y-92620324D01*
X142422917Y-92075000D01*
X142314445Y-91529676D01*
X142005544Y-91067373D01*
X141543241Y-90758472D01*
X140997917Y-90650000D01*
X140942083Y-90650000D01*
X140396759Y-90758472D01*
X139934456Y-91067373D01*
X139625555Y-91529676D01*
X139517083Y-92075000D01*
X139625555Y-92620324D01*
X139934456Y-93082627D01*
X140327125Y-93345000D01*
X139934456Y-93607373D01*
X139625555Y-94069676D01*
X139517083Y-94615000D01*
X139625555Y-95160324D01*
X139934456Y-95622627D01*
X140327125Y-95885000D01*
X139934456Y-96147373D01*
X139625555Y-96609676D01*
X139517083Y-97155000D01*
X139523644Y-97187984D01*
X134787244Y-92451584D01*
X134787244Y-91275000D01*
X134743663Y-91043389D01*
X134606781Y-90830668D01*
X134397924Y-90687962D01*
X134150000Y-90637756D01*
X132550000Y-90637756D01*
X132318389Y-90681337D01*
X132105668Y-90818219D01*
X131962962Y-91027076D01*
X131912756Y-91275000D01*
X131912756Y-92875000D01*
X131956337Y-93106611D01*
X132093219Y-93319332D01*
X132302076Y-93462038D01*
X132478497Y-93497764D01*
X132314456Y-93607373D01*
X132005555Y-94069676D01*
X131897083Y-94615000D01*
X132005555Y-95160324D01*
X132314456Y-95622627D01*
X132707125Y-95885000D01*
X132314456Y-96147373D01*
X132005555Y-96609676D01*
X131897083Y-97155000D01*
X132005555Y-97700324D01*
X132314456Y-98162627D01*
X132731641Y-98441381D01*
X132501725Y-98549975D01*
X132128114Y-98961756D01*
X131967524Y-99349479D01*
X132087423Y-99570000D01*
X133225000Y-99570000D01*
X133225000Y-99550000D01*
X133475000Y-99550000D01*
X133475000Y-99570000D01*
X134612577Y-99570000D01*
X134732476Y-99349479D01*
X134571886Y-98961756D01*
X134198275Y-98549975D01*
X133968359Y-98441381D01*
X134385544Y-98162627D01*
X134694445Y-97700324D01*
X134802917Y-97155000D01*
X134796356Y-97122016D01*
X139169670Y-101495330D01*
X139412987Y-101657910D01*
X139662852Y-101707611D01*
X139587524Y-101889479D01*
X139707423Y-102110000D01*
X140845000Y-102110000D01*
X140845000Y-102090000D01*
X141095000Y-102090000D01*
X141095000Y-102110000D01*
X142232577Y-102110000D01*
X142352476Y-101889479D01*
X142280209Y-101715000D01*
X143199340Y-101715000D01*
X143219882Y-101735542D01*
X143219840Y-101783187D01*
X143360366Y-102123286D01*
X143620345Y-102383720D01*
X143960199Y-102524839D01*
X144328187Y-102525160D01*
X144668286Y-102384634D01*
X144928720Y-102124655D01*
X145069839Y-101784801D01*
X145070160Y-101416813D01*
X144929634Y-101076714D01*
X144669655Y-100816280D01*
X144329801Y-100675161D01*
X144280778Y-100675118D01*
X144040330Y-100434670D01*
X143797013Y-100272090D01*
X143510000Y-100215000D01*
X142280209Y-100215000D01*
X142352476Y-100040521D01*
X142232577Y-99820000D01*
X141095000Y-99820000D01*
X141095000Y-99840000D01*
X140845000Y-99840000D01*
X140845000Y-99820000D01*
X139707423Y-99820000D01*
X139675103Y-99879443D01*
X134737837Y-94942177D01*
X134802917Y-94615000D01*
X134796356Y-94582016D01*
X139169670Y-98955330D01*
X139412987Y-99117910D01*
X139662852Y-99167611D01*
X139587524Y-99349479D01*
X139707423Y-99570000D01*
X140845000Y-99570000D01*
X140845000Y-99550000D01*
X141095000Y-99550000D01*
X141095000Y-99570000D01*
X142232577Y-99570000D01*
X142352476Y-99349479D01*
X142280209Y-99175000D01*
X143199340Y-99175000D01*
X147424670Y-103400330D01*
X147667987Y-103562910D01*
X147955000Y-103620000D01*
X148365003Y-103620000D01*
X148017649Y-103966749D01*
X147981430Y-104053973D01*
X147969550Y-104025291D01*
X147726000Y-103950777D01*
X146901777Y-104775000D01*
X146915919Y-104789142D01*
X146739142Y-104965919D01*
X146725000Y-104951777D01*
X146710858Y-104965919D01*
X146534081Y-104789142D01*
X146548223Y-104775000D01*
X145724000Y-103950777D01*
X145480450Y-104025291D01*
X145288284Y-104558627D01*
X145302998Y-104872338D01*
X144204660Y-103774000D01*
X145900777Y-103774000D01*
X146725000Y-104598223D01*
X147549223Y-103774000D01*
X147474709Y-103530450D01*
X146941373Y-103338284D01*
X146375095Y-103364845D01*
X145975291Y-103530450D01*
X145900777Y-103774000D01*
X144204660Y-103774000D01*
X143405330Y-102974670D01*
X143162013Y-102812090D01*
X142875000Y-102755000D01*
X142280209Y-102755000D01*
X142352476Y-102580521D01*
X142232577Y-102360000D01*
X141095000Y-102360000D01*
X141095000Y-102380000D01*
X140845000Y-102380000D01*
X140845000Y-102360000D01*
X139707423Y-102360000D01*
X139587524Y-102580521D01*
X139659791Y-102755000D01*
X134660209Y-102755000D01*
X134732476Y-102580521D01*
X134612577Y-102360000D01*
X133475000Y-102360000D01*
X133475000Y-102380000D01*
X133225000Y-102380000D01*
X133225000Y-102360000D01*
X132087423Y-102360000D01*
X132055103Y-102419443D01*
X130705330Y-101069670D01*
X130462013Y-100907090D01*
X130175000Y-100850000D01*
X129949348Y-100850000D01*
X129980000Y-100755000D01*
X129980000Y-100455000D01*
X129030000Y-100455000D01*
X129030000Y-100475000D01*
X128780000Y-100475000D01*
X128780000Y-100455000D01*
X128760000Y-100455000D01*
X128760000Y-100205000D01*
X128780000Y-100205000D01*
X128780000Y-99119793D01*
X129030000Y-99119793D01*
X129030000Y-100205000D01*
X129980000Y-100205000D01*
X129980000Y-100040521D01*
X131967524Y-100040521D01*
X132128114Y-100428244D01*
X132501725Y-100840025D01*
X132766322Y-100965000D01*
X132501725Y-101089975D01*
X132128114Y-101501756D01*
X131967524Y-101889479D01*
X132087423Y-102110000D01*
X133225000Y-102110000D01*
X133225000Y-100971733D01*
X133212546Y-100965000D01*
X133225000Y-100958267D01*
X133225000Y-99820000D01*
X133475000Y-99820000D01*
X133475000Y-100958267D01*
X133487454Y-100965000D01*
X133475000Y-100971733D01*
X133475000Y-102110000D01*
X134612577Y-102110000D01*
X134732476Y-101889479D01*
X134571886Y-101501756D01*
X134198275Y-101089975D01*
X133933678Y-100965000D01*
X134198275Y-100840025D01*
X134571886Y-100428244D01*
X134732476Y-100040521D01*
X134612577Y-99820000D01*
X133475000Y-99820000D01*
X133225000Y-99820000D01*
X132087423Y-99820000D01*
X131967524Y-100040521D01*
X129980000Y-100040521D01*
X129980000Y-99905000D01*
X129850335Y-99503130D01*
X129576751Y-99181472D01*
X129195487Y-98994992D01*
X129030000Y-99119793D01*
X128780000Y-99119793D01*
X128614513Y-98994992D01*
X128273621Y-99161726D01*
X128046385Y-99009892D01*
X127635000Y-98928062D01*
X127223615Y-99009892D01*
X127154899Y-99055806D01*
X127062924Y-98992962D01*
X126815000Y-98942756D01*
X125915000Y-98942756D01*
X125683389Y-98986337D01*
X125470668Y-99123219D01*
X125327962Y-99332076D01*
X125277756Y-99580000D01*
X122595000Y-99580000D01*
X122595000Y-94288062D01*
X125290000Y-94288062D01*
X125290000Y-94941938D01*
X125371830Y-95353323D01*
X125604860Y-95702078D01*
X125953615Y-95935108D01*
X126365000Y-96016938D01*
X126776385Y-95935108D01*
X127000000Y-95785694D01*
X127223615Y-95935108D01*
X127635000Y-96016938D01*
X128046385Y-95935108D01*
X128115101Y-95889194D01*
X128207076Y-95952038D01*
X128455000Y-96002244D01*
X129355000Y-96002244D01*
X129586611Y-95958663D01*
X129799332Y-95821781D01*
X129942038Y-95612924D01*
X129992244Y-95365000D01*
X129992244Y-93865000D01*
X129948663Y-93633389D01*
X129811781Y-93420668D01*
X129602924Y-93277962D01*
X129355000Y-93227756D01*
X128455000Y-93227756D01*
X128223389Y-93271337D01*
X128115263Y-93340914D01*
X128046385Y-93294892D01*
X127635000Y-93213062D01*
X127223615Y-93294892D01*
X127000000Y-93444306D01*
X126776385Y-93294892D01*
X126365000Y-93213062D01*
X125953615Y-93294892D01*
X125604860Y-93527922D01*
X125371830Y-93876677D01*
X125290000Y-94288062D01*
X122595000Y-94288062D01*
X122595000Y-88618372D01*
X124297955Y-88618372D01*
X124467513Y-89027742D01*
X124855503Y-89452815D01*
X125376627Y-89697054D01*
X125605000Y-89578453D01*
X125605000Y-88390000D01*
X125855000Y-88390000D01*
X125855000Y-89578453D01*
X126083373Y-89697054D01*
X126604497Y-89452815D01*
X126992487Y-89027742D01*
X127162045Y-88618372D01*
X127042812Y-88390000D01*
X125855000Y-88390000D01*
X125605000Y-88390000D01*
X124417188Y-88390000D01*
X124297955Y-88618372D01*
X122595000Y-88618372D01*
X122595000Y-84875000D01*
X124242756Y-84875000D01*
X124242756Y-86575000D01*
X124286337Y-86806611D01*
X124423219Y-87019332D01*
X124632076Y-87162038D01*
X124755280Y-87186987D01*
X124467513Y-87502258D01*
X124297955Y-87911628D01*
X124417188Y-88140000D01*
X125605000Y-88140000D01*
X125605000Y-88120000D01*
X125855000Y-88120000D01*
X125855000Y-88140000D01*
X127042812Y-88140000D01*
X127162045Y-87911628D01*
X126992487Y-87502258D01*
X126706114Y-87188514D01*
X126811611Y-87168663D01*
X127024332Y-87031781D01*
X127167038Y-86822924D01*
X127217244Y-86575000D01*
X127217244Y-84875000D01*
X127173663Y-84643389D01*
X127036781Y-84430668D01*
X126827924Y-84287962D01*
X126580000Y-84237756D01*
X124880000Y-84237756D01*
X124648389Y-84281337D01*
X124435668Y-84418219D01*
X124292962Y-84627076D01*
X124242756Y-84875000D01*
X122595000Y-84875000D01*
X122595000Y-81915000D01*
X124226103Y-81915000D01*
X124338381Y-82479458D01*
X124658120Y-82957983D01*
X125136645Y-83277722D01*
X125701103Y-83390000D01*
X125758897Y-83390000D01*
X126323355Y-83277722D01*
X126801880Y-82957983D01*
X127121619Y-82479458D01*
X127233897Y-81915000D01*
X127121619Y-81350542D01*
X126801880Y-80872017D01*
X126741714Y-80831815D01*
X126811611Y-80818663D01*
X127024332Y-80681781D01*
X127167038Y-80472924D01*
X127217244Y-80225000D01*
X127217244Y-79375000D01*
X128087083Y-79375000D01*
X128195555Y-79920324D01*
X128504456Y-80382627D01*
X128897125Y-80645000D01*
X128504456Y-80907373D01*
X128195555Y-81369676D01*
X128087083Y-81915000D01*
X128195555Y-82460324D01*
X128504456Y-82922627D01*
X128897125Y-83185000D01*
X128504456Y-83447373D01*
X128195555Y-83909676D01*
X128087083Y-84455000D01*
X128195555Y-85000324D01*
X128504456Y-85462627D01*
X128897125Y-85725000D01*
X128504456Y-85987373D01*
X128195555Y-86449676D01*
X128087083Y-86995000D01*
X128195555Y-87540324D01*
X128504456Y-88002627D01*
X128966759Y-88311528D01*
X129512083Y-88420000D01*
X129567917Y-88420000D01*
X130113241Y-88311528D01*
X130575544Y-88002627D01*
X130884445Y-87540324D01*
X130992917Y-86995000D01*
X130884445Y-86449676D01*
X130575544Y-85987373D01*
X130182875Y-85725000D01*
X130575544Y-85462627D01*
X130884445Y-85000324D01*
X130992917Y-84455000D01*
X130884445Y-83909676D01*
X130575544Y-83447373D01*
X130182875Y-83185000D01*
X130575544Y-82922627D01*
X130884445Y-82460324D01*
X130992917Y-81915000D01*
X135707083Y-81915000D01*
X135815555Y-82460324D01*
X136124456Y-82922627D01*
X136517125Y-83185000D01*
X136124456Y-83447373D01*
X135815555Y-83909676D01*
X135707083Y-84455000D01*
X135815555Y-85000324D01*
X136124456Y-85462627D01*
X136287300Y-85571436D01*
X136128389Y-85601337D01*
X135915668Y-85738219D01*
X135772962Y-85947076D01*
X135722756Y-86195000D01*
X135722756Y-87795000D01*
X135766337Y-88026611D01*
X135903219Y-88239332D01*
X136112076Y-88382038D01*
X136360000Y-88432244D01*
X137960000Y-88432244D01*
X138191611Y-88388663D01*
X138404332Y-88251781D01*
X138547038Y-88042924D01*
X138597244Y-87795000D01*
X138597244Y-87745000D01*
X140912882Y-87745000D01*
X140815000Y-88237083D01*
X140815000Y-88292917D01*
X140923472Y-88838241D01*
X141232373Y-89300544D01*
X141694676Y-89609445D01*
X142240000Y-89717917D01*
X142785324Y-89609445D01*
X143247627Y-89300544D01*
X143556528Y-88838241D01*
X143601824Y-88610522D01*
X144667514Y-88610522D01*
X144904975Y-89113275D01*
X145316756Y-89486886D01*
X145704479Y-89647476D01*
X145925000Y-89527577D01*
X145925000Y-88390000D01*
X146175000Y-88390000D01*
X146175000Y-89527577D01*
X146395521Y-89647476D01*
X146783244Y-89486886D01*
X147195025Y-89113275D01*
X147432486Y-88610522D01*
X147313267Y-88390000D01*
X146175000Y-88390000D01*
X145925000Y-88390000D01*
X144786733Y-88390000D01*
X144667514Y-88610522D01*
X143601824Y-88610522D01*
X143665000Y-88292917D01*
X143665000Y-88237083D01*
X143567118Y-87745000D01*
X144749924Y-87745000D01*
X144667514Y-87919478D01*
X144786733Y-88140000D01*
X145925000Y-88140000D01*
X145925000Y-88120000D01*
X146175000Y-88120000D01*
X146175000Y-88140000D01*
X147313267Y-88140000D01*
X147432486Y-87919478D01*
X147350076Y-87745000D01*
X148439347Y-87745000D01*
X148300161Y-88080199D01*
X148299840Y-88448187D01*
X148440366Y-88788286D01*
X148700345Y-89048720D01*
X149040199Y-89189839D01*
X149408187Y-89190160D01*
X149748286Y-89049634D01*
X149782981Y-89015000D01*
X151050518Y-89015000D01*
X150947083Y-89535000D01*
X151055555Y-90080324D01*
X151364456Y-90542627D01*
X151757125Y-90805000D01*
X151364456Y-91067373D01*
X151055555Y-91529676D01*
X150947083Y-92075000D01*
X151055555Y-92620324D01*
X151364456Y-93082627D01*
X151757125Y-93345000D01*
X151364456Y-93607373D01*
X151055555Y-94069676D01*
X150947083Y-94615000D01*
X151055555Y-95160324D01*
X151364456Y-95622627D01*
X151781641Y-95901381D01*
X151551725Y-96009975D01*
X151178114Y-96421756D01*
X151017524Y-96809479D01*
X151137423Y-97030000D01*
X152275000Y-97030000D01*
X152275000Y-97010000D01*
X152525000Y-97010000D01*
X152525000Y-97030000D01*
X153662577Y-97030000D01*
X153782476Y-96809479D01*
X153621886Y-96421756D01*
X153248275Y-96009975D01*
X153018359Y-95901381D01*
X153435544Y-95622627D01*
X153744445Y-95160324D01*
X153852917Y-94615000D01*
X153744445Y-94069676D01*
X153435544Y-93607373D01*
X153042875Y-93345000D01*
X153435544Y-93082627D01*
X153744445Y-92620324D01*
X153852917Y-92075000D01*
X153744445Y-91529676D01*
X153435544Y-91067373D01*
X153042875Y-90805000D01*
X153435544Y-90542627D01*
X153744445Y-90080324D01*
X153852917Y-89535000D01*
X153846356Y-89502016D01*
X156949670Y-92605330D01*
X157192987Y-92767910D01*
X157480000Y-92825000D01*
X158812315Y-92825000D01*
X158984456Y-93082627D01*
X159401641Y-93361381D01*
X159171725Y-93469975D01*
X158798114Y-93881756D01*
X158637524Y-94269479D01*
X158757423Y-94490000D01*
X159895000Y-94490000D01*
X159895000Y-94470000D01*
X160145000Y-94470000D01*
X160145000Y-94490000D01*
X161282577Y-94490000D01*
X161310508Y-94438627D01*
X162393284Y-94438627D01*
X162419845Y-95004905D01*
X162585450Y-95404709D01*
X162829000Y-95479223D01*
X163653223Y-94655000D01*
X164006777Y-94655000D01*
X164831000Y-95479223D01*
X165074550Y-95404709D01*
X165266716Y-94871373D01*
X165240155Y-94305095D01*
X165074550Y-93905291D01*
X164831000Y-93830777D01*
X164006777Y-94655000D01*
X163653223Y-94655000D01*
X162829000Y-93830777D01*
X162585450Y-93905291D01*
X162393284Y-94438627D01*
X161310508Y-94438627D01*
X161402476Y-94269479D01*
X161241886Y-93881756D01*
X161035242Y-93654000D01*
X163005777Y-93654000D01*
X163830000Y-94478223D01*
X164654223Y-93654000D01*
X164579709Y-93410450D01*
X164046373Y-93218284D01*
X163480095Y-93244845D01*
X163080291Y-93410450D01*
X163005777Y-93654000D01*
X161035242Y-93654000D01*
X160868275Y-93469975D01*
X160638359Y-93361381D01*
X161055544Y-93082627D01*
X161364445Y-92620324D01*
X161472917Y-92075000D01*
X161364445Y-91529676D01*
X161055544Y-91067373D01*
X160662875Y-90805000D01*
X161055544Y-90542627D01*
X161364445Y-90080324D01*
X161472917Y-89535000D01*
X161364445Y-88989676D01*
X161055544Y-88527373D01*
X160662875Y-88265000D01*
X161055544Y-88002627D01*
X161364445Y-87540324D01*
X161472917Y-86995000D01*
X161460899Y-86934583D01*
X161637987Y-87052910D01*
X161925000Y-87110000D01*
X163832356Y-87110000D01*
X164028120Y-87402983D01*
X164506645Y-87722722D01*
X165071103Y-87835000D01*
X165128897Y-87835000D01*
X165693355Y-87722722D01*
X166171880Y-87402983D01*
X166491619Y-86924458D01*
X166603897Y-86360000D01*
X166491619Y-85795542D01*
X166171880Y-85317017D01*
X165832124Y-85090000D01*
X166171880Y-84862983D01*
X166491619Y-84384458D01*
X166603897Y-83820000D01*
X166491619Y-83255542D01*
X166171880Y-82777017D01*
X166111714Y-82736815D01*
X166181611Y-82723663D01*
X166394332Y-82586781D01*
X166537038Y-82377924D01*
X166587244Y-82130000D01*
X166587244Y-80430000D01*
X166543663Y-80198389D01*
X166406781Y-79985668D01*
X166197924Y-79842962D01*
X165950000Y-79792756D01*
X164250000Y-79792756D01*
X164018389Y-79836337D01*
X163805668Y-79973219D01*
X163662962Y-80182076D01*
X163612756Y-80430000D01*
X163612756Y-80530000D01*
X162235660Y-80530000D01*
X161820330Y-80114670D01*
X161577013Y-79952090D01*
X161366457Y-79910208D01*
X161472917Y-79375000D01*
X161364445Y-78829676D01*
X161055544Y-78367373D01*
X160593241Y-78058472D01*
X160047917Y-77950000D01*
X159992083Y-77950000D01*
X159446759Y-78058472D01*
X158984456Y-78367373D01*
X158675555Y-78829676D01*
X158567083Y-79375000D01*
X158670518Y-79895000D01*
X153980660Y-79895000D01*
X153837244Y-79751584D01*
X153837244Y-78575000D01*
X153793663Y-78343389D01*
X153656781Y-78130668D01*
X153447924Y-77987962D01*
X153200000Y-77937756D01*
X151600000Y-77937756D01*
X151368389Y-77981337D01*
X151155668Y-78118219D01*
X151012962Y-78327076D01*
X150962756Y-78575000D01*
X150962756Y-80175000D01*
X151006337Y-80406611D01*
X151143219Y-80619332D01*
X151352076Y-80762038D01*
X151528497Y-80797764D01*
X151364456Y-80907373D01*
X151055555Y-81369676D01*
X150947083Y-81915000D01*
X151055555Y-82460324D01*
X151364456Y-82922627D01*
X151757125Y-83185000D01*
X151364456Y-83447373D01*
X151055555Y-83909676D01*
X150947083Y-84455000D01*
X151055555Y-85000324D01*
X151364456Y-85462627D01*
X151757125Y-85725000D01*
X151364456Y-85987373D01*
X151192315Y-86245000D01*
X138597244Y-86245000D01*
X138597244Y-86195000D01*
X138553663Y-85963389D01*
X138474264Y-85840000D01*
X145491684Y-85840000D01*
X145525345Y-85873720D01*
X145865199Y-86014839D01*
X146233187Y-86015160D01*
X146573286Y-85874634D01*
X146833720Y-85614655D01*
X146974839Y-85274801D01*
X146975160Y-84906813D01*
X146834634Y-84566714D01*
X146574655Y-84306280D01*
X146234801Y-84165161D01*
X145866813Y-84164840D01*
X145526714Y-84305366D01*
X145492019Y-84340000D01*
X138590042Y-84340000D01*
X138504445Y-83909676D01*
X138195544Y-83447373D01*
X137802875Y-83185000D01*
X138195544Y-82922627D01*
X138367685Y-82665000D01*
X138430000Y-82665000D01*
X138717013Y-82607910D01*
X138960330Y-82445330D01*
X141899204Y-79506456D01*
X141955307Y-79529752D01*
X142522206Y-79530246D01*
X143046143Y-79313760D01*
X143447351Y-78913251D01*
X143471539Y-78855000D01*
X144818042Y-78855000D01*
X144841240Y-78911143D01*
X145241749Y-79312351D01*
X145765307Y-79529752D01*
X146332206Y-79530246D01*
X146856143Y-79313760D01*
X147257351Y-78913251D01*
X147474752Y-78389693D01*
X147475246Y-77822794D01*
X147258760Y-77298857D01*
X146858251Y-76897649D01*
X146334693Y-76680248D01*
X145767794Y-76679754D01*
X145243857Y-76896240D01*
X144842649Y-77296749D01*
X144818461Y-77355000D01*
X143471958Y-77355000D01*
X143448760Y-77298857D01*
X143048251Y-76897649D01*
X142524693Y-76680248D01*
X141957794Y-76679754D01*
X141433857Y-76896240D01*
X141032649Y-77296749D01*
X140815248Y-77820307D01*
X140814754Y-78387206D01*
X140838840Y-78445500D01*
X138268212Y-81016128D01*
X138195544Y-80907373D01*
X137778359Y-80628619D01*
X138008275Y-80520025D01*
X138381886Y-80108244D01*
X138542476Y-79720521D01*
X138422577Y-79500000D01*
X137285000Y-79500000D01*
X137285000Y-79520000D01*
X137035000Y-79520000D01*
X137035000Y-79500000D01*
X135897423Y-79500000D01*
X135777524Y-79720521D01*
X135938114Y-80108244D01*
X136311725Y-80520025D01*
X136541641Y-80628619D01*
X136124456Y-80907373D01*
X135815555Y-81369676D01*
X135707083Y-81915000D01*
X130992917Y-81915000D01*
X130884445Y-81369676D01*
X130575544Y-80907373D01*
X130182875Y-80645000D01*
X130575544Y-80382627D01*
X130884445Y-79920324D01*
X130992917Y-79375000D01*
X130924189Y-79029479D01*
X135777524Y-79029479D01*
X135897423Y-79250000D01*
X137035000Y-79250000D01*
X137035000Y-78111733D01*
X137285000Y-78111733D01*
X137285000Y-79250000D01*
X138422577Y-79250000D01*
X138542476Y-79029479D01*
X138381886Y-78641756D01*
X138008275Y-78229975D01*
X137505522Y-77992514D01*
X137285000Y-78111733D01*
X137035000Y-78111733D01*
X136814478Y-77992514D01*
X136311725Y-78229975D01*
X135938114Y-78641756D01*
X135777524Y-79029479D01*
X130924189Y-79029479D01*
X130884445Y-78829676D01*
X130575544Y-78367373D01*
X130113241Y-78058472D01*
X129567917Y-77950000D01*
X129512083Y-77950000D01*
X128966759Y-78058472D01*
X128504456Y-78367373D01*
X128195555Y-78829676D01*
X128087083Y-79375000D01*
X127217244Y-79375000D01*
X127217244Y-78525000D01*
X127173663Y-78293389D01*
X127036781Y-78080668D01*
X126827924Y-77937962D01*
X126580000Y-77887756D01*
X124880000Y-77887756D01*
X124648389Y-77931337D01*
X124435668Y-78068219D01*
X124292962Y-78277076D01*
X124242756Y-78525000D01*
X124242756Y-80225000D01*
X124286337Y-80456611D01*
X124423219Y-80669332D01*
X124632076Y-80812038D01*
X124720950Y-80830035D01*
X124658120Y-80872017D01*
X124338381Y-81350542D01*
X124226103Y-81915000D01*
X122595000Y-81915000D01*
X122595000Y-73396324D01*
X123854676Y-73396324D01*
X124139526Y-74085714D01*
X124666511Y-74613620D01*
X125355403Y-74899673D01*
X126101324Y-74900324D01*
X126790714Y-74615474D01*
X127318620Y-74088489D01*
X127604673Y-73399597D01*
X127604754Y-73306250D01*
X133145000Y-73306250D01*
X133145000Y-73999320D01*
X133240150Y-74229034D01*
X133415966Y-74404849D01*
X133645680Y-74500000D01*
X134338750Y-74500000D01*
X134495000Y-74343750D01*
X134495000Y-73150000D01*
X133301250Y-73150000D01*
X133145000Y-73306250D01*
X127604754Y-73306250D01*
X127605324Y-72653676D01*
X127356172Y-72050680D01*
X133145000Y-72050680D01*
X133145000Y-72743750D01*
X133301250Y-72900000D01*
X134495000Y-72900000D01*
X134495000Y-71706250D01*
X134745000Y-71706250D01*
X134745000Y-72900000D01*
X134765000Y-72900000D01*
X134765000Y-73150000D01*
X134745000Y-73150000D01*
X134745000Y-74343750D01*
X134901250Y-74500000D01*
X135594320Y-74500000D01*
X135824034Y-74404849D01*
X135999850Y-74229034D01*
X136078479Y-74039204D01*
X136117017Y-74096880D01*
X136595542Y-74416619D01*
X137160000Y-74528897D01*
X137724458Y-74416619D01*
X138202983Y-74096880D01*
X138430000Y-73757124D01*
X138657017Y-74096880D01*
X139135542Y-74416619D01*
X139700000Y-74528897D01*
X140264458Y-74416619D01*
X140742983Y-74096880D01*
X141062722Y-73618355D01*
X141175000Y-73053897D01*
X141175000Y-72996103D01*
X141062722Y-72431645D01*
X140891238Y-72175000D01*
X153452756Y-72175000D01*
X153452756Y-73875000D01*
X153496337Y-74106611D01*
X153633219Y-74319332D01*
X153842076Y-74462038D01*
X154090000Y-74512244D01*
X155790000Y-74512244D01*
X156021611Y-74468663D01*
X156234332Y-74331781D01*
X156377038Y-74122924D01*
X156401987Y-73999720D01*
X156717258Y-74287487D01*
X157126628Y-74457045D01*
X157355000Y-74337812D01*
X157355000Y-73150000D01*
X157605000Y-73150000D01*
X157605000Y-74337812D01*
X157833372Y-74457045D01*
X158242742Y-74287487D01*
X158667815Y-73899497D01*
X158903640Y-73396324D01*
X163224676Y-73396324D01*
X163509526Y-74085714D01*
X164036511Y-74613620D01*
X164725403Y-74899673D01*
X165471324Y-74900324D01*
X166160714Y-74615474D01*
X166688620Y-74088489D01*
X166974673Y-73399597D01*
X166975324Y-72653676D01*
X166690474Y-71964286D01*
X166163489Y-71436380D01*
X165474597Y-71150327D01*
X164728676Y-71149676D01*
X164039286Y-71434526D01*
X163511380Y-71961511D01*
X163225327Y-72650403D01*
X163224676Y-73396324D01*
X158903640Y-73396324D01*
X158912054Y-73378373D01*
X158793453Y-73150000D01*
X157605000Y-73150000D01*
X157355000Y-73150000D01*
X157335000Y-73150000D01*
X157335000Y-72900000D01*
X157355000Y-72900000D01*
X157355000Y-71712188D01*
X157605000Y-71712188D01*
X157605000Y-72900000D01*
X158793453Y-72900000D01*
X158912054Y-72671627D01*
X158667815Y-72150503D01*
X158242742Y-71762513D01*
X157833372Y-71592955D01*
X157605000Y-71712188D01*
X157355000Y-71712188D01*
X157126628Y-71592955D01*
X156717258Y-71762513D01*
X156403514Y-72048886D01*
X156383663Y-71943389D01*
X156246781Y-71730668D01*
X156037924Y-71587962D01*
X155790000Y-71537756D01*
X154090000Y-71537756D01*
X153858389Y-71581337D01*
X153645668Y-71718219D01*
X153502962Y-71927076D01*
X153452756Y-72175000D01*
X140891238Y-72175000D01*
X140742983Y-71953120D01*
X140264458Y-71633381D01*
X139700000Y-71521103D01*
X139135542Y-71633381D01*
X138657017Y-71953120D01*
X138430000Y-72292876D01*
X138202983Y-71953120D01*
X137724458Y-71633381D01*
X137160000Y-71521103D01*
X136595542Y-71633381D01*
X136117017Y-71953120D01*
X136078479Y-72010796D01*
X135999850Y-71820966D01*
X135824034Y-71645151D01*
X135594320Y-71550000D01*
X134901250Y-71550000D01*
X134745000Y-71706250D01*
X134495000Y-71706250D01*
X134338750Y-71550000D01*
X133645680Y-71550000D01*
X133415966Y-71645151D01*
X133240150Y-71820966D01*
X133145000Y-72050680D01*
X127356172Y-72050680D01*
X127320474Y-71964286D01*
X126793489Y-71436380D01*
X126104597Y-71150327D01*
X125358676Y-71149676D01*
X124669286Y-71434526D01*
X124141380Y-71961511D01*
X123855327Y-72650403D01*
X123854676Y-73396324D01*
X122595000Y-73396324D01*
X122595000Y-69890000D01*
X168235000Y-69890000D01*
X168235000Y-115530000D01*
X168235000Y-115530000D01*
G37*
X168235000Y-115530000D02*
X122595000Y-115530000D01*
X122595000Y-112766324D01*
X123854676Y-112766324D01*
X124139526Y-113455714D01*
X124666511Y-113983620D01*
X125355403Y-114269673D01*
X126101324Y-114270324D01*
X126790714Y-113985474D01*
X126829048Y-113947206D01*
X130654754Y-113947206D01*
X130871240Y-114471143D01*
X131271749Y-114872351D01*
X131795307Y-115089752D01*
X132362206Y-115090246D01*
X132886143Y-114873760D01*
X133287351Y-114473251D01*
X133504752Y-113949693D01*
X133505246Y-113382794D01*
X133288760Y-112858857D01*
X132888251Y-112457649D01*
X132364693Y-112240248D01*
X131797794Y-112239754D01*
X131273857Y-112456240D01*
X130872649Y-112856749D01*
X130655248Y-113380307D01*
X130654754Y-113947206D01*
X126829048Y-113947206D01*
X127318620Y-113458489D01*
X127604673Y-112769597D01*
X127605324Y-112023676D01*
X127320474Y-111334286D01*
X126793489Y-110806380D01*
X126104597Y-110520327D01*
X125358676Y-110519676D01*
X124669286Y-110804526D01*
X124141380Y-111331511D01*
X123855327Y-112020403D01*
X123854676Y-112766324D01*
X122595000Y-112766324D01*
X122595000Y-99580000D01*
X125277756Y-99580000D01*
X125277756Y-101080000D01*
X125321337Y-101311611D01*
X125458219Y-101524332D01*
X125667076Y-101667038D01*
X125915000Y-101717244D01*
X126815000Y-101717244D01*
X126904954Y-101700318D01*
X126942090Y-101887013D01*
X127104670Y-102130330D01*
X127347987Y-102292910D01*
X127635000Y-102350000D01*
X129864340Y-102350000D01*
X131549670Y-104035330D01*
X131792987Y-104197910D01*
X132003543Y-104239792D01*
X131897083Y-104775000D01*
X132000518Y-105295000D01*
X129890368Y-105295000D01*
X129665140Y-104957922D01*
X129316385Y-104724892D01*
X128905000Y-104643062D01*
X128493615Y-104724892D01*
X128270000Y-104874306D01*
X128046385Y-104724892D01*
X127635000Y-104643062D01*
X127223615Y-104724892D01*
X127154899Y-104770806D01*
X127062924Y-104707962D01*
X126815000Y-104657756D01*
X125915000Y-104657756D01*
X125683389Y-104701337D01*
X125470668Y-104838219D01*
X125327962Y-105047076D01*
X125277756Y-105295000D01*
X125277756Y-106795000D01*
X125321337Y-107026611D01*
X125458219Y-107239332D01*
X125622241Y-107351404D01*
X125672090Y-107602013D01*
X125834670Y-107845330D01*
X128374670Y-110385330D01*
X128617987Y-110547910D01*
X128905000Y-110605000D01*
X132142315Y-110605000D01*
X132314456Y-110862627D01*
X132776759Y-111171528D01*
X133322083Y-111280000D01*
X133377917Y-111280000D01*
X133923241Y-111171528D01*
X134385544Y-110862627D01*
X134694445Y-110400324D01*
X134802917Y-109855000D01*
X134796356Y-109822016D01*
X137899670Y-112925330D01*
X138142987Y-113087910D01*
X138430000Y-113145000D01*
X140890518Y-113145000D01*
X140787083Y-113665000D01*
X140895555Y-114210324D01*
X141204456Y-114672627D01*
X141666759Y-114981528D01*
X142212083Y-115090000D01*
X142267917Y-115090000D01*
X142813241Y-114981528D01*
X143275544Y-114672627D01*
X143584445Y-114210324D01*
X143692917Y-113665000D01*
X143589482Y-113145000D01*
X151192315Y-113145000D01*
X151364456Y-113402627D01*
X151826759Y-113711528D01*
X152372083Y-113820000D01*
X152427917Y-113820000D01*
X152973241Y-113711528D01*
X153435544Y-113402627D01*
X153744445Y-112940324D01*
X153852917Y-112395000D01*
X153746457Y-111859792D01*
X153957013Y-111817910D01*
X154200330Y-111655330D01*
X158573644Y-107282016D01*
X158567083Y-107315000D01*
X158675555Y-107860324D01*
X158984456Y-108322627D01*
X159377125Y-108585000D01*
X158984456Y-108847373D01*
X158675555Y-109309676D01*
X158567083Y-109855000D01*
X158675555Y-110400324D01*
X158984456Y-110862627D01*
X159377125Y-111125000D01*
X158984456Y-111387373D01*
X158675555Y-111849676D01*
X158567083Y-112395000D01*
X158675555Y-112940324D01*
X158984456Y-113402627D01*
X159446759Y-113711528D01*
X159992083Y-113820000D01*
X160047917Y-113820000D01*
X160593241Y-113711528D01*
X161055544Y-113402627D01*
X161364445Y-112940324D01*
X161399055Y-112766324D01*
X163224676Y-112766324D01*
X163509526Y-113455714D01*
X164036511Y-113983620D01*
X164725403Y-114269673D01*
X165471324Y-114270324D01*
X166160714Y-113985474D01*
X166688620Y-113458489D01*
X166974673Y-112769597D01*
X166975324Y-112023676D01*
X166690474Y-111334286D01*
X166163489Y-110806380D01*
X165474597Y-110520327D01*
X164728676Y-110519676D01*
X164039286Y-110804526D01*
X163511380Y-111331511D01*
X163225327Y-112020403D01*
X163224676Y-112766324D01*
X161399055Y-112766324D01*
X161472917Y-112395000D01*
X161364445Y-111849676D01*
X161055544Y-111387373D01*
X160662875Y-111125000D01*
X161055544Y-110862627D01*
X161364445Y-110400324D01*
X161472917Y-109855000D01*
X161364445Y-109309676D01*
X161055544Y-108847373D01*
X160662875Y-108585000D01*
X161055544Y-108322627D01*
X161364445Y-107860324D01*
X161472917Y-107315000D01*
X161364445Y-106769676D01*
X161055544Y-106307373D01*
X160662875Y-106045000D01*
X161055544Y-105782627D01*
X161364445Y-105320324D01*
X161472917Y-104775000D01*
X161364445Y-104229676D01*
X161055544Y-103767373D01*
X160662875Y-103505000D01*
X161055544Y-103242627D01*
X161364445Y-102780324D01*
X161472917Y-102235000D01*
X161364445Y-101689676D01*
X161055544Y-101227373D01*
X160662875Y-100965000D01*
X161055544Y-100702627D01*
X161364445Y-100240324D01*
X161472917Y-99695000D01*
X161364445Y-99149676D01*
X161055544Y-98687373D01*
X160662875Y-98425000D01*
X161055544Y-98162627D01*
X161227685Y-97905000D01*
X162598042Y-97905000D01*
X162621240Y-97961143D01*
X163021749Y-98362351D01*
X163545307Y-98579752D01*
X164112206Y-98580246D01*
X164636143Y-98363760D01*
X165037351Y-97963251D01*
X165254752Y-97439693D01*
X165255246Y-96872794D01*
X165038760Y-96348857D01*
X164638251Y-95947649D01*
X164551027Y-95911430D01*
X164579709Y-95899550D01*
X164654223Y-95656000D01*
X163830000Y-94831777D01*
X163005777Y-95656000D01*
X163080291Y-95899550D01*
X163110507Y-95910437D01*
X163023857Y-95946240D01*
X162622649Y-96346749D01*
X162598461Y-96405000D01*
X161227685Y-96405000D01*
X161055544Y-96147373D01*
X160638359Y-95868619D01*
X160868275Y-95760025D01*
X161241886Y-95348244D01*
X161402476Y-94960521D01*
X161282577Y-94740000D01*
X160145000Y-94740000D01*
X160145000Y-94760000D01*
X159895000Y-94760000D01*
X159895000Y-94740000D01*
X158757423Y-94740000D01*
X158637524Y-94960521D01*
X158798114Y-95348244D01*
X159171725Y-95760025D01*
X159401641Y-95868619D01*
X158984456Y-96147373D01*
X158675555Y-96609676D01*
X158567083Y-97155000D01*
X158675555Y-97700324D01*
X158984456Y-98162627D01*
X159377125Y-98425000D01*
X158984456Y-98687373D01*
X158675555Y-99149676D01*
X158567083Y-99695000D01*
X158675555Y-100240324D01*
X158984456Y-100702627D01*
X159377125Y-100965000D01*
X158984456Y-101227373D01*
X158675555Y-101689676D01*
X158567083Y-102235000D01*
X158675555Y-102780324D01*
X158984456Y-103242627D01*
X159377125Y-103505000D01*
X158984456Y-103767373D01*
X158675555Y-104229676D01*
X158567083Y-104775000D01*
X158632163Y-105102177D01*
X153846356Y-109887984D01*
X153852917Y-109855000D01*
X153744445Y-109309676D01*
X153435544Y-108847373D01*
X153042875Y-108585000D01*
X153435544Y-108322627D01*
X153744445Y-107860324D01*
X153852917Y-107315000D01*
X153744445Y-106769676D01*
X153435544Y-106307373D01*
X153042875Y-106045000D01*
X153435544Y-105782627D01*
X153744445Y-105320324D01*
X153852917Y-104775000D01*
X153744445Y-104229676D01*
X153435544Y-103767373D01*
X153042875Y-103505000D01*
X153435544Y-103242627D01*
X153744445Y-102780324D01*
X153852917Y-102235000D01*
X153744445Y-101689676D01*
X153435544Y-101227373D01*
X153042875Y-100965000D01*
X153435544Y-100702627D01*
X153744445Y-100240324D01*
X153852917Y-99695000D01*
X153744445Y-99149676D01*
X153435544Y-98687373D01*
X153018359Y-98408619D01*
X153248275Y-98300025D01*
X153621886Y-97888244D01*
X153782476Y-97500521D01*
X153662577Y-97280000D01*
X152525000Y-97280000D01*
X152525000Y-97300000D01*
X152275000Y-97300000D01*
X152275000Y-97280000D01*
X151137423Y-97280000D01*
X151017524Y-97500521D01*
X151178114Y-97888244D01*
X151551725Y-98300025D01*
X151781641Y-98408619D01*
X151364456Y-98687373D01*
X151192315Y-98945000D01*
X149593139Y-98945000D01*
X149424358Y-98874916D01*
X148976805Y-98874525D01*
X148563171Y-99045435D01*
X148246428Y-99361627D01*
X148074796Y-99774962D01*
X148074405Y-100222515D01*
X148245315Y-100636149D01*
X148558609Y-100949989D01*
X148246428Y-101261627D01*
X148074796Y-101674962D01*
X148074574Y-101928914D01*
X144301660Y-98156000D01*
X145900777Y-98156000D01*
X145975291Y-98399550D01*
X146508627Y-98591716D01*
X147074905Y-98565155D01*
X147474709Y-98399550D01*
X147549223Y-98156000D01*
X146725000Y-97331777D01*
X145900777Y-98156000D01*
X144301660Y-98156000D01*
X144040330Y-97894670D01*
X143797013Y-97732090D01*
X143510000Y-97675000D01*
X142319482Y-97675000D01*
X142422917Y-97155000D01*
X142379878Y-96938627D01*
X145288284Y-96938627D01*
X145314845Y-97504905D01*
X145480450Y-97904709D01*
X145724000Y-97979223D01*
X146548223Y-97155000D01*
X146901777Y-97155000D01*
X147726000Y-97979223D01*
X147969550Y-97904709D01*
X147980437Y-97874493D01*
X148016240Y-97961143D01*
X148416749Y-98362351D01*
X148940307Y-98579752D01*
X149507206Y-98580246D01*
X150031143Y-98363760D01*
X150432351Y-97963251D01*
X150649752Y-97439693D01*
X150650246Y-96872794D01*
X150433760Y-96348857D01*
X150033251Y-95947649D01*
X149509693Y-95730248D01*
X148942794Y-95729754D01*
X148418857Y-95946240D01*
X148017649Y-96346749D01*
X147981430Y-96433973D01*
X147969550Y-96405291D01*
X147726000Y-96330777D01*
X146901777Y-97155000D01*
X146548223Y-97155000D01*
X145724000Y-96330777D01*
X145480450Y-96405291D01*
X145288284Y-96938627D01*
X142379878Y-96938627D01*
X142314445Y-96609676D01*
X142009973Y-96154000D01*
X145900777Y-96154000D01*
X146725000Y-96978223D01*
X147549223Y-96154000D01*
X147474709Y-95910450D01*
X146941373Y-95718284D01*
X146375095Y-95744845D01*
X145975291Y-95910450D01*
X145900777Y-96154000D01*
X142009973Y-96154000D01*
X142005544Y-96147373D01*
X141612875Y-95885000D01*
X142005544Y-95622627D01*
X142314445Y-95160324D01*
X142422917Y-94615000D01*
X142314445Y-94069676D01*
X142005544Y-93607373D01*
X141612875Y-93345000D01*
X142005544Y-93082627D01*
X142314445Y-92620324D01*
X142422917Y-92075000D01*
X142314445Y-91529676D01*
X142005544Y-91067373D01*
X141543241Y-90758472D01*
X140997917Y-90650000D01*
X140942083Y-90650000D01*
X140396759Y-90758472D01*
X139934456Y-91067373D01*
X139625555Y-91529676D01*
X139517083Y-92075000D01*
X139625555Y-92620324D01*
X139934456Y-93082627D01*
X140327125Y-93345000D01*
X139934456Y-93607373D01*
X139625555Y-94069676D01*
X139517083Y-94615000D01*
X139625555Y-95160324D01*
X139934456Y-95622627D01*
X140327125Y-95885000D01*
X139934456Y-96147373D01*
X139625555Y-96609676D01*
X139517083Y-97155000D01*
X139523644Y-97187984D01*
X134787244Y-92451584D01*
X134787244Y-91275000D01*
X134743663Y-91043389D01*
X134606781Y-90830668D01*
X134397924Y-90687962D01*
X134150000Y-90637756D01*
X132550000Y-90637756D01*
X132318389Y-90681337D01*
X132105668Y-90818219D01*
X131962962Y-91027076D01*
X131912756Y-91275000D01*
X131912756Y-92875000D01*
X131956337Y-93106611D01*
X132093219Y-93319332D01*
X132302076Y-93462038D01*
X132478497Y-93497764D01*
X132314456Y-93607373D01*
X132005555Y-94069676D01*
X131897083Y-94615000D01*
X132005555Y-95160324D01*
X132314456Y-95622627D01*
X132707125Y-95885000D01*
X132314456Y-96147373D01*
X132005555Y-96609676D01*
X131897083Y-97155000D01*
X132005555Y-97700324D01*
X132314456Y-98162627D01*
X132731641Y-98441381D01*
X132501725Y-98549975D01*
X132128114Y-98961756D01*
X131967524Y-99349479D01*
X132087423Y-99570000D01*
X133225000Y-99570000D01*
X133225000Y-99550000D01*
X133475000Y-99550000D01*
X133475000Y-99570000D01*
X134612577Y-99570000D01*
X134732476Y-99349479D01*
X134571886Y-98961756D01*
X134198275Y-98549975D01*
X133968359Y-98441381D01*
X134385544Y-98162627D01*
X134694445Y-97700324D01*
X134802917Y-97155000D01*
X134796356Y-97122016D01*
X139169670Y-101495330D01*
X139412987Y-101657910D01*
X139662852Y-101707611D01*
X139587524Y-101889479D01*
X139707423Y-102110000D01*
X140845000Y-102110000D01*
X140845000Y-102090000D01*
X141095000Y-102090000D01*
X141095000Y-102110000D01*
X142232577Y-102110000D01*
X142352476Y-101889479D01*
X142280209Y-101715000D01*
X143199340Y-101715000D01*
X143219882Y-101735542D01*
X143219840Y-101783187D01*
X143360366Y-102123286D01*
X143620345Y-102383720D01*
X143960199Y-102524839D01*
X144328187Y-102525160D01*
X144668286Y-102384634D01*
X144928720Y-102124655D01*
X145069839Y-101784801D01*
X145070160Y-101416813D01*
X144929634Y-101076714D01*
X144669655Y-100816280D01*
X144329801Y-100675161D01*
X144280778Y-100675118D01*
X144040330Y-100434670D01*
X143797013Y-100272090D01*
X143510000Y-100215000D01*
X142280209Y-100215000D01*
X142352476Y-100040521D01*
X142232577Y-99820000D01*
X141095000Y-99820000D01*
X141095000Y-99840000D01*
X140845000Y-99840000D01*
X140845000Y-99820000D01*
X139707423Y-99820000D01*
X139675103Y-99879443D01*
X134737837Y-94942177D01*
X134802917Y-94615000D01*
X134796356Y-94582016D01*
X139169670Y-98955330D01*
X139412987Y-99117910D01*
X139662852Y-99167611D01*
X139587524Y-99349479D01*
X139707423Y-99570000D01*
X140845000Y-99570000D01*
X140845000Y-99550000D01*
X141095000Y-99550000D01*
X141095000Y-99570000D01*
X142232577Y-99570000D01*
X142352476Y-99349479D01*
X142280209Y-99175000D01*
X143199340Y-99175000D01*
X147424670Y-103400330D01*
X147667987Y-103562910D01*
X147955000Y-103620000D01*
X148365003Y-103620000D01*
X148017649Y-103966749D01*
X147981430Y-104053973D01*
X147969550Y-104025291D01*
X147726000Y-103950777D01*
X146901777Y-104775000D01*
X146915919Y-104789142D01*
X146739142Y-104965919D01*
X146725000Y-104951777D01*
X146710858Y-104965919D01*
X146534081Y-104789142D01*
X146548223Y-104775000D01*
X145724000Y-103950777D01*
X145480450Y-104025291D01*
X145288284Y-104558627D01*
X145302998Y-104872338D01*
X144204660Y-103774000D01*
X145900777Y-103774000D01*
X146725000Y-104598223D01*
X147549223Y-103774000D01*
X147474709Y-103530450D01*
X146941373Y-103338284D01*
X146375095Y-103364845D01*
X145975291Y-103530450D01*
X145900777Y-103774000D01*
X144204660Y-103774000D01*
X143405330Y-102974670D01*
X143162013Y-102812090D01*
X142875000Y-102755000D01*
X142280209Y-102755000D01*
X142352476Y-102580521D01*
X142232577Y-102360000D01*
X141095000Y-102360000D01*
X141095000Y-102380000D01*
X140845000Y-102380000D01*
X140845000Y-102360000D01*
X139707423Y-102360000D01*
X139587524Y-102580521D01*
X139659791Y-102755000D01*
X134660209Y-102755000D01*
X134732476Y-102580521D01*
X134612577Y-102360000D01*
X133475000Y-102360000D01*
X133475000Y-102380000D01*
X133225000Y-102380000D01*
X133225000Y-102360000D01*
X132087423Y-102360000D01*
X132055103Y-102419443D01*
X130705330Y-101069670D01*
X130462013Y-100907090D01*
X130175000Y-100850000D01*
X129949348Y-100850000D01*
X129980000Y-100755000D01*
X129980000Y-100455000D01*
X129030000Y-100455000D01*
X129030000Y-100475000D01*
X128780000Y-100475000D01*
X128780000Y-100455000D01*
X128760000Y-100455000D01*
X128760000Y-100205000D01*
X128780000Y-100205000D01*
X128780000Y-99119793D01*
X129030000Y-99119793D01*
X129030000Y-100205000D01*
X129980000Y-100205000D01*
X129980000Y-100040521D01*
X131967524Y-100040521D01*
X132128114Y-100428244D01*
X132501725Y-100840025D01*
X132766322Y-100965000D01*
X132501725Y-101089975D01*
X132128114Y-101501756D01*
X131967524Y-101889479D01*
X132087423Y-102110000D01*
X133225000Y-102110000D01*
X133225000Y-100971733D01*
X133212546Y-100965000D01*
X133225000Y-100958267D01*
X133225000Y-99820000D01*
X133475000Y-99820000D01*
X133475000Y-100958267D01*
X133487454Y-100965000D01*
X133475000Y-100971733D01*
X133475000Y-102110000D01*
X134612577Y-102110000D01*
X134732476Y-101889479D01*
X134571886Y-101501756D01*
X134198275Y-101089975D01*
X133933678Y-100965000D01*
X134198275Y-100840025D01*
X134571886Y-100428244D01*
X134732476Y-100040521D01*
X134612577Y-99820000D01*
X133475000Y-99820000D01*
X133225000Y-99820000D01*
X132087423Y-99820000D01*
X131967524Y-100040521D01*
X129980000Y-100040521D01*
X129980000Y-99905000D01*
X129850335Y-99503130D01*
X129576751Y-99181472D01*
X129195487Y-98994992D01*
X129030000Y-99119793D01*
X128780000Y-99119793D01*
X128614513Y-98994992D01*
X128273621Y-99161726D01*
X128046385Y-99009892D01*
X127635000Y-98928062D01*
X127223615Y-99009892D01*
X127154899Y-99055806D01*
X127062924Y-98992962D01*
X126815000Y-98942756D01*
X125915000Y-98942756D01*
X125683389Y-98986337D01*
X125470668Y-99123219D01*
X125327962Y-99332076D01*
X125277756Y-99580000D01*
X122595000Y-99580000D01*
X122595000Y-94288062D01*
X125290000Y-94288062D01*
X125290000Y-94941938D01*
X125371830Y-95353323D01*
X125604860Y-95702078D01*
X125953615Y-95935108D01*
X126365000Y-96016938D01*
X126776385Y-95935108D01*
X127000000Y-95785694D01*
X127223615Y-95935108D01*
X127635000Y-96016938D01*
X128046385Y-95935108D01*
X128115101Y-95889194D01*
X128207076Y-95952038D01*
X128455000Y-96002244D01*
X129355000Y-96002244D01*
X129586611Y-95958663D01*
X129799332Y-95821781D01*
X129942038Y-95612924D01*
X129992244Y-95365000D01*
X129992244Y-93865000D01*
X129948663Y-93633389D01*
X129811781Y-93420668D01*
X129602924Y-93277962D01*
X129355000Y-93227756D01*
X128455000Y-93227756D01*
X128223389Y-93271337D01*
X128115263Y-93340914D01*
X128046385Y-93294892D01*
X127635000Y-93213062D01*
X127223615Y-93294892D01*
X127000000Y-93444306D01*
X126776385Y-93294892D01*
X126365000Y-93213062D01*
X125953615Y-93294892D01*
X125604860Y-93527922D01*
X125371830Y-93876677D01*
X125290000Y-94288062D01*
X122595000Y-94288062D01*
X122595000Y-88618372D01*
X124297955Y-88618372D01*
X124467513Y-89027742D01*
X124855503Y-89452815D01*
X125376627Y-89697054D01*
X125605000Y-89578453D01*
X125605000Y-88390000D01*
X125855000Y-88390000D01*
X125855000Y-89578453D01*
X126083373Y-89697054D01*
X126604497Y-89452815D01*
X126992487Y-89027742D01*
X127162045Y-88618372D01*
X127042812Y-88390000D01*
X125855000Y-88390000D01*
X125605000Y-88390000D01*
X124417188Y-88390000D01*
X124297955Y-88618372D01*
X122595000Y-88618372D01*
X122595000Y-84875000D01*
X124242756Y-84875000D01*
X124242756Y-86575000D01*
X124286337Y-86806611D01*
X124423219Y-87019332D01*
X124632076Y-87162038D01*
X124755280Y-87186987D01*
X124467513Y-87502258D01*
X124297955Y-87911628D01*
X124417188Y-88140000D01*
X125605000Y-88140000D01*
X125605000Y-88120000D01*
X125855000Y-88120000D01*
X125855000Y-88140000D01*
X127042812Y-88140000D01*
X127162045Y-87911628D01*
X126992487Y-87502258D01*
X126706114Y-87188514D01*
X126811611Y-87168663D01*
X127024332Y-87031781D01*
X127167038Y-86822924D01*
X127217244Y-86575000D01*
X127217244Y-84875000D01*
X127173663Y-84643389D01*
X127036781Y-84430668D01*
X126827924Y-84287962D01*
X126580000Y-84237756D01*
X124880000Y-84237756D01*
X124648389Y-84281337D01*
X124435668Y-84418219D01*
X124292962Y-84627076D01*
X124242756Y-84875000D01*
X122595000Y-84875000D01*
X122595000Y-81915000D01*
X124226103Y-81915000D01*
X124338381Y-82479458D01*
X124658120Y-82957983D01*
X125136645Y-83277722D01*
X125701103Y-83390000D01*
X125758897Y-83390000D01*
X126323355Y-83277722D01*
X126801880Y-82957983D01*
X127121619Y-82479458D01*
X127233897Y-81915000D01*
X127121619Y-81350542D01*
X126801880Y-80872017D01*
X126741714Y-80831815D01*
X126811611Y-80818663D01*
X127024332Y-80681781D01*
X127167038Y-80472924D01*
X127217244Y-80225000D01*
X127217244Y-79375000D01*
X128087083Y-79375000D01*
X128195555Y-79920324D01*
X128504456Y-80382627D01*
X128897125Y-80645000D01*
X128504456Y-80907373D01*
X128195555Y-81369676D01*
X128087083Y-81915000D01*
X128195555Y-82460324D01*
X128504456Y-82922627D01*
X128897125Y-83185000D01*
X128504456Y-83447373D01*
X128195555Y-83909676D01*
X128087083Y-84455000D01*
X128195555Y-85000324D01*
X128504456Y-85462627D01*
X128897125Y-85725000D01*
X128504456Y-85987373D01*
X128195555Y-86449676D01*
X128087083Y-86995000D01*
X128195555Y-87540324D01*
X128504456Y-88002627D01*
X128966759Y-88311528D01*
X129512083Y-88420000D01*
X129567917Y-88420000D01*
X130113241Y-88311528D01*
X130575544Y-88002627D01*
X130884445Y-87540324D01*
X130992917Y-86995000D01*
X130884445Y-86449676D01*
X130575544Y-85987373D01*
X130182875Y-85725000D01*
X130575544Y-85462627D01*
X130884445Y-85000324D01*
X130992917Y-84455000D01*
X130884445Y-83909676D01*
X130575544Y-83447373D01*
X130182875Y-83185000D01*
X130575544Y-82922627D01*
X130884445Y-82460324D01*
X130992917Y-81915000D01*
X135707083Y-81915000D01*
X135815555Y-82460324D01*
X136124456Y-82922627D01*
X136517125Y-83185000D01*
X136124456Y-83447373D01*
X135815555Y-83909676D01*
X135707083Y-84455000D01*
X135815555Y-85000324D01*
X136124456Y-85462627D01*
X136287300Y-85571436D01*
X136128389Y-85601337D01*
X135915668Y-85738219D01*
X135772962Y-85947076D01*
X135722756Y-86195000D01*
X135722756Y-87795000D01*
X135766337Y-88026611D01*
X135903219Y-88239332D01*
X136112076Y-88382038D01*
X136360000Y-88432244D01*
X137960000Y-88432244D01*
X138191611Y-88388663D01*
X138404332Y-88251781D01*
X138547038Y-88042924D01*
X138597244Y-87795000D01*
X138597244Y-87745000D01*
X140912882Y-87745000D01*
X140815000Y-88237083D01*
X140815000Y-88292917D01*
X140923472Y-88838241D01*
X141232373Y-89300544D01*
X141694676Y-89609445D01*
X142240000Y-89717917D01*
X142785324Y-89609445D01*
X143247627Y-89300544D01*
X143556528Y-88838241D01*
X143601824Y-88610522D01*
X144667514Y-88610522D01*
X144904975Y-89113275D01*
X145316756Y-89486886D01*
X145704479Y-89647476D01*
X145925000Y-89527577D01*
X145925000Y-88390000D01*
X146175000Y-88390000D01*
X146175000Y-89527577D01*
X146395521Y-89647476D01*
X146783244Y-89486886D01*
X147195025Y-89113275D01*
X147432486Y-88610522D01*
X147313267Y-88390000D01*
X146175000Y-88390000D01*
X145925000Y-88390000D01*
X144786733Y-88390000D01*
X144667514Y-88610522D01*
X143601824Y-88610522D01*
X143665000Y-88292917D01*
X143665000Y-88237083D01*
X143567118Y-87745000D01*
X144749924Y-87745000D01*
X144667514Y-87919478D01*
X144786733Y-88140000D01*
X145925000Y-88140000D01*
X145925000Y-88120000D01*
X146175000Y-88120000D01*
X146175000Y-88140000D01*
X147313267Y-88140000D01*
X147432486Y-87919478D01*
X147350076Y-87745000D01*
X148439347Y-87745000D01*
X148300161Y-88080199D01*
X148299840Y-88448187D01*
X148440366Y-88788286D01*
X148700345Y-89048720D01*
X149040199Y-89189839D01*
X149408187Y-89190160D01*
X149748286Y-89049634D01*
X149782981Y-89015000D01*
X151050518Y-89015000D01*
X150947083Y-89535000D01*
X151055555Y-90080324D01*
X151364456Y-90542627D01*
X151757125Y-90805000D01*
X151364456Y-91067373D01*
X151055555Y-91529676D01*
X150947083Y-92075000D01*
X151055555Y-92620324D01*
X151364456Y-93082627D01*
X151757125Y-93345000D01*
X151364456Y-93607373D01*
X151055555Y-94069676D01*
X150947083Y-94615000D01*
X151055555Y-95160324D01*
X151364456Y-95622627D01*
X151781641Y-95901381D01*
X151551725Y-96009975D01*
X151178114Y-96421756D01*
X151017524Y-96809479D01*
X151137423Y-97030000D01*
X152275000Y-97030000D01*
X152275000Y-97010000D01*
X152525000Y-97010000D01*
X152525000Y-97030000D01*
X153662577Y-97030000D01*
X153782476Y-96809479D01*
X153621886Y-96421756D01*
X153248275Y-96009975D01*
X153018359Y-95901381D01*
X153435544Y-95622627D01*
X153744445Y-95160324D01*
X153852917Y-94615000D01*
X153744445Y-94069676D01*
X153435544Y-93607373D01*
X153042875Y-93345000D01*
X153435544Y-93082627D01*
X153744445Y-92620324D01*
X153852917Y-92075000D01*
X153744445Y-91529676D01*
X153435544Y-91067373D01*
X153042875Y-90805000D01*
X153435544Y-90542627D01*
X153744445Y-90080324D01*
X153852917Y-89535000D01*
X153846356Y-89502016D01*
X156949670Y-92605330D01*
X157192987Y-92767910D01*
X157480000Y-92825000D01*
X158812315Y-92825000D01*
X158984456Y-93082627D01*
X159401641Y-93361381D01*
X159171725Y-93469975D01*
X158798114Y-93881756D01*
X158637524Y-94269479D01*
X158757423Y-94490000D01*
X159895000Y-94490000D01*
X159895000Y-94470000D01*
X160145000Y-94470000D01*
X160145000Y-94490000D01*
X161282577Y-94490000D01*
X161310508Y-94438627D01*
X162393284Y-94438627D01*
X162419845Y-95004905D01*
X162585450Y-95404709D01*
X162829000Y-95479223D01*
X163653223Y-94655000D01*
X164006777Y-94655000D01*
X164831000Y-95479223D01*
X165074550Y-95404709D01*
X165266716Y-94871373D01*
X165240155Y-94305095D01*
X165074550Y-93905291D01*
X164831000Y-93830777D01*
X164006777Y-94655000D01*
X163653223Y-94655000D01*
X162829000Y-93830777D01*
X162585450Y-93905291D01*
X162393284Y-94438627D01*
X161310508Y-94438627D01*
X161402476Y-94269479D01*
X161241886Y-93881756D01*
X161035242Y-93654000D01*
X163005777Y-93654000D01*
X163830000Y-94478223D01*
X164654223Y-93654000D01*
X164579709Y-93410450D01*
X164046373Y-93218284D01*
X163480095Y-93244845D01*
X163080291Y-93410450D01*
X163005777Y-93654000D01*
X161035242Y-93654000D01*
X160868275Y-93469975D01*
X160638359Y-93361381D01*
X161055544Y-93082627D01*
X161364445Y-92620324D01*
X161472917Y-92075000D01*
X161364445Y-91529676D01*
X161055544Y-91067373D01*
X160662875Y-90805000D01*
X161055544Y-90542627D01*
X161364445Y-90080324D01*
X161472917Y-89535000D01*
X161364445Y-88989676D01*
X161055544Y-88527373D01*
X160662875Y-88265000D01*
X161055544Y-88002627D01*
X161364445Y-87540324D01*
X161472917Y-86995000D01*
X161460899Y-86934583D01*
X161637987Y-87052910D01*
X161925000Y-87110000D01*
X163832356Y-87110000D01*
X164028120Y-87402983D01*
X164506645Y-87722722D01*
X165071103Y-87835000D01*
X165128897Y-87835000D01*
X165693355Y-87722722D01*
X166171880Y-87402983D01*
X166491619Y-86924458D01*
X166603897Y-86360000D01*
X166491619Y-85795542D01*
X166171880Y-85317017D01*
X165832124Y-85090000D01*
X166171880Y-84862983D01*
X166491619Y-84384458D01*
X166603897Y-83820000D01*
X166491619Y-83255542D01*
X166171880Y-82777017D01*
X166111714Y-82736815D01*
X166181611Y-82723663D01*
X166394332Y-82586781D01*
X166537038Y-82377924D01*
X166587244Y-82130000D01*
X166587244Y-80430000D01*
X166543663Y-80198389D01*
X166406781Y-79985668D01*
X166197924Y-79842962D01*
X165950000Y-79792756D01*
X164250000Y-79792756D01*
X164018389Y-79836337D01*
X163805668Y-79973219D01*
X163662962Y-80182076D01*
X163612756Y-80430000D01*
X163612756Y-80530000D01*
X162235660Y-80530000D01*
X161820330Y-80114670D01*
X161577013Y-79952090D01*
X161366457Y-79910208D01*
X161472917Y-79375000D01*
X161364445Y-78829676D01*
X161055544Y-78367373D01*
X160593241Y-78058472D01*
X160047917Y-77950000D01*
X159992083Y-77950000D01*
X159446759Y-78058472D01*
X158984456Y-78367373D01*
X158675555Y-78829676D01*
X158567083Y-79375000D01*
X158670518Y-79895000D01*
X153980660Y-79895000D01*
X153837244Y-79751584D01*
X153837244Y-78575000D01*
X153793663Y-78343389D01*
X153656781Y-78130668D01*
X153447924Y-77987962D01*
X153200000Y-77937756D01*
X151600000Y-77937756D01*
X151368389Y-77981337D01*
X151155668Y-78118219D01*
X151012962Y-78327076D01*
X150962756Y-78575000D01*
X150962756Y-80175000D01*
X151006337Y-80406611D01*
X151143219Y-80619332D01*
X151352076Y-80762038D01*
X151528497Y-80797764D01*
X151364456Y-80907373D01*
X151055555Y-81369676D01*
X150947083Y-81915000D01*
X151055555Y-82460324D01*
X151364456Y-82922627D01*
X151757125Y-83185000D01*
X151364456Y-83447373D01*
X151055555Y-83909676D01*
X150947083Y-84455000D01*
X151055555Y-85000324D01*
X151364456Y-85462627D01*
X151757125Y-85725000D01*
X151364456Y-85987373D01*
X151192315Y-86245000D01*
X138597244Y-86245000D01*
X138597244Y-86195000D01*
X138553663Y-85963389D01*
X138474264Y-85840000D01*
X145491684Y-85840000D01*
X145525345Y-85873720D01*
X145865199Y-86014839D01*
X146233187Y-86015160D01*
X146573286Y-85874634D01*
X146833720Y-85614655D01*
X146974839Y-85274801D01*
X146975160Y-84906813D01*
X146834634Y-84566714D01*
X146574655Y-84306280D01*
X146234801Y-84165161D01*
X145866813Y-84164840D01*
X145526714Y-84305366D01*
X145492019Y-84340000D01*
X138590042Y-84340000D01*
X138504445Y-83909676D01*
X138195544Y-83447373D01*
X137802875Y-83185000D01*
X138195544Y-82922627D01*
X138367685Y-82665000D01*
X138430000Y-82665000D01*
X138717013Y-82607910D01*
X138960330Y-82445330D01*
X141899204Y-79506456D01*
X141955307Y-79529752D01*
X142522206Y-79530246D01*
X143046143Y-79313760D01*
X143447351Y-78913251D01*
X143471539Y-78855000D01*
X144818042Y-78855000D01*
X144841240Y-78911143D01*
X145241749Y-79312351D01*
X145765307Y-79529752D01*
X146332206Y-79530246D01*
X146856143Y-79313760D01*
X147257351Y-78913251D01*
X147474752Y-78389693D01*
X147475246Y-77822794D01*
X147258760Y-77298857D01*
X146858251Y-76897649D01*
X146334693Y-76680248D01*
X145767794Y-76679754D01*
X145243857Y-76896240D01*
X144842649Y-77296749D01*
X144818461Y-77355000D01*
X143471958Y-77355000D01*
X143448760Y-77298857D01*
X143048251Y-76897649D01*
X142524693Y-76680248D01*
X141957794Y-76679754D01*
X141433857Y-76896240D01*
X141032649Y-77296749D01*
X140815248Y-77820307D01*
X140814754Y-78387206D01*
X140838840Y-78445500D01*
X138268212Y-81016128D01*
X138195544Y-80907373D01*
X137778359Y-80628619D01*
X138008275Y-80520025D01*
X138381886Y-80108244D01*
X138542476Y-79720521D01*
X138422577Y-79500000D01*
X137285000Y-79500000D01*
X137285000Y-79520000D01*
X137035000Y-79520000D01*
X137035000Y-79500000D01*
X135897423Y-79500000D01*
X135777524Y-79720521D01*
X135938114Y-80108244D01*
X136311725Y-80520025D01*
X136541641Y-80628619D01*
X136124456Y-80907373D01*
X135815555Y-81369676D01*
X135707083Y-81915000D01*
X130992917Y-81915000D01*
X130884445Y-81369676D01*
X130575544Y-80907373D01*
X130182875Y-80645000D01*
X130575544Y-80382627D01*
X130884445Y-79920324D01*
X130992917Y-79375000D01*
X130924189Y-79029479D01*
X135777524Y-79029479D01*
X135897423Y-79250000D01*
X137035000Y-79250000D01*
X137035000Y-78111733D01*
X137285000Y-78111733D01*
X137285000Y-79250000D01*
X138422577Y-79250000D01*
X138542476Y-79029479D01*
X138381886Y-78641756D01*
X138008275Y-78229975D01*
X137505522Y-77992514D01*
X137285000Y-78111733D01*
X137035000Y-78111733D01*
X136814478Y-77992514D01*
X136311725Y-78229975D01*
X135938114Y-78641756D01*
X135777524Y-79029479D01*
X130924189Y-79029479D01*
X130884445Y-78829676D01*
X130575544Y-78367373D01*
X130113241Y-78058472D01*
X129567917Y-77950000D01*
X129512083Y-77950000D01*
X128966759Y-78058472D01*
X128504456Y-78367373D01*
X128195555Y-78829676D01*
X128087083Y-79375000D01*
X127217244Y-79375000D01*
X127217244Y-78525000D01*
X127173663Y-78293389D01*
X127036781Y-78080668D01*
X126827924Y-77937962D01*
X126580000Y-77887756D01*
X124880000Y-77887756D01*
X124648389Y-77931337D01*
X124435668Y-78068219D01*
X124292962Y-78277076D01*
X124242756Y-78525000D01*
X124242756Y-80225000D01*
X124286337Y-80456611D01*
X124423219Y-80669332D01*
X124632076Y-80812038D01*
X124720950Y-80830035D01*
X124658120Y-80872017D01*
X124338381Y-81350542D01*
X124226103Y-81915000D01*
X122595000Y-81915000D01*
X122595000Y-73396324D01*
X123854676Y-73396324D01*
X124139526Y-74085714D01*
X124666511Y-74613620D01*
X125355403Y-74899673D01*
X126101324Y-74900324D01*
X126790714Y-74615474D01*
X127318620Y-74088489D01*
X127604673Y-73399597D01*
X127604754Y-73306250D01*
X133145000Y-73306250D01*
X133145000Y-73999320D01*
X133240150Y-74229034D01*
X133415966Y-74404849D01*
X133645680Y-74500000D01*
X134338750Y-74500000D01*
X134495000Y-74343750D01*
X134495000Y-73150000D01*
X133301250Y-73150000D01*
X133145000Y-73306250D01*
X127604754Y-73306250D01*
X127605324Y-72653676D01*
X127356172Y-72050680D01*
X133145000Y-72050680D01*
X133145000Y-72743750D01*
X133301250Y-72900000D01*
X134495000Y-72900000D01*
X134495000Y-71706250D01*
X134745000Y-71706250D01*
X134745000Y-72900000D01*
X134765000Y-72900000D01*
X134765000Y-73150000D01*
X134745000Y-73150000D01*
X134745000Y-74343750D01*
X134901250Y-74500000D01*
X135594320Y-74500000D01*
X135824034Y-74404849D01*
X135999850Y-74229034D01*
X136078479Y-74039204D01*
X136117017Y-74096880D01*
X136595542Y-74416619D01*
X137160000Y-74528897D01*
X137724458Y-74416619D01*
X138202983Y-74096880D01*
X138430000Y-73757124D01*
X138657017Y-74096880D01*
X139135542Y-74416619D01*
X139700000Y-74528897D01*
X140264458Y-74416619D01*
X140742983Y-74096880D01*
X141062722Y-73618355D01*
X141175000Y-73053897D01*
X141175000Y-72996103D01*
X141062722Y-72431645D01*
X140891238Y-72175000D01*
X153452756Y-72175000D01*
X153452756Y-73875000D01*
X153496337Y-74106611D01*
X153633219Y-74319332D01*
X153842076Y-74462038D01*
X154090000Y-74512244D01*
X155790000Y-74512244D01*
X156021611Y-74468663D01*
X156234332Y-74331781D01*
X156377038Y-74122924D01*
X156401987Y-73999720D01*
X156717258Y-74287487D01*
X157126628Y-74457045D01*
X157355000Y-74337812D01*
X157355000Y-73150000D01*
X157605000Y-73150000D01*
X157605000Y-74337812D01*
X157833372Y-74457045D01*
X158242742Y-74287487D01*
X158667815Y-73899497D01*
X158903640Y-73396324D01*
X163224676Y-73396324D01*
X163509526Y-74085714D01*
X164036511Y-74613620D01*
X164725403Y-74899673D01*
X165471324Y-74900324D01*
X166160714Y-74615474D01*
X166688620Y-74088489D01*
X166974673Y-73399597D01*
X166975324Y-72653676D01*
X166690474Y-71964286D01*
X166163489Y-71436380D01*
X165474597Y-71150327D01*
X164728676Y-71149676D01*
X164039286Y-71434526D01*
X163511380Y-71961511D01*
X163225327Y-72650403D01*
X163224676Y-73396324D01*
X158903640Y-73396324D01*
X158912054Y-73378373D01*
X158793453Y-73150000D01*
X157605000Y-73150000D01*
X157355000Y-73150000D01*
X157335000Y-73150000D01*
X157335000Y-72900000D01*
X157355000Y-72900000D01*
X157355000Y-71712188D01*
X157605000Y-71712188D01*
X157605000Y-72900000D01*
X158793453Y-72900000D01*
X158912054Y-72671627D01*
X158667815Y-72150503D01*
X158242742Y-71762513D01*
X157833372Y-71592955D01*
X157605000Y-71712188D01*
X157355000Y-71712188D01*
X157126628Y-71592955D01*
X156717258Y-71762513D01*
X156403514Y-72048886D01*
X156383663Y-71943389D01*
X156246781Y-71730668D01*
X156037924Y-71587962D01*
X155790000Y-71537756D01*
X154090000Y-71537756D01*
X153858389Y-71581337D01*
X153645668Y-71718219D01*
X153502962Y-71927076D01*
X153452756Y-72175000D01*
X140891238Y-72175000D01*
X140742983Y-71953120D01*
X140264458Y-71633381D01*
X139700000Y-71521103D01*
X139135542Y-71633381D01*
X138657017Y-71953120D01*
X138430000Y-72292876D01*
X138202983Y-71953120D01*
X137724458Y-71633381D01*
X137160000Y-71521103D01*
X136595542Y-71633381D01*
X136117017Y-71953120D01*
X136078479Y-72010796D01*
X135999850Y-71820966D01*
X135824034Y-71645151D01*
X135594320Y-71550000D01*
X134901250Y-71550000D01*
X134745000Y-71706250D01*
X134495000Y-71706250D01*
X134338750Y-71550000D01*
X133645680Y-71550000D01*
X133415966Y-71645151D01*
X133240150Y-71820966D01*
X133145000Y-72050680D01*
X127356172Y-72050680D01*
X127320474Y-71964286D01*
X126793489Y-71436380D01*
X126104597Y-71150327D01*
X125358676Y-71149676D01*
X124669286Y-71434526D01*
X124141380Y-71961511D01*
X123855327Y-72650403D01*
X123854676Y-73396324D01*
X122595000Y-73396324D01*
X122595000Y-69890000D01*
X168235000Y-69890000D01*
X168235000Y-115530000D01*
G36*
X139517083Y-104775000D02*
X139625555Y-105320324D01*
X139934456Y-105782627D01*
X140327125Y-106045000D01*
X139934456Y-106307373D01*
X139625555Y-106769676D01*
X139517083Y-107315000D01*
X139625555Y-107860324D01*
X139934456Y-108322627D01*
X140351641Y-108601381D01*
X140121725Y-108709975D01*
X139748114Y-109121756D01*
X139587524Y-109509479D01*
X139707423Y-109730000D01*
X140845000Y-109730000D01*
X140845000Y-109710000D01*
X141095000Y-109710000D01*
X141095000Y-109730000D01*
X142232577Y-109730000D01*
X142352476Y-109509479D01*
X142191886Y-109121756D01*
X141818275Y-108709975D01*
X141588359Y-108601381D01*
X142005544Y-108322627D01*
X142314445Y-107860324D01*
X142422917Y-107315000D01*
X142314445Y-106769676D01*
X142005544Y-106307373D01*
X141612875Y-106045000D01*
X142005544Y-105782627D01*
X142314445Y-105320324D01*
X142422917Y-104775000D01*
X142319482Y-104255000D01*
X142564340Y-104255000D01*
X144884670Y-106575330D01*
X145127987Y-106737910D01*
X145415000Y-106795000D01*
X150819340Y-106795000D01*
X151012163Y-106987823D01*
X150947083Y-107315000D01*
X151055555Y-107860324D01*
X151364456Y-108322627D01*
X151757125Y-108585000D01*
X151364456Y-108847373D01*
X151055555Y-109309676D01*
X150947083Y-109855000D01*
X151050518Y-110375000D01*
X145338316Y-110375000D01*
X145304655Y-110341280D01*
X144964801Y-110200161D01*
X144596813Y-110199840D01*
X144256714Y-110340366D01*
X143996280Y-110600345D01*
X143855161Y-110940199D01*
X143854840Y-111308187D01*
X143994008Y-111645000D01*
X138740660Y-111645000D01*
X137296181Y-110200521D01*
X139587524Y-110200521D01*
X139748114Y-110588244D01*
X140121725Y-111000025D01*
X140624478Y-111237486D01*
X140845000Y-111118267D01*
X140845000Y-109980000D01*
X141095000Y-109980000D01*
X141095000Y-111118267D01*
X141315522Y-111237486D01*
X141818275Y-111000025D01*
X142191886Y-110588244D01*
X142352476Y-110200521D01*
X142232577Y-109980000D01*
X141095000Y-109980000D01*
X140845000Y-109980000D01*
X139707423Y-109980000D01*
X139587524Y-110200521D01*
X137296181Y-110200521D01*
X134737837Y-107642177D01*
X134802917Y-107315000D01*
X134696457Y-106779792D01*
X134907013Y-106737910D01*
X135150330Y-106575330D01*
X136025542Y-105700118D01*
X136073187Y-105700160D01*
X136413286Y-105559634D01*
X136673720Y-105299655D01*
X136814839Y-104959801D01*
X136815160Y-104591813D01*
X136675992Y-104255000D01*
X139620518Y-104255000D01*
X139517083Y-104775000D01*
X139517083Y-104775000D01*
G37*
X139517083Y-104775000D02*
X139625555Y-105320324D01*
X139934456Y-105782627D01*
X140327125Y-106045000D01*
X139934456Y-106307373D01*
X139625555Y-106769676D01*
X139517083Y-107315000D01*
X139625555Y-107860324D01*
X139934456Y-108322627D01*
X140351641Y-108601381D01*
X140121725Y-108709975D01*
X139748114Y-109121756D01*
X139587524Y-109509479D01*
X139707423Y-109730000D01*
X140845000Y-109730000D01*
X140845000Y-109710000D01*
X141095000Y-109710000D01*
X141095000Y-109730000D01*
X142232577Y-109730000D01*
X142352476Y-109509479D01*
X142191886Y-109121756D01*
X141818275Y-108709975D01*
X141588359Y-108601381D01*
X142005544Y-108322627D01*
X142314445Y-107860324D01*
X142422917Y-107315000D01*
X142314445Y-106769676D01*
X142005544Y-106307373D01*
X141612875Y-106045000D01*
X142005544Y-105782627D01*
X142314445Y-105320324D01*
X142422917Y-104775000D01*
X142319482Y-104255000D01*
X142564340Y-104255000D01*
X144884670Y-106575330D01*
X145127987Y-106737910D01*
X145415000Y-106795000D01*
X150819340Y-106795000D01*
X151012163Y-106987823D01*
X150947083Y-107315000D01*
X151055555Y-107860324D01*
X151364456Y-108322627D01*
X151757125Y-108585000D01*
X151364456Y-108847373D01*
X151055555Y-109309676D01*
X150947083Y-109855000D01*
X151050518Y-110375000D01*
X145338316Y-110375000D01*
X145304655Y-110341280D01*
X144964801Y-110200161D01*
X144596813Y-110199840D01*
X144256714Y-110340366D01*
X143996280Y-110600345D01*
X143855161Y-110940199D01*
X143854840Y-111308187D01*
X143994008Y-111645000D01*
X138740660Y-111645000D01*
X137296181Y-110200521D01*
X139587524Y-110200521D01*
X139748114Y-110588244D01*
X140121725Y-111000025D01*
X140624478Y-111237486D01*
X140845000Y-111118267D01*
X140845000Y-109980000D01*
X141095000Y-109980000D01*
X141095000Y-111118267D01*
X141315522Y-111237486D01*
X141818275Y-111000025D01*
X142191886Y-110588244D01*
X142352476Y-110200521D01*
X142232577Y-109980000D01*
X141095000Y-109980000D01*
X140845000Y-109980000D01*
X139707423Y-109980000D01*
X139587524Y-110200521D01*
X137296181Y-110200521D01*
X134737837Y-107642177D01*
X134802917Y-107315000D01*
X134696457Y-106779792D01*
X134907013Y-106737910D01*
X135150330Y-106575330D01*
X136025542Y-105700118D01*
X136073187Y-105700160D01*
X136413286Y-105559634D01*
X136673720Y-105299655D01*
X136814839Y-104959801D01*
X136815160Y-104591813D01*
X136675992Y-104255000D01*
X139620518Y-104255000D01*
X139517083Y-104775000D01*
M02*
