M48
; DRILL file {KiCad (6.0.10-0)} date Saturday, January 21, 2023 at 10:57:27 AM
; FORMAT={-:-/ absolute / metric / decimal}
; #@! TF.CreationDate,2023-01-21T10:57:27-08:00
; #@! TF.GenerationSoftware,Kicad,Pcbnew,(6.0.10-0)
; #@! TF.FileFunction,Plated,1,2,PTH
FMAT,2
METRIC
; #@! TA.AperFunction,Plated,PTH,ComponentDrill
T1C0.500
; #@! TA.AperFunction,Plated,PTH,ComponentDrill
T2C0.800
; #@! TA.AperFunction,Plated,PTH,ComponentDrill
T3C1.000
; #@! TA.AperFunction,Plated,PTH,ComponentDrill
T4C1.100
%
G90
G05
T1
X147.828Y-100.208
X147.828Y-102.108
T2
X130.81Y-76.962
X130.81Y-81.962
X132.842Y-101.346
X132.842Y-104.902
X133.604Y-81.026
X135.382Y-101.346
X136.144Y-81.026
X137.842Y-104.902
X138.684Y-81.026
X140.462Y-108.458
X140.462Y-110.998
X140.462Y-113.538
X141.732Y-81.026
X141.732Y-83.566
X141.772Y-99.568
X141.772Y-102.87
X144.272Y-99.568
X144.272Y-102.87
X145.288Y-83.566
X145.288Y-86.106
X145.288Y-107.442
X145.288Y-110.998
X147.828Y-107.442
X147.828Y-110.998
X148.082Y-89.702
X148.082Y-94.702
X151.384Y-79.502
X151.384Y-82.042
X151.384Y-84.582
X151.384Y-87.122
X151.384Y-89.662
X151.384Y-92.202
X151.384Y-94.742
X151.384Y-97.282
X151.384Y-99.822
X151.384Y-102.362
X151.384Y-104.902
X151.384Y-107.442
X151.384Y-109.982
X151.384Y-112.522
X152.654Y-75.946
X157.654Y-75.946
X159.004Y-79.502
X159.004Y-82.042
X159.004Y-84.582
X159.004Y-87.122
X159.004Y-89.662
X159.004Y-92.202
X159.004Y-94.742
X159.004Y-97.282
X159.004Y-99.822
X159.004Y-102.362
X159.004Y-104.902
X159.004Y-107.442
X159.004Y-109.982
X159.004Y-112.522
X162.306Y-94.528
X162.306Y-97.028
X162.306Y-99.822
X162.306Y-104.822
T3
X125.73Y-104.14
X125.73Y-106.68
X132.842Y-113.03
X133.858Y-72.39
X135.382Y-113.03
X135.89Y-87.964
X135.89Y-92.964
X136.398Y-72.39
X141.986Y-72.39
X144.526Y-72.39
X147.066Y-72.39
X152.654Y-72.39
X155.194Y-72.39
X157.734Y-72.39
T4
X125.73Y-96.774
X125.73Y-99.314
X132.842Y-108.458
X133.858Y-76.962
X135.382Y-108.458
X136.398Y-76.962
T0
M30
