M48
;DRILL file {KiCad 4.0.7} date Thursday, January 11, 2018 'PMt' 11:46:30 PM
;FORMAT={-:-/ absolute / metric / decimal}
FMAT,2
METRIC,TZ
T1C0.500
T2C0.800
T3C1.000
T4C1.100
T5C3.000
%
G90
G05
M71
T1
X148.463Y-100.081
X148.463Y-101.981
T2
X125.095Y-78.74
X125.095Y-81.28
X125.095Y-83.82
X125.095Y-86.36
X126.365Y-89.535
X131.365Y-89.535
X131.445Y-93.98
X131.445Y-96.48
X131.445Y-99.775
X131.445Y-104.775
X132.715Y-78.74
X132.715Y-81.28
X132.715Y-83.82
X132.715Y-86.36
X135.89Y-73.66
X135.89Y-76.835
X135.89Y-99.695
X135.89Y-102.235
X135.89Y-104.775
X138.43Y-73.66
X138.43Y-76.835
X141.605Y-80.645
X141.605Y-83.185
X141.605Y-85.725
X142.367Y-92.075
X142.367Y-107.315
X142.407Y-99.441
X142.407Y-102.616
X144.907Y-92.075
X144.907Y-99.441
X144.907Y-102.616
X144.907Y-107.315
X146.05Y-80.645
X146.05Y-85.645
X148.59Y-92.075
X148.59Y-97.075
X152.4Y-79.375
X152.4Y-81.915
X152.4Y-84.455
X152.4Y-86.995
X152.4Y-89.535
X152.4Y-92.075
X152.4Y-94.615
X152.4Y-97.155
X152.4Y-99.695
X152.4Y-102.235
X152.4Y-104.775
X152.4Y-107.315
X152.4Y-109.855
X152.4Y-112.395
X160.02Y-79.375
X160.02Y-81.915
X160.02Y-84.455
X160.02Y-86.995
X160.02Y-89.535
X160.02Y-92.075
X160.02Y-94.615
X160.02Y-97.155
X160.02Y-99.695
X160.02Y-102.235
X160.02Y-104.775
X160.02Y-107.315
X160.02Y-109.855
X160.02Y-112.395
X163.83Y-89.575
X163.83Y-92.075
X163.83Y-94.695
X163.83Y-99.695
T3
X125.095Y-93.98
X125.095Y-96.52
X133.35Y-113.03
X135.89Y-113.03
X143.51Y-72.39
X146.05Y-72.39
X153.67Y-72.39
X156.21Y-72.39
X158.75Y-72.39
X165.735Y-80.645
X165.735Y-83.185
X165.735Y-85.725
T4
X133.35Y-107.95
X135.89Y-107.95
X143.51Y-77.47
X146.05Y-77.47
T5
X125.73Y-73.025
X125.73Y-112.395
X165.1Y-73.025
X165.1Y-112.395
T0
M30
